<svg width="23" height="22" viewBox="0 0 23 22" fill="none" xmlns="http://www.w3.org/2000/svg">
<path d="M11.4999 1L2.3999 5.9V8H20.5999V5.9L11.4999 1Z" stroke="#0C4ADA" stroke-width="1.3" stroke-miterlimit="10" stroke-linecap="round" stroke-linejoin="round"/>
<path d="M6.5998 8H3.7998V15H6.5998V8Z" stroke="#0C4ADA" stroke-width="1.3" stroke-miterlimit="10" stroke-linecap="round" stroke-linejoin="round"/>
<path d="M17.1002 20.5998C19.8064 20.5998 22.0002 18.406 22.0002 15.6998C22.0002 12.9936 19.8064 10.7998 17.1002 10.7998C14.394 10.7998 12.2002 12.9936 12.2002 15.6998C12.2002 18.406 14.394 20.5998 17.1002 20.5998Z" stroke="#0C4ADA" stroke-width="1.3" stroke-miterlimit="10" stroke-linecap="round" stroke-linejoin="round"/>
<path d="M13.67 19.2001H1V17.1001H12.41" stroke="#0C4ADA" stroke-width="1.3" stroke-miterlimit="10" stroke-linecap="round" stroke-linejoin="round"/>
<path d="M12.4099 17.1H2.3999V15H12.2699" stroke="#0C4ADA" stroke-width="1.3" stroke-miterlimit="10" stroke-linecap="round" stroke-linejoin="round"/>
<path d="M16.3999 10.87V8H19.1999V11.29" stroke="#0C4ADA" stroke-width="1.3" stroke-miterlimit="10" stroke-linecap="round" stroke-linejoin="round"/>
<path d="M12.2701 15H10.1001V8H12.9001V13.18" stroke="#0C4ADA" stroke-width="1.3" stroke-miterlimit="10" stroke-linecap="round" stroke-linejoin="round"/>
<path d="M17.3182 14.6992L15.8806 13.2616C15.8533 13.2355 15.8211 13.2149 15.7858 13.2013C15.7158 13.1725 15.6372 13.1725 15.5672 13.2013C15.5319 13.2149 15.4997 13.2355 15.4724 13.2616L14.0348 14.6992C13.922 14.812 13.922 14.9948 14.0348 15.1075C14.1475 15.2203 14.3303 15.2203 14.443 15.1075L15.389 14.1587V16.341C15.389 16.4998 15.5177 16.6285 15.6765 16.6285C15.8353 16.6285 15.964 16.4998 15.964 16.341V14.1587L16.91 15.1075C16.964 15.162 17.0374 15.1926 17.1141 15.1926C17.1908 15.1926 17.2643 15.162 17.3182 15.1075C17.3727 15.0535 17.4033 14.98 17.4033 14.9034C17.4033 14.8267 17.3727 14.7532 17.3182 14.6992Z" fill="#0C4ADA" stroke="#0C4ADA" stroke-width="0.3" stroke-linecap="round"/>
<path d="M16.8351 16.5093L18.2727 17.9469C18.3 17.973 18.3323 17.9936 18.3676 18.0072C18.4376 18.036 18.5161 18.036 18.5861 18.0072C18.6214 17.9936 18.6536 17.973 18.681 17.9469L20.1186 16.5093C20.2313 16.3965 20.2313 16.2137 20.1186 16.101C20.0058 15.9882 19.823 15.9882 19.7103 16.101L18.7643 17.0498V14.8675C18.7643 14.7087 18.6356 14.58 18.4768 14.58C18.318 14.58 18.1893 14.7087 18.1893 14.8675V17.0498L17.2434 16.101C17.1894 16.0465 17.1159 16.0159 17.0392 16.0159C16.9625 16.0159 16.8891 16.0465 16.8351 16.101C16.7806 16.155 16.75 16.2284 16.75 16.3051C16.75 16.3818 16.7806 16.4553 16.8351 16.5093Z" fill="#0C4ADA" stroke="#0C4ADA" stroke-width="0.3" stroke-linecap="round"/>
</svg>
