<svg width="356" height="63" viewBox="0 0 356 63" fill="none" xmlns="http://www.w3.org/2000/svg">
<g clip-path="url(#clip0_247_80833)">
<path d="M0 48.2906V62.4003H47.34V52.6999H11.7168V36.7118L0 48.2906ZM0 0V12.6459L11.7168 24.2335V9.70045H46.0906V0H0Z" fill="#243F90"/>
<path d="M90.6371 14.78V38.8459C90.6371 43.4757 89.4503 47.0384 87.0676 49.4988C84.685 51.9592 81.4904 53.1938 77.4569 53.1938C73.8517 53.1938 71.0705 52.1414 69.1133 50.0367C67.1501 47.9291 66.1863 44.7456 66.1863 40.4509V14.78H54.9336V41.9589C54.9336 48.9256 56.7808 54.1756 60.4752 57.7089C64.1696 61.2422 69.2263 63.0059 75.6454 63C78.6495 63.0153 81.6242 62.4147 84.3816 61.2363C87.0059 60.1399 89.3278 58.4409 91.1547 56.2803V62.3386H101.863V14.7183L90.6371 14.78Z" fill="#243F90"/>
<path d="M123.825 21.7467V14.78H113.116V62.4004H124.378V39.2957C124.378 34.5395 125.615 30.8974 128.09 28.3694C130.553 25.865 133.98 24.5951 138.361 24.5951C139.239 24.6084 140.114 24.6969 140.976 24.8597V14.2773C132.793 14.2773 127.108 16.7818 123.842 21.782" fill="#243F90"/>
<path d="M178.393 49.384C175.642 52.0195 171.962 53.4934 168.131 53.4934C164.3 53.4934 160.619 52.0195 157.868 49.384C155.191 46.6502 153.853 43.061 153.853 38.6077C153.853 34.1543 155.2 30.5475 157.868 27.8225C160.622 25.1931 164.302 23.7235 168.131 23.7235C171.96 23.7235 175.639 25.1931 178.393 27.8225C181.106 30.5445 182.459 34.1396 182.453 38.6077C182.447 43.0757 181.094 46.6679 178.393 49.384ZM190.511 26.0235C188.335 22.3547 185.164 19.361 181.356 17.3813C177.263 15.3292 172.738 14.2598 168.149 14.2598C163.559 14.2598 159.034 15.3292 154.942 17.3813C151.14 19.3709 147.971 22.3623 145.786 26.0235C143.557 29.8466 142.422 34.1963 142.502 38.6077C142.427 43.024 143.562 47.3782 145.786 51.2094C147.949 54.8993 151.123 57.9103 154.942 59.8957C159.034 61.9478 163.559 63.0173 168.149 63.0173C172.738 63.0173 177.263 61.9478 181.356 59.8957C185.182 57.9202 188.358 54.9068 190.511 51.2094C192.748 47.3822 193.892 43.0269 193.822 38.6077C193.897 34.1935 192.752 29.8427 190.511 26.0235Z" fill="#243F90"/>
<path d="M242.964 19.5241C239.299 15.9967 234.433 14.233 228.365 14.233C225.091 14.1827 221.839 14.7638 218.79 15.9438C216.064 16.9977 213.649 18.7109 211.767 20.9263V14.7533H201.059V62.3737H212.329V38.3077C212.329 33.6868 213.534 30.1241 215.943 27.6637C218.353 25.2033 221.619 23.9599 225.759 23.9599C229.409 23.9599 232.238 25.0269 234.228 27.1258C236.218 29.2246 237.208 32.364 237.208 36.5352V62.3737H248.479V35.1066C248.479 28.2193 246.641 23.0075 242.973 19.5241" fill="#243F90"/>
<path d="M13.4395 25.9268L18.0441 30.4772L12.9844 35.4685H42.2093V25.9268H13.4395Z" fill="#00B7B0"/>
<path d="M304.538 33.8544C304.085 31.0929 303.161 28.4273 301.807 25.9706C299.819 22.3318 296.815 19.3349 293.151 17.3372C289.305 15.2401 284.97 14.173 280.578 14.2419C276.112 14.1804 271.705 15.2554 267.781 17.3637C264.043 19.3854 260.952 22.4003 258.857 26.0676C256.696 29.8911 255.594 34.2108 255.663 38.59C255.587 43.0077 256.725 47.363 258.956 51.1918C261.154 54.9194 264.4 57.9367 268.299 59.8781C272.626 62.0297 277.421 63.1015 282.264 62.9999C286.082 63.0576 289.876 62.3992 293.445 61.0598C294.415 60.6735 295.357 60.2227 296.265 59.7105L288.894 52.5851C286.853 53.2469 284.716 53.5746 282.568 53.5552C278.856 53.6786 275.206 52.6011 272.172 50.4863C269.579 48.649 267.772 45.9232 267.103 42.8406C266.452 39.494 266.531 36.0485 267.335 32.7345C268.038 30.2487 269.466 28.0222 271.44 26.3322C274 24.2054 277.261 23.0819 280.604 23.1751C283.965 23.0605 287.246 24.2002 289.796 26.3675C292.042 28.3078 293.547 30.9502 294.061 33.8544C294.124 34.1543 294.177 34.4453 294.222 34.7363H271.279L278.927 42.1263H304.752C304.868 40.7065 304.921 39.613 304.921 38.8281C304.924 37.1571 304.795 35.4883 304.538 33.8368" fill="#243F90"/>
<path d="M333.986 53.608C333.207 53.7602 332.415 53.8341 331.621 53.8285C330.712 53.8923 329.8 53.765 328.945 53.4549C328.09 53.1448 327.311 52.659 326.659 52.0295C325.426 50.5465 324.813 48.6535 324.946 46.7384V24.0481H337.011L327.793 15.1325H324.946V4.27686H313.675V15.1325H305.733V24.0481H313.675V46.9765C313.675 52.2147 315.118 56.1948 318.003 58.9168C320.889 61.6388 324.976 63.0057 330.265 63.0175C332.292 63.0307 334.311 62.7606 336.261 62.215C337.869 61.7942 339.382 61.0793 340.723 60.1073L333.986 53.608Z" fill="#243F90"/>
<path d="M353.252 52.8321C354.081 53.2903 354.774 53.9564 355.26 54.7633C355.75 55.5861 356.006 56.5246 356 57.4795C356.012 58.4657 355.756 59.4369 355.26 60.2926C354.785 61.1238 354.091 61.8124 353.252 62.2856C352.386 62.7665 351.407 63.0129 350.414 62.9999C349.433 63.0096 348.466 62.7632 347.612 62.2856C346.773 61.8124 346.079 61.1238 345.604 60.2926C345.108 59.4369 344.852 58.4657 344.864 57.4795C344.858 56.5246 345.114 55.5861 345.604 54.7633C346.09 53.9564 346.783 53.2903 347.612 52.8321C348.469 52.3641 349.435 52.124 350.414 52.1354C351.405 52.1207 352.383 52.3608 353.252 52.8321ZM352.592 61.2185C353.239 60.8496 353.775 60.3169 354.144 59.6753C354.531 59.0073 354.728 58.2488 354.715 57.4795C354.722 56.7471 354.524 56.027 354.144 55.3983C353.768 54.7733 353.233 54.2565 352.592 53.8991C351.929 53.5256 351.177 53.3338 350.414 53.3435C349.671 53.3407 348.94 53.5286 348.292 53.8887C347.645 54.2489 347.103 54.7691 346.72 55.3983C346.34 56.027 346.142 56.7471 346.149 57.4795C346.139 58.2463 346.329 59.0026 346.702 59.6753C347.066 60.3207 347.604 60.8546 348.255 61.2185C348.916 61.5888 349.663 61.7834 350.423 61.7834C351.183 61.7834 351.93 61.5888 352.592 61.2185ZM351.53 57.841C351.506 57.8613 351.488 57.8877 351.479 57.9173C351.469 57.9469 351.468 57.9785 351.476 58.0086L352.172 59.7194C352.182 59.7629 352.182 59.8082 352.172 59.8517C352.172 59.9839 352.092 60.0457 351.949 60.0457H351.414C351.341 60.0527 351.269 60.0345 351.208 59.9942C351.148 59.954 351.104 59.8942 351.083 59.8252L350.441 58.0615C350.433 58.0375 350.418 58.0167 350.397 58.0024C350.376 57.988 350.35 57.9809 350.325 57.9821H349.995C349.914 57.9821 349.879 57.9821 349.879 58.0879V59.7458C349.885 59.7831 349.882 59.8213 349.87 59.8573C349.859 59.8932 349.838 59.9259 349.811 59.9526C349.784 59.9793 349.751 59.9993 349.715 60.0109C349.678 60.0224 349.64 60.0253 349.602 60.0192H349.156C349.118 60.0253 349.08 60.0224 349.043 60.0109C349.007 59.9993 348.974 59.9793 348.947 59.9526C348.92 59.9259 348.899 59.8932 348.888 59.8573C348.876 59.8213 348.873 59.7831 348.879 59.7458V55.3365C348.875 55.2996 348.879 55.2622 348.892 55.2271C348.904 55.192 348.924 55.1602 348.951 55.1339C348.977 55.1076 349.01 55.0876 349.045 55.0754C349.081 55.0631 349.119 55.0589 349.156 55.0632H350.718C350.92 55.0549 351.121 55.0891 351.309 55.1636C351.497 55.2381 351.666 55.3512 351.806 55.4953C351.946 55.6394 352.055 55.8096 352.127 55.9959C352.199 56.1821 352.232 56.3807 352.226 56.58C352.248 56.84 352.19 57.1007 352.06 57.3274C351.929 57.5542 351.732 57.7364 351.494 57.8498L351.53 57.841ZM349.879 56.0332V57.162C349.879 57.2325 349.879 57.2678 349.995 57.2678H350.575C350.66 57.2719 350.746 57.2583 350.826 57.228C350.906 57.1976 350.978 57.1511 351.039 57.0914C351.1 57.0263 351.147 56.9498 351.177 56.8666C351.208 56.7833 351.221 56.6949 351.217 56.6064C351.231 56.4248 351.173 56.245 351.057 56.1038C350.994 56.0407 350.919 55.9915 350.836 55.9596C350.753 55.9276 350.664 55.9137 350.575 55.9186H349.995C349.914 55.9186 349.879 55.9186 349.879 56.0332Z" fill="#243F90"/>
</g>
<defs>
<clipPath id="clip0_247_80833">
<rect width="356" height="63" fill="white"/>
</clipPath>
</defs>
</svg>
