<svg width="25" height="24" viewBox="0 0 25 24" fill="none" xmlns="http://www.w3.org/2000/svg">
<path fill-rule="evenodd" clip-rule="evenodd" d="M12.5 2.95433C7.60535 2.95433 3.63743 6.92225 3.63743 11.8169C3.63743 16.7116 7.60535 20.6795 12.5 20.6795C17.3947 20.6795 21.3626 16.7116 21.3626 11.8169C21.3626 6.92225 17.3947 2.95433 12.5 2.95433ZM1.66797 11.8169C1.66797 5.83454 6.51765 0.984863 12.5 0.984863C18.4824 0.984863 23.3321 5.83454 23.3321 11.8169C23.3321 17.7993 18.4824 22.649 12.5 22.649C6.51765 22.649 1.66797 17.7993 1.66797 11.8169Z" fill="#A2A2A2"/>
<path fill-rule="evenodd" clip-rule="evenodd" d="M12.4999 4.92383C13.0437 4.92383 13.4846 5.36471 13.4846 5.90856V11.2084L16.8792 12.9057C17.3656 13.1489 17.5628 13.7404 17.3196 14.2268C17.0764 14.7132 16.4849 14.9104 15.9984 14.6672L12.0595 12.6977C11.7259 12.5309 11.5151 12.1899 11.5151 11.817V5.90856C11.5151 5.36471 11.956 4.92383 12.4999 4.92383Z" fill="#A2A2A2"/>
</svg>
