<svg width="25" height="24" viewBox="0 0 25 24" fill="none" xmlns="http://www.w3.org/2000/svg">
<path d="M12.5 1.96875C11.207 1.96875 9.92672 2.22342 8.73217 2.71822C7.53762 3.21302 6.45222 3.93826 5.53795 4.85253C3.6915 6.69898 2.65417 9.20331 2.65417 11.8146C2.65417 14.4259 3.6915 16.9302 5.53795 18.7766C6.45222 19.6909 7.53762 20.4161 8.73217 20.9109C9.92672 21.4057 11.207 21.6604 12.5 21.6604C15.1113 21.6604 17.6156 20.6231 19.4621 18.7766C21.3085 16.9302 22.3458 14.4259 22.3458 11.8146C22.3458 10.5216 22.0912 9.2413 21.5964 8.04675C21.1016 6.85219 20.3763 5.7668 19.4621 4.85253C18.5478 3.93826 17.4624 3.21302 16.2678 2.71822C15.0733 2.22342 13.793 1.96875 12.5 1.96875ZM16.6353 15.9498L11.5154 12.7992V6.89167H12.9923V12.0115L17.4229 14.6699L16.6353 15.9498Z" fill="#0C4F9F"/>
</svg>
