<svg width="25" height="25" viewBox="0 0 25 25" fill="none" xmlns="http://www.w3.org/2000/svg">
<path d="M15.2904 2.39236L20.2464 12.2478C20.3576 12.4688 20.3105 12.7365 20.1309 12.9067L9.71282 22.761C9.30051 23.1511 8.6361 22.7513 8.78769 22.2043L14.2497 2.49434C14.3866 2.00044 15.06 1.9343 15.2904 2.39236Z" fill="url(#paint0_linear_4029_11521)"/>
<path opacity="0.05" d="M13.4007 5.55713L9.42627 19.8988L16.4211 13.2853C16.7653 12.9597 16.857 12.4368 16.6445 12.0144L13.4007 5.55713Z" fill="black"/>
<path opacity="0.07" d="M13.297 5.93115L9.56104 19.4129L16.2423 13.0957C16.5037 12.8483 16.5735 12.452 16.4121 12.1306L13.297 5.93115Z" fill="black"/>
<path d="M11.2274 2.3923L16.1789 12.2475C16.2899 12.4683 16.243 12.736 16.0633 12.9064L5.64092 22.7605C5.22842 23.1506 4.56435 22.7506 4.71592 22.2032L10.1867 2.49386C10.3237 2.00011 10.9972 1.93448 11.2274 2.3923Z" fill="url(#paint1_linear_4029_11521)"/>
<defs>
<linearGradient id="paint0_linear_4029_11521" x1="3.61836" y1="3.71235" x2="9.34167" y2="9.67028" gradientUnits="userSpaceOnUse">
<stop stop-color="#21AD64"/>
<stop offset="1" stop-color="#088242"/>
</linearGradient>
<linearGradient id="paint1_linear_4029_11521" x1="-2.06533" y1="2.44178" x2="15.8425" y2="20.3496" gradientUnits="userSpaceOnUse">
<stop stop-color="#FED100"/>
<stop offset="1" stop-color="#E36001"/>
</linearGradient>
</defs>
</svg>
