<svg width="23" height="23" viewBox="0 0 23 23" fill="none" xmlns="http://www.w3.org/2000/svg">
<path d="M11.7241 5.24805C12.7696 5.24805 13.7923 5.55783 14.6616 6.13867C15.5309 6.71953 16.2078 7.54579 16.6079 8.51172C17.008 9.47751 17.1135 10.5401 16.9097 11.5654C16.7057 12.5909 16.2017 13.5332 15.4624 14.2725C14.7231 15.0118 13.7808 15.5158 12.7554 15.7197C11.7301 15.9236 10.6675 15.818 9.70166 15.418C8.73573 15.0179 7.90947 14.341 7.32861 13.4717C6.74777 12.6024 6.43799 11.5797 6.43799 10.5342C6.43964 9.13277 6.99684 7.7888 7.98779 6.79785C8.97874 5.8069 10.3227 5.2497 11.7241 5.24805ZM11.7241 6.11719C10.5531 6.11863 9.43013 6.58403 8.60205 7.41211C7.77398 8.24018 7.30857 9.36312 7.30713 10.5342C7.30713 11.4079 7.56586 12.2628 8.05127 12.9893C8.53665 13.7156 9.22662 14.2819 10.0337 14.6162C10.8409 14.9506 11.7295 15.0376 12.5864 14.8672C13.4433 14.6967 14.2304 14.276 14.8481 13.6582C15.4659 13.0404 15.8867 12.2534 16.0571 11.3965C16.2276 10.5396 16.1405 9.65095 15.8062 8.84375C15.4718 8.03668 14.9055 7.34671 14.1792 6.86133C13.4527 6.37592 12.5978 6.11719 11.7241 6.11719Z" fill="#0C4ADA" stroke="#0C4ADA" stroke-width="0.15"/>
<path d="M13.3584 7.56152C13.4736 7.56152 13.5846 7.60704 13.666 7.68848C13.7475 7.76994 13.793 7.88089 13.793 7.99609C13.793 8.1113 13.7475 8.22225 13.666 8.30371C13.5846 8.38515 13.4736 8.43066 13.3584 8.43066H12.5791C12.6839 8.60738 12.7603 8.79881 12.8076 8.99902H13.3584C13.4734 8.99905 13.5836 9.04481 13.665 9.12598C13.7465 9.20744 13.793 9.31839 13.793 9.43359C13.793 9.5488 13.7465 9.65975 13.665 9.74121C13.5836 9.82238 13.4734 9.86813 13.3584 9.86816H12.8076C12.6226 10.5924 11.971 11.186 11.1748 11.2529L12.7256 12.7168H12.7266C12.8098 12.796 12.8583 12.9056 12.8613 13.0205C12.8642 13.1353 12.8213 13.2468 12.7422 13.3301C12.663 13.4135 12.5534 13.4619 12.4385 13.4648C12.3236 13.4677 12.2122 13.4248 12.1289 13.3457L9.79199 11.1377C9.72876 11.0784 9.68486 11.0016 9.66602 10.917C9.64723 10.8323 9.6543 10.7436 9.68652 10.6631C9.71882 10.5825 9.77457 10.5132 9.84668 10.4648C9.91855 10.4167 10.0034 10.391 10.0898 10.3916H11.0264C11.2237 10.3943 11.4175 10.3355 11.5801 10.2236C11.7118 10.1329 11.816 10.0098 11.8877 9.86816H10.0898C9.97492 9.86806 9.86455 9.8224 9.7832 9.74121C9.70174 9.65975 9.65625 9.5488 9.65625 9.43359C9.65625 9.31839 9.70174 9.20744 9.7832 9.12598C9.86455 9.04479 9.97492 8.99912 10.0898 8.99902H11.8887C11.7282 8.671 11.4004 8.43066 11.0254 8.43066H10.0898C9.97492 8.43056 9.86455 8.3849 9.7832 8.30371C9.70174 8.22225 9.65625 8.1113 9.65625 7.99609C9.65625 7.88089 9.70174 7.76994 9.7832 7.68848C9.86455 7.60729 9.97492 7.56162 10.0898 7.56152H13.3584Z" fill="#0C4ADA" stroke="#0C4ADA" stroke-width="0.15"/>
<path d="M5.24219 15.1812C5.35721 15.1844 5.46582 15.2333 5.54492 15.3169C5.62409 15.4006 5.66723 15.5123 5.66406 15.6274L5.65039 16.1021C6.29807 15.7843 7.0099 15.6175 7.73242 15.6167C8.49673 15.6159 9.24997 15.7996 9.92773 16.1528L10.1924 16.2896C10.5482 16.4733 10.9406 16.5749 11.3408 16.5864L13.9395 16.6587L14.1709 16.6753C14.4017 16.704 14.6277 16.7666 14.8408 16.8618C15.1245 16.9886 15.3797 17.1709 15.5928 17.397C15.7197 17.5311 15.8303 17.6807 15.9229 17.8403L18.6738 16.5415L18.8398 16.4683C19.2329 16.3159 19.6676 16.2985 20.0742 16.4224C20.5389 16.564 20.9314 16.8791 21.1699 17.3022C21.2243 17.3985 21.2402 17.5122 21.2139 17.6196C21.1874 17.7271 21.1203 17.8212 21.0273 17.8813L14.6172 22.0259L14.6182 22.0269C14.6009 22.0381 14.5822 22.0485 14.5635 22.0571C13.9253 22.35 13.2314 22.5009 12.5293 22.5005C12.1977 22.5007 11.8666 22.4668 11.542 22.3989L11.5137 22.3921L7.09277 21.1509C6.79422 21.0665 6.47439 21.1016 6.20117 21.2485L5.49805 21.6245L5.49219 21.8804C5.48908 21.9934 5.4414 22.1013 5.36035 22.1802C5.27935 22.2588 5.17054 22.3032 5.05762 22.3032H5.0459L2.19629 22.2241C2.08114 22.221 1.97177 22.172 1.89258 22.0884C1.81364 22.0049 1.77042 21.8937 1.77344 21.7788L1.94629 15.5249C1.94787 15.4679 1.96011 15.411 1.9834 15.3589C2.00668 15.3069 2.04068 15.2603 2.08203 15.2212L2.14941 15.1685C2.22139 15.1236 2.30559 15.1002 2.3916 15.1021L5.24219 15.1812ZM7.53027 16.4907C6.85033 16.527 6.19227 16.7424 5.62207 17.1138L5.52637 20.6245L5.79102 20.4829C6.26213 20.2297 6.81341 20.1695 7.32812 20.3149L11.7363 21.5513C12.5564 21.7179 13.4075 21.6235 14.1709 21.2808L20.1396 17.4204C20.0008 17.3149 19.8388 17.2436 19.665 17.2192C19.4583 17.1903 19.2477 17.2256 19.0615 17.3198L19.0518 17.3247H19.0508L16.2119 18.6655C16.2332 18.8059 16.2451 18.9474 16.2412 19.0894C16.2381 19.2024 16.1913 19.3103 16.1104 19.3892C16.0293 19.468 15.9197 19.5122 15.8066 19.5122H15.7949L11.5225 19.394C11.4074 19.3908 11.2988 19.3419 11.2197 19.2583C11.1405 19.1746 11.0974 19.0629 11.1006 18.9478C11.1038 18.8327 11.1527 18.7232 11.2363 18.644C11.32 18.565 11.4318 18.5227 11.5469 18.5259L15.3193 18.6294C15.2388 18.3359 15.0713 18.0729 14.8369 17.8765C14.578 17.6595 14.2537 17.5364 13.916 17.5269L11.3174 17.4546H11.3164C10.7855 17.4392 10.265 17.3047 9.79297 17.061H9.79199L9.52832 16.9243C8.91335 16.6039 8.22275 16.4538 7.53027 16.4907ZM2.6543 21.3677L4.63574 21.4214L4.7832 16.0366L2.80176 15.9829L2.6543 21.3677Z" fill="#0C4ADA" stroke="#0C4ADA" stroke-width="0.15"/>
<path d="M9.0293 2.23047C9.16439 2.23047 9.29412 2.28436 9.38965 2.37988C9.48517 2.47541 9.53906 2.60514 9.53906 2.74023V4.35742C9.53906 4.49252 9.48517 4.62225 9.38965 4.71777C9.29412 4.8133 9.16439 4.86719 9.0293 4.86719C8.8942 4.86719 8.76447 4.8133 8.66895 4.71777C8.57342 4.62225 8.51953 4.49252 8.51953 4.35742V2.74023C8.51953 2.60514 8.57342 2.47541 8.66895 2.37988C8.76447 2.28436 8.8942 2.23047 9.0293 2.23047ZM11.7246 0.433594C11.8597 0.433594 11.9894 0.487481 12.085 0.583008C12.1805 0.678534 12.2344 0.808265 12.2344 0.943359V4.35742C12.2344 4.49252 12.1805 4.62225 12.085 4.71777C11.9894 4.8133 11.8597 4.86719 11.7246 4.86719C11.5895 4.86719 11.4598 4.8133 11.3643 4.71777C11.2687 4.62225 11.2148 4.49252 11.2148 4.35742V0.943359C11.2148 0.808265 11.2687 0.678534 11.3643 0.583008C11.4598 0.487481 11.5895 0.433594 11.7246 0.433594ZM14.4199 2.23047C14.555 2.23047 14.6847 2.28436 14.7803 2.37988C14.8758 2.47541 14.9297 2.60514 14.9297 2.74023V4.35742C14.9297 4.49252 14.8758 4.62225 14.7803 4.71777C14.6847 4.8133 14.555 4.86719 14.4199 4.86719C14.2848 4.86719 14.1551 4.8133 14.0596 4.71777C13.964 4.62225 13.9102 4.49252 13.9102 4.35742V2.74023C13.9102 2.60514 13.964 2.47541 14.0596 2.37988C14.1551 2.28436 14.2848 2.23047 14.4199 2.23047Z" fill="#0C4ADA" stroke="#0C4ADA" stroke-width="0.3"/>
</svg>
