<svg width="23" height="23" viewBox="0 0 23 23" fill="none" xmlns="http://www.w3.org/2000/svg">
<path d="M2.65466 9.58317C2.24258 9.58317 1.91675 9.25734 1.91675 8.84525V6.6315C1.91675 4.03442 4.03466 1.9165 6.63175 1.9165H8.8455C9.25758 1.9165 9.58341 2.24234 9.58341 2.65442C9.58341 3.0665 9.25758 3.39234 8.8455 3.39234H6.63175C4.83966 3.39234 3.39258 4.849 3.39258 6.6315V8.84525C3.39258 9.25734 3.05716 9.58317 2.65466 9.58317Z" fill="white"/>
<path d="M20.3455 9.58317C19.943 9.58317 19.6076 9.25734 19.6076 8.84525V6.6315C19.6076 4.83942 18.1509 3.39234 16.3684 3.39234H14.1547C13.7426 3.39234 13.4167 3.05692 13.4167 2.65442C13.4167 2.25192 13.7426 1.9165 14.1547 1.9165H16.3684C18.9655 1.9165 21.0834 4.03442 21.0834 6.6315V8.84525C21.0834 9.25734 20.7576 9.58317 20.3455 9.58317Z" fill="white"/>
<path d="M16.3684 21.083H15.0363C14.6338 21.083 14.2984 20.7572 14.2984 20.3451C14.2984 19.9426 14.6242 19.6072 15.0363 19.6072H16.3684C18.1605 19.6072 19.6076 18.1505 19.6076 16.368V15.0455C19.6076 14.643 19.9334 14.3076 20.3455 14.3076C20.748 14.3076 21.0834 14.6335 21.0834 15.0455V16.368C21.0834 18.9651 18.9655 21.083 16.3684 21.083Z" fill="white"/>
<path d="M8.8455 21.0832H6.63175C4.03466 21.0832 1.91675 18.9653 1.91675 16.3682V14.1544C1.91675 13.7423 2.24258 13.4165 2.65466 13.4165C3.06675 13.4165 3.39258 13.7423 3.39258 14.1544V16.3682C3.39258 18.1603 4.84925 19.6073 6.63175 19.6073H8.8455C9.248 19.6073 9.58341 19.9332 9.58341 20.3453C9.58341 20.7573 9.25758 21.0832 8.8455 21.0832Z" fill="white"/>
<path d="M17.6909 10.7617H16.3875H6.61254H5.30921C4.89712 10.7617 4.57129 11.0971 4.57129 11.4996C4.57129 11.9021 4.89712 12.2376 5.30921 12.2376H6.61254H16.3875H17.6909C18.103 12.2376 18.4288 11.9021 18.4288 11.4996C18.4288 11.0971 18.103 10.7617 17.6909 10.7617Z" fill="white"/>
<path d="M6.61261 13.359V13.6752C6.61261 15.266 7.89678 16.5502 9.48761 16.5502H13.5126C15.1034 16.5502 16.3876 15.266 16.3876 13.6752V13.359C16.3876 13.244 16.3014 13.1577 16.1864 13.1577H6.81386C6.69886 13.1577 6.61261 13.244 6.61261 13.359Z" fill="white"/>
<path d="M6.61261 9.64096V9.32471C6.61261 7.73387 7.89678 6.44971 9.48761 6.44971H13.5126C15.1034 6.44971 16.3876 7.73387 16.3876 9.32471V9.64096C16.3876 9.75596 16.3014 9.84221 16.1864 9.84221H6.81386C6.69886 9.84221 6.61261 9.75596 6.61261 9.64096Z" fill="white"/>
</svg>
