<svg width="23" height="22" viewBox="0 0 23 22" fill="none" xmlns="http://www.w3.org/2000/svg">
<path d="M11.4999 14.207C10.6489 14.207 9.8329 13.869 9.23122 13.2673C8.62954 12.6657 8.29152 11.8496 8.29152 10.9987C8.29152 10.1478 8.62954 9.33174 9.23122 8.73006C9.8329 8.12838 10.6489 7.79036 11.4999 7.79036C12.3508 7.79036 13.1668 8.12838 13.7685 8.73006C14.3702 9.33174 14.7082 10.1478 14.7082 10.9987C14.7082 11.8496 14.3702 12.6657 13.7685 13.2673C13.1668 13.869 12.3508 14.207 11.4999 14.207ZM18.3107 11.8879C18.3474 11.5945 18.3749 11.3012 18.3749 10.9987C18.3749 10.6962 18.3474 10.3937 18.3107 10.082L20.2449 8.58786C20.419 8.45036 20.4649 8.20286 20.3549 8.0012L18.5215 4.82953C18.4115 4.62786 18.164 4.54536 17.9624 4.62786L15.6799 5.54453C15.2032 5.18703 14.7082 4.87536 14.1307 4.6462L13.7915 2.21703C13.7549 1.99703 13.5624 1.83203 13.3332 1.83203H9.66652C9.43735 1.83203 9.24485 1.99703 9.20819 2.21703L8.86902 4.6462C8.29152 4.87536 7.79652 5.18703 7.31985 5.54453L5.03735 4.62786C4.83569 4.54536 4.58819 4.62786 4.47819 4.82953L2.64485 8.0012C2.52569 8.20286 2.58069 8.45036 2.75485 8.58786L4.68902 10.082C4.65235 10.3937 4.62485 10.6962 4.62485 10.9987C4.62485 11.3012 4.65235 11.5945 4.68902 11.8879L2.75485 13.4095C2.58069 13.547 2.52569 13.7945 2.64485 13.9962L4.47819 17.1679C4.58819 17.3695 4.83569 17.4429 5.03735 17.3695L7.31985 16.4437C7.79652 16.8104 8.29152 17.122 8.86902 17.3512L9.20819 19.7804C9.24485 20.0004 9.43735 20.1654 9.66652 20.1654H13.3332C13.5624 20.1654 13.7549 20.0004 13.7915 19.7804L14.1307 17.3512C14.7082 17.1129 15.2032 16.8104 15.6799 16.4437L17.9624 17.3695C18.164 17.4429 18.4115 17.3695 18.5215 17.1679L20.3549 13.9962C20.4649 13.7945 20.419 13.547 20.2449 13.4095L18.3107 11.8879Z" fill="#0C4F9F"/>
</svg>
