<svg width="25" height="24" viewBox="0 0 25 24" fill="none" xmlns="http://www.w3.org/2000/svg">
<path d="M23.5 13.5V10.5L20.252 10.057C20.061 9.29471 19.7577 8.56507 19.352 7.892L21.336 5.282L19.218 3.161L16.608 5.145C15.9349 4.73934 15.2053 4.43603 14.443 4.245L14 1H11L10.557 4.248C9.79471 4.43903 9.06507 4.74234 8.392 5.148L5.782 3.161L3.661 5.282L5.645 7.892C5.23934 8.56507 4.93603 9.29471 4.745 10.057L1.5 10.5V13.5L4.748 13.943C4.93903 14.7053 5.24234 15.4349 5.648 16.108L3.664 18.718L5.785 20.839L8.395 18.855C9.06807 19.2607 9.79771 19.564 10.56 19.755L11 23H14L14.443 19.752C15.2053 19.561 15.9349 19.2577 16.608 18.852L19.218 20.836L21.339 18.715L19.355 16.105C19.7607 15.4319 20.064 14.7023 20.255 13.94L23.5 13.5Z" stroke="#A2A2A2" stroke-width="1.5" stroke-miterlimit="10" stroke-linecap="square"/>
<path d="M12.5 15C14.1569 15 15.5 13.6569 15.5 12C15.5 10.3431 14.1569 9 12.5 9C10.8431 9 9.5 10.3431 9.5 12C9.5 13.6569 10.8431 15 12.5 15Z" stroke="#A2A2A2" stroke-width="1.5" stroke-miterlimit="10" stroke-linecap="square"/>
</svg>
