<svg width="21" height="24" viewBox="0 0 21 24" fill="none" xmlns="http://www.w3.org/2000/svg">
<path d="M4.37582 1.04417C4.36708 1.07112 4.35833 1.38558 4.35833 1.74795V2.4038H2.62732C1.07698 2.4038 0.896299 2.4098 0.878814 2.45172C0.852586 2.5236 0.858415 23.5261 0.884642 23.571C0.905041 23.6009 2.44372 23.6069 8.4848 23.6009L16.0587 23.592L16.0675 22.7295L16.0733 21.87H16.2132C16.3589 21.87 16.5133 21.7951 16.5629 21.6992C16.5804 21.6693 16.6416 21.4896 16.6999 21.3009C16.8689 20.7709 16.9184 20.6421 16.9621 20.6421C16.9854 20.6421 17.2186 20.7529 17.4809 20.8847C18.1191 21.2081 18.052 21.2231 18.6349 20.6331C18.8797 20.3815 19.1011 20.133 19.1244 20.0761C19.1827 19.9383 19.1594 19.8575 18.9117 19.3483C18.7922 19.1058 18.6961 18.8871 18.6961 18.8632C18.6961 18.8153 18.7689 18.7853 19.3051 18.6026C19.5033 18.5367 19.6956 18.4619 19.7306 18.4379C19.8646 18.3481 19.8909 18.2043 19.8909 17.5545C19.8909 16.9106 19.8705 16.7938 19.7335 16.7039C19.6869 16.674 18.7427 16.3296 18.7048 16.3296C18.6669 16.3296 18.7281 16.1739 18.9321 15.7516C19.2468 15.0957 19.2614 15.1646 18.6873 14.5686C18.2298 14.0955 18.1424 14.0236 18.0083 14.0236C17.9675 14.0236 17.7198 14.1314 17.4604 14.2632C17.1982 14.395 16.9738 14.5028 16.9563 14.5028C16.9184 14.5028 16.8718 14.386 16.7348 13.9427C16.6765 13.7571 16.6095 13.5594 16.5862 13.5025C16.5279 13.3617 16.388 13.2749 16.2132 13.2749H16.0733L16.0675 7.84534L16.0587 2.41878L14.319 2.4098L12.5763 2.4038L12.5705 1.70602L12.5617 1.01123L8.47897 1.00224C4.77215 0.996254 4.3933 0.999249 4.37582 1.04417ZM11.8303 1.79287C11.8536 1.85576 11.8507 3.73649 11.8274 3.79938C11.8157 3.83532 11.3611 3.8413 8.46732 3.8413C6.27295 3.8413 5.11893 3.83232 5.11019 3.81136C5.10728 3.79638 5.10436 3.32321 5.11019 2.76318L5.11893 1.74495H8.4644C11.5418 1.74495 11.8128 1.74795 11.8303 1.79287ZM4.35833 3.87125V4.56005L4.42536 4.57503C4.46033 4.58401 6.305 4.58701 8.5256 4.58401L12.5617 4.57503L12.5705 3.87724L12.5763 3.18245H13.946H15.3156L15.3185 8.05498C15.3185 10.7383 15.3244 12.9784 15.3302 13.0353C15.3477 13.236 15.3244 13.2749 15.1874 13.2749C15.0533 13.2749 14.8989 13.3558 14.8464 13.4576C14.829 13.4965 14.7444 13.7361 14.6599 13.9907C14.5783 14.2452 14.4909 14.4668 14.4676 14.4818C14.4355 14.5028 14.2927 14.4429 13.9518 14.2662C13.4797 14.0236 13.401 13.9996 13.267 14.0505C13.1737 14.0865 12.3169 14.97 12.282 15.0658C12.2324 15.2005 12.2557 15.2844 12.4918 15.7666C12.6637 16.117 12.722 16.2637 12.7016 16.2966C12.687 16.3206 12.4714 16.4104 12.2237 16.4943C11.6875 16.68 11.6583 16.695 11.5855 16.8177C11.533 16.9046 11.5272 16.9735 11.5272 17.5724C11.5272 18.1714 11.533 18.2403 11.5855 18.3271C11.6583 18.4499 11.6758 18.4589 12.2033 18.6386C12.4481 18.7224 12.6666 18.8093 12.69 18.8302C12.7278 18.8692 12.7016 18.938 12.4947 19.3663C12.2674 19.8365 12.2324 19.9533 12.2791 20.0791C12.3199 20.1839 13.197 21.0584 13.2961 21.0943C13.4214 21.1362 13.4476 21.1272 13.9809 20.8577C14.3831 20.6571 14.4472 20.6331 14.4822 20.672C14.5026 20.696 14.5842 20.9116 14.6599 21.1512C14.7357 21.3908 14.8173 21.6244 14.8406 21.6693C14.8989 21.7861 15.0446 21.87 15.1932 21.87H15.3156V22.3641V22.8582H8.47023C2.2543 22.8582 1.62484 22.8552 1.60736 22.8103C1.58404 22.7444 1.58404 3.22737 1.61027 3.20341C1.61901 3.19144 2.24265 3.18245 2.9945 3.18245H4.35833V3.87125ZM15.9801 14.0625C15.9975 14.0835 16.0733 14.2871 16.1462 14.5177C16.2394 14.8052 16.3064 14.961 16.3589 15.0179C16.4405 15.0987 16.9009 15.3114 17 15.3114C17.0321 15.3114 17.2565 15.2095 17.5012 15.0867L17.9413 14.8621L18.1307 15.0448C18.2327 15.1466 18.3172 15.2515 18.3172 15.2784C18.3172 15.3054 18.224 15.515 18.1132 15.7456C18.0025 15.9762 17.9092 16.2008 17.9092 16.2457C17.9092 16.3745 18.1103 16.8297 18.2036 16.9106C18.2502 16.9495 18.4717 17.0453 18.7019 17.1262C18.9321 17.2041 19.1274 17.2819 19.139 17.2999C19.1507 17.3179 19.1623 17.4436 19.1623 17.5784C19.1623 17.8779 19.1856 17.8569 18.6523 18.0366C18.3697 18.1325 18.2502 18.1894 18.1832 18.2582C18.087 18.3571 17.9092 18.7703 17.9092 18.8961C17.9092 18.9351 18.0025 19.1567 18.1132 19.3873C18.2269 19.6179 18.3172 19.8275 18.3172 19.8545C18.3172 19.9144 17.9879 20.2528 17.9296 20.2528C17.9034 20.2528 17.6965 20.1569 17.4692 20.0431C17.2419 19.9263 17.0292 19.8335 16.9942 19.8335C16.8864 19.8335 16.4405 20.0401 16.3618 20.127C16.3094 20.1809 16.2365 20.3486 16.1462 20.6271C16.0704 20.8577 15.9946 21.0644 15.9801 21.0823C15.948 21.1242 15.5021 21.1362 15.4438 21.0973C15.4264 21.0853 15.3477 20.8817 15.269 20.6421C15.1787 20.3696 15.1 20.1779 15.0533 20.127C14.9805 20.0461 14.523 19.8335 14.4181 19.8335C14.3889 19.8335 14.1762 19.9263 13.946 20.0431C13.7157 20.1569 13.5059 20.2528 13.4797 20.2528C13.4535 20.2528 13.3486 20.1659 13.2495 20.0611L13.0717 19.8664L13.2903 19.4142C13.4098 19.1627 13.5088 18.9321 13.5088 18.8991C13.5088 18.8033 13.3048 18.3271 13.232 18.2492C13.1854 18.1983 13.0105 18.1235 12.7162 18.0216L12.2703 17.8689L12.2616 17.5994C12.2587 17.4526 12.2645 17.3179 12.2761 17.2999C12.2907 17.2789 12.4889 17.2011 12.7162 17.1232C13.2058 16.9585 13.264 16.9136 13.3894 16.6081C13.538 16.2367 13.5409 16.2517 13.2903 15.7336L13.0688 15.2724L13.2699 15.0658L13.4709 14.8591L13.9168 15.0867C14.1616 15.2095 14.386 15.3114 14.4181 15.3114C14.5084 15.3114 14.9747 15.1047 15.0475 15.0298C15.0854 14.9909 15.167 14.8022 15.2457 14.5657C15.3185 14.347 15.3885 14.1344 15.403 14.0955C15.4293 14.0266 15.4438 14.0236 15.6915 14.0236C15.8635 14.0236 15.9597 14.0356 15.9801 14.0625Z" fill="#243F90" fill-opacity="0.55" stroke="#243F90" stroke-opacity="0.55" stroke-width="0.4"/>
<path d="M6.75401 2.42777C6.72778 2.44574 6.71904 2.54456 6.72487 2.8111L6.73361 3.16748H8.46755H10.2015V2.79313V2.41878L8.49669 2.41279C7.55832 2.4068 6.77441 2.41579 6.75401 2.42777Z" fill="#243F90" fill-opacity="0.55" stroke="#243F90" stroke-opacity="0.55" stroke-width="0.4"/>
<path d="M4.82479 7.51009C4.39932 7.94733 4.04088 8.30371 4.02339 8.30371C4.00591 8.30371 3.80483 8.10905 3.5717 7.86947C3.33856 7.62988 3.13748 7.43522 3.12 7.43522C3.08211 7.43522 2.63916 7.89043 2.63916 7.92936C2.63916 7.94434 2.95098 8.27975 3.32982 8.66908L4.02339 9.38184L5.06375 8.3127C5.63784 7.72272 6.10702 7.22559 6.10702 7.21061C6.10702 7.17168 5.66407 6.71647 5.62619 6.71647C5.6087 6.71647 5.25026 7.07285 4.82479 7.51009Z" fill="#243F90" fill-opacity="0.55" stroke="#243F90" stroke-opacity="0.55" stroke-width="0.4"/>
<path d="M7.20254 7.76764C7.1938 7.81855 7.18506 7.93835 7.18506 8.03418C7.18506 8.13001 7.1938 8.2498 7.20254 8.30072L7.22294 8.39355H10.5101H13.8002V8.03418V7.6748H10.5101H7.22294L7.20254 7.76764Z" fill="#243F90" fill-opacity="0.55" stroke="#243F90" stroke-opacity="0.55" stroke-width="0.4"/>
<path d="M4.82479 11.2835C4.39932 11.7208 4.04088 12.0771 4.02339 12.0771C4.00882 12.0771 3.80191 11.8795 3.56587 11.6369L3.13166 11.1967L2.88686 11.4482C2.7499 11.589 2.63916 11.7148 2.63916 11.7327C2.63916 11.7717 3.98551 13.1553 4.02339 13.1553C4.06419 13.1553 6.10702 11.0499 6.10702 11.008C6.10702 10.9721 5.6495 10.4899 5.61453 10.4899C5.60579 10.4899 5.25026 10.8463 4.82479 11.2835Z" fill="#243F90" fill-opacity="0.55" stroke="#243F90" stroke-opacity="0.55" stroke-width="0.4"/>
<path d="M7.20254 11.5589C7.17923 11.7056 7.17923 11.9841 7.20254 12.1039L7.22294 12.1968H10.5101H13.8002V11.8224V11.4481H10.5101H7.22294L7.20254 11.5589Z" fill="#243F90" fill-opacity="0.55" stroke="#243F90" stroke-opacity="0.55" stroke-width="0.4"/>
<path d="M4.82454 15.0868C4.39907 15.524 4.04063 15.8804 4.02314 15.8804C4.00566 15.8804 3.80458 15.6857 3.57145 15.4461C3.33831 15.2065 3.13724 15.0119 3.11975 15.0119C3.07312 15.0119 2.63017 15.4821 2.64183 15.518C2.64766 15.536 2.96239 15.8684 3.33831 16.2547L4.02314 16.9585L5.0635 15.8894C5.6376 15.2994 6.10678 14.8022 6.10678 14.7873C6.10678 14.7483 5.66382 14.2931 5.62594 14.2931C5.60845 14.2931 5.25001 14.6495 4.82454 15.0868Z" fill="#243F90" fill-opacity="0.55" stroke="#243F90" stroke-opacity="0.55" stroke-width="0.4"/>
<path d="M7.21991 15.2573C7.19077 15.2962 7.1762 15.8832 7.20534 15.9581C7.21699 15.994 7.49676 16 9.03835 16H10.8597L10.851 15.6167L10.8422 15.2363L9.04709 15.2273C7.63081 15.2214 7.24322 15.2303 7.21991 15.2573Z" fill="#243F90" fill-opacity="0.55" stroke="#243F90" stroke-opacity="0.55" stroke-width="0.4"/>
<path d="M4.83353 18.8542C4.40223 19.2914 4.04379 19.6598 4.03505 19.6688C4.02631 19.6778 3.82523 19.4891 3.59209 19.2495C3.35605 19.0099 3.14914 18.8153 3.12583 18.8153C3.08503 18.8153 2.63916 19.2675 2.63916 19.3094C2.63916 19.3483 3.98551 20.7319 4.02339 20.7319C4.06128 20.7319 6.10702 18.6296 6.10702 18.5907C6.10702 18.5727 5.99629 18.4469 5.85932 18.3062L5.61161 18.0546L4.83353 18.8542Z" fill="#243F90" fill-opacity="0.55" stroke="#243F90" stroke-opacity="0.55" stroke-width="0.4"/>
<path d="M7.20245 19.1355C7.18205 19.2793 7.17913 19.6177 7.20245 19.7046L7.21993 19.7734H9.03837H10.8568V19.3991V19.0247H9.03837H7.22284L7.20245 19.1355Z" fill="#243F90" fill-opacity="0.55" stroke="#243F90" stroke-opacity="0.55" stroke-width="0.4"/>
<path d="M15.4033 15.8981C14.8437 16.0089 14.3367 16.4551 14.1473 17.0092C14.0715 17.2278 14.0423 17.686 14.0919 17.9256C14.1881 18.4047 14.5407 18.8689 14.9749 19.0816C15.8928 19.5368 16.9449 19.0875 17.2742 18.1023C17.3266 17.9405 17.3412 17.8387 17.3412 17.5722C17.3412 17.3056 17.3266 17.2038 17.2742 17.0421C17.2101 16.8504 17.0585 16.5839 16.9128 16.4132C16.7962 16.2724 16.5427 16.0957 16.3096 15.9969C16.1172 15.9131 16.0473 15.9011 15.7821 15.8921C15.6131 15.8891 15.4441 15.8921 15.4033 15.8981ZM16.0764 16.7097C16.5981 16.9493 16.7817 17.6231 16.4553 18.1023C16.0298 18.7312 15.1118 18.6084 14.8467 17.8896C14.6776 17.4284 14.9224 16.8774 15.3858 16.6887C15.5752 16.6109 15.8812 16.6198 16.0764 16.7097Z" fill="#243F90" fill-opacity="0.55" stroke="#243F90" stroke-opacity="0.55" stroke-width="0.4"/>
</svg>
