<svg width="19" height="22" viewBox="0 0 19 22" fill="none" xmlns="http://www.w3.org/2000/svg">
<path d="M13.2546 18.1754H3.0592C1.85033 18.1754 0.872559 17.1602 0.872559 15.9023V2.27305C0.872559 1.02422 1.85033 0 3.0592 0H13.2546C14.4635 0 15.4413 1.01523 15.4413 2.27305V15.9023C15.4413 17.1512 14.4546 18.1754 13.2546 18.1754ZM3.0592 1.51836C2.65921 1.51836 2.33032 1.85977 2.33032 2.27305V15.9023C2.33032 16.3246 2.65921 16.657 3.0592 16.657H13.2546C13.6546 16.657 13.9835 16.3156 13.9835 15.9023V2.27305C13.9835 1.85977 13.6546 1.51836 13.2546 1.51836H3.0592ZM16.1702 21.2031H5.23696C4.83696 21.2031 4.50807 20.8617 4.50807 20.4484C4.50807 20.0262 4.83696 19.6938 5.23696 19.6938H16.1613C16.5613 19.6938 16.8902 19.3523 16.8902 18.9391V4.54609C16.8902 4.12383 17.219 3.79141 17.619 3.79141C18.019 3.79141 18.3479 4.13281 18.3479 4.54609V18.9301C18.3479 20.1879 17.3702 21.2031 16.1702 21.2031ZM10.3391 6.05547H4.50807C4.10808 6.05547 3.77919 5.71406 3.77919 5.30078C3.77919 4.87852 4.10808 4.54609 4.50807 4.54609H10.3391C10.7391 4.54609 11.068 4.8875 11.068 5.30078C11.068 5.72305 10.7391 6.05547 10.3391 6.05547ZM11.7969 9.84688H4.50807C4.10808 9.84688 3.77919 9.50547 3.77919 9.09219C3.77919 8.66992 4.10808 8.3375 4.50807 8.3375H11.788C12.188 8.3375 12.5169 8.67891 12.5169 9.09219C12.5258 9.50547 12.1969 9.84688 11.7969 9.84688ZM11.7969 13.6293H4.50807C4.10808 13.6293 3.77919 13.2879 3.77919 12.8746C3.77919 12.4523 4.10808 12.1199 4.50807 12.1199H11.788C12.188 12.1199 12.5169 12.4613 12.5169 12.8746C12.5258 13.2879 12.1969 13.6293 11.7969 13.6293Z" fill="#243F90" fill-opacity="0.55"/>
</svg>
