<svg width="31" height="30" viewBox="0 0 31 30" fill="none" xmlns="http://www.w3.org/2000/svg">
<path d="M8.61682 22.1439C8.41038 22.1439 8.24066 22.0773 8.10766 21.9441C7.97464 21.8109 7.90813 21.6411 7.90813 21.4348V12.0958C7.90813 11.9099 7.97799 11.7505 8.11769 11.6175C8.25738 11.4845 8.42404 11.418 8.61766 11.418C8.82412 11.418 8.99385 11.4846 9.12685 11.6178C9.25987 11.751 9.32638 11.9208 9.32638 12.1271V21.4661C9.32638 21.652 9.25453 21.8114 9.11082 21.9444C8.96711 22.0774 8.80245 22.1439 8.61682 22.1439ZM15.5303 22.1439C15.3238 22.1439 15.1541 22.0773 15.0211 21.9441C14.8881 21.8109 14.8215 21.6411 14.8215 21.4348V12.0958C14.8215 11.9099 14.8934 11.7505 15.0371 11.6175C15.1808 11.4845 15.3455 11.418 15.5311 11.418C15.7375 11.418 15.9073 11.4846 16.0403 11.6178C16.1733 11.751 16.2398 11.9208 16.2398 12.1271V21.4661C16.2398 21.652 16.1699 21.8114 16.0302 21.9444C15.8905 22.0774 15.7239 22.1439 15.5303 22.1439ZM4.5812 25.6054C4.3953 25.6054 4.23585 25.5336 4.10285 25.3899C3.96983 25.2462 3.90332 25.0815 3.90332 24.8959C3.90332 24.6895 3.96993 24.5197 4.10316 24.3867C4.23637 24.2537 4.40613 24.1872 4.61245 24.1872H26.3023C26.4882 24.1872 26.6476 24.2571 26.7806 24.3968C26.9136 24.5365 26.9801 24.7031 26.9801 24.8968C26.9801 25.1032 26.9135 25.2729 26.7803 25.4059C26.6471 25.5389 26.4773 25.6054 26.271 25.6054H4.5812ZM22.2658 22.1439C22.0593 22.1439 21.8896 22.0773 21.7566 21.9441C21.6236 21.8109 21.5571 21.6411 21.5571 21.4348V12.0958C21.5571 11.9099 21.6289 11.7505 21.7726 11.6175C21.9163 11.4845 22.081 11.418 22.2666 11.418C22.4731 11.418 22.6428 11.4846 22.7758 11.6178C22.9088 11.751 22.9753 11.9208 22.9753 12.1271V21.4661C22.9753 21.652 22.9055 21.8114 22.7658 21.9444C22.6261 22.0774 22.4594 22.1439 22.2658 22.1439ZM16.2951 2.38679L26.4849 7.9132C26.628 7.9833 26.7463 8.08977 26.8398 8.2326C26.9334 8.37542 26.9801 8.53336 26.9801 8.70645C26.9801 8.9074 26.9036 9.06902 26.7506 9.19129C26.5975 9.31356 26.4192 9.3747 26.2157 9.3747H4.65573C4.46341 9.3747 4.28993 9.31356 4.13529 9.19129C3.98064 9.06902 3.90332 8.9074 3.90332 8.70645C3.90332 8.53336 3.95501 8.38112 4.05838 8.24973C4.16174 8.11831 4.28954 8.00613 4.44179 7.9132L14.5884 2.38679C14.854 2.24416 15.1379 2.17285 15.4402 2.17285C15.7425 2.17285 16.0274 2.24416 16.2951 2.38679ZM7.33357 7.95645H23.5499L15.4417 3.55504L7.33357 7.95645Z" fill="url(#paint0_linear_494_10755)"/>
<defs>
<linearGradient id="paint0_linear_494_10755" x1="15.4417" y1="2.17285" x2="15.4417" y2="25.6054" gradientUnits="userSpaceOnUse">
<stop stop-color="#1269C5"/>
<stop offset="1" stop-color="#23388E"/>
</linearGradient>
</defs>
</svg>
