<svg width="32" height="32" viewBox="0 0 32 32" fill="none" xmlns="http://www.w3.org/2000/svg">
<g clip-path="url(#clip0_614_1423)">
<path d="M17.6018 0.025341C17.5404 0.0428848 17.3956 0.0604286 17.2816 0.0648136C16.8255 0.0735855 15.3518 0.446385 14.8167 0.683223C14.7685 0.705153 14.6325 0.762169 14.5097 0.810413C14.1896 0.933219 13.3431 1.33672 13.2115 1.43321C13.1501 1.47268 13.0492 1.52531 12.9834 1.53847C12.9176 1.55601 12.865 1.58671 12.865 1.60426C12.865 1.6218 12.8299 1.64812 12.7905 1.66566C12.7466 1.67882 12.6545 1.73145 12.5799 1.77969C12.5098 1.82794 12.4045 1.88496 12.3475 1.91127C12.2905 1.9332 12.1808 2.00337 12.1019 2.06478C12.0229 2.12618 11.944 2.17442 11.9308 2.17442C11.8299 2.17442 10.4177 3.20072 10.0186 3.56036C9.69402 3.85422 9.09315 4.49456 9.09315 4.54719C9.09315 4.56034 9.05368 4.62175 9.00105 4.67876C8.86947 4.82788 8.47474 5.45068 8.36071 5.68313C8.31247 5.79278 8.21598 5.98576 8.15457 6.11733C7.93967 6.55592 7.85195 7.03398 7.87388 7.59099C7.90019 8.13922 8.023 8.42431 8.3958 8.80149C8.78614 9.19184 9.2028 9.36289 9.86068 9.39797C10.3124 9.4199 10.637 9.38482 11.0887 9.25762C11.2335 9.21815 11.4264 9.16991 11.5185 9.14359C11.6107 9.12166 11.7159 9.08658 11.7598 9.06026C11.8606 9.00763 12.4264 8.75325 12.4527 8.75325C12.5317 8.75325 13.4571 8.18747 14.3124 7.6173C14.8781 7.24012 15.3737 6.91118 15.4176 6.88925C15.4571 6.86293 15.7246 6.70504 16.0097 6.53399C16.2948 6.36733 16.6456 6.16558 16.7904 6.09102C16.9351 6.01646 17.1413 5.90681 17.2509 5.84979C17.3605 5.79716 17.5667 5.70067 17.7114 5.64804C17.8562 5.59103 18.036 5.51647 18.1061 5.48577C18.1807 5.45506 18.286 5.40682 18.3474 5.3805C18.5184 5.31033 18.9044 5.24016 19.2816 5.21384C20.0973 5.16121 20.6675 5.52085 20.9614 6.27522C21.0315 6.45504 21.0447 6.60417 21.0447 7.13047C21.0447 7.77081 20.9877 8.12168 20.8166 8.53395C20.7815 8.61729 20.7333 8.7357 20.707 8.79711C20.4877 9.32341 20.0359 10.0778 19.5184 10.762C19.0272 11.4199 17.9702 12.5119 17.2728 13.0865C17.0316 13.2883 16.7641 13.5075 16.6807 13.5777C16.4965 13.7312 16.2816 13.8847 16.0448 14.0426C15.9483 14.104 15.7904 14.2093 15.6939 14.2795C15.422 14.4637 14.6983 14.8496 14.2904 15.0251C14.172 15.0777 14.0097 15.1479 13.9308 15.183C13.8562 15.218 13.7553 15.2444 13.7071 15.2444C13.6632 15.2444 13.5624 15.2663 13.4834 15.2926C13.1983 15.3935 12.9089 15.2005 12.9089 14.9066C12.9089 14.547 13.0799 14.3189 14.1589 13.2488C15.3255 12.0909 15.4527 11.9199 15.4527 11.4813C15.4527 11.0295 15.2378 10.7225 14.7553 10.4769C14.5448 10.3673 14.4659 10.3541 14.0974 10.3541C13.6676 10.3541 13.4176 10.4155 13.1062 10.6041C13.0361 10.6479 12.9264 10.705 12.865 10.7357C12.8036 10.7664 12.7466 10.8015 12.7334 10.8146C12.7203 10.8278 12.6326 10.8936 12.5361 10.9681C12.3036 11.1436 11.8957 11.5602 11.6633 11.8628C11.501 12.0734 11.3826 12.2707 11.1063 12.7883C10.8782 13.2181 10.6721 14.0163 10.6721 14.4812C10.6721 15.4242 11.1633 16.1785 11.922 16.3935C12.1501 16.4592 13.0799 16.4592 13.4001 16.3978C13.7159 16.3321 14.5404 16.0777 14.5931 16.0294C14.6194 16.0075 14.6632 15.99 14.6983 15.99C14.8123 15.99 16.115 15.3277 16.5623 15.0382C16.6632 14.9724 16.7772 14.8979 16.8211 14.8716C16.8606 14.8496 17.0667 14.7224 17.2816 14.5909C17.4921 14.4593 17.6763 14.3365 17.6895 14.3233C17.7026 14.3058 17.8518 14.1961 18.0184 14.0821C18.1895 13.9637 18.3868 13.8277 18.457 13.7795C18.5316 13.7268 18.7377 13.5689 18.9175 13.4242C20.0579 12.5163 21.0666 11.5471 21.6543 10.7927C21.7508 10.6743 21.8385 10.5646 21.8517 10.5515C21.8868 10.5251 22.185 10.0953 22.3912 9.77077C22.4833 9.63481 22.6236 9.39359 22.7026 9.23569C22.7859 9.0778 22.8999 8.8629 22.9569 8.75325C23.014 8.6436 23.1368 8.35852 23.2332 8.1173C23.3253 7.87607 23.4175 7.63923 23.435 7.59099C23.5578 7.27959 23.7464 6.47697 23.8297 5.90242C23.9218 5.25331 23.8517 4.18754 23.6718 3.59984C23.5973 3.35861 23.5797 3.31475 23.4175 2.96388C23.0666 2.20951 22.5052 1.52531 21.8605 1.07795C21.7727 1.01655 21.6631 0.933219 21.6149 0.884974C21.457 0.744625 20.6543 0.384983 20.1851 0.249022C19.9351 0.174461 19.5623 0.0955143 19.3561 0.0648136C18.8824 0.00341225 17.7465 -0.0272903 17.6018 0.025341Z" fill="white"/>
<path d="M30.3164 21.7137C30.3032 21.7225 30.1015 21.762 29.8602 21.8014C29.619 21.8365 29.2243 21.9023 28.9831 21.9462L28.5445 22.0207V26.0557C28.5445 30.4372 28.5357 30.253 28.7945 30.8013C28.8822 30.9899 29.005 31.1521 29.1936 31.3232C29.6585 31.7486 30.0927 31.8802 31.0181 31.8846C31.8076 31.8846 31.7769 31.9153 31.7593 31.1872L31.7462 30.6609L31.4085 30.6302C30.8076 30.5776 30.5181 30.3364 30.4523 29.8364C30.4348 29.6873 30.4216 27.8101 30.426 25.6698C30.4304 21.9637 30.4216 21.6085 30.3164 21.7137Z" fill="white"/>
<path d="M18.1725 21.8016C17.1989 21.9463 16.8743 22.0077 16.8348 22.056C16.8041 22.0911 16.7997 23.4901 16.8129 26.1655C16.8348 29.9023 16.8436 30.24 16.9138 30.4198C17.0804 30.8453 17.1682 30.9944 17.3918 31.2181C17.8524 31.6786 18.4401 31.8672 19.405 31.8672C19.94 31.8672 20.0146 31.8584 20.0497 31.7882C20.0935 31.7049 20.1155 30.9418 20.0804 30.7663C20.0541 30.6567 20.0365 30.6523 19.7076 30.626C19.2909 30.5997 19.0453 30.4593 18.8743 30.1567L18.7646 29.9593L18.7515 27.6874C18.7427 25.9945 18.7515 25.398 18.7909 25.3498C18.8304 25.3015 18.9795 25.2884 19.4488 25.2884C20.1725 25.2884 20.1111 25.3585 20.0935 24.5208L20.0804 23.9507L19.4664 23.9287C19.1286 23.9156 18.826 23.8893 18.7997 23.8717C18.7558 23.8454 18.7427 23.5779 18.7427 22.784V21.7358L18.6462 21.7402C18.5892 21.7446 18.3787 21.7709 18.1725 21.8016Z" fill="white"/>
<path d="M2.97483 23.7793C2.64589 23.81 1.85643 23.9986 1.61521 24.1039C1.56696 24.1258 1.47924 24.1565 1.41784 24.174C1.22486 24.2267 0.584523 24.5468 0.584523 24.5907C0.584523 24.6126 0.623996 24.7135 0.667855 24.8188C0.957323 25.4547 1.06697 25.6828 1.0889 25.6828C1.10206 25.6828 1.14592 25.6652 1.18978 25.6433C1.41346 25.5293 1.68538 25.4196 1.90029 25.3538C2.03187 25.3144 2.18976 25.2617 2.25116 25.2398C2.49677 25.1521 3.15027 25.1082 3.45289 25.1565C4.04937 25.253 4.26867 25.5293 4.30375 26.2354C4.3213 26.6257 4.3213 26.6345 4.22042 26.6608C4.16341 26.6784 3.7599 26.6915 3.3257 26.6915C2.28186 26.6915 1.96169 26.7529 1.28626 27.0819C0.707328 27.3626 0.277511 27.8933 0.0713743 28.5775C-0.0338869 28.9415 -0.0207293 29.6213 0.0976897 29.9809C0.492419 31.1739 1.431 31.8713 2.73799 31.9414C3.92657 32.0072 5.15023 31.652 5.9353 31.0204L6.22039 30.788L6.23354 28.4678C6.2467 25.7793 6.24232 25.6872 5.91776 25.0293C5.77303 24.731 5.28619 24.2574 4.98357 24.1258C4.84322 24.06 4.68971 23.9942 4.64147 23.9723C4.31253 23.8276 3.47921 23.7311 2.97483 23.7793ZM4.26867 28.0073C4.29498 28.0424 4.31253 28.5643 4.31253 29.1959C4.31253 30.4415 4.33007 30.3625 4.00551 30.5336C3.88271 30.5994 3.74675 30.6125 3.32132 30.6169H2.79062L2.57133 30.4678C2.45291 30.3888 2.31256 30.2573 2.26432 30.1827C1.93976 29.709 1.96169 28.8625 2.30379 28.4459C2.40467 28.3187 2.79062 28.0512 2.8608 28.0512C2.90466 28.0512 2.9529 28.0336 2.97922 28.0117C3.04062 27.9459 3.24237 27.9284 3.75552 27.9371C4.12393 27.9415 4.23797 27.9547 4.26867 28.0073Z" fill="white"/>
<path d="M13.917 23.8854C13.0442 24.0915 12.3469 24.4643 11.6451 25.1046L11.4609 25.2713V28.473C11.4609 30.2317 11.4609 31.7054 11.4609 31.7492C11.4609 31.8194 11.5267 31.8238 12.4171 31.815L13.3688 31.8019L13.382 28.7449L13.3907 25.6923L13.5574 25.5608C13.7548 25.4029 13.8512 25.3546 14.1056 25.2669C14.4083 25.166 14.8819 25.1178 15.2372 25.1573C15.4126 25.1748 15.5793 25.1836 15.6056 25.1704C15.6363 25.1616 15.7152 25.0125 15.7854 24.8371C15.8512 24.6617 15.9565 24.4336 16.0091 24.3283C16.1538 24.052 16.1407 23.9818 15.9477 23.938C15.8556 23.9161 15.6889 23.8766 15.5705 23.8503C15.2591 23.7713 14.3074 23.7932 13.917 23.8854Z" fill="white"/>
<path d="M23.4566 23.8939C23.3119 23.9158 23.1759 23.9553 23.154 23.9772C23.1276 23.9992 23.0838 24.0167 23.0487 24.0167C23.0136 24.0167 22.8557 24.0781 22.7022 24.1571C22.3645 24.3237 21.847 24.8018 21.6277 25.157C21.4347 25.4684 21.211 25.9333 21.1759 26.1C21.1584 26.1702 21.1321 26.2711 21.1101 26.3193C21.0926 26.3675 21.04 26.5561 20.9961 26.736C20.8777 27.2096 20.8777 28.7272 20.9917 29.1701C21.097 29.578 21.3338 30.2008 21.3777 30.2008C21.3996 30.2008 21.4172 30.2227 21.4172 30.2491C21.4172 30.4157 21.9391 31.078 22.3075 31.3762C22.4698 31.5078 22.8338 31.6964 23.1057 31.7885C23.3996 31.8894 24.0487 31.999 24.3382 31.999C24.9609 31.999 26.0837 31.7315 26.4565 31.4946C26.5443 31.442 26.6627 31.3806 26.7241 31.3631C26.8557 31.3236 27.1451 31.1438 27.1802 31.0824C27.2197 31.021 26.7285 30.0254 26.6627 30.0254C26.632 30.0254 26.553 30.0648 26.4916 30.1131C26.4302 30.1613 26.3557 30.2008 26.3206 30.2008C26.2899 30.2008 26.2241 30.2271 26.1758 30.2622C26.1276 30.2929 25.8995 30.385 25.6715 30.464C25.2811 30.5999 25.2153 30.6087 24.6408 30.6131C24.0969 30.6131 24.0048 30.6043 23.8294 30.521C23.2154 30.2271 22.8645 29.4859 22.8645 28.4859C22.8645 28.271 22.8689 28.0912 22.8777 28.0868C22.882 28.078 23.8557 28.0649 25.0355 28.0517L27.1846 28.0298L27.1714 27.5912C27.1451 26.7316 26.9171 25.5737 26.7197 25.3105C26.7021 25.2842 26.6407 25.1746 26.5837 25.0649C26.3469 24.5956 25.8469 24.1921 25.2548 23.9948C24.8206 23.8457 24.0268 23.8018 23.4566 23.8939ZM24.3996 25.2886C24.5838 25.3369 24.9697 25.6483 24.9697 25.7447C24.9697 25.7711 25.0004 25.85 25.0355 25.9158C25.1364 26.1132 25.2153 26.7623 25.1452 26.8456C25.1013 26.9026 24.9302 26.9114 24.0443 26.9114H22.9961L22.9698 26.8017C22.9127 26.5781 23.0662 25.9772 23.2417 25.7447C23.4347 25.486 23.6057 25.3544 23.8601 25.2798C24.0004 25.2404 24.1364 25.2141 24.1671 25.2228C24.1934 25.2316 24.2987 25.2623 24.3996 25.2886Z" fill="white"/>
<path d="M8.34696 20.8065C8.01363 20.9776 7.91276 21.0609 7.76803 21.2758C7.62768 21.4907 7.62329 21.5083 7.62329 21.9556V22.4205L7.78995 22.6486C7.98732 22.9161 8.1189 23.0126 8.40836 23.1135C8.79871 23.2407 9.13642 23.1924 9.52677 22.9468C9.99606 22.6486 10.1583 21.8854 9.87325 21.3241C9.77238 21.1267 9.68466 21.0346 9.4215 20.8679C9.18467 20.7144 8.5838 20.6793 8.34696 20.8065Z" fill="white"/>
<path d="M9.42128 23.9725C9.3511 23.9944 9.15374 24.0339 8.98269 24.0558C8.81603 24.0778 8.50901 24.1216 8.30288 24.1523C8.09674 24.1786 7.91692 24.2181 7.89499 24.2313C7.85552 24.2664 7.85113 31.718 7.88622 31.7838C7.90376 31.8057 8.29411 31.8232 8.80725 31.8232C9.70198 31.8232 9.70636 31.8232 9.72829 31.7224C9.74145 31.6697 9.74583 29.8978 9.74145 27.7882C9.72829 23.9857 9.72829 23.9506 9.64057 23.9418C9.59233 23.9374 9.49584 23.9506 9.42128 23.9725Z" fill="white"/>
</g>
<defs>
<clipPath id="clip0_614_1423">
<rect width="31.7654" height="32" fill="white"/>
</clipPath>
</defs>
</svg>
