<svg width="13" height="12" viewBox="0 0 13 12" fill="none" xmlns="http://www.w3.org/2000/svg">
<path fill-rule="evenodd" clip-rule="evenodd" d="M1.88931 2.9246L6.46659 7.27533L11.0642 2.90533C11.327 2.6555 11.7451 2.65554 12.0214 2.91867C12.2705 3.16994 12.2644 3.57137 12.0078 3.81529L7.41937 8.18096L6.46674 9.08203L5.5184 8.17658C2.46685 5.27586 0.938832 3.82326 0.934349 3.81878C0.685931 3.56817 0.69203 3.16782 0.947971 2.92457C1.21016 2.67539 1.62714 2.6754 1.88931 2.9246Z" fill="url(#paint0_linear_1567_5713)"/>
<mask id="mask0_1567_5713" style="mask-type:luminance" maskUnits="userSpaceOnUse" x="0" y="2" width="13" height="8">
<path fill-rule="evenodd" clip-rule="evenodd" d="M1.88931 2.9246L6.46659 7.27533L11.0642 2.90533C11.327 2.6555 11.7451 2.65554 12.0214 2.91867C12.2705 3.16994 12.2644 3.57137 12.0078 3.81529L7.41937 8.18096L6.46674 9.08203L5.5184 8.17658C2.46685 5.27586 0.938832 3.82326 0.934349 3.81878C0.685931 3.56817 0.69203 3.16782 0.947971 2.92457C1.21016 2.67539 1.62714 2.6754 1.88931 2.9246Z" fill="white"/>
</mask>
<g mask="url(#mask0_1567_5713)">
</g>
<defs>
<linearGradient id="paint0_linear_1567_5713" x1="0.751953" y1="5.90082" x2="12.2043" y2="5.90082" gradientUnits="userSpaceOnUse">
<stop stop-color="#1166BF"/>
<stop offset="1" stop-color="#23388E"/>
</linearGradient>
</defs>
</svg>
