<svg width="102" height="54" viewBox="0 0 102 54" fill="none" xmlns="http://www.w3.org/2000/svg">
<g filter="url(#filter0_d_82_19062)">
<path d="M93.4947 1.05334H8.63759C4.73215 1.05334 1.56616 4.10595 1.56616 7.87153V44.2352C1.56616 48.0007 4.73215 51.0533 8.63759 51.0533H93.4947C97.4002 51.0533 100.566 48.0007 100.566 44.2352V7.87153C100.566 4.10595 97.4002 1.05334 93.4947 1.05334Z" fill="#B8D1EC"/>
</g>
<path d="M94.111 0.801025H8.51102C4.57139 0.801025 1.37769 3.89156 1.37769 7.70394V44.5195C1.37769 48.3318 4.57139 51.4224 8.51102 51.4224H94.111C98.0507 51.4224 101.244 48.3318 101.244 44.5195V7.70394C101.244 3.89156 98.0507 0.801025 94.111 0.801025Z" fill="#EFF5FB"/>
<path fill-rule="evenodd" clip-rule="evenodd" d="M64.3891 35.3155H45.1089L38.4927 26.1117L45.1089 16.9078H64.3891V35.3155ZM65.578 14.6068H44.4883C44.0995 14.6068 43.7345 14.7909 43.5122 15.1004L36.0686 25.4547C35.7844 25.8494 35.7844 26.374 36.0686 26.7686L43.5122 37.123C43.7345 37.4324 44.0995 37.6165 44.4883 37.6165H65.578C66.2343 37.6165 66.7669 37.1011 66.7669 36.466V15.7573C66.7669 15.1222 66.2343 14.6068 65.578 14.6068ZM48.6874 30.6641C48.9193 30.8885 49.2236 31.0012 49.528 31.0012C49.8323 31.0012 50.1367 30.8885 50.3685 30.6641L53.3919 27.7385L56.4152 30.6641C56.6471 30.8885 56.9514 31.0012 57.2558 31.0012C57.5601 31.0012 57.8645 30.8885 58.0963 30.6641C58.5612 30.2143 58.5612 29.4872 58.0963 29.0373L55.073 26.1117L58.0963 23.186C58.5612 22.7361 58.5612 22.009 58.0963 21.5592C57.6315 21.1094 56.8801 21.1094 56.4152 21.5592L53.3919 24.4849L50.3685 21.5592C49.9037 21.1094 49.1523 21.1094 48.6874 21.5592C48.2226 22.009 48.2226 22.7361 48.6874 23.186L51.7108 26.1117L48.6874 29.0373C48.2226 29.4872 48.2226 30.2143 48.6874 30.6641Z" fill="#0E1639"/>
<defs>
<filter id="filter0_d_82_19062" x="0.566162" y="1.05334" width="101" height="52" filterUnits="userSpaceOnUse" color-interpolation-filters="sRGB">
<feFlood flood-opacity="0" result="BackgroundImageFix"/>
<feColorMatrix in="SourceAlpha" type="matrix" values="0 0 0 0 0 0 0 0 0 0 0 0 0 0 0 0 0 0 127 0" result="hardAlpha"/>
<feOffset dy="1"/>
<feGaussianBlur stdDeviation="0.5"/>
<feColorMatrix type="matrix" values="0 0 0 0 0.821414 0 0 0 0 0.88629 0 0 0 0 0.954983 0 0 0 1 0"/>
<feBlend mode="normal" in2="BackgroundImageFix" result="effect1_dropShadow_82_19062"/>
<feBlend mode="normal" in="SourceGraphic" in2="effect1_dropShadow_82_19062" result="shape"/>
</filter>
</defs>
</svg>
