<svg width="36" height="32" viewBox="0 0 36 32" fill="none" xmlns="http://www.w3.org/2000/svg">
<rect y="0.230469" width="31.5433" height="31.54" rx="15.77" fill="#EBF1FF"/>
<path d="M11.8312 23.6209C11.611 23.6209 11.43 23.5498 11.2881 23.4077C11.1462 23.2656 11.0753 23.0845 11.0753 22.8645V12.9029C11.0753 12.7046 11.1498 12.5345 11.2988 12.3926C11.4478 12.2508 11.6256 12.1798 11.8321 12.1798C12.0523 12.1798 12.2334 12.2509 12.3752 12.393C12.5171 12.5351 12.5881 12.7161 12.5881 12.9362V22.8978C12.5881 23.0961 12.5114 23.2662 12.3581 23.408C12.2048 23.5499 12.0292 23.6209 11.8312 23.6209ZM19.2055 23.6209C18.9853 23.6209 18.8043 23.5498 18.6624 23.4077C18.5205 23.2656 18.4496 23.0845 18.4496 22.8645V12.9029C18.4496 12.7046 18.5262 12.5345 18.6795 12.3926C18.8328 12.2508 19.0084 12.1798 19.2064 12.1798C19.4266 12.1798 19.6077 12.2509 19.7495 12.393C19.8914 12.5351 19.9624 12.7161 19.9624 12.9362V22.8978C19.9624 23.0961 19.8879 23.2662 19.7388 23.408C19.5898 23.5499 19.4121 23.6209 19.2055 23.6209ZM7.52653 27.3131C7.32824 27.3131 7.15817 27.2365 7.0163 27.0832C6.87441 26.9299 6.80347 26.7543 6.80347 26.5563C6.80347 26.3361 6.87452 26.155 7.01663 26.0132C7.15872 25.8713 7.3398 25.8004 7.55987 25.8004H30.6957C30.894 25.8004 31.064 25.8749 31.2059 26.0239C31.3478 26.1729 31.4187 26.3507 31.4187 26.5572C31.4187 26.7774 31.3477 26.9584 31.2056 27.1003C31.0635 27.2422 30.8824 27.3131 30.6623 27.3131H7.52653ZM26.3901 23.6209C26.1699 23.6209 25.9888 23.5498 25.847 23.4077C25.7051 23.2656 25.6341 23.0845 25.6341 22.8645V12.9029C25.6341 12.7046 25.7108 12.5345 25.8641 12.3926C26.0174 12.2508 26.193 12.1798 26.391 12.1798C26.6112 12.1798 26.7922 12.2509 26.9341 12.393C27.076 12.5351 27.1469 12.7161 27.1469 12.9362V22.8978C27.1469 23.0961 27.0724 23.2662 26.9234 23.408C26.7744 23.5499 26.5966 23.6209 26.3901 23.6209ZM20.0213 2.54656L30.8905 8.44139C31.0431 8.51617 31.1693 8.62974 31.2691 8.78209C31.3688 8.93443 31.4187 9.1029 31.4187 9.28753C31.4187 9.50188 31.3371 9.67427 31.1739 9.80469C31.0106 9.93512 30.8205 10.0003 30.6034 10.0003H7.60603C7.4009 10.0003 7.21586 9.93512 7.0509 9.80469C6.88594 9.67427 6.80347 9.50188 6.80347 9.28753C6.80347 9.1029 6.8586 8.94052 6.96887 8.80036C7.07911 8.66018 7.21543 8.54053 7.37783 8.44139L18.2009 2.54656C18.4842 2.39443 18.787 2.31836 19.1095 2.31836C19.4319 2.31836 19.7359 2.39443 20.0213 2.54656ZM10.4624 8.48753H27.7598L19.1111 3.79269L10.4624 8.48753Z" fill="url(#paint0_linear_614_4004)"/>
<defs>
<linearGradient id="paint0_linear_614_4004" x1="19.1111" y1="2.31836" x2="19.1111" y2="27.3131" gradientUnits="userSpaceOnUse">
<stop stop-color="#1269C5"/>
<stop offset="1" stop-color="#23388E"/>
</linearGradient>
</defs>
</svg>
