<svg width="32" height="34" viewBox="0 0 32 34" fill="none" xmlns="http://www.w3.org/2000/svg">
<path d="M24.6536 0.244922C25.2379 0.0274584 25.9228 -0.132832 26.5111 0.15712C26.8607 0.384794 26.9156 0.848309 26.9328 1.23117C26.9887 2.10511 26.6168 2.928 26.2134 3.6784C25.4675 5.00463 24.5225 6.20323 23.547 7.36304C22.1864 8.99964 20.8227 10.6352 19.4061 12.2238C19.145 12.5383 18.8422 12.817 18.6013 13.1488C19.0972 13.6838 19.5941 14.2188 20.0656 14.7742C18.4113 14.7823 16.757 14.7834 15.1027 14.7742C15.058 13.0784 15.0306 11.3826 15.0234 9.68776C15.7215 10.1676 16.2693 10.8517 16.9734 11.3121C18.0851 10.5137 19.1033 9.58669 20.1286 8.67906C21.0848 7.79286 22.0492 6.91178 22.9281 5.94697C23.8752 4.95256 24.7948 3.91527 25.5031 2.73095C25.7226 2.33176 25.9431 1.89683 25.9289 1.42923C25.937 1.15664 25.7104 0.894252 25.436 0.89221C24.8395 0.869749 24.2563 1.03719 23.6923 1.21381C22.6578 1.56196 21.6732 2.051 20.7434 2.62375C20.8643 2.47776 21.0066 2.35218 21.1641 2.246C22.2575 1.46905 23.3946 0.723752 24.6536 0.244922Z" fill="#0161B0"/>
<path d="M11.9558 2.30318C13.8235 1.26078 16.12 1.05353 18.1523 1.69877C20.1196 2.2991 21.8095 3.71619 22.8023 5.5192C22.8643 5.65294 22.9679 5.79077 22.9283 5.94698C22.0493 6.91178 21.085 7.79287 20.1288 8.67906C19.1035 9.58669 18.0853 10.5137 16.9736 11.3121C16.2694 10.8517 15.7217 10.1676 15.0236 9.68777C15.0307 11.3826 15.0581 13.0784 15.1028 14.7742C16.7572 14.7834 18.4115 14.7823 20.0658 14.7742C19.5943 14.2188 19.0974 13.6838 18.6015 13.1488C18.8423 12.817 19.1451 12.5383 19.4063 12.2238C20.8228 10.6352 22.1865 8.99964 23.5471 7.36305C23.8063 8.56573 23.8876 9.82355 23.6162 11.0313C23.2027 13.059 21.9772 14.9059 20.266 16.0596C18.8708 17.0162 17.1636 17.5144 15.4748 17.4379C13.9861 17.4338 12.5574 16.8784 11.2973 16.1137L11.2729 16.0912C11.2374 16.0555 11.2008 16.0228 11.1622 15.9922C10.1359 15.2806 9.3148 14.3096 8.68579 13.2325C10.344 11.3832 12.1297 9.65351 14.0298 8.05628C14.2737 7.86434 14.5023 7.64789 14.7736 7.49169C14.8915 7.49373 14.9636 7.60705 15.049 7.67342C15.5215 8.1451 15.9879 8.62393 16.4604 9.09561C16.5448 7.5315 16.4838 5.96433 16.4919 4.39921L16.3984 4.28077C15.111 4.23994 13.8194 4.28282 12.5309 4.26342C12.2535 4.26342 11.9629 4.22973 11.7028 4.34918C12.2749 4.85149 12.7992 5.40689 13.3205 5.96229C11.5629 7.8087 9.87099 9.71704 8.24783 11.6837L8.133 11.7164C8.00801 11.548 7.97143 11.3397 7.92672 11.1406C7.56294 9.43865 7.73772 7.6142 8.47037 6.03274C9.18676 4.45332 10.4255 3.11382 11.9558 2.30318Z" fill="#BCBDC1"/>
<path d="M11.7031 4.34918C11.9633 4.22972 12.2539 4.26342 12.5313 4.26342C13.8198 4.28281 15.1113 4.23993 16.3988 4.28077L16.4923 4.3992C16.4842 5.96433 16.5451 7.5315 16.4608 9.09561C15.9883 8.62393 15.5219 8.1451 15.0493 7.67341C14.964 7.60705 14.8918 7.49373 14.774 7.49168C14.5027 7.64789 14.274 7.86433 14.0301 8.05627C12.1301 9.65351 10.3443 11.3832 8.68615 13.2325C7.80108 14.2637 6.90584 15.3173 6.3185 16.5547C6.15998 16.9325 5.96793 17.4031 6.20367 17.787C6.50344 18.1464 7.03489 18.0913 7.44339 18.0024C8.26546 17.784 8.99405 17.3235 9.73178 16.9151C10.2195 16.6242 10.7297 16.3638 11.1625 15.9922C11.2012 16.0228 11.2377 16.0555 11.2733 16.0912C10.8333 16.3015 10.4888 16.6558 10.0885 16.9274C9.13225 17.6002 8.15369 18.2659 7.06436 18.7038C6.56238 18.8999 5.98215 19.0428 5.46696 18.81C5.09403 18.612 4.85015 18.1964 4.83592 17.7748C4.76886 17.0397 5.09809 16.3526 5.42021 15.7165C6.13254 14.3811 7.04505 13.1662 7.99415 11.9941C8.06485 11.916 8.11298 11.82 8.13336 11.7164L8.24819 11.6837C9.86998 9.71839 11.5639 7.80818 13.3209 5.96229C12.7996 5.40689 12.2752 4.85149 11.7031 4.34918Z" fill="#DB1920"/>
<path d="M8.36272 25.331C8.35256 23.7618 9.76807 22.3927 11.3076 22.3426C12.3176 22.2814 13.4476 22.5183 14.1213 23.3371C14.7452 24.0681 14.8651 25.0768 14.8153 26.0038C14.1437 26.0222 13.471 26.0273 12.7993 25.9997C12.9009 25.4065 12.7983 24.7205 12.3318 24.3008C11.8329 23.7628 10.7812 23.9731 10.5688 24.6888C10.3961 25.0686 10.6206 25.4801 10.8858 25.7506C11.8085 26.7113 13.031 27.3127 13.9638 28.2611C14.5593 28.9054 15.0013 29.7354 15.0348 30.6277C15.11 31.5068 14.9352 32.4838 14.2717 33.1138C13.6335 33.757 12.6966 33.9509 11.8248 33.9918C10.8279 34.049 9.7132 33.8213 9.04558 33.0137C8.31191 32.1285 8.16152 30.9013 8.26415 29.7885C8.98156 29.7987 9.69897 29.7895 10.4164 29.7936C10.4184 30.3163 10.4489 30.8391 10.519 31.3567C10.6003 31.9907 11.2761 32.5155 11.9112 32.3511C12.4995 32.1898 12.9974 31.5854 12.8846 30.9524C12.8125 30.5889 12.6926 30.1867 12.3776 29.961C11.271 29.1034 10.1877 28.2162 9.11671 27.3157C8.54664 26.8359 8.33935 26.0528 8.36272 25.331ZM0.383829 22.6234C1.75565 22.6183 3.12746 22.6224 4.49928 22.6214C5.31017 22.6132 6.14952 23.0553 6.50823 23.8026C6.81206 24.4356 6.7958 25.1646 6.72365 25.8466C6.62509 26.6041 6.27248 27.4311 5.51442 27.7251C6.30906 27.7966 6.68707 28.6297 6.81612 29.3229C6.96956 30.2214 7.05492 31.1903 6.71349 32.0571C6.31516 33.026 5.30204 33.6324 4.28893 33.7202C2.98723 33.7304 1.68451 33.7212 0.382812 33.7253C0.385861 30.0243 0.384845 26.3244 0.383829 22.6234ZM2.54622 24.1252C2.54215 25.1084 2.54419 26.0926 2.5452 27.0758C2.95878 27.132 3.39573 27.132 3.78187 26.9523C4.18224 26.7797 4.4505 26.3744 4.50436 25.9466C4.56533 25.4351 4.55517 24.8307 4.15175 24.454C3.73309 24.0395 3.08986 24.0374 2.54622 24.1252ZM2.54622 28.7849C2.5391 29.8763 2.54723 30.9687 2.54317 32.0601C3.09291 32.1735 3.72192 32.2092 4.1924 31.8467C4.64967 31.4925 4.75942 30.8748 4.75637 30.3286C4.74011 29.8579 4.64459 29.3495 4.30519 29.0003C3.94445 28.6154 3.37947 28.5256 2.87749 28.5776C2.74945 28.6093 2.48525 28.5603 2.54622 28.7849ZM16.6424 22.6234C17.3801 22.6193 18.1179 22.6203 18.8556 22.6224C19.7061 24.8675 20.5648 27.1095 21.4204 29.3525C21.5007 29.5527 21.5433 29.7773 21.6917 29.9427C21.7039 27.5046 21.7008 25.0655 21.6937 22.6265C22.3471 22.6142 22.9995 22.6234 23.6519 22.6214C23.6569 26.3223 23.6509 30.0233 23.6549 33.7243C22.8958 33.7192 22.1358 33.7355 21.3767 33.7171C20.4987 31.321 19.6248 28.9227 18.7286 26.5337L18.7001 26.8522C18.7032 29.1412 18.6981 31.4302 18.7022 33.7182C18.0152 33.7314 17.3283 33.7212 16.6424 33.7253C16.6444 30.0243 16.6434 26.3244 16.6424 22.6234ZM25.482 22.6224C26.2217 22.6224 26.9615 22.6163 27.7023 22.6265C27.6942 25.7496 27.6799 28.8737 27.7084 31.9968C28.9329 31.9856 30.1583 31.9805 31.3828 31.9989C31.3727 32.5737 31.3777 33.1485 31.3777 33.7243C29.4145 33.7263 27.4503 33.7212 25.4871 33.7274C25.4799 30.0254 25.4911 26.3234 25.482 22.6224Z" fill="#21201E"/>
</svg>
