<svg width="22" height="22" viewBox="0 0 22 22" fill="none" xmlns="http://www.w3.org/2000/svg">
<path d="M4.59427 15.5503L5.54296 15.8665L4.59427 15.5503ZM5.28103 13.49L4.33234 13.1738H4.33234L5.28103 13.49ZM5.98965 12.3434L6.69676 13.0505L6.69676 13.0505L5.98965 12.3434ZM12.8333 5.49972L12.1262 4.79261L12.1262 4.79261L12.8333 5.49972ZM16.5 9.16639L17.2071 9.8735L17.2071 9.8735L16.5 9.16639ZM9.65632 16.0101L8.94921 15.303L8.94921 15.303L9.65632 16.0101ZM8.50974 16.7187L8.82597 17.6674H8.82597L8.50974 16.7187ZM6.44948 17.4055L6.7657 18.3541H6.7657L6.44948 17.4055ZM9.28045 16.3609L8.67821 15.5626L8.6782 15.5626L9.28045 16.3609ZM8.99163 16.5394L8.54693 15.6437L8.99163 16.5394ZM17.3833 6.51903L16.4873 6.96304L16.4873 6.96304L17.3833 6.51903ZM17.3833 8.14709L16.4873 7.70307L16.4873 7.70307L17.3833 8.14709ZM13.8526 4.61641L14.2967 5.51243L14.2967 5.51243L13.8526 4.61641ZM15.4807 4.61641L15.0367 5.51243L15.0367 5.51243L15.4807 4.61641ZM5.46032 13.0081L6.356 13.4528L6.356 13.4528L5.46032 13.0081ZM5.63882 12.7193L4.8405 12.117L4.8405 12.117L5.63882 12.7193ZM4.25264 17.1916L3.31073 17.5274L4.25264 17.1916ZM4.80816 17.7471L4.47228 18.689L4.47228 18.689L4.80816 17.7471ZM12.6238 5.70931C12.2332 5.31879 11.6001 5.31879 11.2096 5.70931C10.819 6.09984 10.819 6.733 11.2096 7.12353L12.6238 5.70931ZM14.8762 10.7902C15.2668 11.1807 15.8999 11.1807 16.2904 10.7902C16.681 10.3997 16.681 9.7665 16.2904 9.37598L14.8762 10.7902ZM5.54296 15.8665L6.22971 13.8062L4.33234 13.1738L3.64559 15.234L5.54296 15.8665ZM6.69676 13.0505L13.5404 6.20683L12.1262 4.79261L5.28255 11.6363L6.69676 13.0505ZM15.7929 8.45928L8.94921 15.303L10.3634 16.7172L17.2071 9.8735L15.7929 8.45928ZM8.19351 15.77L6.13325 16.4568L6.7657 18.3541L8.82597 17.6674L8.19351 15.77ZM8.94921 15.303C8.74773 15.5045 8.71183 15.5372 8.67821 15.5626L9.88269 17.1592C10.053 17.0308 10.1997 16.8809 10.3634 16.7172L8.94921 15.303ZM8.82597 17.6674C9.04565 17.5942 9.24529 17.5299 9.43633 17.4351L8.54693 15.6437C8.5092 15.6625 8.46384 15.6799 8.19351 15.77L8.82597 17.6674ZM8.6782 15.5626C8.63705 15.5936 8.5931 15.6208 8.54693 15.6437L9.43633 17.4351C9.59333 17.3571 9.74276 17.2648 9.88269 17.1592L8.6782 15.5626ZM15.7929 6.20683C16.3498 6.76373 16.4449 6.87757 16.4873 6.96304L18.2793 6.07501C18.0545 5.62131 17.6498 5.23534 17.2071 4.79262L15.7929 6.20683ZM17.2071 9.8735C17.6498 9.43078 18.0545 9.0448 18.2793 8.5911L16.4873 7.70307C16.4449 7.78854 16.3498 7.90238 15.7929 8.45928L17.2071 9.8735ZM16.4873 6.96304C16.6028 7.19619 16.6028 7.46992 16.4873 7.70307L18.2793 8.5911C18.6722 7.7984 18.6722 6.86771 18.2793 6.07501L16.4873 6.96304ZM13.5404 6.20683C14.0973 5.64993 14.2112 5.55479 14.2967 5.51243L13.4086 3.72039C12.9549 3.94522 12.5689 4.3499 12.1262 4.79261L13.5404 6.20683ZM17.2071 4.79262C16.7644 4.3499 16.3784 3.94522 15.9247 3.72039L15.0367 5.51243C15.1222 5.55479 15.236 5.64993 15.7929 6.20683L17.2071 4.79262ZM14.2967 5.51243C14.5298 5.3969 14.8035 5.3969 15.0367 5.51243L15.9247 3.72039C15.132 3.32758 14.2013 3.32758 13.4086 3.72039L14.2967 5.51243ZM6.22971 13.8062C6.31982 13.5359 6.33727 13.4905 6.356 13.4528L4.56465 12.5634C4.46979 12.7544 4.40557 12.9541 4.33234 13.1738L6.22971 13.8062ZM5.28255 11.6363C5.11881 11.8 4.96896 11.9468 4.8405 12.117L6.43713 13.3215C6.4625 13.2879 6.49527 13.252 6.69676 13.0505L5.28255 11.6363ZM6.356 13.4528C6.37893 13.4066 6.40609 13.3627 6.43713 13.3215L4.8405 12.117C4.73494 12.257 4.64259 12.4064 4.56464 12.5634L6.356 13.4528ZM3.64559 15.234C3.50261 15.6629 3.37248 16.0502 3.29819 16.3664C3.22738 16.6677 3.15619 17.0941 3.31073 17.5274L5.19454 16.8557C5.24288 16.9913 5.19323 17.0448 5.24516 16.8239C5.29359 16.6177 5.38737 16.3332 5.54296 15.8665L3.64559 15.234ZM6.13325 16.4568C5.6665 16.6124 5.38199 16.7061 5.17587 16.7546C4.95491 16.8065 5.00847 16.7568 5.14404 16.8052L4.47228 18.689C4.90566 18.8435 5.33205 18.7723 5.63337 18.7015C5.94954 18.6272 6.33678 18.4971 6.7657 18.3541L6.13325 16.4568ZM3.31073 17.5274C3.50397 18.0693 3.93039 18.4958 4.47228 18.689L5.14404 16.8052C5.1676 16.8136 5.18614 16.8321 5.19454 16.8557L3.31073 17.5274ZM11.2096 7.12353L14.8762 10.7902L16.2904 9.37598L12.6238 5.70931L11.2096 7.12353Z" fill="white"/>
</svg>
