<svg width="29" height="28" viewBox="0 0 29 28" fill="none" xmlns="http://www.w3.org/2000/svg">
<path d="M10.5815 2C9.8522 2 9.15272 2.28973 8.637 2.80546C8.12127 3.32118 7.83154 4.02065 7.83154 4.75V23.25C7.83154 23.9793 8.12127 24.6788 8.637 25.1945C9.15272 25.7103 9.8522 26 10.5815 26H19.0815C19.8109 26 20.5104 25.7103 21.0261 25.1945C21.5418 24.6788 21.8315 23.9793 21.8315 23.25V4.75C21.8315 4.02065 21.5418 3.32118 21.0261 2.80546C20.5104 2.28973 19.8109 2 19.0815 2H10.5815ZM9.33154 4.75C9.33154 4.06 9.89154 3.5 10.5815 3.5H19.0815C19.7715 3.5 20.3315 4.06 20.3315 4.75V23.25C20.3315 23.94 19.7715 24.5 19.0815 24.5H10.5815C9.89154 24.5 9.33154 23.94 9.33154 23.25V4.75ZM13.0815 21C12.8826 21 12.6919 21.079 12.5512 21.2197C12.4106 21.3603 12.3315 21.5511 12.3315 21.75C12.3315 21.9489 12.4106 22.1397 12.5512 22.2803C12.6919 22.421 12.8826 22.5 13.0815 22.5H16.5815C16.7805 22.5 16.9712 22.421 17.1119 22.2803C17.2525 22.1397 17.3315 21.9489 17.3315 21.75C17.3315 21.5511 17.2525 21.3603 17.1119 21.2197C16.9712 21.079 16.7805 21 16.5815 21H13.0815Z" fill="url(#paint0_linear_614_8918)"/>
<defs>
<linearGradient id="paint0_linear_614_8918" x1="14.8315" y1="2" x2="14.8315" y2="26" gradientUnits="userSpaceOnUse">
<stop stop-color="#1166BF"/>
<stop offset="1" stop-color="#23388E"/>
</linearGradient>
</defs>
</svg>
