<svg width="25" height="25" viewBox="0 0 25 25" fill="none" xmlns="http://www.w3.org/2000/svg">
<path d="M7.57381 7.35495L7.2761 7.65266L2.81149 12.1173L3.40702 12.7128L7.5741 8.54572L11.741 12.7126L12.3362 12.1173L7.57381 7.35495ZM12.4234 12.6255L12.0387 13.0103L7.57398 17.4751L6.08568 15.9868L3.10925 13.0103L2.5139 12.415C2.51431 12.8119 2.51323 13.2089 2.5139 13.6058L7.57381 18.6657L12.4234 13.8161V12.6255ZM7.57393 9.14084L7.27622 9.43855L3.70449 13.0103L4.29973 13.6055L7.57393 10.3313L10.8481 13.6055L11.4433 13.0102L7.57393 9.14084ZM12.4234 14.4115L7.57398 19.261L2.5139 14.2009L2.51389 15.3917L7.57381 20.4516L12.4234 15.602V14.4115ZM7.57387 10.9268L7.27616 11.2245L4.59744 13.9032L5.19268 14.4985L7.57387 12.1173L9.95506 14.4985L10.5503 13.9032L7.57387 10.9268ZM12.4234 16.1974L7.57398 21.0469L2.5139 15.9868L2.5139 17.1776L7.57381 22.2375L12.4234 17.3879L12.4234 16.1974ZM17.6937 7.35478L17.396 7.65249L12.9314 12.117L13.527 12.7126L17.694 8.54555L21.861 12.7126L22.4563 12.1173L17.6937 7.35478ZM22.7538 12.4152L19.4799 15.6891L17.6939 17.4749L15.9081 15.6891L13.2291 13.0102L12.8442 12.6252V13.816L17.6937 18.6656L22.7538 13.6054L22.7538 12.4152ZM17.6938 9.14073L17.396 9.43844L13.8244 13.01L14.4197 13.6053L17.6938 10.3312L20.9681 13.6055L21.5633 13.0103L17.6938 9.14073ZM22.7538 14.2009L17.6939 19.2608L12.8442 14.4111L12.8442 15.602L17.6937 20.4514L22.7538 15.3914V14.2009ZM17.6938 10.9266L17.396 11.2243L14.7174 13.903L15.3126 14.4982L17.6938 12.1171L20.0751 14.4985L20.6704 13.9032L17.6938 10.9266ZM22.7538 15.9868L17.6939 21.0467L12.8442 16.197V17.3879L17.6937 22.2373L22.7538 17.1772L22.7538 15.9868ZM12.6339 5.86665L12.3362 6.16436L9.65735 8.8432L10.2526 9.43844L12.6339 7.05713L15.0153 9.43849L15.6105 8.84325L12.6339 5.86665ZM12.6339 4.08076L12.3362 4.37846L8.7644 7.95025L9.35964 8.54549L12.6339 5.27124L15.9082 8.54555L16.5034 7.95031L12.6339 4.08076ZM12.634 2.29492L7.87152 7.05736L8.46699 7.65283L12.6342 3.48563L16.8011 7.65254L17.3963 7.0573L12.634 2.29492Z" fill="#393939" fill-opacity="0.6"/>
</svg>
