<svg width="104" height="104" viewBox="0 0 104 104" fill="none" xmlns="http://www.w3.org/2000/svg">
<path d="M30.0601 30.544L28.7651 31.839L9.34476 51.2597L11.9352 53.8503L30.0613 35.7237L48.1865 53.8492L50.7757 51.26L30.0601 30.544ZM51.1552 53.4704L49.4814 55.1443L30.0609 74.5658L23.587 68.0918L10.64 55.1445L8.05029 52.5547C8.05209 54.2814 8.04738 56.0083 8.05029 57.7348L30.0601 79.7451L51.1552 58.6494V53.4704ZM30.0606 38.3125L28.7656 39.6075L13.2292 55.1443L15.8184 57.7335L30.0606 43.491L44.3026 57.7333L46.8918 55.144L30.0606 38.3125ZM51.1552 61.2395L30.0608 82.3343L8.05029 60.3233L8.05029 65.5033L30.0601 87.5136L51.1552 66.418V61.2395ZM30.0603 46.0812L28.7654 47.3762L17.1134 59.0285L19.7025 61.6178L30.0603 51.2597L40.4181 61.6178L43.0073 59.0285L30.0603 46.0812ZM51.1552 69.008L30.0608 90.1028L8.05029 68.0918L8.05029 73.2718L30.0601 95.2821L51.155 74.1867L51.1552 69.008ZM74.0799 30.5432L72.785 31.8382L53.3649 51.2587L55.9553 53.8492L74.0812 35.723L92.2071 53.8492L94.7963 51.26L74.0799 30.5432ZM96.0905 52.5558L81.8495 66.797L81.849 66.7965L74.0807 74.565L66.3129 66.797L54.6598 55.1438L52.9853 53.4692V58.6492L74.0799 79.7443L96.0908 57.733L96.0905 52.5558ZM74.0802 38.312L72.7852 39.607L57.2493 55.1432L59.8385 57.7325L74.0802 43.4905L88.3229 57.7335L90.9121 55.1443L74.0802 38.312ZM96.0905 60.3233L74.0807 82.3335L52.9853 61.2377L52.9855 66.418L74.0799 87.5128L96.0905 65.5018V60.3233ZM74.0802 46.0805L72.7852 47.3755L61.1335 59.0275L63.7226 61.6168L74.0802 51.259L84.4387 61.6178L87.0279 59.0285L74.0802 46.0805ZM96.0905 68.0918L74.0807 90.1021L52.9855 69.0064V74.1865L74.0799 95.2813L96.0905 73.2703L96.0905 68.0918ZM52.0706 24.0699L50.7757 25.3649L39.1232 37.0177L41.7123 39.607L52.0706 29.2484L62.4292 39.6072L65.0184 37.018L52.0706 24.0699ZM52.0706 16.3014L50.7757 17.5964L35.239 33.1335L37.8282 35.7227L52.0706 21.4799L66.3134 35.723L68.9026 33.1337L52.0706 16.3014ZM52.0709 8.53316L31.3551 29.2495L33.9453 31.8397L52.0719 13.7127L70.1973 31.8385L72.7865 29.2492L52.0709 8.53316Z" fill="white"/>
</svg>
