<svg width="56" height="56" viewBox="0 0 56 56" fill="none" xmlns="http://www.w3.org/2000/svg">
<rect width="56" height="56" fill="#F5F5F5"/>
<g id="Latest">
<path d="M-3531 -1408C-3531 -1409.1 -3530.1 -1410 -3529 -1410H13478C13479.1 -1410 13480 -1409.1 13480 -1408V7416C13480 7417.1 13479.1 7418 13478 7418H-3529C-3530.11 7418 -3531 7417.1 -3531 7416V-1408Z" fill="#E6E6E6"/>
<g id="Component 5">
<g clip-path="url(#clip0_0_1)">
<g id="Hero=IOB" clip-path="url(#clip1_0_1)">
<g id="Card BG">
<g clip-path="url(#clip2_0_1)">
<path id="Subtract" d="M196.998 26.1113L95.7167 28.6261H-53.2261C-77.6244 27.7878 -130.676 26.1113 -147.698 26.1113C-164.72 26.1113 -168.409 39.5233 -168.125 46.2293V223.938C-168.125 248.08 -154.507 252.998 -147.698 252.439C-97.4834 249.924 7.88301 244.727 27.6286 244.056C52.3105 243.218 153.592 250.762 188.487 252.439C216.403 253.78 222.815 241.262 222.531 234.836C222.815 181.746 223.212 70.3709 222.531 49.5823C221.85 28.7938 205.225 25.2731 196.998 26.1113Z" fill="url(#paint0_linear_0_1)"/>
</g>
</g>
<g id="Bank logo">
<g id="Ellipse 2" filter="url(#filter0_d_0_1)">
<circle cx="27.8604" cy="26" r="50" fill="white" fill-opacity="0.1" shape-rendering="crispEdges"/>
</g>
<g id="Ellipse 3" filter="url(#filter1_d_0_1)">
<circle cx="27.4295" cy="26" r="41.8103" fill="white"/>
</g>
<g id="Frame 20497">
<g id="Group 48095804">
<g id="indian-overseas-bank-seeklogo.com 2">
<g id="layer1">
<path id="path6974" d="M16.1108 16.4384L15.4197 17.1295L5.0556 27.4938L6.43805 28.8763L16.1114 19.2027L25.7843 28.8758L27.1661 27.494L16.1108 16.4384ZM27.3686 28.6736L26.4754 29.5669L16.1112 39.9316L12.6563 36.4766L5.74683 29.567L4.36478 28.1849C4.36574 29.1064 4.36323 30.028 4.36478 30.9494L16.1108 42.6956L27.3686 31.4375V28.6736ZM16.111 20.5843L15.42 21.2754L7.1286 29.5669L8.51038 30.9487L16.111 23.3479L23.7116 30.9486L25.0933 29.5668L16.111 20.5843ZM27.3686 32.8197L16.1112 44.0774L4.36478 32.3308L4.36478 35.0952L16.1108 46.8415L27.3686 35.5833V32.8197ZM16.1109 24.7302L15.4198 25.4213L9.20147 31.6398L10.5833 33.0216L16.1109 27.4938L21.6386 33.0216L23.0203 31.6398L16.1109 24.7302ZM27.3686 36.9656L16.1112 48.2233L4.36478 36.4766L4.36478 39.241L16.1108 50.9873L27.3685 39.7293L27.3686 36.9656ZM39.6029 16.438L38.9118 17.1291L28.5479 27.4933L29.9303 28.8758L39.6036 19.2023L49.2768 28.8758L50.6586 27.494L39.6029 16.438ZM51.3493 28.1855L43.7493 35.7856L43.749 35.7854L39.6033 39.9312L35.4578 35.7856L29.239 29.5666L28.3453 28.673V31.4374L39.6029 42.6952L51.3494 30.9484L51.3493 28.1855ZM39.603 20.584L38.9119 21.2751L30.6209 29.5664L32.0026 30.9482L39.603 23.3476L47.204 30.9487L48.5857 29.5669L39.603 20.584ZM51.3493 32.3308L39.6033 44.077L28.3453 32.8188L28.3454 35.5833L39.6029 46.8411L51.3493 35.0944V32.3308ZM39.603 24.7298L38.9119 25.4209L32.6937 31.6393L34.0755 33.0211L39.603 27.4934L45.1311 33.0216L46.5129 31.6398L39.603 24.7298ZM51.3493 36.4766L39.6033 48.2229L28.3454 36.9647V39.7292L39.6029 50.9869L51.3493 39.2402L51.3493 36.4766ZM27.8572 12.9834L27.1661 13.6745L20.9475 19.8933L22.3292 21.2751L27.8572 15.747L33.3852 21.2752L34.767 19.8934L27.8572 12.9834ZM27.8572 8.83759L27.1661 9.5287L18.8746 17.8204L20.2564 19.2022L27.8572 11.6012L35.4581 19.2023L36.8399 17.8205L27.8572 8.83759ZM27.8573 4.69189L16.8019 15.7476L18.1842 17.1299L27.8578 7.45605L37.5308 17.1293L38.9126 15.7474L27.8573 4.69189Z" fill="#1166BF"/>
</g>
</g>
</g>
</g>
</g>
</g>
</g>
<rect x="-1555.5" y="-57.5" width="2318" height="370" rx="4.5" stroke="#1166BF" stroke-dasharray="10 5"/>
</g>
<path d="M-3529 -1409H13478V-1411H-3529V-1409ZM13479 -1408V7416H13481V-1408H13479ZM13478 7417H-3529V7419H13478V7417ZM-3530 7416V-1408H-3532V7416H-3530ZM-3529 7417C-3529.55 7417 -3530 7416.55 -3530 7416H-3532C-3532 7417.66 -3530.66 7419 -3529 7419V7417ZM13479 7416C13479 7416.55 13478.6 7417 13478 7417V7419C13479.7 7419 13481 7417.66 13481 7416H13479ZM13478 -1409C13478.6 -1409 13479 -1408.55 13479 -1408H13481C13481 -1409.66 13479.7 -1411 13478 -1411V-1409ZM-3529 -1411C-3530.66 -1411 -3532 -1409.66 -3532 -1408H-3530C-3530 -1408.55 -3529.55 -1409 -3529 -1409V-1411Z" fill="black"/>
</g>
<defs>
<filter id="filter0_d_0_1" x="-67.0292" y="-77.3063" width="189.779" height="189.779" filterUnits="userSpaceOnUse" color-interpolation-filters="sRGB">
<feFlood flood-opacity="0" result="BackgroundImageFix"/>
<feColorMatrix in="SourceAlpha" type="matrix" values="0 0 0 0 0 0 0 0 0 0 0 0 0 0 0 0 0 0 127 0" result="hardAlpha"/>
<feOffset dy="-8.41679"/>
<feGaussianBlur stdDeviation="22.4448"/>
<feComposite in2="hardAlpha" operator="out"/>
<feColorMatrix type="matrix" values="0 0 0 0 0 0 0 0 0 0 0 0 0 0 1 0 0 0 0.06 0"/>
<feBlend mode="normal" in2="BackgroundImageFix" result="effect1_dropShadow_0_1"/>
<feBlend mode="normal" in="SourceGraphic" in2="effect1_dropShadow_0_1" result="shape"/>
</filter>
<filter id="filter1_d_0_1" x="-59.2704" y="-69.1166" width="173.4" height="173.4" filterUnits="userSpaceOnUse" color-interpolation-filters="sRGB">
<feFlood flood-opacity="0" result="BackgroundImageFix"/>
<feColorMatrix in="SourceAlpha" type="matrix" values="0 0 0 0 0 0 0 0 0 0 0 0 0 0 0 0 0 0 127 0" result="hardAlpha"/>
<feOffset dy="-8.41679"/>
<feGaussianBlur stdDeviation="22.4448"/>
<feComposite in2="hardAlpha" operator="out"/>
<feColorMatrix type="matrix" values="0 0 0 0 0 0 0 0 0 0 0 0 0 0 1 0 0 0 0.06 0"/>
<feBlend mode="normal" in2="BackgroundImageFix" result="effect1_dropShadow_0_1"/>
<feBlend mode="normal" in="SourceGraphic" in2="effect1_dropShadow_0_1" result="shape"/>
</filter>
<linearGradient id="paint0_linear_0_1" x1="27.3836" y1="26" x2="27.3836" y2="252.539" gradientUnits="userSpaceOnUse">
<stop stop-color="#1166BF"/>
<stop offset="1" stop-color="#23388E"/>
</linearGradient>
<clipPath id="clip0_0_1">
<rect x="-1556" y="-58" width="2319" height="371" rx="5" fill="white"/>
</clipPath>
<clipPath id="clip1_0_1">
<rect width="391.046" height="329" fill="white" transform="translate(-168 -36)"/>
</clipPath>
<clipPath id="clip2_0_1">
<rect x="-168.14" y="26" width="391.046" height="197" rx="19" fill="white"/>
</clipPath>
</defs>
</svg>
