<svg width="147" height="11" viewBox="0 0 147 11" fill="none" xmlns="http://www.w3.org/2000/svg">
<rect width="147" height="11" fill="#F5F5F5"/>
<g id="Latest">
<path d="M-2584 -2376C-2584 -2377.1 -2583.1 -2378 -2582 -2378H14425C14426.1 -2378 14427 -2377.1 14427 -2376V6448C14427 6449.1 14426.1 6450 14425 6450H-2582C-2583.11 6450 -2584 6449.1 -2584 6448V-2376Z" fill="#E0E0E0"/>
<g id="Select SIM" clip-path="url(#clip0_0_1)">
<rect width="428" height="926" transform="translate(-141 -233)" fill="white"/>
<g id="Frame 1000002438">
<g id="Group 48095804">
<g id="Frame 20496">
<path id="path1065" d="M0.158936 9.85156H2.88333V1.03752H0.158936V9.85156Z" fill="url(#paint0_linear_0_1)"/>
<g id="g1067">
<path id="path1069" d="M9.28603 3.32041C8.78597 3.32041 8.36185 3.41154 8.01387 3.59401C7.66589 3.77627 7.32181 4.07997 6.98186 4.5049V3.46473H4.70752V9.84961H7.14978V6.78335C7.14978 6.20235 7.24176 5.79948 7.42573 5.57495C7.60971 5.35063 7.84986 5.23827 8.14598 5.23827C8.41391 5.23827 8.62196 5.32156 8.77013 5.48774C8.91788 5.65412 8.99196 5.93782 8.99196 6.33863V9.84961H11.4464V5.79144C11.4464 4.94962 11.2552 4.32738 10.8733 3.92471C10.4913 3.52185 9.96204 3.32041 9.28603 3.32041Z" fill="url(#paint1_linear_0_1)"/>
</g>
<g id="g1071">
<path id="path1073" d="M16.7984 7.83784C16.5904 8.08236 16.3303 8.20463 16.0183 8.20463C15.7261 8.20463 15.4812 8.08339 15.2832 7.84093C15.0851 7.59847 14.9861 7.21663 14.9861 6.69541C14.9861 6.13832 15.0822 5.74164 15.2742 5.50516C15.4662 5.26867 15.7043 5.15033 15.9883 5.15033C16.3124 5.15033 16.5803 5.27362 16.7923 5.52021C17.0044 5.76659 17.1104 6.14039 17.1104 6.6414C17.1104 7.19457 17.0063 7.59352 16.7984 7.83784ZM17.0925 4.09223C16.8523 3.83575 16.5772 3.64338 16.2673 3.51514C15.9572 3.3869 15.6123 3.32278 15.2322 3.32278C14.4521 3.32278 13.809 3.60318 13.303 4.16439C12.7967 4.7256 12.5438 5.53526 12.5438 6.59336C12.5438 7.53929 12.7727 8.34297 13.2309 9.00418C13.689 9.66559 14.3521 9.99609 15.2203 9.99609C15.6522 9.99609 16.0442 9.90393 16.3963 9.71961C16.6603 9.57941 16.9524 9.30891 17.2724 8.90789V9.85198H19.5588V1.03814H17.0925V4.09223Z" fill="url(#paint2_linear_0_1)"/>
</g>
<path id="path1075" d="M21.1409 9.85352H23.5831V3.46844H21.1409V9.85352Z" fill="url(#paint3_linear_0_1)"/>
<g id="g1079">
<path id="path1081" d="M29.4912 7.21564C29.4912 7.52016 29.4423 7.76778 29.3443 7.95808C29.2462 8.14838 29.0801 8.30982 28.8461 8.44198C28.6121 8.57434 28.359 8.64053 28.087 8.64053C27.8271 8.64053 27.6301 8.5795 27.496 8.45703C27.362 8.33497 27.2949 8.17745 27.2949 7.98509C27.2949 7.81685 27.363 7.66655 27.499 7.53418C27.631 7.40594 27.945 7.27584 28.4411 7.14348C28.8052 7.05132 29.1552 6.94514 29.4912 6.82473V7.21564ZM31.8796 8.4962V5.67653C31.8796 5.37593 31.8197 5.06027 31.6995 4.72956C31.5796 4.39886 31.4153 4.1434 31.2075 3.963C30.9114 3.70239 30.5414 3.53106 30.0973 3.44879C29.6534 3.36674 29.0653 3.32571 28.3331 3.32571C27.8771 3.32571 27.4529 3.35973 27.0609 3.42776C26.6689 3.49601 26.3608 3.59229 26.1367 3.71641C25.8248 3.88878 25.5857 4.09227 25.4198 4.32669C25.2537 4.56112 25.1265 4.88275 25.0387 5.2916L27.3729 5.53819C27.469 5.2615 27.5949 5.07326 27.7511 4.97306C27.9512 4.84482 28.251 4.78069 28.6512 4.78069C28.9632 4.78069 29.1811 4.84069 29.3052 4.96089C29.4293 5.08109 29.4912 5.2916 29.4912 5.59221C29.1873 5.71241 28.8992 5.80972 28.6272 5.88395C28.3551 5.95796 27.761 6.08744 26.8449 6.27156C26.0808 6.42413 25.5566 6.65649 25.2727 6.96905C24.9887 7.28162 24.8467 7.68057 24.8467 8.1655C24.8467 8.68259 25.0436 9.11741 25.4377 9.47018C25.8318 9.82295 26.4088 9.99902 27.169 9.99902C27.741 9.99902 28.2432 9.91099 28.6751 9.73471C28.9912 9.60234 29.3091 9.38194 29.6293 9.07329C29.6571 9.25782 29.6853 9.39307 29.7133 9.47925C29.7413 9.56543 29.8012 9.69058 29.8934 9.85491H32.1856C32.0576 9.59038 31.9747 9.37307 31.9366 9.20256C31.8985 9.03226 31.8796 8.7966 31.8796 8.4962Z" fill="url(#paint4_linear_0_1)"/>
</g>
<g id="g1083">
<path id="path1085" d="M37.9678 3.32725C37.4677 3.32725 37.0436 3.41838 36.6956 3.60084C36.3476 3.7831 36.0034 4.0868 35.6636 4.51173V3.47157H33.3893V9.85645H35.8315V6.79019C35.8315 6.20918 35.9235 5.80631 36.1075 5.58179C36.2915 5.35747 36.5316 5.2451 36.8277 5.2451C37.0957 5.2451 37.3037 5.3284 37.4519 5.49458C37.5996 5.66096 37.6737 5.94466 37.6737 6.34547V9.85645H40.1281V5.79827C40.1281 4.95645 39.937 4.33421 39.555 3.93155C39.1731 3.52868 38.6438 3.32725 37.9678 3.32725Z" fill="url(#paint5_linear_0_1)"/>
</g>
<g id="g1087">
<path id="path1089" d="M51.4089 7.39942C51.0887 7.78023 50.6368 7.97053 50.0528 7.97053C49.4846 7.97053 49.0356 7.77631 48.7055 7.38726C48.3756 6.99861 48.2106 6.35926 48.2106 5.4694C48.2106 4.57171 48.3765 3.92844 48.7086 3.53959C49.0405 3.15095 49.4805 2.95632 50.0287 2.95632C50.6008 2.95632 51.0539 3.14786 51.3879 3.53052C51.7219 3.91339 51.889 4.51955 51.889 5.3492C51.889 6.33514 51.7289 7.01861 51.4089 7.39942ZM50.0347 0.894142C48.6065 0.894142 47.4924 1.29516 46.6923 2.09656C45.892 2.89838 45.4922 4.01854 45.4922 5.45744C45.4922 6.48771 45.6941 7.3452 46.0982 8.03073C46.5024 8.71606 47.0294 9.21707 47.6795 9.53376C48.3296 9.85045 49.1506 10.0088 50.1427 10.0088C51.1188 10.0088 51.9341 9.82529 52.5881 9.4585C53.2423 9.09172 53.7423 8.57875 54.0882 7.9194C54.4342 7.26025 54.6074 6.41555 54.6074 5.38528C54.6074 3.96658 54.2113 2.86333 53.4192 2.07553C52.627 1.28794 51.4991 0.894142 50.0347 0.894142Z" fill="url(#paint6_linear_0_1)"/>
</g>
<g id="g1091">
<path id="path1093" d="M59.0016 7.51758L57.7652 3.47136H55.224L57.8743 9.85645H60.0406L62.7491 3.47136H60.2845L59.0016 7.51758Z" fill="url(#paint7_linear_0_1)"/>
</g>
<g id="g1095">
<path id="path1097" d="M65.6347 6.09616C65.6746 5.71535 65.7687 5.42876 65.9168 5.2364C66.1487 4.92775 66.4589 4.77333 66.847 4.77333C67.1828 4.77333 67.454 4.8758 67.66 5.08012C67.866 5.28444 67.993 5.62339 68.0411 6.09616H65.6347ZM68.9052 3.73935C68.377 3.46287 67.6569 3.32453 66.7449 3.32453C65.6207 3.32453 64.7395 3.63317 64.1014 4.25026C63.4635 4.86776 63.1443 5.67535 63.1443 6.67345C63.1443 7.37486 63.3034 7.98515 63.6215 8.50409C63.9394 9.02324 64.3405 9.40199 64.8245 9.64033C65.3085 9.87888 65.9728 9.99805 66.8169 9.99805C67.7891 9.99805 68.535 9.85888 69.055 9.58013C69.5753 9.30179 70.0192 8.84181 70.3873 8.2006L67.9811 7.97793C67.829 8.1705 67.687 8.30472 67.5551 8.3808C67.339 8.501 67.111 8.5612 66.8708 8.5612C66.4908 8.5612 66.1827 8.42286 65.9467 8.14638C65.7787 7.95401 65.6728 7.66145 65.6287 7.26848H70.5254V6.99199C70.5254 6.15038 70.3873 5.46691 70.1113 4.94177C69.8354 4.41685 69.4333 4.01584 68.9052 3.73935Z" fill="url(#paint8_linear_0_1)"/>
</g>
<g id="g1099">
<path id="path1101" d="M75.4266 3.32529C75.0824 3.32529 74.7934 3.41044 74.5595 3.58075C74.3255 3.75105 74.0985 4.06279 73.8785 4.51555V3.46962H71.592V9.85449H74.0464V7.71417C74.0464 6.69216 74.1724 5.99466 74.4247 5.62189C74.6004 5.35737 74.8486 5.22521 75.1686 5.22521C75.3365 5.22521 75.5647 5.28521 75.8528 5.40541L76.6089 3.66198C76.1806 3.43745 75.7866 3.32529 75.4266 3.32529Z" fill="url(#paint9_linear_0_1)"/>
</g>
<g id="g1103">
<path id="path1105" d="M82.205 6.0742C81.8089 5.91009 81.2047 5.78185 80.3927 5.68989C79.8566 5.62577 79.5084 5.55361 79.3487 5.47361C79.1886 5.39362 79.1084 5.27548 79.1084 5.11961C79.1084 4.97941 79.1715 4.86044 79.2977 4.7623C79.4234 4.66437 79.6247 4.61509 79.9006 4.61509C80.1727 4.61509 80.4046 4.67942 80.5968 4.80766C80.7367 4.90374 80.8368 5.05404 80.8968 5.25857L83.2132 5.03013C83.0531 4.61324 82.852 4.28274 82.61 4.03821C82.368 3.79348 82.0657 3.61328 81.7037 3.497C81.3418 3.38071 80.7806 3.32257 80.0206 3.32257C79.3004 3.32257 78.7264 3.39783 78.2984 3.54792C77.8702 3.69802 77.5343 3.92523 77.2903 4.22954C77.0462 4.53386 76.9242 4.89632 76.9242 5.31671C76.9242 5.70102 77.0371 6.04348 77.2633 6.34368C77.4893 6.64408 77.7673 6.85726 78.0976 6.98344C78.4274 7.10962 79.0164 7.24673 79.8646 7.39476C80.4326 7.49497 80.7826 7.57888 80.9147 7.64692C81.0987 7.743 81.1909 7.87907 81.1909 8.05515C81.1909 8.21143 81.1207 8.34132 80.9808 8.44523C80.8007 8.58543 80.5468 8.65553 80.2188 8.65553C79.9187 8.65553 79.6786 8.59348 79.4985 8.46915C79.3185 8.34483 79.1785 8.13844 79.0785 7.8498L76.6542 8.07824C76.7941 8.69141 77.1112 9.16458 77.6053 9.49715C78.0994 9.82992 78.9285 9.99609 80.0926 9.99609C80.9166 9.99609 81.5679 9.89301 82.0459 9.68683C82.524 9.48065 82.874 9.20335 83.0961 8.85511C83.3181 8.50667 83.429 8.14834 83.429 7.7799C83.429 7.41559 83.3241 7.08138 83.114 6.77685C82.9039 6.47274 82.601 6.23832 82.205 6.0742Z" fill="url(#paint10_linear_0_1)"/>
</g>
<g id="g1107">
<path id="path1109" d="M86.7564 6.09713C86.7965 5.71632 86.8904 5.42974 87.0385 5.23738C87.2705 4.92873 87.5806 4.7743 87.9687 4.7743C88.3045 4.7743 88.5755 4.87677 88.7817 5.0811C88.9877 5.28542 89.1149 5.62437 89.1629 6.09713H86.7564ZM90.0267 3.74033C89.4989 3.46385 88.7787 3.3255 87.8664 3.3255C86.7424 3.3255 85.8612 3.63415 85.2231 4.25123C84.5852 4.86873 84.266 5.67633 84.266 6.67443C84.266 7.37584 84.4251 7.98612 84.7432 8.50507C85.0614 9.02422 85.4622 9.40297 85.9464 9.64131C86.4304 9.87985 87.0945 9.99902 87.9386 9.99902C88.9106 9.99902 89.6567 9.85985 90.177 9.5811C90.697 9.30277 91.1409 8.84279 91.509 8.20158L89.1028 7.97891C88.9507 8.17147 88.8087 8.3057 88.6768 8.38178C88.4605 8.50198 88.2325 8.56218 87.9926 8.56218C87.6125 8.56218 87.3046 8.42384 87.0684 8.14735C86.9005 7.95499 86.7945 7.66243 86.7504 7.26945H91.6471V6.99297C91.6471 6.15136 91.509 5.46788 91.233 4.94275C90.9571 4.41783 90.555 4.01681 90.0267 3.74033Z" fill="url(#paint11_linear_0_1)"/>
</g>
<g id="g1111">
<path id="path1113" d="M97.1311 7.21076C97.1311 7.51528 97.0822 7.7629 96.9842 7.9532C96.886 8.1435 96.7202 8.30494 96.486 8.4371C96.2522 8.56946 95.9989 8.63564 95.7271 8.63564C95.4668 8.63564 95.27 8.57462 95.1361 8.45215C95.0019 8.33009 94.9348 8.17257 94.9348 7.98021C94.9348 7.81197 95.0029 7.66167 95.1389 7.5293C95.2708 7.40106 95.5851 7.27096 96.081 7.1386C96.4451 7.04643 96.7951 6.94025 97.1311 6.81985V7.21076ZM99.5195 8.49132V5.67165C99.5195 5.37104 99.4594 5.05539 99.3394 4.72468C99.2194 4.39397 99.0552 4.13852 98.8474 3.95812C98.5513 3.69751 98.1813 3.52618 97.7372 3.44391C97.2933 3.36185 96.7052 3.32082 95.973 3.32082C95.517 3.32082 95.0928 3.35484 94.7008 3.42288C94.3088 3.49113 94.0007 3.58741 93.7768 3.71153C93.4647 3.88389 93.2255 4.08739 93.0597 4.32181C92.8934 4.55623 92.7664 4.87787 92.6786 5.28672L95.013 5.5333C95.1089 5.25662 95.2348 5.06838 95.391 4.96817C95.5908 4.83993 95.8909 4.77581 96.2909 4.77581C96.6031 4.77581 96.8212 4.83581 96.9451 4.95601C97.069 5.07621 97.1311 5.28672 97.1311 5.58732C96.827 5.70752 96.5391 5.80484 96.267 5.87906C95.995 5.95308 95.4009 6.08256 94.4847 6.26667C93.7207 6.41925 93.1965 6.65161 92.9125 6.96417C92.6284 7.27673 92.4866 7.67569 92.4866 8.16061C92.4866 8.6777 92.6835 9.11253 93.0776 9.4653C93.4717 9.81807 94.0487 9.99414 94.8089 9.99414C95.3807 9.99414 95.8831 9.9061 96.315 9.72982C96.6309 9.59746 96.949 9.37705 97.2692 9.06841C97.297 9.25294 97.3252 9.38819 97.3532 9.47437C97.381 9.56055 97.4411 9.6857 97.5332 9.85002H99.8255C99.6973 9.5855 99.6143 9.36819 99.5765 9.19768C99.5384 9.02738 99.5195 8.79172 99.5195 8.49132Z" fill="url(#paint12_linear_0_1)"/>
</g>
<g id="g1115">
<path id="path1117" d="M106.132 6.0742C105.736 5.91009 105.132 5.78185 104.319 5.68989C103.783 5.62577 103.435 5.55361 103.275 5.47361C103.115 5.39362 103.035 5.27548 103.035 5.11961C103.035 4.97941 103.098 4.86044 103.224 4.7623C103.35 4.66437 103.551 4.61509 103.827 4.61509C104.099 4.61509 104.331 4.67942 104.524 4.80766C104.664 4.90374 104.764 5.05404 104.824 5.25857L107.14 5.03013C106.98 4.61324 106.779 4.28274 106.537 4.03821C106.295 3.79348 105.992 3.61328 105.63 3.497C105.269 3.38071 104.707 3.32257 103.947 3.32257C103.227 3.32257 102.653 3.39783 102.225 3.54792C101.797 3.69802 101.461 3.92523 101.217 4.22954C100.973 4.53386 100.851 4.89632 100.851 5.31671C100.851 5.70102 100.964 6.04348 101.19 6.34368C101.416 6.64408 101.694 6.85726 102.024 6.98344C102.354 7.10962 102.943 7.24673 103.791 7.39476C104.359 7.49497 104.709 7.57888 104.842 7.64692C105.025 7.743 105.118 7.87907 105.118 8.05515C105.118 8.21143 105.047 8.34132 104.908 8.44523C104.728 8.58543 104.474 8.65553 104.146 8.65553C103.846 8.65553 103.605 8.59348 103.425 8.46915C103.245 8.34483 103.105 8.13844 103.005 7.8498L100.581 8.07824C100.721 8.69141 101.038 9.16458 101.532 9.49715C102.026 9.82992 102.855 9.99609 104.019 9.99609C104.843 9.99609 105.495 9.89301 105.973 9.68683C106.451 9.48065 106.801 9.20335 107.023 8.85511C107.245 8.50667 107.356 8.14834 107.356 7.7799C107.356 7.41559 107.251 7.08138 107.041 6.77685C106.831 6.47274 106.528 6.23832 106.132 6.0742Z" fill="url(#paint13_linear_0_1)"/>
</g>
<g id="g1119">
<path id="path1121" d="M117.849 7.71108C117.657 7.87747 117.327 7.96055 116.859 7.96055H115.473V6.17507H116.853C117.329 6.17507 117.662 6.25424 117.852 6.41258C118.042 6.57093 118.137 6.78019 118.137 7.0408C118.137 7.32141 118.041 7.5447 117.849 7.71108ZM115.473 2.82614H116.673C117.085 2.82614 117.374 2.8983 117.54 3.04263C117.706 3.18695 117.789 3.38735 117.789 3.64384C117.789 3.92032 117.706 4.13186 117.54 4.27804C117.374 4.42442 117.079 4.49761 116.655 4.49761H115.473V2.82614ZM119.019 5.16501C119.435 5.02068 119.751 4.8244 119.967 4.57576C120.292 4.20299 120.453 3.756 120.453 3.23499C120.453 2.61378 120.226 2.09277 119.772 1.67176C119.318 1.25095 118.667 1.04045 117.819 1.04045H112.73V9.85449H117.423C117.623 9.85449 118.029 9.81449 118.641 9.73429C119.101 9.67409 119.445 9.57801 119.673 9.44564C120.041 9.23328 120.331 8.94464 120.543 8.57991C120.755 8.21518 120.862 7.80427 120.862 7.34739C120.862 6.78617 120.712 6.32042 120.414 5.94951C120.116 5.5788 119.651 5.31737 119.019 5.16501Z" fill="url(#paint14_linear_0_1)"/>
</g>
<g id="g1123">
<path id="path1125" d="M126.505 7.2088C126.505 7.51333 126.456 7.76094 126.358 7.95125C126.26 8.14155 126.094 8.30298 125.86 8.43514C125.626 8.56751 125.372 8.63369 125.101 8.63369C124.84 8.63369 124.643 8.57266 124.51 8.45019C124.375 8.32814 124.308 8.17062 124.308 7.97826C124.308 7.81001 124.376 7.65971 124.512 7.52735C124.644 7.39911 124.959 7.26901 125.455 7.13664C125.819 7.04448 126.169 6.9383 126.505 6.81789V7.2088ZM128.893 8.48937V5.6697C128.893 5.36909 128.833 5.05343 128.713 4.72273C128.593 4.39202 128.429 4.13657 128.221 3.95616C127.925 3.69556 127.555 3.52422 127.111 3.44196C126.667 3.3599 126.079 3.31887 125.347 3.31887C124.89 3.31887 124.466 3.35289 124.074 3.42093C123.682 3.48917 123.374 3.58546 123.15 3.70958C122.838 3.88194 122.599 4.08544 122.433 4.31986C122.267 4.55428 122.14 4.87592 122.052 5.28476L124.387 5.53135C124.482 5.25466 124.608 5.06642 124.765 4.96622C124.964 4.83798 125.264 4.77386 125.664 4.77386C125.977 4.77386 126.195 4.83386 126.319 4.95406C126.443 5.07426 126.505 5.28476 126.505 5.58537C126.201 5.70557 125.913 5.80289 125.641 5.87711C125.369 5.95113 124.774 6.08061 123.858 6.26472C123.094 6.41729 122.57 6.64965 122.286 6.96222C122.002 7.27478 121.86 7.67373 121.86 8.15866C121.86 8.67575 122.057 9.11058 122.451 9.46334C122.845 9.81611 123.422 9.99219 124.182 9.99219C124.754 9.99219 125.257 9.90415 125.689 9.72787C126.004 9.5955 126.323 9.3751 126.643 9.06645C126.671 9.25098 126.699 9.38623 126.727 9.47242C126.754 9.5586 126.815 9.68375 126.907 9.84807H129.199C129.071 9.58355 128.988 9.36624 128.95 9.19573C128.912 9.02543 128.893 8.78977 128.893 8.48937Z" fill="url(#paint15_linear_0_1)"/>
</g>
<g id="g1127">
<path id="path1129" d="M134.932 3.32529C134.432 3.32529 134.008 3.41642 133.66 3.59889C133.312 3.78115 132.968 4.08485 132.628 4.50978V3.46962H130.354V9.85449H132.796V6.78823C132.796 6.20723 132.888 5.80436 133.072 5.57983C133.256 5.35551 133.496 5.24315 133.792 5.24315C134.06 5.24315 134.268 5.32644 134.416 5.49262C134.564 5.65901 134.638 5.9427 134.638 6.34351V9.85449H137.093V5.79632C137.093 4.9545 136.902 4.33226 136.519 3.9296C136.137 3.52673 135.608 3.32529 134.932 3.32529Z" fill="url(#paint16_linear_0_1)"/>
</g>
<g id="g1131">
<path id="path1133" d="M143.584 5.70036L145.87 3.46355H142.863L141.039 5.58428V1.03479H138.543V9.84863H141.039V8.18912L141.959 7.28916L143.25 9.84863H146.002L143.584 5.70036Z" fill="url(#paint17_linear_0_1)"/>
</g>
</g>
</g>
</g>
</g>
<path d="M-2582 -2377H14425V-2379H-2582V-2377ZM14426 -2376V6448H14428V-2376H14426ZM14425 6449H-2582V6451H14425V6449ZM-2583 6448V-2376H-2585V6448H-2583ZM-2582 6449C-2582.55 6449 -2583 6448.55 -2583 6448H-2585C-2585 6449.66 -2583.66 6451 -2582 6451V6449ZM14426 6448C14426 6448.55 14425.6 6449 14425 6449V6451C14426.7 6451 14428 6449.66 14428 6448H14426ZM14425 -2377C14425.6 -2377 14426 -2376.55 14426 -2376H14428C14428 -2377.66 14426.7 -2379 14425 -2379V-2377ZM-2582 -2379C-2583.66 -2379 -2585 -2377.66 -2585 -2376H-2583C-2583 -2376.55 -2582.55 -2377 -2582 -2377V-2379Z" fill="black" fill-opacity="0.1"/>
</g>
<defs>
<linearGradient id="paint0_linear_0_1" x1="1.52113" y1="9.85156" x2="1.52113" y2="1.03752" gradientUnits="userSpaceOnUse">
<stop stop-color="#1166BF"/>
<stop offset="1" stop-color="#23388E"/>
</linearGradient>
<linearGradient id="paint1_linear_0_1" x1="8.07694" y1="9.84961" x2="8.07694" y2="3.32041" gradientUnits="userSpaceOnUse">
<stop stop-color="#1166BF"/>
<stop offset="1" stop-color="#23388E"/>
</linearGradient>
<linearGradient id="paint2_linear_0_1" x1="16.0513" y1="9.99609" x2="16.0513" y2="1.03814" gradientUnits="userSpaceOnUse">
<stop stop-color="#1166BF"/>
<stop offset="1" stop-color="#23388E"/>
</linearGradient>
<linearGradient id="paint3_linear_0_1" x1="22.362" y1="9.85352" x2="22.362" y2="3.46844" gradientUnits="userSpaceOnUse">
<stop stop-color="#1166BF"/>
<stop offset="1" stop-color="#23388E"/>
</linearGradient>
<linearGradient id="paint4_linear_0_1" x1="28.5161" y1="9.99902" x2="28.5161" y2="3.32571" gradientUnits="userSpaceOnUse">
<stop stop-color="#1166BF"/>
<stop offset="1" stop-color="#23388E"/>
</linearGradient>
<linearGradient id="paint5_linear_0_1" x1="36.7587" y1="9.85645" x2="36.7587" y2="3.32725" gradientUnits="userSpaceOnUse">
<stop stop-color="#1166BF"/>
<stop offset="1" stop-color="#23388E"/>
</linearGradient>
<linearGradient id="paint6_linear_0_1" x1="50.0498" y1="10.0088" x2="50.0498" y2="0.894142" gradientUnits="userSpaceOnUse">
<stop stop-color="#1166BF"/>
<stop offset="1" stop-color="#23388E"/>
</linearGradient>
<linearGradient id="paint7_linear_0_1" x1="58.9866" y1="9.85645" x2="58.9866" y2="3.47136" gradientUnits="userSpaceOnUse">
<stop stop-color="#1166BF"/>
<stop offset="1" stop-color="#23388E"/>
</linearGradient>
<linearGradient id="paint8_linear_0_1" x1="66.8348" y1="9.99805" x2="66.8348" y2="3.32453" gradientUnits="userSpaceOnUse">
<stop stop-color="#1166BF"/>
<stop offset="1" stop-color="#23388E"/>
</linearGradient>
<linearGradient id="paint9_linear_0_1" x1="74.1005" y1="9.85449" x2="74.1005" y2="3.32529" gradientUnits="userSpaceOnUse">
<stop stop-color="#1166BF"/>
<stop offset="1" stop-color="#23388E"/>
</linearGradient>
<linearGradient id="paint10_linear_0_1" x1="80.0416" y1="9.99609" x2="80.0416" y2="3.32257" gradientUnits="userSpaceOnUse">
<stop stop-color="#1166BF"/>
<stop offset="1" stop-color="#23388E"/>
</linearGradient>
<linearGradient id="paint11_linear_0_1" x1="87.9565" y1="9.99902" x2="87.9565" y2="3.3255" gradientUnits="userSpaceOnUse">
<stop stop-color="#1166BF"/>
<stop offset="1" stop-color="#23388E"/>
</linearGradient>
<linearGradient id="paint12_linear_0_1" x1="96.156" y1="9.99414" x2="96.156" y2="3.32082" gradientUnits="userSpaceOnUse">
<stop stop-color="#1166BF"/>
<stop offset="1" stop-color="#23388E"/>
</linearGradient>
<linearGradient id="paint13_linear_0_1" x1="103.968" y1="9.99609" x2="103.968" y2="3.32257" gradientUnits="userSpaceOnUse">
<stop stop-color="#1166BF"/>
<stop offset="1" stop-color="#23388E"/>
</linearGradient>
<linearGradient id="paint14_linear_0_1" x1="116.796" y1="9.85449" x2="116.796" y2="1.04045" gradientUnits="userSpaceOnUse">
<stop stop-color="#1166BF"/>
<stop offset="1" stop-color="#23388E"/>
</linearGradient>
<linearGradient id="paint15_linear_0_1" x1="125.53" y1="9.99219" x2="125.53" y2="3.31887" gradientUnits="userSpaceOnUse">
<stop stop-color="#1166BF"/>
<stop offset="1" stop-color="#23388E"/>
</linearGradient>
<linearGradient id="paint16_linear_0_1" x1="133.723" y1="9.85449" x2="133.723" y2="3.32529" gradientUnits="userSpaceOnUse">
<stop stop-color="#1166BF"/>
<stop offset="1" stop-color="#23388E"/>
</linearGradient>
<linearGradient id="paint17_linear_0_1" x1="142.272" y1="9.84863" x2="142.272" y2="1.03479" gradientUnits="userSpaceOnUse">
<stop stop-color="#1166BF"/>
<stop offset="1" stop-color="#23388E"/>
</linearGradient>
<clipPath id="clip0_0_1">
<rect width="428" height="926" fill="white" transform="translate(-141 -233)"/>
</clipPath>
</defs>
</svg>
