<svg width="89" height="88" viewBox="0 0 89 88" fill="none" xmlns="http://www.w3.org/2000/svg">
<path d="M22.0601 22.544L20.7651 23.839L1.34476 43.2598L3.93522 45.8503L22.0613 27.7238L40.1865 45.8493L42.7757 43.26L22.0601 22.544ZM43.1552 45.4705L41.4814 47.1443L22.0609 66.5658L15.587 60.0918L2.63999 47.1445L0.0502896 44.5548C0.0520889 46.2814 0.0473831 48.0084 0.0502896 49.7348L22.0601 71.7451L43.1552 50.6495V45.4705ZM22.0606 30.3125L20.7656 31.6075L5.22918 47.1443L7.81838 49.7335L22.0606 35.491L36.3026 49.7333L38.8918 47.144L22.0606 30.3125ZM43.1552 53.2395L22.0608 74.3344L0.050287 52.3233L0.0502857 57.5033L22.0601 79.5136L43.1552 58.418V53.2395ZM22.0603 38.0813L20.7654 39.3763L9.11335 51.0286L11.7025 53.6178L22.0603 43.2598L32.4181 53.6178L35.0073 51.0286L22.0603 38.0813ZM43.1552 61.008L22.0608 82.1029L0.050289 60.0918L0.0502877 65.2718L22.0601 87.2821L43.155 66.1868L43.1552 61.008ZM66.0799 22.5432L64.785 23.8382L45.3649 43.2588L47.9553 45.8493L66.0812 27.723L84.2071 45.8493L86.7963 43.26L66.0799 22.5432ZM88.0905 44.5558L73.8495 58.7971L73.849 58.7966L66.0807 66.5651L58.3129 58.7971L46.6598 47.1438L44.9853 45.4692V50.6492L66.0799 71.7444L88.0908 49.7331L88.0905 44.5558ZM66.0802 30.312L64.7852 31.607L49.2493 47.1433L51.8385 49.7325L66.0802 35.4905L80.3229 49.7336L82.9121 47.1443L66.0802 30.312ZM88.0905 52.3233L66.0807 74.3336L44.9853 53.2377L44.9855 58.418L66.0799 79.5129L88.0905 57.5018V52.3233ZM66.0802 38.0805L64.7852 39.3755L53.1335 51.0275L55.7226 53.6168L66.0802 43.259L76.4387 53.6178L79.0279 51.0286L66.0802 38.0805ZM88.0905 60.0918L66.0807 82.1021L44.9855 61.0065V66.1865L66.0799 87.2814L88.0905 65.2703L88.0905 60.0918ZM44.0706 16.07L42.7757 17.365L31.1232 29.0178L33.7123 31.607L44.0706 21.2485L54.4292 31.6073L57.0184 29.018L44.0706 16.07ZM44.0706 8.30147L42.7757 9.59647L27.239 25.1335L29.8282 27.7228L44.0706 13.48L58.3134 27.723L60.9026 25.1338L44.0706 8.30147ZM44.0709 0.533203L23.3551 21.2495L25.9453 23.8398L44.0719 5.71272L62.1973 23.8385L64.7865 21.2492L44.0709 0.533203Z" fill="url(#paint0_linear_614_1498)"/>
<defs>
<linearGradient id="paint0_linear_614_1498" x1="44.07" y1="0.533203" x2="44.07" y2="87.2821" gradientUnits="userSpaceOnUse">
<stop stop-color="#1166BF"/>
<stop offset="1" stop-color="#23388E"/>
</linearGradient>
</defs>
</svg>
