<svg width="37" height="36" viewBox="0 0 37 36" fill="none" xmlns="http://www.w3.org/2000/svg">
<rect width="37" height="36" fill="#F5F5F5"/>
<g id="Latest">
<path d="M-10995 -5859C-10995 -5860.1 -10994.1 -5861 -10993 -5861H6014C6015.11 -5861 6016 -5860.1 6016 -5859V2965C6016 2966.1 6015.1 2967 6014 2967H-10993C-10994.1 2967 -10995 2966.1 -10995 2965V-5859Z" fill="#E0E0E0"/>
<g id="send money verified" clip-path="url(#clip0_0_1)">
<rect width="428" height="926" transform="translate(-357 -702)" fill="white"/>
<g id="Frame 20474">
<g id="Frame 1000002164" clip-path="url(#clip1_0_1)">
<g id="Frame 20583">
<g id="Frame 1000002115">
<g id="Frame 1000002113">
<g id="Frame 20580">
<g id="Frame 20578">
<g id="Frame 20576">
<g id="Frame 20575">
<g id="indian-overseas-bank-seeklogo.com 2">
<g id="layer1">
<path id="path6974" d="M11.0562 10.9223L10.6183 11.3602L4.05042 17.928L4.92649 18.8041L11.0566 12.674L17.1864 18.8038L18.0621 17.9281L11.0562 10.9223ZM18.1904 18.6757L17.6244 19.2417L11.0565 25.8098L8.86704 23.6204L4.48845 19.2418L3.61263 18.366C3.61324 18.9499 3.61165 19.534 3.61263 20.1178L11.0562 27.5614L18.1904 20.4271V18.6757ZM11.0564 13.5495L10.6184 13.9874L5.3641 19.2417L6.23975 20.1174L11.0564 15.3008L15.8729 20.1173L16.7486 19.2416L11.0564 13.5495ZM18.1904 21.303L11.0565 28.437L3.61263 20.9932L3.61263 22.745L11.0562 30.1886L18.1904 23.0543V21.303ZM11.0563 16.1767L10.6183 16.6147L6.6777 20.5553L7.55335 21.431L11.0563 17.928L14.5592 21.431L15.4349 20.5553L11.0563 16.1767ZM18.1904 23.9302L11.0565 31.0642L3.61263 23.6204L3.61263 25.3722L11.0562 32.8158L18.1904 25.6816L18.1904 23.9302ZM25.9434 10.922L25.5055 11.36L18.9377 17.9277L19.8138 18.8038L25.9439 12.6737L32.0739 18.8038L32.9496 17.9281L25.9434 10.922ZM33.3873 18.3663L28.5711 23.1825L25.9437 25.8096L23.3167 23.1825L19.3757 19.2416L18.8094 18.6752V20.4271L25.9434 27.5611L33.3873 20.1172L33.3873 18.3663ZM25.9435 13.5493L25.5056 13.9872L20.2514 19.2414L21.1271 20.117L25.9435 15.3006L30.7603 20.1174L31.636 19.2417L25.9435 13.5493ZM33.3873 20.9932L25.9437 28.4368L18.8094 21.3024L18.8094 23.0543L25.9434 30.1883L33.3873 22.7445V20.9932ZM25.9435 16.1765L25.5056 16.6144L21.565 20.555L22.4407 21.4306L25.9435 17.9278L29.4467 21.431L30.3224 20.5553L25.9435 16.1765ZM33.3873 23.6204L25.9437 31.064L18.8094 23.9297V25.6815L25.9434 32.8155L33.3873 25.3717L33.3873 23.6204ZM18.5 8.73284L18.0621 9.17079L14.1213 13.1116L14.9969 13.9872L18.5 10.4841L22.0032 13.9873L22.8789 13.1117L18.5 8.73284ZM18.5 6.10563L18.0621 6.54359L12.8077 11.798L13.6833 12.6736L18.5 7.85693L23.3168 12.6737L24.1925 11.7981L18.5 6.10563ZM18.5001 3.47852L11.4942 10.4845L12.3701 11.3605L18.5005 5.23016L24.6303 11.36L25.506 10.4844L18.5001 3.47852Z" fill="#1166BF"/>
</g>
</g>
</g>
<rect x="-13.375" y="-11.1758" width="63.75" height="63.75" rx="4.48138" stroke="#E7E7E7" stroke-width="1.25"/>
</g>
</g>
</g>
</g>
</g>
</g>
</g>
</g>
</g>
<path d="M-10993 -5860H6014V-5862H-10993V-5860ZM6015 -5859V2965H6017V-5859H6015ZM6014 2966H-10993V2968H6014V2966ZM-10994 2965V-5859H-10996V2965H-10994ZM-10993 2966C-10993.6 2966 -10994 2965.55 -10994 2965H-10996C-10996 2966.66 -10994.7 2968 -10993 2968V2966ZM6015 2965C6015 2965.55 6014.55 2966 6014 2966V2968C6015.66 2968 6017 2966.66 6017 2965H6015ZM6014 -5860C6014.55 -5860 6015 -5859.55 6015 -5859H6017C6017 -5860.66 6015.66 -5862 6014 -5862V-5860ZM-10993 -5862C-10994.7 -5862 -10996 -5860.66 -10996 -5859H-10994C-10994 -5859.55 -10993.6 -5860 -10993 -5860V-5862Z" fill="black" fill-opacity="0.1"/>
</g>
<defs>
<clipPath id="clip0_0_1">
<rect width="428" height="926" fill="white" transform="translate(-357 -702)"/>
</clipPath>
<clipPath id="clip1_0_1">
<rect width="388" height="486.864" fill="white" transform="translate(-337 -404.666)"/>
</clipPath>
</defs>
</svg>
