<svg width="65" height="66" viewBox="0 0 65 66" fill="none" xmlns="http://www.w3.org/2000/svg">
<path d="M25.0562 22.9198L24.6183 23.3578L18.0504 29.9256L18.9265 30.8017L25.0566 24.6715L31.1864 30.8013L32.0621 29.9257L25.0562 22.9198ZM32.1904 30.6732L31.6244 31.2393L25.0565 37.8074L22.867 35.618L18.4885 31.2394L17.6126 30.3636C17.6132 30.9475 17.6117 31.5315 17.6126 32.1154L25.0562 39.5589L32.1904 32.4247V30.6732ZM25.0564 25.547L24.6184 25.985L19.3641 31.2393L20.2398 32.1149L25.0564 27.2983L29.8729 32.1149L30.7486 31.2392L25.0564 25.547ZM32.1904 33.3006L25.0565 40.4346L17.6126 32.9908L17.6126 34.7426L25.0562 42.1861L32.1904 35.0519V33.3006ZM25.0563 28.1743L24.6183 28.6123L20.6777 32.5529L21.5534 33.4285L25.0563 29.9256L28.5592 33.4285L29.4349 32.5529L25.0563 28.1743ZM32.1904 35.9278L25.0565 43.0618L17.6126 35.618L17.6126 37.3698L25.0562 44.8133L32.1904 37.6792L32.1904 35.9278ZM39.9434 22.9196L39.5055 23.3575L32.9377 29.9253L33.8138 30.8013L39.9439 24.6713L46.0739 30.8013L46.9496 29.9257L39.9434 22.9196ZM47.3873 30.3639L42.5711 35.1801L39.9437 37.8071L37.3167 35.1801L33.3757 31.2391L32.8094 30.6728V32.4246L39.9434 39.5587L47.3873 32.1148L47.3873 30.3639ZM39.9435 25.5468L39.5056 25.9848L34.2514 31.2389L35.1271 32.1146L39.9435 27.2981L44.7603 32.1149L45.636 31.2393L39.9435 25.5468ZM47.3873 32.9908L39.9437 40.4343L32.8094 33.3L32.8094 35.0519L39.9434 42.1859L47.3873 34.7421V32.9908ZM39.9435 28.1741L39.5056 28.612L35.565 32.5526L36.4407 33.4282L39.9435 29.9253L43.4467 33.4285L44.3224 32.5529L39.9435 28.1741ZM47.3873 35.618L39.9437 43.0615L32.8094 35.9273V37.6791L39.9434 44.8131L47.3873 37.3693L47.3873 35.618ZM32.5 20.7304L32.0621 21.1683L28.1213 25.1091L28.9969 25.9848L32.5 22.4817L36.0032 25.9849L36.8789 25.1092L32.5 20.7304ZM32.5 18.1032L32.0621 18.5411L26.8077 23.7955L27.6833 24.6712L32.5 19.8545L37.3168 24.6713L38.1925 23.7956L32.5 18.1032ZM32.5001 15.4761L25.4942 22.482L26.3701 23.358L32.5005 17.2277L38.6303 23.3576L39.506 22.4819L32.5001 15.4761Z" fill="#1166BF"/>
<path d="M6.9668 52.7515H7.92076V49.6652H6.9668V52.7515Z" fill="#1166BF"/>
<path d="M10.151 50.4653C9.97595 50.4653 9.82744 50.4972 9.70559 50.5611C9.58374 50.6249 9.46326 50.7312 9.34422 50.88V50.5158H8.54785V52.7515H9.40302V51.6778C9.40302 51.4744 9.43523 51.3333 9.49965 51.2547C9.56407 51.1762 9.64816 51.1368 9.75185 51.1368C9.84567 51.1368 9.91852 51.166 9.9704 51.2242C10.0221 51.2824 10.0481 51.3818 10.0481 51.5221V52.7515H10.9075V51.3305C10.9075 51.0357 10.8406 50.8179 10.7068 50.6769C10.5731 50.5358 10.3878 50.4653 10.151 50.4653Z" fill="#1166BF"/>
<path d="M12.7974 52.0465C12.7245 52.1322 12.6335 52.175 12.5242 52.175C12.4219 52.175 12.3362 52.1325 12.2668 52.0476C12.1974 51.9627 12.1628 51.829 12.1628 51.6465C12.1628 51.4515 12.1964 51.3126 12.2637 51.2297C12.3309 51.1469 12.4143 51.1055 12.5137 51.1055C12.6272 51.1055 12.721 51.1487 12.7952 51.235C12.8695 51.3213 12.9066 51.4522 12.9066 51.6276C12.9066 51.8213 12.8702 51.961 12.7974 52.0465ZM12.9004 50.735C12.8163 50.6452 12.7199 50.5778 12.6114 50.5329C12.5028 50.488 12.3821 50.4656 12.249 50.4656C11.9758 50.4656 11.7506 50.5638 11.5734 50.7603C11.3962 50.9568 11.3076 51.2403 11.3076 51.6108C11.3076 51.942 11.3877 52.2234 11.5482 52.4549C11.7086 52.6865 11.9408 52.8022 12.2448 52.8022C12.396 52.8022 12.5333 52.77 12.6566 52.7054C12.749 52.6563 12.8513 52.5616 12.9633 52.4212V52.7518H13.764V49.6656H12.9004V50.735Z" fill="#1166BF"/>
<path d="M14.3203 52.7515H15.1755V50.5157H14.3203V52.7515Z" fill="#1166BF"/>
<path d="M17.2386 51.8276C17.2386 51.9343 17.2215 52.021 17.1872 52.0876C17.1528 52.1542 17.0947 52.2108 17.0127 52.257C16.9308 52.3034 16.8422 52.3266 16.7469 52.3266C16.6559 52.3266 16.5869 52.3052 16.54 52.2623C16.4931 52.2196 16.4696 52.1644 16.4696 52.0971C16.4696 52.0382 16.4934 51.9855 16.541 51.9392C16.5872 51.8943 16.6972 51.8487 16.8709 51.8024C16.9984 51.7701 17.121 51.7329 17.2386 51.6908V51.8276ZM18.0749 52.276V51.2887C18.0749 51.1835 18.054 51.0729 18.0119 50.9571C17.9699 50.8414 17.9124 50.7519 17.8396 50.6887C17.7359 50.5975 17.6063 50.5375 17.4508 50.5087C17.2954 50.48 17.0895 50.4656 16.8331 50.4656C16.6734 50.4656 16.5249 50.4775 16.3876 50.5013C16.2504 50.5252 16.1425 50.5589 16.064 50.6024C15.9548 50.6627 15.8711 50.734 15.813 50.8161C15.7548 50.8982 15.7103 51.0108 15.6795 51.1539L16.4969 51.2403C16.5305 51.1434 16.5746 51.0775 16.6293 51.0424C16.6994 50.9975 16.8043 50.9751 16.9445 50.9751C17.0537 50.9751 17.13 50.9961 17.1735 51.0381C17.2169 51.0802 17.2386 51.1539 17.2386 51.2592C17.1322 51.3013 17.0313 51.3354 16.9361 51.3614C16.8408 51.3873 16.6328 51.4326 16.312 51.4971C16.0444 51.5505 15.8609 51.6319 15.7615 51.7413C15.662 51.8507 15.6123 51.9904 15.6123 52.1602C15.6123 52.3413 15.6813 52.4936 15.8193 52.6171C15.9572 52.7406 16.1593 52.8022 16.4255 52.8022C16.6258 52.8022 16.8016 52.7714 16.9529 52.7097C17.0635 52.6633 17.1749 52.5862 17.287 52.4781C17.2967 52.5427 17.3066 52.5901 17.3164 52.6202C17.3262 52.6504 17.3471 52.6942 17.3794 52.7518H18.1821C18.1373 52.6592 18.1082 52.5831 18.0949 52.5234C18.0816 52.4637 18.0749 52.3812 18.0749 52.276Z" fill="#1166BF"/>
<path d="M20.2018 50.4653C20.0267 50.4653 19.8782 50.4972 19.7564 50.5611C19.6345 50.6249 19.514 50.7312 19.395 50.88V50.5158H18.5986V52.7515H19.4538V51.6778C19.4538 51.4744 19.486 51.3333 19.5504 51.2547C19.6149 51.1762 19.6989 51.1368 19.8026 51.1368C19.8964 51.1368 19.9693 51.166 20.0212 51.2242C20.0729 51.2824 20.0989 51.3818 20.0989 51.5221V52.7515H20.9583V51.3305C20.9583 51.0357 20.8913 50.8179 20.7576 50.6769C20.6239 50.5358 20.4385 50.4653 20.2018 50.4653Z" fill="#1166BF"/>
<path d="M24.9106 51.891C24.7985 52.0244 24.6403 52.091 24.4358 52.091C24.2368 52.091 24.0796 52.023 23.964 51.8868C23.8485 51.7507 23.7907 51.5268 23.7907 51.2152C23.7907 50.9009 23.8488 50.6757 23.9651 50.5395C24.0813 50.4034 24.2354 50.3353 24.4274 50.3353C24.6277 50.3353 24.7863 50.4023 24.9033 50.5363C25.0202 50.6704 25.0788 50.8826 25.0788 51.1731C25.0788 51.5184 25.0227 51.7577 24.9106 51.891ZM24.4295 49.6132C23.9294 49.6132 23.5393 49.7536 23.2591 50.0342C22.9789 50.315 22.8389 50.7072 22.8389 51.211C22.8389 51.5718 22.9096 51.872 23.0511 52.1121C23.1926 52.352 23.3771 52.5275 23.6048 52.6384C23.8324 52.7492 24.1199 52.8047 24.4673 52.8047C24.809 52.8047 25.0945 52.7404 25.3235 52.612C25.5526 52.4836 25.7277 52.304 25.8488 52.0731C25.97 51.8423 26.0306 51.5465 26.0306 51.1858C26.0306 50.689 25.8919 50.3027 25.6146 50.0269C25.3372 49.7511 24.9422 49.6132 24.4295 49.6132Z" fill="#1166BF"/>
<path d="M27.5601 51.933L27.1271 50.5162H26.2373L27.1653 52.752H27.9239L28.8723 50.5162H28.0093L27.5601 51.933Z" fill="#1166BF"/>
<path d="M29.8828 51.4355C29.8968 51.3022 29.9297 51.2018 29.9816 51.1345C30.0628 51.0264 30.1714 50.9723 30.3073 50.9723C30.4249 50.9723 30.5198 51.0082 30.592 51.0797C30.6641 51.1513 30.7085 51.27 30.7254 51.4355H29.8828ZM31.028 50.6103C30.843 50.5135 30.5909 50.465 30.2715 50.465C29.8779 50.465 29.5693 50.5731 29.3459 50.7892C29.1225 51.0054 29.0107 51.2882 29.0107 51.6377C29.0107 51.8833 29.0664 52.0969 29.1778 52.2787C29.2892 52.4604 29.4296 52.593 29.5991 52.6765C29.7686 52.76 30.0012 52.8018 30.2967 52.8018C30.6371 52.8018 30.8983 52.753 31.0804 52.6554C31.2626 52.558 31.418 52.3969 31.5469 52.1724L30.7044 52.0944C30.6511 52.1618 30.6014 52.2088 30.5552 52.2355C30.4796 52.2776 30.3997 52.2986 30.3156 52.2986C30.1825 52.2986 30.0747 52.2502 29.992 52.1534C29.9332 52.086 29.8961 51.9836 29.8807 51.846H31.5953V51.7492C31.5953 51.4545 31.5469 51.2152 31.4503 51.0313C31.3537 50.8475 31.2129 50.7071 31.028 50.6103Z" fill="#1166BF"/>
<path d="M33.3398 50.4653C33.2192 50.4653 33.1181 50.4951 33.0361 50.5547C32.9542 50.6143 32.8747 50.7235 32.7977 50.882V50.5158H31.9971V52.7515H32.8565V52.002C32.8565 51.6442 32.9006 51.3999 32.9889 51.2694C33.0505 51.1768 33.1374 51.1305 33.2494 51.1305C33.3082 51.1305 33.3881 51.1515 33.489 51.1936L33.7537 50.5832C33.6038 50.5045 33.4658 50.4653 33.3398 50.4653Z" fill="#1166BF"/>
<path d="M35.6927 51.4285C35.554 51.371 35.3424 51.3261 35.0581 51.2939C34.8704 51.2715 34.7485 51.2462 34.6925 51.2182C34.6365 51.1902 34.6084 51.1488 34.6084 51.0943C34.6084 51.0452 34.6305 51.0035 34.6747 50.9691C34.7187 50.9349 34.7892 50.9176 34.8858 50.9176C34.9811 50.9176 35.0623 50.9401 35.1296 50.985C35.1786 51.0187 35.2136 51.0713 35.2346 51.1429L36.0457 51.0629C35.9896 50.917 35.9192 50.8012 35.8345 50.7156C35.7498 50.6299 35.6439 50.5668 35.5172 50.5261C35.3904 50.4854 35.1939 50.465 34.9278 50.465C34.6756 50.465 34.4746 50.4914 34.3248 50.5439C34.1748 50.5965 34.0572 50.676 33.9718 50.7826C33.8863 50.8892 33.8436 51.0161 33.8436 51.1633C33.8436 51.2978 33.8831 51.4178 33.9623 51.5229C34.0414 51.6281 34.1388 51.7027 34.2544 51.7469C34.3699 51.7911 34.5762 51.8391 34.8732 51.8909C35.0721 51.926 35.1946 51.9554 35.2409 51.9792C35.3053 52.0128 35.3376 52.0605 35.3376 52.1221C35.3376 52.1769 35.313 52.2223 35.264 52.2587C35.201 52.3078 35.1121 52.3324 34.9972 52.3324C34.8921 52.3324 34.808 52.3106 34.745 52.2671C34.6819 52.2236 34.6329 52.1513 34.5979 52.0502L33.749 52.1302C33.798 52.3449 33.9091 52.5106 34.0821 52.6271C34.2551 52.7436 34.5454 52.8018 34.953 52.8018C35.2415 52.8018 35.4696 52.7657 35.637 52.6935C35.8044 52.6213 35.9269 52.5242 36.0047 52.4022C36.0824 52.2802 36.1213 52.1548 36.1213 52.0258C36.1213 51.8982 36.0845 51.7812 36.011 51.6745C35.9374 51.5681 35.8313 51.486 35.6927 51.4285Z" fill="#1166BF"/>
<path d="M37.291 51.4355C37.305 51.3022 37.3379 51.2018 37.3898 51.1345C37.471 51.0264 37.5796 50.9723 37.7155 50.9723C37.8331 50.9723 37.928 51.0082 38.0002 51.0797C38.0723 51.1513 38.1168 51.27 38.1336 51.4355H37.291ZM38.4361 50.6103C38.2513 50.5135 37.9991 50.465 37.6797 50.465C37.2861 50.465 36.9775 50.5731 36.7541 50.7892C36.5307 51.0054 36.4189 51.2882 36.4189 51.6377C36.4189 51.8833 36.4746 52.0969 36.586 52.2787C36.6974 52.4604 36.8378 52.593 37.0074 52.6765C37.1768 52.76 37.4094 52.8018 37.7049 52.8018C38.0453 52.8018 38.3065 52.753 38.4887 52.6554C38.6708 52.558 38.8262 52.3969 38.9551 52.1724L38.1126 52.0944C38.0593 52.1618 38.0096 52.2088 37.9634 52.2355C37.8877 52.2776 37.8078 52.2986 37.7238 52.2986C37.5907 52.2986 37.4829 52.2502 37.4002 52.1534C37.3414 52.086 37.3043 51.9836 37.2889 51.846H39.0035V51.7492C39.0035 51.4545 38.9551 51.2152 38.8585 51.0313C38.7619 50.8475 38.6211 50.7071 38.4361 50.6103Z" fill="#1166BF"/>
<path d="M40.9164 51.8276C40.9164 51.9343 40.8992 52.021 40.8649 52.0876C40.8305 52.1542 40.7725 52.2108 40.6905 52.257C40.6086 52.3034 40.5199 52.3266 40.4247 52.3266C40.3336 52.3266 40.2647 52.3052 40.2178 52.2623C40.1708 52.2196 40.1473 52.1644 40.1473 52.0971C40.1473 52.0382 40.1712 51.9855 40.2188 51.9392C40.265 51.8943 40.375 51.8487 40.5487 51.8024C40.6761 51.7701 40.7987 51.7329 40.9164 51.6908V51.8276ZM41.7527 52.276V51.2887C41.7527 51.1835 41.7316 51.0729 41.6896 50.9571C41.6476 50.8414 41.5901 50.7519 41.5173 50.6887C41.4136 50.5975 41.2841 50.5375 41.1286 50.5087C40.9731 50.48 40.7672 50.4656 40.5108 50.4656C40.3511 50.4656 40.2026 50.4775 40.0654 50.5013C39.9281 50.5252 39.8202 50.5589 39.7418 50.6024C39.6325 50.6627 39.5488 50.734 39.4907 50.8161C39.4325 50.8982 39.388 51.0108 39.3573 51.1539L40.1747 51.2403C40.2083 51.1434 40.2524 51.0775 40.3071 51.0424C40.377 50.9975 40.4821 50.9751 40.6222 50.9751C40.7315 50.9751 40.8078 50.9961 40.8512 51.0381C40.8946 51.0802 40.9164 51.1539 40.9164 51.2592C40.8099 51.3013 40.7091 51.3354 40.6138 51.3614C40.5185 51.3873 40.3105 51.4326 39.9897 51.4971C39.7222 51.5505 39.5386 51.6319 39.4392 51.7413C39.3397 51.8507 39.29 51.9904 39.29 52.1602C39.29 52.3413 39.359 52.4936 39.497 52.6171C39.635 52.7406 39.837 52.8022 40.1032 52.8022C40.3034 52.8022 40.4793 52.7714 40.6306 52.7097C40.7412 52.6633 40.8526 52.5862 40.9647 52.4781C40.9744 52.5427 40.9843 52.5901 40.9941 52.6202C41.0038 52.6504 41.0249 52.6942 41.0572 52.7518H41.8598C41.8149 52.6592 41.7859 52.5831 41.7726 52.5234C41.7593 52.4637 41.7527 52.3812 41.7527 52.276Z" fill="#1166BF"/>
<path d="M44.0638 51.429C43.9251 51.3715 43.7136 51.3266 43.4292 51.2944C43.2415 51.272 43.1195 51.2467 43.0636 51.2187C43.0076 51.1907 42.9795 51.1493 42.9795 51.0947C42.9795 51.0457 43.0016 51.004 43.0458 50.9696C43.0898 50.9353 43.1603 50.9181 43.2569 50.9181C43.3521 50.9181 43.4334 50.9406 43.5007 50.9855C43.5497 51.0192 43.5847 51.0718 43.6057 51.1434L44.4168 51.0634C44.3607 50.9174 44.2903 50.8017 44.2056 50.7161C44.1208 50.6304 44.015 50.5673 43.8882 50.5266C43.7615 50.4859 43.565 50.4655 43.2989 50.4655C43.0467 50.4655 42.8457 50.4919 42.6959 50.5444C42.5459 50.597 42.4283 50.6765 42.3428 50.7831C42.2574 50.8896 42.2147 51.0166 42.2147 51.1638C42.2147 51.2983 42.2542 51.4182 42.3334 51.5234C42.4125 51.6285 42.5099 51.7032 42.6255 51.7474C42.7411 51.7916 42.9473 51.8396 43.2443 51.8914C43.4432 51.9265 43.5657 51.9559 43.612 51.9797C43.6764 52.0133 43.7087 52.061 43.7087 52.1226C43.7087 52.1773 43.6841 52.2228 43.6351 52.2592C43.5721 52.3083 43.4831 52.3329 43.3683 52.3329C43.2632 52.3329 43.1791 52.3111 43.1161 52.2676C43.053 52.2241 43.004 52.1518 42.969 52.0507L42.1201 52.1307C42.1691 52.3454 42.2802 52.5111 42.4532 52.6275C42.6262 52.7441 42.9165 52.8022 43.3241 52.8022C43.6126 52.8022 43.8407 52.7661 44.0081 52.694C44.1755 52.6218 44.298 52.5247 44.3758 52.4027C44.4535 52.2807 44.4924 52.1553 44.4924 52.0262C44.4924 51.8987 44.4556 51.7817 44.3821 51.675C44.3085 51.5685 44.2024 51.4865 44.0638 51.429Z" fill="#1166BF"/>
<path d="M48.1839 52.0005C48.1167 52.0587 48.0011 52.0878 47.8373 52.0878H47.3518V51.4626H47.8351C48.0019 51.4626 48.1184 51.4903 48.185 51.5458C48.2515 51.6012 48.2848 51.6745 48.2848 51.7658C48.2848 51.864 48.2512 51.9422 48.1839 52.0005ZM47.3518 50.29H47.7721C47.9164 50.29 48.0176 50.3153 48.0758 50.3658C48.1339 50.4163 48.1629 50.4865 48.1629 50.5763C48.1629 50.6731 48.1339 50.7472 48.0758 50.7984C48.0176 50.8496 47.9142 50.8753 47.7659 50.8753H47.3518V50.29ZM48.5937 51.109C48.7394 51.0584 48.85 50.9897 48.9256 50.9026C49.0392 50.7721 49.0958 50.6156 49.0958 50.4332C49.0958 50.2156 49.0163 50.0332 48.8574 49.8858C48.6984 49.7385 48.4704 49.6647 48.1734 49.6647H46.3916V52.751H48.0347C48.1048 52.751 48.247 52.737 48.4613 52.7089C48.6224 52.6878 48.7428 52.6542 48.8227 52.6078C48.9516 52.5335 49.0531 52.4324 49.1274 52.3047C49.2016 52.177 49.2388 52.0331 49.2388 51.8731C49.2388 51.6766 49.1865 51.5135 49.0822 51.3836C48.9779 51.2538 48.8149 51.1623 48.5937 51.109Z" fill="#1166BF"/>
<path d="M51.2015 51.8276C51.2015 51.9343 51.1844 52.021 51.1501 52.0876C51.1157 52.1542 51.0576 52.2108 50.9756 52.257C50.8938 52.3034 50.8051 52.3266 50.7099 52.3266C50.6187 52.3266 50.5498 52.3052 50.5029 52.2623C50.4559 52.2196 50.4325 52.1644 50.4325 52.0971C50.4325 52.0382 50.4562 51.9855 50.5039 51.9392C50.5501 51.8943 50.6602 51.8487 50.8338 51.8024C50.9613 51.7701 51.0839 51.7329 51.2015 51.6908V51.8276ZM52.0378 52.276V51.2887C52.0378 51.1835 52.0168 51.0729 51.9748 50.9571C51.9328 50.8414 51.8753 50.7519 51.8025 50.6887C51.6988 50.5975 51.5692 50.5375 51.4137 50.5087C51.2583 50.48 51.0524 50.4656 50.7961 50.4656C50.6363 50.4656 50.4878 50.4775 50.3505 50.5013C50.2133 50.5252 50.1054 50.5589 50.027 50.6024C49.9177 50.6627 49.834 50.734 49.7759 50.8161C49.7177 50.8982 49.6732 51.0108 49.6424 51.1539L50.4598 51.2403C50.4934 51.1434 50.5375 51.0775 50.5922 51.0424C50.6622 50.9975 50.7672 50.9751 50.9073 50.9751C51.0166 50.9751 51.093 50.9961 51.1364 51.0381C51.1798 51.0802 51.2015 51.1539 51.2015 51.2592C51.095 51.3013 50.9942 51.3354 50.899 51.3614C50.8037 51.3873 50.5957 51.4326 50.2749 51.4971C50.0073 51.5505 49.8238 51.6319 49.7244 51.7413C49.6248 51.8507 49.5752 51.9904 49.5752 52.1602C49.5752 52.3413 49.6442 52.4936 49.7821 52.6171C49.9201 52.7406 50.1222 52.8022 50.3883 52.8022C50.5886 52.8022 50.7645 52.7714 50.9157 52.7097C51.0263 52.6633 51.1377 52.5862 51.2499 52.4781C51.2596 52.5427 51.2695 52.5901 51.2793 52.6202C51.289 52.6504 51.31 52.6942 51.3423 52.7518H52.145C52.1001 52.6592 52.071 52.5831 52.0578 52.5234C52.0444 52.4637 52.0378 52.3812 52.0378 52.276Z" fill="#1166BF"/>
<path d="M54.1531 50.4653C53.9779 50.4653 53.8295 50.4972 53.7076 50.5611C53.5858 50.6249 53.4652 50.7312 53.3462 50.88V50.5158H52.5498V52.7515H53.405V51.6778C53.405 51.4744 53.4373 51.3333 53.5016 51.2547C53.5661 51.1762 53.6501 51.1368 53.7538 51.1368C53.8476 51.1368 53.9205 51.166 53.9723 51.2242C54.0241 51.2824 54.0501 51.3818 54.0501 51.5221V52.7515H54.9095V51.3305C54.9095 51.0357 54.8426 50.8179 54.7088 50.6769C54.575 50.5358 54.3897 50.4653 54.1531 50.4653Z" fill="#1166BF"/>
<path d="M57.182 51.2985L57.9825 50.5152H56.9298L56.291 51.2578V49.6648H55.417V52.751H56.291V52.1699L56.6132 51.8548L57.0652 52.751H58.0288L57.182 51.2985Z" fill="#1166BF"/>
<rect x="0.625" y="0.822754" width="63.75" height="63.75" rx="4.48138" stroke="#E7E7E7" stroke-width="1.25"/>
</svg>
