<svg width="147" height="11" viewBox="0 0 147 11" fill="none" xmlns="http://www.w3.org/2000/svg">
<path d="M0.158936 9.85159H2.88333V1.03755H0.158936V9.85159Z" fill="white"/>
<path d="M9.28603 3.31974C8.78597 3.31974 8.36185 3.41087 8.01387 3.59334C7.66589 3.7756 7.32181 4.07929 6.98186 4.50422V3.46406H4.70752V9.84894H7.14978V6.78268C7.14978 6.20168 7.24176 5.79881 7.42573 5.57428C7.60971 5.34996 7.84986 5.23759 8.14598 5.23759C8.41391 5.23759 8.62196 5.32089 8.77013 5.48707C8.91788 5.65345 8.99196 5.93715 8.99196 6.33796V9.84894H11.4464V5.79077C11.4464 4.94895 11.2552 4.32671 10.8733 3.92404C10.4913 3.52117 9.96204 3.31974 9.28603 3.31974Z" fill="white"/>
<path d="M16.7984 7.83784C16.5904 8.08236 16.3303 8.20463 16.0183 8.20463C15.7261 8.20463 15.4812 8.08339 15.2832 7.84093C15.0851 7.59847 14.9861 7.21663 14.9861 6.69541C14.9861 6.13832 15.0822 5.74164 15.2742 5.50516C15.4662 5.26867 15.7043 5.15033 15.9883 5.15033C16.3124 5.15033 16.5803 5.27362 16.7923 5.52021C17.0044 5.76659 17.1104 6.14039 17.1104 6.6414C17.1104 7.19457 17.0063 7.59352 16.7984 7.83784ZM17.0925 4.09223C16.8523 3.83575 16.5772 3.64338 16.2673 3.51514C15.9572 3.3869 15.6123 3.32278 15.2322 3.32278C14.4521 3.32278 13.809 3.60318 13.303 4.16439C12.7967 4.7256 12.5438 5.53526 12.5438 6.59336C12.5438 7.53929 12.7727 8.34297 13.2309 9.00418C13.689 9.66559 14.3521 9.99609 15.2203 9.99609C15.6522 9.99609 16.0442 9.90393 16.3963 9.71961C16.6603 9.57941 16.9524 9.30891 17.2724 8.90789V9.85198H19.5588V1.03814H17.0925V4.09223Z" fill="white"/>
<path d="M21.1409 9.85333H23.5831V3.46825H21.1409V9.85333Z" fill="white"/>
<path d="M29.4912 7.21552C29.4912 7.52004 29.4423 7.76766 29.3443 7.95796C29.2462 8.14826 29.0801 8.3097 28.8461 8.44186C28.6121 8.57422 28.359 8.6404 28.087 8.6404C27.8271 8.6404 27.6301 8.57938 27.496 8.45691C27.362 8.33485 27.2949 8.17733 27.2949 7.98497C27.2949 7.81673 27.363 7.66643 27.499 7.53406C27.631 7.40582 27.945 7.27572 28.4411 7.14336C28.8052 7.0512 29.1552 6.94501 29.4912 6.82461V7.21552ZM31.8796 8.49608V5.67641C31.8796 5.3758 31.8197 5.06015 31.6995 4.72944C31.5796 4.39873 31.4153 4.14328 31.2075 3.96288C30.9114 3.70227 30.5414 3.53094 30.0973 3.44867C29.6534 3.36661 29.0653 3.32558 28.3331 3.32558C27.8771 3.32558 27.4529 3.3596 27.0609 3.42764C26.6689 3.49589 26.3608 3.59217 26.1367 3.71629C25.8248 3.88865 25.5857 4.09215 25.4198 4.32657C25.2537 4.56099 25.1265 4.88263 25.0387 5.29148L27.3729 5.53807C27.469 5.26138 27.5949 5.07314 27.7511 4.97294C27.9512 4.84469 28.251 4.78057 28.6512 4.78057C28.9632 4.78057 29.1811 4.84057 29.3052 4.96077C29.4293 5.08097 29.4912 5.29148 29.4912 5.59208C29.1873 5.71228 28.8992 5.8096 28.6272 5.88382C28.3551 5.95784 27.761 6.08732 26.8449 6.27144C26.0808 6.42401 25.5566 6.65637 25.2727 6.96893C24.9887 7.28149 24.8467 7.68045 24.8467 8.16537C24.8467 8.68246 25.0436 9.11729 25.4377 9.47006C25.8318 9.82283 26.4088 9.9989 27.169 9.9989C27.741 9.9989 28.2432 9.91086 28.6751 9.73458C28.9912 9.60222 29.3091 9.38182 29.6293 9.07317C29.6571 9.2577 29.6853 9.39295 29.7133 9.47913C29.7413 9.56531 29.8012 9.69046 29.8934 9.85478H32.1856C32.0576 9.59026 31.9747 9.37295 31.9366 9.20244C31.8985 9.03214 31.8796 8.79648 31.8796 8.49608Z" fill="white"/>
<path d="M37.9678 3.32673C37.4677 3.32673 37.0436 3.41786 36.6956 3.60032C36.3476 3.78258 36.0034 4.08628 35.6636 4.51121V3.47105H33.3893V9.85593H35.8315V6.78967C35.8315 6.20866 35.9235 5.8058 36.1075 5.58127C36.2915 5.35695 36.5316 5.24458 36.8277 5.24458C37.0957 5.24458 37.3037 5.32788 37.4519 5.49406C37.5996 5.66044 37.6737 5.94414 37.6737 6.34495V9.85593H40.1281V5.79775C40.1281 4.95594 39.937 4.33369 39.555 3.93103C39.1731 3.52816 38.6438 3.32673 37.9678 3.32673Z" fill="white"/>
<path d="M51.4089 7.39875C51.0887 7.77956 50.6368 7.96986 50.0528 7.96986C49.4846 7.96986 49.0356 7.77564 48.7055 7.38658C48.3756 6.99794 48.2106 6.35859 48.2106 5.46873C48.2106 4.57104 48.3765 3.92777 48.7086 3.53892C49.0405 3.15028 49.4805 2.95565 50.0287 2.95565C50.6008 2.95565 51.0539 3.14719 51.3879 3.52985C51.7219 3.91272 51.889 4.51888 51.889 5.34853C51.889 6.33447 51.7289 7.01794 51.4089 7.39875ZM50.0347 0.893471C48.6065 0.893471 47.4924 1.29448 46.6923 2.09589C45.892 2.89771 45.4922 4.01787 45.4922 5.45677C45.4922 6.48704 45.6941 7.34452 46.0982 8.03006C46.5024 8.71539 47.0294 9.2164 47.6795 9.53309C48.3296 9.84977 49.1506 10.0081 50.1427 10.0081C51.1188 10.0081 51.9341 9.82462 52.5881 9.45783C53.2423 9.09105 53.7423 8.57808 54.0882 7.91873C54.4342 7.25958 54.6074 6.41488 54.6074 5.38461C54.6074 3.96591 54.2113 2.86266 53.4192 2.07486C52.627 1.28727 51.4991 0.893471 50.0347 0.893471Z" fill="white"/>
<path d="M59.0016 7.51706L57.7652 3.47085H55.224L57.8743 9.85593H60.0406L62.7491 3.47085H60.2845L59.0016 7.51706Z" fill="white"/>
<path d="M65.6347 6.09548C65.6746 5.71468 65.7687 5.42809 65.9168 5.23573C66.1487 4.92708 66.4589 4.77266 66.847 4.77266C67.1828 4.77266 67.454 4.87513 67.66 5.07945C67.866 5.28377 67.993 5.62272 68.0411 6.09548H65.6347ZM68.9052 3.73868C68.377 3.4622 67.6569 3.32385 66.7449 3.32385C65.6207 3.32385 64.7395 3.6325 64.1014 4.24959C63.4635 4.86709 63.1443 5.67468 63.1443 6.67278C63.1443 7.37419 63.3034 7.98447 63.6215 8.50342C63.9394 9.02257 64.3405 9.40132 64.8245 9.63966C65.3085 9.87821 65.9728 9.99738 66.8169 9.99738C67.7891 9.99738 68.535 9.85821 69.055 9.57946C69.5753 9.30112 70.0192 8.84114 70.3873 8.19993L67.9811 7.97726C67.829 8.16983 67.687 8.30405 67.5551 8.38013C67.339 8.50033 67.111 8.56053 66.8708 8.56053C66.4908 8.56053 66.1827 8.42219 65.9467 8.1457C65.7787 7.95334 65.6728 7.66078 65.6287 7.2678H70.5254V6.99132C70.5254 6.14971 70.3873 5.46623 70.1113 4.9411C69.8354 4.41618 69.4333 4.01516 68.9052 3.73868Z" fill="white"/>
<path d="M75.4266 3.32511C75.0824 3.32511 74.7934 3.41026 74.5595 3.58056C74.3255 3.75087 74.0985 4.0626 73.8785 4.51537V3.46943H71.592V9.85431H74.0464V7.71399C74.0464 6.69197 74.1724 5.99448 74.4247 5.62171C74.6004 5.35719 74.8486 5.22503 75.1686 5.22503C75.3365 5.22503 75.5647 5.28503 75.8528 5.40523L76.6089 3.6618C76.1806 3.43727 75.7866 3.32511 75.4266 3.32511Z" fill="white"/>
<path d="M82.205 6.0742C81.8089 5.91009 81.2047 5.78185 80.3927 5.68989C79.8566 5.62577 79.5084 5.55361 79.3487 5.47361C79.1886 5.39362 79.1084 5.27548 79.1084 5.11961C79.1084 4.97941 79.1715 4.86044 79.2977 4.7623C79.4234 4.66437 79.6247 4.61509 79.9006 4.61509C80.1727 4.61509 80.4046 4.67942 80.5968 4.80766C80.7367 4.90374 80.8368 5.05404 80.8968 5.25857L83.2132 5.03013C83.0531 4.61324 82.852 4.28274 82.61 4.03821C82.368 3.79348 82.0657 3.61328 81.7037 3.497C81.3418 3.38071 80.7806 3.32257 80.0206 3.32257C79.3004 3.32257 78.7264 3.39783 78.2984 3.54792C77.8702 3.69802 77.5343 3.92523 77.2903 4.22954C77.0462 4.53386 76.9242 4.89632 76.9242 5.31671C76.9242 5.70102 77.0371 6.04348 77.2633 6.34368C77.4893 6.64408 77.7673 6.85726 78.0976 6.98344C78.4274 7.10962 79.0164 7.24673 79.8646 7.39476C80.4326 7.49497 80.7826 7.57888 80.9147 7.64692C81.0987 7.743 81.1909 7.87907 81.1909 8.05515C81.1909 8.21143 81.1207 8.34132 80.9808 8.44523C80.8007 8.58543 80.5468 8.65553 80.2188 8.65553C79.9187 8.65553 79.6786 8.59348 79.4985 8.46915C79.3185 8.34483 79.1785 8.13844 79.0785 7.8498L76.6542 8.07824C76.7941 8.69141 77.1112 9.16458 77.6053 9.49715C78.0994 9.82992 78.9285 9.99609 80.0926 9.99609C80.9166 9.99609 81.5679 9.89301 82.0459 9.68683C82.524 9.48065 82.874 9.20335 83.0961 8.85511C83.3181 8.50667 83.429 8.14834 83.429 7.7799C83.429 7.41559 83.3241 7.08138 83.114 6.77685C82.9039 6.47274 82.601 6.23832 82.205 6.0742Z" fill="white"/>
<path d="M86.7564 6.09701C86.7965 5.7162 86.8904 5.42962 87.0385 5.23725C87.2705 4.92861 87.5806 4.77418 87.9687 4.77418C88.3045 4.77418 88.5755 4.87665 88.7817 5.08097C88.9877 5.28529 89.1149 5.62425 89.1629 6.09701H86.7564ZM90.0267 3.74021C89.4989 3.46372 88.7787 3.32538 87.8664 3.32538C86.7424 3.32538 85.8612 3.63403 85.2231 4.25111C84.5852 4.86861 84.266 5.6762 84.266 6.6743C84.266 7.37572 84.4251 7.986 84.7432 8.50495C85.0614 9.0241 85.4622 9.40285 85.9464 9.64119C86.4304 9.87973 87.0945 9.9989 87.9386 9.9989C88.9106 9.9989 89.6567 9.85973 90.177 9.58098C90.697 9.30264 91.1409 8.84266 91.509 8.20145L89.1028 7.97878C88.9507 8.17135 88.8087 8.30557 88.6768 8.38165C88.4605 8.50185 88.2325 8.56206 87.9926 8.56206C87.6125 8.56206 87.3046 8.42371 87.0684 8.14723C86.9005 7.95487 86.7945 7.6623 86.7504 7.26933H91.6471V6.99285C91.6471 6.15124 91.509 5.46776 91.233 4.94263C90.9571 4.4177 90.555 4.01669 90.0267 3.74021Z" fill="white"/>
<path d="M97.1311 7.21006C97.1311 7.51458 97.0822 7.7622 96.9842 7.9525C96.886 8.1428 96.7202 8.30423 96.486 8.43639C96.2522 8.56876 95.9989 8.63494 95.7271 8.63494C95.4668 8.63494 95.27 8.57391 95.1361 8.45144C95.0019 8.32939 94.9348 8.17187 94.9348 7.97951C94.9348 7.81127 95.0029 7.66096 95.1389 7.5286C95.2708 7.40036 95.5851 7.27026 96.081 7.13789C96.4451 7.04573 96.7951 6.93955 97.1311 6.81914V7.21006ZM99.5195 8.49062V5.67095C99.5195 5.37034 99.4594 5.05469 99.3394 4.72398C99.2194 4.39327 99.0552 4.13782 98.8474 3.95741C98.5513 3.69681 98.1813 3.52547 97.7372 3.44321C97.2933 3.36115 96.7052 3.32012 95.973 3.32012C95.517 3.32012 95.0928 3.35414 94.7008 3.42218C94.3088 3.49042 94.0007 3.58671 93.7768 3.71083C93.4647 3.88319 93.2255 4.08669 93.0597 4.32111C92.8934 4.55553 92.7664 4.87717 92.6786 5.28602L95.013 5.5326C95.1089 5.25591 95.2348 5.06768 95.391 4.96747C95.5908 4.83923 95.8909 4.77511 96.2909 4.77511C96.6031 4.77511 96.8212 4.83511 96.9451 4.95531C97.069 5.07551 97.1311 5.28602 97.1311 5.58662C96.827 5.70682 96.5391 5.80414 96.267 5.87836C95.995 5.95238 95.4009 6.08186 94.4847 6.26597C93.7207 6.41854 93.1965 6.6509 92.9125 6.96347C92.6284 7.27603 92.4866 7.67498 92.4866 8.15991C92.4866 8.677 92.6835 9.11183 93.0776 9.4646C93.4717 9.81736 94.0487 9.99344 94.8089 9.99344C95.3807 9.99344 95.8831 9.9054 96.315 9.72912C96.6309 9.59676 96.949 9.37635 97.2692 9.06771C97.297 9.25223 97.3252 9.38749 97.3532 9.47367C97.381 9.55985 97.4411 9.685 97.5332 9.84932H99.8255C99.6973 9.5848 99.6143 9.36749 99.5765 9.19698C99.5384 9.02668 99.5195 8.79102 99.5195 8.49062Z" fill="white"/>
<path d="M106.132 6.0742C105.736 5.91009 105.132 5.78185 104.319 5.68989C103.783 5.62577 103.435 5.55361 103.275 5.47361C103.115 5.39362 103.035 5.27548 103.035 5.11961C103.035 4.97941 103.098 4.86044 103.224 4.7623C103.35 4.66437 103.551 4.61509 103.827 4.61509C104.099 4.61509 104.331 4.67942 104.524 4.80766C104.664 4.90374 104.764 5.05404 104.824 5.25857L107.14 5.03013C106.98 4.61324 106.779 4.28274 106.537 4.03821C106.295 3.79348 105.992 3.61328 105.63 3.497C105.269 3.38071 104.707 3.32257 103.947 3.32257C103.227 3.32257 102.653 3.39783 102.225 3.54792C101.797 3.69802 101.461 3.92523 101.217 4.22954C100.973 4.53386 100.851 4.89632 100.851 5.31671C100.851 5.70102 100.964 6.04348 101.19 6.34368C101.416 6.64408 101.694 6.85726 102.024 6.98344C102.354 7.10962 102.943 7.24673 103.791 7.39476C104.359 7.49497 104.709 7.57888 104.842 7.64692C105.025 7.743 105.118 7.87907 105.118 8.05515C105.118 8.21143 105.047 8.34132 104.908 8.44523C104.728 8.58543 104.474 8.65553 104.146 8.65553C103.846 8.65553 103.605 8.59348 103.425 8.46915C103.245 8.34483 103.105 8.13844 103.005 7.8498L100.581 8.07824C100.721 8.69141 101.038 9.16458 101.532 9.49715C102.026 9.82992 102.855 9.99609 104.019 9.99609C104.843 9.99609 105.495 9.89301 105.973 9.68683C106.451 9.48065 106.801 9.20335 107.023 8.85511C107.245 8.50667 107.356 8.14834 107.356 7.7799C107.356 7.41559 107.251 7.08138 107.041 6.77685C106.831 6.47274 106.528 6.23832 106.132 6.0742Z" fill="white"/>
<path d="M117.849 7.71072C117.657 7.8771 117.327 7.96019 116.859 7.96019H115.473V6.1747H116.853C117.329 6.1747 117.662 6.25387 117.852 6.41222C118.042 6.57056 118.137 6.77983 118.137 7.04044C118.137 7.32104 118.041 7.54433 117.849 7.71072ZM115.473 2.82578H116.673C117.085 2.82578 117.374 2.89794 117.54 3.04226C117.706 3.18658 117.789 3.38699 117.789 3.64347C117.789 3.91995 117.706 4.13149 117.54 4.27767C117.374 4.42406 117.079 4.49725 116.655 4.49725H115.473V2.82578ZM119.019 5.16464C119.435 5.02032 119.751 4.82404 119.967 4.57539C120.292 4.20262 120.453 3.75563 120.453 3.23462C120.453 2.61341 120.226 2.09241 119.772 1.67139C119.318 1.25059 118.667 1.04008 117.819 1.04008H112.73V9.85413H117.423C117.623 9.85413 118.029 9.81413 118.641 9.73393C119.101 9.67372 119.445 9.57764 119.673 9.44528C120.041 9.23292 120.331 8.94427 120.543 8.57954C120.755 8.21482 120.862 7.80391 120.862 7.34702C120.862 6.78581 120.712 6.32006 120.414 5.94914C120.116 5.57844 119.651 5.31701 119.019 5.16464Z" fill="white"/>
<path d="M126.505 7.2085C126.505 7.51302 126.456 7.76064 126.358 7.95094C126.26 8.14124 126.094 8.30268 125.86 8.43484C125.626 8.5672 125.372 8.63338 125.101 8.63338C124.84 8.63338 124.643 8.57236 124.51 8.44989C124.375 8.32783 124.308 8.17031 124.308 7.97795C124.308 7.80971 124.376 7.65941 124.512 7.52704C124.644 7.3988 124.959 7.2687 125.455 7.13634C125.819 7.04418 126.169 6.938 126.505 6.81759V7.2085ZM128.893 8.48906V5.66939C128.893 5.36879 128.833 5.05313 128.713 4.72242C128.593 4.39172 128.429 4.13626 128.221 3.95586C127.925 3.69525 127.555 3.52392 127.111 3.44165C126.667 3.35959 126.079 3.31857 125.347 3.31857C124.89 3.31857 124.466 3.35259 124.074 3.42062C123.682 3.48887 123.374 3.58515 123.15 3.70927C122.838 3.88163 122.599 4.08513 122.433 4.31955C122.267 4.55398 122.14 4.87561 122.052 5.28446L124.387 5.53105C124.482 5.25436 124.608 5.06612 124.765 4.96592C124.964 4.83768 125.264 4.77355 125.664 4.77355C125.977 4.77355 126.195 4.83355 126.319 4.95375C126.443 5.07395 126.505 5.28446 126.505 5.58506C126.201 5.70527 125.913 5.80258 125.641 5.8768C125.369 5.95082 124.774 6.0803 123.858 6.26442C123.094 6.41699 122.57 6.64935 122.286 6.96191C122.002 7.27448 121.86 7.67343 121.86 8.15835C121.86 8.67545 122.057 9.11027 122.451 9.46304C122.845 9.81581 123.422 9.99188 124.182 9.99188C124.754 9.99188 125.257 9.90385 125.689 9.72756C126.004 9.5952 126.323 9.3748 126.643 9.06615C126.671 9.25068 126.699 9.38593 126.727 9.47211C126.754 9.55829 126.815 9.68344 126.907 9.84776H129.199C129.071 9.58324 128.988 9.36593 128.95 9.19542C128.912 9.02512 128.893 8.78946 128.893 8.48906Z" fill="white"/>
<path d="M134.932 3.3252C134.432 3.3252 134.008 3.41633 133.66 3.5988C133.312 3.78106 132.968 4.08476 132.628 4.50969V3.46953H130.354V9.8544H132.796V6.78814C132.796 6.20714 132.888 5.80427 133.072 5.57974C133.256 5.35542 133.496 5.24306 133.792 5.24306C134.06 5.24306 134.268 5.32635 134.416 5.49253C134.564 5.65891 134.638 5.94261 134.638 6.34342V9.8544H137.093V5.79623C137.093 4.95441 136.902 4.33217 136.519 3.92951C136.137 3.52664 135.608 3.3252 134.932 3.3252Z" fill="white"/>
<path d="M143.584 5.70003L145.87 3.46322H142.863L141.039 5.58395V1.03446H138.543V9.8483H141.039V8.18878L141.959 7.28882L143.25 9.8483H146.002L143.584 5.70003Z" fill="white"/>
</svg>
