<svg width="32" height="32" viewBox="0 0 32 32" fill="none" xmlns="http://www.w3.org/2000/svg">
<g clip-path="url(#clip0_614_1450)">
<path d="M16 32C24.8366 32 32 24.8366 32 16C32 7.16344 24.8366 0 16 0C7.16344 0 0 7.16344 0 16C0 24.8366 7.16344 32 16 32Z" fill="white"/>
<path d="M23.4493 19.4116C22.272 19.4116 21.4627 18.5476 21.4627 17.313C21.4627 16.097 22.2893 15.233 23.4493 15.233C24.6093 15.233 25.4373 16.097 25.4373 17.3303C25.4373 18.5263 24.592 19.4103 23.4507 19.4103L23.4493 19.4116ZM23.4893 12.5423C20.4693 12.5423 18.46 14.4583 18.46 17.3103C18.46 20.237 20.3947 22.1156 23.432 22.1156C26.4507 22.1156 28.4387 20.237 28.4387 17.329C28.4387 14.4583 26.472 12.5423 23.488 12.5423H23.4893ZM15.7067 8.3623C14.5653 8.3623 13.8467 9.0063 13.8467 10.0196C13.8467 11.0516 14.5827 11.6956 15.76 11.6956C16.9027 11.6956 17.62 11.0516 17.62 10.0196C17.62 8.98897 16.884 8.3623 15.7067 8.3623ZM15.9093 12.6343H15.54C14.64 12.6343 13.9573 13.057 13.9573 14.3476V20.241C13.9573 21.5476 14.6187 21.953 15.5787 21.953H15.9453C16.848 21.953 17.492 21.513 17.492 20.2396V14.3476C17.492 13.021 16.8653 12.6343 15.9093 12.6343ZM11.088 9.85564H10.5547C9.54133 9.85564 8.98933 10.429 8.98933 11.569V17.0756C8.98933 18.493 8.50933 18.9903 7.38933 18.9903C6.50667 18.9903 5.788 18.6036 5.216 17.9023C5.16 17.8303 4 18.381 4 19.7463C4 21.2183 5.38 22.121 7.94 22.121C11.052 22.121 12.6907 20.557 12.6907 17.1316V11.5663C12.6907 10.425 12.14 9.85564 11.088 9.85564Z" fill="#0A2885"/>
</g>
<defs>
<clipPath id="clip0_614_1450">
<rect width="32" height="32" fill="white"/>
</clipPath>
</defs>
</svg>
