<svg width="31" height="31" viewBox="0 0 31 31" fill="none" xmlns="http://www.w3.org/2000/svg">
<rect width="31" height="31" fill="#F5F5F5"/>
<g id="Latest">
<path d="M-3450 -6028C-3450 -6029.1 -3449.1 -6030 -3448 -6030H13559C13560.1 -6030 13561 -6029.1 13561 -6028V2796C13561 2797.1 13560.1 2798 13559 2798H-3448C-3449.11 2798 -3450 2797.1 -3450 2796V-6028Z" fill="#E0E0E0"/>
<g id="Sidebar Menu Design 1" clip-path="url(#clip0_0_1)">
<rect width="428" height="926" transform="translate(-24 -871)" fill="white"/>
<g id="Group 1000001979">
<g id="Tab bar">
<g id="Frame 20561">
<g id="Rectangle 2965" filter="url(#filter0_d_0_1)">
<path d="M-24 -45H128.922C136.75 -45 144.406 -42.7032 150.941 -38.3942L173.486 -23.5291C183.504 -16.9234 196.496 -16.9234 206.514 -23.5291L229.059 -38.3942C235.594 -42.7032 243.25 -45 251.078 -45H404V35H-24V-45Z" fill="white"/>
</g>
<g id="Frame 20563">
<g id="Frame 20564">
<g id="Menu 1">
<g id="home_FILL1_wght400_GRAD0_opsz48 1">
<path id="Vector" d="M15.9593 -12.2186L15.9594 -12.2185L15.968 -12.225L23.5433 -17.9065C23.6256 -17.9652 23.7015 -18.0025 23.7719 -18.0258C23.8434 -18.0495 23.9203 -18.0625 24.007 -18.0625C24.0938 -18.0625 24.1677 -18.0495 24.234 -18.0272L24.234 -18.0272C24.3014 -18.0046 24.3751 -17.9679 24.456 -17.909L32.0346 -12.225L32.0346 -12.225L32.0433 -12.2186C32.131 -12.1542 32.1998 -12.0743 32.2543 -11.9653C32.3088 -11.8562 32.3346 -11.7468 32.3346 -11.625V-0.25C32.3346 -0.0360756 32.2701 0.122162 32.1135 0.27883C31.9568 0.435499 31.7986 0.5 31.5846 0.5H27.3346V-5.66667C27.3346 -6.77124 26.4392 -7.66667 25.3346 -7.66667H22.668C21.5634 -7.66667 20.668 -6.77124 20.668 -5.66667V0.5H16.418C16.204 0.5 16.0458 0.435499 15.8891 0.278831C15.7325 0.122162 15.668 -0.0360756 15.668 -0.25V-11.625C15.668 -11.7468 15.6938 -11.8562 15.7483 -11.9653C15.8028 -12.0743 15.8716 -12.1542 15.9593 -12.2186Z" stroke="#1661CA" stroke-width="2"/>
</g>
<path id="Home" d="M7.95881 20V11.2727H9.27557V15.0653H13.6264V11.2727H14.9474V20H13.6264V16.1946H9.27557V20H7.95881ZM19.5199 20.1321C18.9063 20.1321 18.3707 19.9915 17.9134 19.7102C17.456 19.429 17.1009 19.0355 16.848 18.5298C16.5952 18.0241 16.4688 17.4332 16.4688 16.7571C16.4688 16.0781 16.5952 15.4844 16.848 14.9759C17.1009 14.4673 17.456 14.0724 17.9134 13.7912C18.3707 13.5099 18.9063 13.3693 19.5199 13.3693C20.1335 13.3693 20.669 13.5099 21.1264 13.7912C21.5838 14.0724 21.9389 14.4673 22.1918 14.9759C22.4446 15.4844 22.571 16.0781 22.571 16.7571C22.571 17.4332 22.4446 18.0241 22.1918 18.5298C21.9389 19.0355 21.5838 19.429 21.1264 19.7102C20.669 19.9915 20.1335 20.1321 19.5199 20.1321ZM19.5241 19.0625C19.9219 19.0625 20.2514 18.9574 20.5128 18.7472C20.7741 18.5369 20.9673 18.2571 21.0923 17.9077C21.2202 17.5582 21.2841 17.1733 21.2841 16.7528C21.2841 16.3352 21.2202 15.9517 21.0923 15.6023C20.9673 15.25 20.7741 14.9673 20.5128 14.7543C20.2514 14.5412 19.9219 14.4347 19.5241 14.4347C19.1236 14.4347 18.7912 14.5412 18.527 14.7543C18.2656 14.9673 18.071 15.25 17.9432 15.6023C17.8182 15.9517 17.7557 16.3352 17.7557 16.7528C17.7557 17.1733 17.8182 17.5582 17.9432 17.9077C18.071 18.2571 18.2656 18.5369 18.527 18.7472C18.7912 18.9574 19.1236 19.0625 19.5241 19.0625ZM23.9933 20V13.4545H25.2163V14.5199H25.2972C25.4336 14.1591 25.6566 13.8778 25.9663 13.6761C26.2759 13.4716 26.6467 13.3693 27.0785 13.3693C27.516 13.3693 27.8825 13.4716 28.1779 13.6761C28.4762 13.8807 28.6964 14.1619 28.8384 14.5199H28.9066C29.0629 14.1705 29.3114 13.892 29.6523 13.6847C29.9933 13.4744 30.3995 13.3693 30.8711 13.3693C31.4648 13.3693 31.9492 13.5554 32.3242 13.9276C32.7021 14.2997 32.891 14.8608 32.891 15.6108V20H31.6168V15.7301C31.6168 15.2869 31.4961 14.9659 31.2546 14.767C31.0131 14.5682 30.7248 14.4688 30.3896 14.4688C29.9748 14.4688 29.6523 14.5966 29.4222 14.8523C29.1921 15.1051 29.0771 15.4304 29.0771 15.8281V20H27.8072V15.6491C27.8072 15.294 27.6964 15.0085 27.4748 14.7926C27.2532 14.5767 26.9648 14.4688 26.6097 14.4688C26.3683 14.4688 26.1452 14.5327 25.9407 14.6605C25.739 14.7855 25.5756 14.9602 25.4506 15.1847C25.3285 15.4091 25.2674 15.669 25.2674 15.9645V20H23.9933ZM37.4197 20.1321C36.7749 20.1321 36.2195 19.9943 35.7536 19.7188C35.2905 19.4403 34.9325 19.0497 34.6797 18.5469C34.4297 18.0412 34.3047 17.4489 34.3047 16.7699C34.3047 16.0994 34.4297 15.5085 34.6797 14.9972C34.9325 14.4858 35.2848 14.0866 35.7365 13.7997C36.1911 13.5128 36.7223 13.3693 37.3303 13.3693C37.6996 13.3693 38.0575 13.4304 38.4041 13.5526C38.7507 13.6747 39.0618 13.8665 39.3374 14.1278C39.6129 14.3892 39.8303 14.7287 39.9893 15.1463C40.1484 15.5611 40.228 16.0653 40.228 16.6591V17.1108H35.0249V16.1562H38.9794C38.9794 15.821 38.9112 15.5241 38.7749 15.2656C38.6385 15.0043 38.4467 14.7983 38.1996 14.6477C37.9553 14.4972 37.6683 14.4219 37.3388 14.4219C36.9808 14.4219 36.6683 14.5099 36.4013 14.6861C36.1371 14.8594 35.9325 15.0866 35.7876 15.3679C35.6456 15.6463 35.5746 15.9489 35.5746 16.2756V17.0213C35.5746 17.4588 35.6513 17.831 35.8047 18.1378C35.9609 18.4446 36.1783 18.679 36.4567 18.8409C36.7351 19 37.0604 19.0795 37.4325 19.0795C37.674 19.0795 37.8942 19.0455 38.093 18.9773C38.2919 18.9062 38.4638 18.8011 38.6087 18.6619C38.7536 18.5227 38.8643 18.3509 38.9411 18.1463L40.147 18.3636C40.0504 18.7187 39.8771 19.0298 39.6271 19.2969C39.38 19.5611 39.0689 19.767 38.6939 19.9148C38.3217 20.0597 37.897 20.1321 37.4197 20.1321Z" fill="url(#paint0_linear_0_1)"/>
</g>
</g>
</g>
</g>
</g>
</g>
<rect id="Rectangle 34624258" opacity="0.75" x="-24" y="-871" width="428" height="930" fill="black"/>
<g id="Frame 1000002311">
<rect id="Rectangle 34624259" x="-24" y="-871" width="358" height="926" fill="white"/>
<g id=".Side menu section">
<g id="Group 1000002007">
<rect id="Base" x="-3.5" y="-0.0722656" width="31.5433" height="31.54" rx="15.77" fill="#EBF1FF"/>
<g id="logout_FILL0_wght400_GRAD0_opsz48 1">
<path id="Vector_2" d="M5.8125 27.125C5.29583 27.125 4.84375 26.9312 4.45625 26.5437C4.06875 26.1562 3.875 25.7042 3.875 25.1875V5.8125C3.875 5.29583 4.06875 4.84375 4.45625 4.45625C4.84375 4.06875 5.29583 3.875 5.8125 3.875H14.499C14.7734 3.875 15.0035 3.96838 15.1892 4.15513C15.3749 4.3419 15.4677 4.57333 15.4677 4.8494C15.4677 5.12549 15.3749 5.35503 15.1892 5.53802C15.0035 5.72101 14.7734 5.8125 14.499 5.8125H5.8125V25.1875H14.499C14.7734 25.1875 15.0035 25.2809 15.1892 25.4676C15.3749 25.6544 15.4677 25.8858 15.4677 26.1619C15.4677 26.438 15.3749 26.6675 15.1892 26.8505C15.0035 27.0335 14.7734 27.125 14.499 27.125H5.8125ZM23.4115 16.4688H12.5938C12.3193 16.4688 12.0892 16.3754 11.9035 16.1886C11.7178 16.0018 11.625 15.7704 11.625 15.4943C11.625 15.2183 11.7178 14.9887 11.9035 14.8057C12.0892 14.6227 12.3193 14.5312 12.5938 14.5312H23.3469L20.7313 11.9156C20.5375 11.7219 20.446 11.4958 20.4568 11.2375C20.4675 10.9792 20.5698 10.7531 20.7635 10.5594C20.9573 10.3656 21.1887 10.2687 21.4578 10.2687C21.7269 10.2687 21.9583 10.3656 22.1521 10.5594L26.4469 14.8542C26.6406 15.0479 26.7375 15.274 26.7375 15.5323C26.7375 15.7906 26.6406 16.0167 26.4469 16.2104L22.1844 20.4729C21.9949 20.6667 21.77 20.7582 21.5095 20.7474C21.249 20.7366 21.0177 20.6344 20.8155 20.4406C20.6302 20.2469 20.5375 20.0155 20.5375 19.7464C20.5375 19.4773 20.6344 19.2458 20.8281 19.0521L23.4115 16.4688Z" fill="url(#paint1_linear_0_1)"/>
</g>
</g>
<path d="M-23.5 -15.0723H334.5V-17.0723H-23.5V-15.0723Z" fill="url(#paint2_linear_0_1)" mask="url(#path-8-inside-1_0_1)"/>
</g>
</g>
</g>
<path d="M-3448 -6029H13559V-6031H-3448V-6029ZM13560 -6028V2796H13562V-6028H13560ZM13559 2797H-3448V2799H13559V2797ZM-3449 2796V-6028H-3451V2796H-3449ZM-3448 2797C-3448.55 2797 -3449 2796.55 -3449 2796H-3451C-3451 2797.66 -3449.66 2799 -3448 2799V2797ZM13560 2796C13560 2796.55 13559.6 2797 13559 2797V2799C13560.7 2799 13562 2797.66 13562 2796H13560ZM13559 -6029C13559.6 -6029 13560 -6028.55 13560 -6028H13562C13562 -6029.66 13560.7 -6031 13559 -6031V-6029ZM-3448 -6031C-3449.66 -6031 -3451 -6029.66 -3451 -6028H-3449C-3449 -6028.55 -3448.55 -6029 -3448 -6029V-6031Z" fill="black" fill-opacity="0.1"/>
</g>
<defs>
<filter id="filter0_d_0_1" x="-84" y="-113" width="548" height="200" filterUnits="userSpaceOnUse" color-interpolation-filters="sRGB">
<feFlood flood-opacity="0" result="BackgroundImageFix"/>
<feColorMatrix in="SourceAlpha" type="matrix" values="0 0 0 0 0 0 0 0 0 0 0 0 0 0 0 0 0 0 127 0" result="hardAlpha"/>
<feOffset dy="-8"/>
<feGaussianBlur stdDeviation="30"/>
<feColorMatrix type="matrix" values="0 0 0 0 0.19176 0 0 0 0 0.175104 0 0 0 0 0.341667 0 0 0 0.06 0"/>
<feBlend mode="normal" in2="BackgroundImageFix" result="effect1_dropShadow_0_1"/>
<feBlend mode="normal" in="SourceGraphic" in2="effect1_dropShadow_0_1" result="shape"/>
</filter>
<linearGradient id="paint0_linear_0_1" x1="24" y1="8" x2="24" y2="24" gradientUnits="userSpaceOnUse">
<stop stop-color="#1166BF"/>
<stop offset="1" stop-color="#23388E"/>
</linearGradient>
<linearGradient id="paint1_linear_0_1" x1="15.3063" y1="3.875" x2="15.3063" y2="27.125" gradientUnits="userSpaceOnUse">
<stop stop-color="#1166BF"/>
<stop offset="1" stop-color="#23388E"/>
</linearGradient>
<linearGradient id="paint2_linear_0_1" x1="-23.5" y1="55.927" x2="334.5" y2="55.9269" gradientUnits="userSpaceOnUse">
<stop stop-color="#EFF5FB"/>
<stop offset="0.505332" stop-color="#CFDCEC"/>
<stop offset="1" stop-color="#EFF5FB"/>
</linearGradient>
<clipPath id="clip0_0_1">
<rect width="428" height="926" fill="white" transform="translate(-24 -871)"/>
</clipPath>
</defs>
</svg>
