<svg width="37" height="32" viewBox="0 0 37 32" fill="none" xmlns="http://www.w3.org/2000/svg">
<rect x="0.75" y="3" width="27" height="26" rx="13" fill="#EBF1FF"/>
<path d="M12.9711 23.6199C12.7509 23.6199 12.5699 23.5488 12.428 23.4068C12.2861 23.2646 12.2152 23.0836 12.2152 22.8635V12.9019C12.2152 12.7036 12.2897 12.5335 12.4387 12.3917C12.5877 12.2498 12.7655 12.1789 12.972 12.1789C13.1922 12.1789 13.3733 12.2499 13.5151 12.392C13.657 12.5341 13.728 12.7152 13.728 12.9352V22.8968C13.728 23.0951 13.6513 23.2652 13.498 23.4071C13.3447 23.5489 13.1691 23.6199 12.9711 23.6199ZM20.3454 23.6199C20.1252 23.6199 19.9442 23.5488 19.8023 23.4068C19.6604 23.2646 19.5895 23.0836 19.5895 22.8635V12.9019C19.5895 12.7036 19.6661 12.5335 19.8194 12.3917C19.9727 12.2498 20.1483 12.1789 20.3463 12.1789C20.5665 12.1789 20.7476 12.2499 20.8894 12.392C21.0313 12.5341 21.1023 12.7152 21.1023 12.9352V22.8968C21.1023 23.0951 21.0277 23.2652 20.8787 23.4071C20.7297 23.5489 20.552 23.6199 20.3454 23.6199ZM8.66643 27.3122C8.46814 27.3122 8.29806 27.2355 8.15619 27.0822C8.0143 26.9289 7.94336 26.7533 7.94336 26.5553C7.94336 26.3351 8.01441 26.1541 8.15653 26.0122C8.29861 25.8703 8.47969 25.7994 8.69976 25.7994H31.8356C32.0338 25.7994 32.2039 25.8739 32.3458 26.0229C32.4877 26.1719 32.5586 26.3497 32.5586 26.5562C32.5586 26.7764 32.4876 26.9575 32.3455 27.0993C32.2034 27.2412 32.0223 27.3122 31.8022 27.3122H8.66643ZM27.53 23.6199C27.3098 23.6199 27.1287 23.5488 26.9869 23.4068C26.845 23.2646 26.774 23.0836 26.774 22.8635V12.9019C26.774 12.7036 26.8507 12.5335 27.004 12.3917C27.1572 12.2498 27.3329 12.1789 27.5309 12.1789C27.7511 12.1789 27.9321 12.2499 28.074 12.392C28.2159 12.5341 28.2868 12.7152 28.2868 12.9352V22.8968C28.2868 23.0951 28.2123 23.2652 28.0633 23.4071C27.9143 23.5489 27.7365 23.6199 27.53 23.6199ZM21.1612 2.54558L32.0304 8.44042C32.183 8.5152 32.3092 8.62876 32.409 8.78112C32.5087 8.93345 32.5586 9.10193 32.5586 9.28655C32.5586 9.50091 32.477 9.6733 32.3138 9.80372C32.1505 9.93414 31.9603 9.99935 31.7433 9.99935H8.74593C8.54079 9.99935 8.35575 9.93414 8.19079 9.80372C8.02584 9.6733 7.94336 9.50091 7.94336 9.28655C7.94336 9.10193 7.99849 8.93954 8.10876 8.79938C8.219 8.65921 8.35533 8.53955 8.51773 8.44042L19.3408 2.54558C19.624 2.39345 19.9269 2.31738 20.2494 2.31738C20.5718 2.31738 20.8758 2.39345 21.1612 2.54558ZM11.6023 8.48655H28.8997L20.251 3.79172L11.6023 8.48655Z" fill="url(#paint0_linear_985_1013)"/>
<defs>
<linearGradient id="paint0_linear_985_1013" x1="20.251" y1="2.31738" x2="20.251" y2="27.3122" gradientUnits="userSpaceOnUse">
<stop stop-color="#1269C5"/>
<stop offset="1" stop-color="#23388E"/>
</linearGradient>
</defs>
</svg>
