<svg width="44" height="40" viewBox="0 0 44 40" fill="none" xmlns="http://www.w3.org/2000/svg">
<rect x="0.25" y="2" width="33.75" height="33.75" rx="16.875" fill="#EBF1FF"/>
<path d="M29.2292 38.5423C27.4162 38.5423 25.6439 38.0047 24.1364 36.9975C22.629 35.9902 21.4541 34.5586 20.7603 32.8836C20.0665 31.2086 19.8849 29.3655 20.2386 27.5873C20.5923 25.8092 21.4654 24.1758 22.7474 22.8938C24.0293 21.6119 25.6627 20.7388 27.4408 20.3851C29.219 20.0314 31.0621 20.213 32.7371 20.9068C34.4121 21.6006 35.8437 22.7755 36.851 24.2829C37.8582 25.7904 38.3958 27.5627 38.3958 29.3757C38.3958 31.8068 37.4301 34.1384 35.711 35.8575C33.9919 37.5766 31.6603 38.5423 29.2292 38.5423ZM29.2292 22.5007C27.8694 22.5007 26.5402 22.9039 25.4096 23.6593C24.279 24.4147 23.3979 25.4885 22.8775 26.7447C22.3571 28.0009 22.221 29.3833 22.4863 30.7169C22.7515 32.0505 23.4063 33.2755 24.3678 34.237C25.3293 35.1985 26.5543 35.8533 27.8879 36.1186C29.2215 36.3838 30.6039 36.2477 31.8601 35.7273C33.1164 35.207 34.1901 34.3258 34.9455 33.1952C35.701 32.0646 36.1042 30.7354 36.1042 29.3757C36.1042 27.5523 35.3798 25.8036 34.0905 24.5143C32.8012 23.225 31.0525 22.5007 29.2292 22.5007Z" fill="url(#paint0_linear_614_2659)"/>
<path d="M31.0502 32.8128L28.0825 29.8451V24.792H30.3742V28.9055L32.6659 31.1972L31.0502 32.8128Z" fill="url(#paint1_linear_614_2659)"/>
<path d="M37.2495 11.0423C37.2495 10.4345 37.0081 9.85164 36.5783 9.42186C36.1485 8.99209 35.5656 8.75065 34.9578 8.75065H30.3745V6.45898H28.0828V8.75065H18.9162V6.45898H16.6245V8.75065H12.0412C11.4334 8.75065 10.8505 8.99209 10.4207 9.42186C9.99095 9.85164 9.74951 10.4345 9.74951 11.0423V33.959C9.74951 34.5668 9.99095 35.1497 10.4207 35.5794C10.8505 36.0092 11.4334 36.2506 12.0412 36.2506H16.6245V33.959H12.0412V11.0423H16.6245V13.334H18.9162V11.0423H28.0828V13.334H30.3745V11.0423H34.9578V17.9173H37.2495V11.0423Z" fill="url(#paint2_linear_614_2659)"/>
<defs>
<linearGradient id="paint0_linear_614_2659" x1="29.2292" y1="20.209" x2="29.2292" y2="38.5423" gradientUnits="userSpaceOnUse">
<stop stop-color="#1166BF"/>
<stop offset="1" stop-color="#23388E"/>
</linearGradient>
<linearGradient id="paint1_linear_614_2659" x1="30.3742" y1="24.792" x2="30.3742" y2="32.8128" gradientUnits="userSpaceOnUse">
<stop stop-color="#1166BF"/>
<stop offset="1" stop-color="#23388E"/>
</linearGradient>
<linearGradient id="paint2_linear_614_2659" x1="23.4995" y1="6.45898" x2="23.4995" y2="36.2507" gradientUnits="userSpaceOnUse">
<stop stop-color="#1166BF"/>
<stop offset="1" stop-color="#23388E"/>
</linearGradient>
</defs>
</svg>
