<svg width="248" height="60" viewBox="0 0 248 60" fill="none" xmlns="http://www.w3.org/2000/svg">
<ellipse cx="26.8164" cy="10.6246" rx="10.498" ry="10.523" fill="#1ED760"/>
<path d="M25.5958 13.866L22.6191 10.8822L23.1906 10.3095L25.5958 12.7204L30.6986 7.60547L31.27 8.17824L25.5958 13.866Z" fill="white"/>
<path d="M73.5801 10.625L71.3702 9.34908V11.9009L73.5801 10.625ZM44.9492 10.846H71.5912V10.404H44.9492V10.846Z" fill="#393939" fill-opacity="0.4"/>
<ellipse cx="91.7129" cy="10.6246" rx="10.498" ry="10.523" fill="#1ED760"/>
<path d="M90.4913 13.866L87.5146 10.8822L88.0861 10.3095L90.4913 12.7204L95.5941 7.60547L96.1655 8.17824L90.4913 13.866Z" fill="white"/>
<path d="M138.477 10.625L136.267 9.34908V11.9009L138.477 10.625ZM109.846 10.846H136.488V10.404H109.846V10.846Z" fill="#393939" fill-opacity="0.4"/>
<ellipse cx="156.61" cy="10.6246" rx="10.498" ry="10.523" fill="#1ED760"/>
<path d="M155.39 13.866L152.413 10.8822L152.984 10.3095L155.39 12.7204L160.493 7.60547L161.064 8.17824L155.39 13.866Z" fill="white"/>
<path d="M203.374 10.625L201.164 9.34908V11.9009L203.374 10.625ZM174.743 10.846H201.385V10.404H174.743V10.846Z" fill="#393939" fill-opacity="0.4"/>
<ellipse cx="221.507" cy="10.6246" rx="10.498" ry="10.523" fill="#1ED760"/>
<path d="M220.286 13.866L217.31 10.8822L217.881 10.3095L220.286 12.7204L225.389 7.60547L225.96 8.17824L220.286 13.866Z" fill="white"/>
<path d="M243.571 29.7547C243.634 29.6917 243.634 29.5896 243.571 29.5265L242.544 28.4999C242.481 28.4369 242.379 28.4369 242.316 28.4999C242.253 28.5629 242.253 28.665 242.316 28.728L243.229 29.6406L242.316 30.5532C242.253 30.6162 242.253 30.7184 242.316 30.7814C242.379 30.8444 242.481 30.8444 242.544 30.7814L243.571 29.7547ZM4.86621 29.802H243.457V29.4793H4.86621V29.802Z" fill="#393939" fill-opacity="0.4"/>
<path d="M28.6238 29.7709C28.6238 30.8639 27.7059 31.7623 26.5581 31.7623C25.4104 31.7623 24.4925 30.8639 24.4925 29.7709C24.4925 28.678 25.4104 27.7796 26.5581 27.7796C27.7059 27.7796 28.6238 28.678 28.6238 29.7709Z" fill="white" stroke="#676D75" stroke-width="0.441992"/>
<path d="M93.5202 29.7221C93.5202 30.8151 92.6024 31.7135 91.4546 31.7135C90.3068 31.7135 89.389 30.8151 89.389 29.7221C89.389 28.6291 90.3068 27.7308 91.4546 27.7308C92.6024 27.7308 93.5202 28.6291 93.5202 29.7221Z" fill="white" stroke="#676D75" stroke-width="0.441992"/>
<path d="M158.537 29.8217C158.537 30.9147 157.619 31.8131 156.471 31.8131C155.323 31.8131 154.406 30.9147 154.406 29.8217C154.406 28.7288 155.323 27.8304 156.471 27.8304C157.619 27.8304 158.537 28.7288 158.537 29.8217Z" fill="white" stroke="#676D75" stroke-width="0.441992"/>
<path d="M223.553 29.8217C223.553 30.9147 222.636 31.8131 221.488 31.8131C220.34 31.8131 219.422 30.9147 219.422 29.8217C219.422 28.7288 220.34 27.8304 221.488 27.8304C222.636 27.8304 223.553 28.7288 223.553 29.8217Z" fill="white" stroke="#676D75" stroke-width="0.441992"/>
<path d="M13.9774 46.1543V41.7006H15.7907C16.0325 41.7006 16.2509 41.7621 16.4461 41.8851C16.6454 42.0039 16.8045 42.1672 16.9232 42.375C17.042 42.5829 17.1014 42.814 17.1014 43.0685C17.1014 43.323 17.042 43.5542 16.9232 43.762C16.8045 43.9699 16.6454 44.1374 16.4461 44.2647C16.2509 44.3877 16.0325 44.4492 15.7907 44.4492H14.6646V46.1543H13.9774ZM14.6646 43.7875H15.778C15.8925 43.7875 15.9964 43.7557 16.0898 43.692C16.1831 43.6242 16.2573 43.5372 16.3124 43.4312C16.3718 43.3209 16.4015 43.2 16.4015 43.0685C16.4015 42.937 16.3718 42.8183 16.3124 42.7122C16.2573 42.6062 16.1831 42.5214 16.0898 42.4577C15.9964 42.3941 15.8925 42.3623 15.778 42.3623H14.6646V43.7875ZM19.0675 46.2179C18.7918 46.2179 18.5394 46.1416 18.3104 45.9889C18.0856 45.8362 17.9053 45.6283 17.7696 45.3654C17.6339 45.1024 17.566 44.8055 17.566 44.4746C17.566 44.1395 17.6339 43.8426 17.7696 43.5839C17.9096 43.3209 18.0962 43.1152 18.3295 42.9667C18.567 42.8183 18.8321 42.744 19.1248 42.744C19.2987 42.744 19.4577 42.7695 19.602 42.8204C19.7462 42.8713 19.8713 42.9434 19.9773 43.0367C20.0876 43.1258 20.1767 43.2297 20.2446 43.3485C20.3167 43.4672 20.3612 43.5945 20.3782 43.7302L20.2318 43.6793V42.814H20.8935V46.1543H20.2318V45.359L20.3845 45.3145C20.3591 45.429 20.3061 45.5414 20.2255 45.6517C20.1491 45.7577 20.0495 45.8531 19.9264 45.938C19.8077 46.0228 19.6741 46.0907 19.5256 46.1416C19.3814 46.1925 19.2287 46.2179 19.0675 46.2179ZM19.2393 45.6135C19.4387 45.6135 19.6147 45.5647 19.7674 45.4672C19.9201 45.3696 20.0389 45.236 20.1237 45.0663C20.2128 44.8924 20.2573 44.6952 20.2573 44.4746C20.2573 44.2583 20.2128 44.0653 20.1237 43.8956C20.0389 43.726 19.9201 43.5924 19.7674 43.4948C19.6147 43.3972 19.4387 43.3485 19.2393 43.3485C19.0442 43.3485 18.8703 43.3972 18.7176 43.4948C18.5691 43.5924 18.4504 43.726 18.3613 43.8956C18.2765 44.0653 18.234 44.2583 18.234 44.4746C18.234 44.6952 18.2765 44.8924 18.3613 45.0663C18.4504 45.236 18.5691 45.3696 18.7176 45.4672C18.8703 45.5647 19.0442 45.6135 19.2393 45.6135ZM22.2939 47.6177L22.9683 46.0589L22.9746 46.5806L21.3077 42.814H22.0712L23.1146 45.2699C23.1358 45.3123 23.1613 45.3781 23.191 45.4672C23.2207 45.552 23.2461 45.6368 23.2673 45.7217L23.1019 45.7598C23.1358 45.6708 23.1676 45.5817 23.1973 45.4926C23.2313 45.4035 23.2631 45.3145 23.2928 45.2254L24.1644 42.814H24.9406L23.5664 46.1543L23.0001 47.6177H22.2939ZM25.4182 46.1543V42.814H26.0799V43.5266L25.959 43.603C25.9929 43.4927 26.0459 43.3866 26.118 43.2848C26.1944 43.183 26.2856 43.094 26.3916 43.0176C26.5019 42.937 26.6185 42.8734 26.7415 42.8267C26.8688 42.7801 26.9982 42.7568 27.1297 42.7568C27.3205 42.7568 27.4881 42.7886 27.6323 42.8522C27.7765 42.9158 27.8953 43.0113 27.9886 43.1385C28.0819 43.2658 28.1498 43.4248 28.1922 43.6157L28.0904 43.5902L28.1349 43.4821C28.1816 43.3845 28.2452 43.2933 28.3258 43.2085C28.4106 43.1194 28.5061 43.041 28.6121 42.9731C28.7181 42.9052 28.8305 42.8522 28.9493 42.814C29.0681 42.7759 29.1847 42.7568 29.2992 42.7568C29.5495 42.7568 29.7552 42.8077 29.9164 42.9095C30.0818 43.0113 30.2048 43.1661 30.2854 43.3739C30.3702 43.5818 30.4127 43.8405 30.4127 44.1501V46.1543H29.751V44.1883C29.751 43.9974 29.7255 43.8426 29.6746 43.7239C29.628 43.6008 29.5559 43.5096 29.4583 43.4503C29.3607 43.3909 29.2356 43.3612 29.0829 43.3612C28.9642 43.3612 28.8518 43.3824 28.7457 43.4248C28.6439 43.463 28.5548 43.5181 28.4785 43.5902C28.4021 43.6623 28.3428 43.7472 28.3003 43.8447C28.2579 43.9381 28.2367 44.042 28.2367 44.1565V46.1543H27.575V44.1756C27.575 44.0017 27.5496 43.8553 27.4987 43.7366C27.4478 43.6136 27.3735 43.5203 27.276 43.4566C27.1784 43.393 27.0597 43.3612 26.9197 43.3612C26.8009 43.3612 26.6906 43.3824 26.5888 43.4248C26.4871 43.463 26.398 43.5181 26.3216 43.5902C26.2453 43.6581 26.1859 43.7408 26.1435 43.8384C26.1011 43.9317 26.0799 44.0335 26.0799 44.1438V46.1543H25.4182ZM32.8488 46.2179C32.5053 46.2179 32.1999 46.1458 31.9326 46.0016C31.6697 45.8531 31.4618 45.6517 31.3091 45.3972C31.1607 45.1427 31.0864 44.85 31.0864 44.5192C31.0864 44.2562 31.1289 44.0165 31.2137 43.8002C31.2985 43.5839 31.4152 43.3972 31.5636 43.2403C31.7163 43.0791 31.8966 42.9561 32.1044 42.8713C32.3165 42.7822 32.5456 42.7377 32.7916 42.7377C33.0079 42.7377 33.2094 42.7801 33.396 42.8649C33.5826 42.9455 33.7438 43.0579 33.8795 43.2021C34.0195 43.3463 34.1256 43.5181 34.1977 43.7175C34.274 43.9126 34.3101 44.1268 34.3058 44.3601L34.2995 44.64H31.57L31.4236 44.1183H33.7332L33.6378 44.2265V44.0738C33.625 43.9338 33.5784 43.8087 33.4978 43.6984C33.4172 43.5881 33.3154 43.5012 33.1924 43.4375C33.0694 43.3739 32.9358 43.3421 32.7916 43.3421C32.5625 43.3421 32.3695 43.3866 32.2126 43.4757C32.0556 43.5605 31.9369 43.6878 31.8563 43.8575C31.7757 44.0229 31.7354 44.2286 31.7354 44.4746C31.7354 44.7079 31.7842 44.9115 31.8817 45.0854C31.9793 45.2551 32.1171 45.3866 32.2953 45.4799C32.4734 45.5732 32.6792 45.6199 32.9125 45.6199C33.0779 45.6199 33.2306 45.5923 33.3705 45.5371C33.5148 45.482 33.6696 45.3823 33.835 45.2381L34.1658 45.7026C34.0641 45.8044 33.9389 45.8934 33.7905 45.9698C33.6463 46.0461 33.4914 46.1076 33.326 46.1543C33.1648 46.1967 33.0058 46.2179 32.8488 46.2179ZM35.018 46.1543V42.814H35.6733V43.5012L35.5588 43.5775C35.6012 43.4291 35.6839 43.2933 35.807 43.1703C35.93 43.0431 36.0763 42.9413 36.246 42.8649C36.4156 42.7843 36.5895 42.744 36.7677 42.744C37.0222 42.744 37.2343 42.7949 37.4039 42.8967C37.5736 42.9943 37.7008 43.1449 37.7857 43.3485C37.8705 43.5521 37.9129 43.8087 37.9129 44.1183V46.1543H37.2576V44.1629C37.2576 43.972 37.2321 43.815 37.1812 43.692C37.1303 43.5648 37.0519 43.4736 36.9458 43.4185C36.8398 43.3591 36.7083 43.3336 36.5514 43.3421C36.4241 43.3421 36.3075 43.3633 36.2014 43.4057C36.0954 43.4439 36.0021 43.499 35.9215 43.5712C35.8451 43.6433 35.7836 43.7281 35.737 43.8256C35.6946 43.919 35.6733 44.0208 35.6733 44.131V46.1543H35.3489C35.2937 46.1543 35.2386 46.1543 35.1834 46.1543C35.1283 46.1543 35.0732 46.1543 35.018 46.1543ZM39.2155 46.1543V41.9615H39.8708V46.1543H39.2155ZM38.522 43.4503V42.814H40.647V43.4503H38.522ZM14.7683 56.1543V52.814H15.4236V56.1543H14.7683ZM15.0864 52.076C14.9464 52.076 14.8383 52.0399 14.7619 51.9678C14.6856 51.8957 14.6474 51.7939 14.6474 51.6624C14.6474 51.5394 14.6856 51.4397 14.7619 51.3634C14.8425 51.287 14.9507 51.2489 15.0864 51.2489C15.2264 51.2489 15.3345 51.2849 15.4109 51.357C15.4872 51.4291 15.5254 51.5309 15.5254 51.6624C15.5254 51.7854 15.4851 51.8851 15.4045 51.9615C15.3282 52.0378 15.2221 52.076 15.0864 52.076ZM16.4309 56.1543V52.814H17.0862V53.5012L16.9717 53.5775C17.0141 53.4291 17.0969 53.2933 17.2199 53.1703C17.3429 53.0431 17.4892 52.9413 17.6589 52.8649C17.8285 52.7843 18.0024 52.744 18.1806 52.744C18.4351 52.744 18.6472 52.7949 18.8168 52.8967C18.9865 52.9943 19.1137 53.1449 19.1986 53.3485C19.2834 53.5521 19.3258 53.8087 19.3258 54.1183V56.1543H18.6705V54.1629C18.6705 53.972 18.645 53.815 18.5941 53.692C18.5432 53.5648 18.4648 53.4736 18.3587 53.4185C18.2527 53.3591 18.1212 53.3336 17.9643 53.3421C17.837 53.3421 17.7204 53.3633 17.6143 53.4057C17.5083 53.4439 17.415 53.499 17.3344 53.5712C17.258 53.6433 17.1965 53.7281 17.1499 53.8256C17.1075 53.919 17.0862 54.0208 17.0862 54.131V56.1543H16.7618C16.7066 56.1543 16.6515 56.1543 16.5963 56.1543C16.5412 56.1543 16.4861 56.1543 16.4309 56.1543ZM20.323 56.1543V52.814H20.9783V56.1543H20.323ZM20.6411 52.076C20.5011 52.076 20.393 52.0399 20.3166 51.9678C20.2403 51.8957 20.2021 51.7939 20.2021 51.6624C20.2021 51.5394 20.2403 51.4397 20.3166 51.3634C20.3972 51.287 20.5054 51.2489 20.6411 51.2489C20.7811 51.2489 20.8892 51.2849 20.9656 51.357C21.0419 51.4291 21.0801 51.5309 21.0801 51.6624C21.0801 51.7854 21.0398 51.8851 20.9592 51.9615C20.8829 52.0378 20.7768 52.076 20.6411 52.076ZM22.3992 56.1543V51.9615H23.0545V56.1543H22.3992ZM21.7057 53.4503V52.814H23.8307V53.4503H21.7057ZM24.5356 56.1543V52.814H25.1909V56.1543H24.5356ZM24.8537 52.076C24.7137 52.076 24.6056 52.0399 24.5292 51.9678C24.4529 51.8957 24.4147 51.7939 24.4147 51.6624C24.4147 51.5394 24.4529 51.4397 24.5292 51.3634C24.6098 51.287 24.718 51.2489 24.8537 51.2489C24.9937 51.2489 25.1019 51.2849 25.1782 51.357C25.2546 51.4291 25.2927 51.5309 25.2927 51.6624C25.2927 51.7854 25.2524 51.8851 25.1718 51.9615C25.0955 52.0378 24.9895 52.076 24.8537 52.076ZM27.4834 56.2179C27.2077 56.2179 26.9554 56.1416 26.7263 55.9889C26.5015 55.8362 26.3212 55.6283 26.1855 55.3654C26.0498 55.1024 25.9819 54.8055 25.9819 54.4746C25.9819 54.1395 26.0498 53.8426 26.1855 53.5839C26.3255 53.3209 26.5121 53.1152 26.7454 52.9667C26.9829 52.8183 27.248 52.744 27.5407 52.744C27.7146 52.744 27.8737 52.7695 28.0179 52.8204C28.1621 52.8713 28.2872 52.9434 28.3933 53.0367C28.5035 53.1258 28.5926 53.2297 28.6605 53.3485C28.7326 53.4672 28.7771 53.5945 28.7941 53.7302L28.6478 53.6793V52.814H29.3095V56.1543H28.6478V55.359L28.8005 55.3145C28.775 55.429 28.722 55.5414 28.6414 55.6517C28.5651 55.7577 28.4654 55.8531 28.3424 55.938C28.2236 56.0228 28.09 56.0907 27.9415 56.1416C27.7973 56.1925 27.6446 56.2179 27.4834 56.2179ZM27.6552 55.6135C27.8546 55.6135 28.0306 55.5647 28.1833 55.4672C28.336 55.3696 28.4548 55.236 28.5396 55.0663C28.6287 54.8924 28.6732 54.6952 28.6732 54.4746C28.6732 54.2583 28.6287 54.0653 28.5396 53.8956C28.4548 53.726 28.336 53.5924 28.1833 53.4948C28.0306 53.3972 27.8546 53.3485 27.6552 53.3485C27.4601 53.3485 27.2862 53.3972 27.1335 53.4948C26.9851 53.5924 26.8663 53.726 26.7772 53.8956C26.6924 54.0653 26.65 54.2583 26.65 54.4746C26.65 54.6952 26.6924 54.8924 26.7772 55.0663C26.8663 55.236 26.9851 55.3696 27.1335 55.4672C27.2862 55.5647 27.4601 55.6135 27.6552 55.6135ZM30.638 56.1543V51.9615H31.2933V56.1543H30.638ZM29.9445 53.4503V52.814H32.0696V53.4503H29.9445ZM34.194 56.2179C33.8504 56.2179 33.545 56.1458 33.2778 56.0016C33.0148 55.8531 32.807 55.6517 32.6543 55.3972C32.5058 55.1427 32.4316 54.85 32.4316 54.5192C32.4316 54.2562 32.474 54.0165 32.5589 53.8002C32.6437 53.5839 32.7603 53.3972 32.9088 53.2403C33.0615 53.0791 33.2418 52.9561 33.4496 52.8713C33.6617 52.7822 33.8907 52.7377 34.1367 52.7377C34.3531 52.7377 34.5545 52.7801 34.7412 52.8649C34.9278 52.9455 35.089 53.0579 35.2247 53.2021C35.3647 53.3463 35.4707 53.5181 35.5428 53.7175C35.6192 53.9126 35.6552 54.1268 35.651 54.3601L35.6446 54.64H32.9152L32.7688 54.1183H35.0784L34.9829 54.2265V54.0738C34.9702 53.9338 34.9236 53.8087 34.843 53.6984C34.7624 53.5881 34.6606 53.5012 34.5376 53.4375C34.4146 53.3739 34.281 53.3421 34.1367 53.3421C33.9077 53.3421 33.7147 53.3866 33.5578 53.4757C33.4008 53.5605 33.2821 53.6878 33.2015 53.8575C33.1209 54.0229 33.0806 54.2286 33.0806 54.4746C33.0806 54.7079 33.1294 54.9115 33.2269 55.0854C33.3245 55.2551 33.4623 55.3866 33.6405 55.4799C33.8186 55.5732 34.0243 55.6199 34.2576 55.6199C34.4231 55.6199 34.5758 55.5923 34.7157 55.5371C34.8599 55.482 35.0148 55.3823 35.1802 55.2381L35.511 55.7026C35.4092 55.8044 35.2841 55.8934 35.1356 55.9698C34.9914 56.0461 34.8366 56.1076 34.6712 56.1543C34.51 56.1967 34.3509 56.2179 34.194 56.2179ZM37.7566 56.2179C37.4512 56.2179 37.1776 56.1437 36.9358 55.9952C36.6983 55.8425 36.5095 55.6368 36.3696 55.3781C36.2296 55.1151 36.1596 54.8161 36.1596 54.481C36.1596 54.1459 36.2275 53.849 36.3632 53.5902C36.5032 53.3273 36.6919 53.1215 36.9295 52.9731C37.167 52.8204 37.4363 52.744 37.7375 52.744C37.9029 52.744 38.062 52.7716 38.2147 52.8267C38.3716 52.8776 38.5116 52.9498 38.6346 53.0431C38.7576 53.1321 38.853 53.2318 38.9209 53.3421C38.993 53.4481 39.0291 53.5563 39.0291 53.6666L38.8382 53.6793V51.4461H39.4935V56.1543H38.8382V55.359H38.9654C38.9654 55.4608 38.9315 55.5626 38.8636 55.6644C38.7958 55.7619 38.7046 55.8531 38.59 55.938C38.4798 56.0228 38.3504 56.0907 38.2019 56.1416C38.0577 56.1925 37.9093 56.2179 37.7566 56.2179ZM37.8456 55.6517C38.045 55.6517 38.221 55.6008 38.3737 55.499C38.5264 55.3972 38.6452 55.2593 38.73 55.0854C38.8191 54.9073 38.8636 54.7058 38.8636 54.481C38.8636 54.2562 38.8191 54.0568 38.73 53.8829C38.6452 53.7048 38.5264 53.5648 38.3737 53.463C38.221 53.3612 38.045 53.3103 37.8456 53.3103C37.6463 53.3103 37.4703 53.3612 37.3176 53.463C37.1649 53.5648 37.044 53.7048 36.9549 53.8829C36.8701 54.0568 36.8277 54.2562 36.8277 54.481C36.8277 54.7058 36.8701 54.9073 36.9549 55.0854C37.044 55.2593 37.1649 55.3972 37.3176 55.499C37.4703 55.6008 37.6463 55.6517 37.8456 55.6517Z" fill="#121C47" fill-opacity="0.87"/>
<path d="M67.5359 46.0332V41.5795H68.2104L69.8328 44.2199L69.5083 44.2136L71.1498 41.5795H71.786V46.0332H71.0989V44.2072C71.0989 43.8254 71.1074 43.4819 71.1243 43.1765C71.1456 42.8711 71.1795 42.5678 71.2261 42.2666L71.3152 42.5021L69.8582 44.7544H69.4383L68.0258 42.5275L68.0958 42.2666C68.1425 42.5508 68.1743 42.8435 68.1913 43.1447C68.2125 43.4416 68.2231 43.7958 68.2231 44.2072V46.0332H67.5359ZM74.3708 46.0968C74.0442 46.0968 73.7515 46.0226 73.4928 45.8741C73.2383 45.7214 73.0368 45.5157 72.8884 45.257C72.7399 44.994 72.6657 44.695 72.6657 44.3599C72.6657 44.0248 72.7399 43.7279 72.8884 43.4691C73.0368 43.2062 73.2383 43.0004 73.4928 42.852C73.7515 42.6993 74.0442 42.6229 74.3708 42.6229C74.6932 42.6229 74.9816 42.6993 75.2361 42.852C75.4949 43.0004 75.6984 43.2062 75.8469 43.4691C75.9954 43.7279 76.0696 44.0248 76.0696 44.3599C76.0696 44.695 75.9954 44.994 75.8469 45.257C75.6984 45.5157 75.4949 45.7214 75.2361 45.8741C74.9816 46.0226 74.6932 46.0968 74.3708 46.0968ZM74.3708 45.4988C74.5702 45.4988 74.7483 45.45 74.9053 45.3524C75.0622 45.2506 75.1852 45.1149 75.2743 44.9452C75.3634 44.7713 75.4058 44.5762 75.4015 44.3599C75.4058 44.1393 75.3634 43.9442 75.2743 43.7745C75.1852 43.6006 75.0622 43.4649 74.9053 43.3673C74.7483 43.2698 74.5702 43.221 74.3708 43.221C74.1715 43.221 73.9912 43.2719 73.83 43.3737C73.6731 43.4713 73.5501 43.607 73.461 43.7809C73.3719 43.9506 73.3295 44.1436 73.3337 44.3599C73.3295 44.5762 73.3719 44.7713 73.461 44.9452C73.5501 45.1149 73.6731 45.2506 73.83 45.3524C73.9912 45.45 74.1715 45.4988 74.3708 45.4988ZM76.7837 46.0332V42.6929H77.439V43.3801L77.3245 43.4564C77.3669 43.308 77.4496 43.1722 77.5726 43.0492C77.6956 42.922 77.842 42.8202 78.0116 42.7438C78.1813 42.6632 78.3552 42.6229 78.5333 42.6229C78.7878 42.6229 78.9999 42.6738 79.1696 42.7756C79.3392 42.8732 79.4665 43.0238 79.5513 43.2274C79.6362 43.431 79.6786 43.6876 79.6786 43.9972V46.0332H79.0232V44.0418C79.0232 43.8509 78.9978 43.694 78.9469 43.5709C78.896 43.4437 78.8175 43.3525 78.7115 43.2974C78.6054 43.238 78.474 43.2125 78.317 43.221C78.1898 43.221 78.0731 43.2422 77.9671 43.2846C77.861 43.3228 77.7677 43.378 77.6871 43.4501C77.6108 43.5222 77.5493 43.607 77.5026 43.7046C77.4602 43.7979 77.439 43.8997 77.439 44.01V46.0332H77.1145C77.0594 46.0332 77.0042 46.0332 76.9491 46.0332C76.894 46.0332 76.8388 46.0332 76.7837 46.0332ZM82.1264 46.0968C81.7828 46.0968 81.4774 46.0247 81.2102 45.8805C80.9472 45.732 80.7394 45.5306 80.5867 45.2761C80.4382 45.0216 80.364 44.7289 80.364 44.3981C80.364 44.1351 80.4064 43.8954 80.4912 43.6791C80.5761 43.4628 80.6927 43.2762 80.8412 43.1192C80.9939 42.958 81.1741 42.835 81.382 42.7502C81.594 42.6611 81.8231 42.6166 82.0691 42.6166C82.2854 42.6166 82.4869 42.659 82.6735 42.7438C82.8602 42.8244 83.0213 42.9368 83.1571 43.081C83.2971 43.2253 83.4031 43.397 83.4752 43.5964C83.5516 43.7915 83.5876 44.0057 83.5834 44.239L83.577 44.5189H80.8475L80.7012 43.9972H83.0107L82.9153 44.1054V43.9527C82.9026 43.8127 82.8559 43.6876 82.7753 43.5773C82.6947 43.467 82.5929 43.3801 82.4699 43.3164C82.3469 43.2528 82.2133 43.221 82.0691 43.221C81.8401 43.221 81.6471 43.2655 81.4901 43.3546C81.3332 43.4395 81.2144 43.5667 81.1338 43.7364C81.0532 43.9018 81.0129 44.1075 81.0129 44.3535C81.0129 44.5868 81.0617 44.7904 81.1593 44.9643C81.2568 45.134 81.3947 45.2655 81.5728 45.3588C81.751 45.4521 81.9567 45.4988 82.19 45.4988C82.3554 45.4988 82.5081 45.4712 82.6481 45.416C82.7923 45.3609 82.9471 45.2612 83.1125 45.117L83.4434 45.5815C83.3416 45.6833 83.2165 45.7723 83.068 45.8487C82.9238 45.925 82.769 45.9865 82.6035 46.0332C82.4424 46.0756 82.2833 46.0968 82.1264 46.0968ZM84.7933 47.4966L85.4677 45.9378L85.4741 46.4595L83.8071 42.6929H84.5706L85.6141 45.1488C85.6353 45.1912 85.6607 45.257 85.6904 45.3461C85.7201 45.4309 85.7456 45.5157 85.7668 45.6006L85.6013 45.6387C85.6353 45.5497 85.6671 45.4606 85.6968 45.3715C85.7307 45.2824 85.7625 45.1934 85.7922 45.1043L86.6639 42.6929H87.4401L86.0658 46.0332L85.4995 47.4966H84.7933ZM91.1069 46.0968C90.8015 46.0968 90.5279 46.0226 90.2862 45.8741C90.0486 45.7214 89.8599 45.5157 89.7199 45.257C89.5799 44.994 89.51 44.695 89.51 44.3599C89.51 44.0248 89.5778 43.7279 89.7136 43.4691C89.8535 43.2062 90.0423 43.0004 90.2798 42.852C90.5173 42.6993 90.7867 42.6229 91.0878 42.6229C91.2533 42.6229 91.4123 42.6505 91.565 42.7057C91.722 42.7566 91.8619 42.8287 91.9849 42.922C92.1079 43.0111 92.2034 43.1107 92.2713 43.221C92.3434 43.3271 92.3794 43.4352 92.3794 43.5455L92.1885 43.5582V41.325H92.8439V46.0332H92.1885V45.2379H92.3158C92.3158 45.3397 92.2819 45.4415 92.214 45.5433C92.1461 45.6409 92.0549 45.732 91.9404 45.8169C91.8301 45.9017 91.7008 45.9696 91.5523 46.0205C91.4081 46.0714 91.2596 46.0968 91.1069 46.0968ZM91.196 45.5306C91.3954 45.5306 91.5714 45.4797 91.7241 45.3779C91.8768 45.2761 91.9955 45.1382 92.0804 44.9643C92.1695 44.7862 92.214 44.5847 92.214 44.3599C92.214 44.1351 92.1695 43.9357 92.0804 43.7618C91.9955 43.5837 91.8768 43.4437 91.7241 43.3419C91.5714 43.2401 91.3954 43.1892 91.196 43.1892C90.9966 43.1892 90.8206 43.2401 90.6679 43.3419C90.5152 43.4437 90.3943 43.5837 90.3053 43.7618C90.2204 43.9357 90.178 44.1351 90.178 44.3599C90.178 44.5847 90.2204 44.7862 90.3053 44.9643C90.3943 45.1382 90.5152 45.2761 90.6679 45.3779C90.8206 45.4797 90.9966 45.5306 91.196 45.5306ZM95.3048 46.0968C94.9612 46.0968 94.6558 46.0247 94.3886 45.8805C94.1256 45.732 93.9178 45.5306 93.7651 45.2761C93.6166 45.0216 93.5424 44.7289 93.5424 44.3981C93.5424 44.1351 93.5848 43.8954 93.6696 43.6791C93.7545 43.4628 93.8711 43.2762 94.0196 43.1192C94.1723 42.958 94.3525 42.835 94.5604 42.7502C94.7725 42.6611 95.0015 42.6166 95.2475 42.6166C95.4638 42.6166 95.6653 42.659 95.852 42.7438C96.0386 42.8244 96.1998 42.9368 96.3355 43.081C96.4755 43.2253 96.5815 43.397 96.6536 43.5964C96.73 43.7915 96.766 44.0057 96.7618 44.239L96.7554 44.5189H94.0259L93.8796 43.9972H96.1892L96.0937 44.1054V43.9527C96.081 43.8127 96.0343 43.6876 95.9538 43.5773C95.8732 43.467 95.7714 43.3801 95.6484 43.3164C95.5253 43.2528 95.3917 43.221 95.2475 43.221C95.0185 43.221 94.8255 43.2655 94.6685 43.3546C94.5116 43.4395 94.3928 43.5667 94.3122 43.7364C94.2317 43.9018 94.1914 44.1075 94.1914 44.3535C94.1914 44.5868 94.2401 44.7904 94.3377 44.9643C94.4353 45.134 94.5731 45.2655 94.7513 45.3588C94.9294 45.4521 95.1351 45.4988 95.3684 45.4988C95.5338 45.4988 95.6865 45.4712 95.8265 45.416C95.9707 45.3609 96.1255 45.2612 96.291 45.117L96.6218 45.5815C96.52 45.6833 96.3949 45.7723 96.2464 45.8487C96.1022 45.925 95.9474 45.9865 95.782 46.0332C95.6208 46.0756 95.4617 46.0968 95.3048 46.0968ZM99.23 46.0968C99.0858 46.0968 98.9416 46.0735 98.7974 46.0268C98.6574 45.9802 98.528 45.9187 98.4092 45.8423C98.2947 45.7617 98.1972 45.6748 98.1166 45.5815C98.0402 45.4839 97.9893 45.3864 97.9639 45.2888L98.1293 45.1997V46.0141H97.474V41.325H98.1293V43.4564L98.0275 43.3992C98.0487 43.3016 98.0954 43.2083 98.1675 43.1192C98.2396 43.0259 98.3308 42.9432 98.4411 42.8711C98.5556 42.7947 98.6786 42.7353 98.8101 42.6929C98.9416 42.6463 99.0752 42.6229 99.2109 42.6229C99.5121 42.6229 99.7793 42.6972 100.013 42.8456C100.246 42.9941 100.43 43.1998 100.566 43.4628C100.702 43.7215 100.77 44.0184 100.77 44.3535C100.77 44.6886 100.702 44.9876 100.566 45.2506C100.435 45.5136 100.252 45.7214 100.019 45.8741C99.7857 46.0226 99.5227 46.0968 99.23 46.0968ZM99.1218 45.4988C99.317 45.4988 99.4909 45.45 99.6436 45.3524C99.7963 45.2506 99.9171 45.1149 100.006 44.9452C100.095 44.7713 100.14 44.5741 100.14 44.3535C100.14 44.1372 100.095 43.9442 100.006 43.7745C99.9214 43.6006 99.8026 43.4649 99.6499 43.3673C99.4972 43.2698 99.3212 43.221 99.1218 43.221C98.9225 43.221 98.7465 43.2698 98.5938 43.3673C98.4411 43.4649 98.3202 43.6006 98.2311 43.7745C98.142 43.9442 98.0975 44.1372 98.0975 44.3535C98.0975 44.5741 98.142 44.7713 98.2311 44.9452C98.3202 45.1149 98.4411 45.2506 98.5938 45.3524C98.7465 45.45 98.9225 45.4988 99.1218 45.4988ZM101.59 46.0332V42.6929H102.245V46.0332H101.59ZM101.908 41.9549C101.768 41.9549 101.66 41.9188 101.583 41.8467C101.507 41.7746 101.469 41.6728 101.469 41.5413C101.469 41.4183 101.507 41.3186 101.583 41.2423C101.664 41.1659 101.772 41.1278 101.908 41.1278C102.048 41.1278 102.156 41.1638 102.232 41.2359C102.309 41.308 102.347 41.4098 102.347 41.5413C102.347 41.6643 102.307 41.764 102.226 41.8404C102.15 41.9167 102.044 41.9549 101.908 41.9549ZM103.666 46.0332V41.8404H104.321V46.0332H103.666ZM102.972 43.3292V42.6929H105.097V43.3292H102.972ZM107.222 46.0968C106.878 46.0968 106.573 46.0247 106.306 45.8805C106.043 45.732 105.835 45.5306 105.682 45.2761C105.534 45.0216 105.46 44.7289 105.46 44.3981C105.46 44.1351 105.502 43.8954 105.587 43.6791C105.672 43.4628 105.788 43.2762 105.937 43.1192C106.089 42.958 106.27 42.835 106.477 42.7502C106.69 42.6611 106.919 42.6166 107.165 42.6166C107.381 42.6166 107.582 42.659 107.769 42.7438C107.956 42.8244 108.117 42.9368 108.253 43.081C108.393 43.2253 108.499 43.397 108.571 43.5964C108.647 43.7915 108.683 44.0057 108.679 44.239L108.673 44.5189H105.943L105.797 43.9972H108.106L108.011 44.1054V43.9527C107.998 43.8127 107.951 43.6876 107.871 43.5773C107.79 43.467 107.688 43.3801 107.565 43.3164C107.442 43.2528 107.309 43.221 107.165 43.221C106.936 43.221 106.743 43.2655 106.586 43.3546C106.429 43.4395 106.31 43.5667 106.229 43.7364C106.149 43.9018 106.108 44.1075 106.108 44.3535C106.108 44.5868 106.157 44.7904 106.255 44.9643C106.352 45.134 106.49 45.2655 106.668 45.3588C106.847 45.4521 107.052 45.4988 107.286 45.4988C107.451 45.4988 107.604 45.4712 107.744 45.416C107.888 45.3609 108.043 45.2612 108.208 45.117L108.539 45.5815C108.437 45.6833 108.312 45.7723 108.164 45.8487C108.019 45.925 107.865 45.9865 107.699 46.0332C107.538 46.0756 107.379 46.0968 107.222 46.0968ZM110.784 46.0968C110.479 46.0968 110.205 46.0226 109.964 45.8741C109.726 45.7214 109.537 45.5157 109.397 45.257C109.257 44.994 109.187 44.695 109.187 44.3599C109.187 44.0248 109.255 43.7279 109.391 43.4691C109.531 43.2062 109.72 43.0004 109.957 42.852C110.195 42.6993 110.464 42.6229 110.765 42.6229C110.931 42.6229 111.09 42.6505 111.243 42.7057C111.399 42.7566 111.539 42.8287 111.662 42.922C111.785 43.0111 111.881 43.1107 111.949 43.221C112.021 43.3271 112.057 43.4352 112.057 43.5455L111.866 43.5582V41.325H112.521V46.0332H111.866V45.2379H111.993C111.993 45.3397 111.959 45.4415 111.892 45.5433C111.824 45.6409 111.732 45.732 111.618 45.8169C111.508 45.9017 111.378 45.9696 111.23 46.0205C111.086 46.0714 110.937 46.0968 110.784 46.0968ZM110.874 45.5306C111.073 45.5306 111.249 45.4797 111.402 45.3779C111.554 45.2761 111.673 45.1382 111.758 44.9643C111.847 44.7862 111.892 44.5847 111.892 44.3599C111.892 44.1351 111.847 43.9357 111.758 43.7618C111.673 43.5837 111.554 43.4437 111.402 43.3419C111.249 43.2401 111.073 43.1892 110.874 43.1892C110.674 43.1892 110.498 43.2401 110.345 43.3419C110.193 43.4437 110.072 43.5837 109.983 43.7618C109.898 43.9357 109.856 44.1351 109.856 44.3599C109.856 44.5847 109.898 44.7862 109.983 44.9643C110.072 45.1382 110.193 45.2761 110.345 45.3779C110.498 45.4797 110.674 45.5306 110.874 45.5306ZM74.8039 56.0332V52.3175C74.8039 52.1267 74.8463 51.957 74.9312 51.8086C75.016 51.6601 75.1326 51.5435 75.2811 51.4586C75.4296 51.3738 75.6013 51.3314 75.7965 51.3314C75.9322 51.3314 76.0594 51.3568 76.1782 51.4077C76.297 51.4586 76.3924 51.5265 76.4645 51.6113L76.2418 52.114C76.1867 52.0631 76.1252 52.0228 76.0573 51.9931C75.9937 51.9591 75.9322 51.9422 75.8728 51.9422C75.7837 51.9422 75.7074 51.957 75.6438 51.9867C75.5844 52.0122 75.5398 52.0546 75.5101 52.114C75.4805 52.1691 75.4656 52.237 75.4656 52.3175V56.0332H75.1348C75.0796 56.0332 75.0245 56.0332 74.9693 56.0332C74.9142 56.0332 74.8591 56.0332 74.8039 56.0332ZM74.2695 53.3546V52.7502H76.2545V53.3546H74.2695ZM76.939 56.0332V52.6929H77.6007V53.7427L77.5371 53.4882C77.5837 53.3271 77.6622 53.1807 77.7725 53.0492C77.887 52.9177 78.0164 52.8138 78.1606 52.7375C78.309 52.6611 78.4617 52.6229 78.6187 52.6229C78.6908 52.6229 78.7587 52.6293 78.8223 52.642C78.8901 52.6548 78.9432 52.6696 78.9813 52.6866L78.8096 53.3992C78.7587 53.378 78.7014 53.361 78.6378 53.3483C78.5784 53.3313 78.519 53.3228 78.4596 53.3228C78.3451 53.3228 78.2348 53.3461 78.1288 53.3928C78.027 53.4352 77.9358 53.4967 77.8552 53.5773C77.7788 53.6537 77.7173 53.7449 77.6707 53.8509C77.624 53.9527 77.6007 54.0651 77.6007 54.1881V56.0332H76.939ZM80.8637 56.0968C80.5371 56.0968 80.2444 56.0226 79.9857 55.8741C79.7312 55.7214 79.5297 55.5157 79.3813 55.257C79.2328 54.994 79.1586 54.695 79.1586 54.3599C79.1586 54.0248 79.2328 53.7279 79.3813 53.4691C79.5297 53.2062 79.7312 53.0004 79.9857 52.852C80.2444 52.6993 80.5371 52.6229 80.8637 52.6229C81.1861 52.6229 81.4745 52.6993 81.729 52.852C81.9878 53.0004 82.1913 53.2062 82.3398 53.4691C82.4883 53.7279 82.5625 54.0248 82.5625 54.3599C82.5625 54.695 82.4883 54.994 82.3398 55.257C82.1913 55.5157 81.9878 55.7214 81.729 55.8741C81.4745 56.0226 81.1861 56.0968 80.8637 56.0968ZM80.8637 55.4988C81.0631 55.4988 81.2412 55.45 81.3982 55.3524C81.5551 55.2506 81.6781 55.1149 81.7672 54.9452C81.8563 54.7713 81.8987 54.5762 81.8944 54.3599C81.8987 54.1393 81.8563 53.9442 81.7672 53.7745C81.6781 53.6006 81.5551 53.4649 81.3982 53.3673C81.2412 53.2698 81.0631 53.221 80.8637 53.221C80.6644 53.221 80.4841 53.2719 80.3229 53.3737C80.166 53.4713 80.043 53.607 79.9539 53.7809C79.8648 53.9506 79.8224 54.1436 79.8266 54.3599C79.8224 54.5762 79.8648 54.7713 79.9539 54.9452C80.043 55.1149 80.166 55.2506 80.3229 55.3524C80.4841 55.45 80.6644 55.4988 80.8637 55.4988ZM83.2638 56.0332V52.6929H83.9255V53.4055L83.8047 53.4819C83.8386 53.3716 83.8916 53.2655 83.9637 53.1638C84.0401 53.062 84.1313 52.9729 84.2373 52.8965C84.3476 52.8159 84.4642 52.7523 84.5872 52.7057C84.7145 52.659 84.8438 52.6357 84.9753 52.6357C85.1662 52.6357 85.3338 52.6675 85.478 52.7311C85.6222 52.7947 85.741 52.8902 85.8343 53.0174C85.9276 53.1447 85.9954 53.3037 86.0379 53.4946L85.9361 53.4691L85.9806 53.361C86.0273 53.2634 86.0909 53.1722 86.1715 53.0874C86.2563 52.9983 86.3517 52.9199 86.4578 52.852C86.5638 52.7841 86.6762 52.7311 86.795 52.6929C86.9138 52.6548 87.0304 52.6357 87.1449 52.6357C87.3952 52.6357 87.6009 52.6866 87.7621 52.7884C87.9275 52.8902 88.0505 53.045 88.1311 53.2528C88.2159 53.4607 88.2583 53.7194 88.2583 54.029V56.0332H87.5967V54.0672C87.5967 53.8763 87.5712 53.7215 87.5203 53.6028C87.4737 53.4798 87.4015 53.3886 87.304 53.3292C87.2064 53.2698 87.0813 53.2401 86.9286 53.2401C86.8098 53.2401 86.6974 53.2613 86.5914 53.3037C86.4896 53.3419 86.4005 53.397 86.3242 53.4691C86.2478 53.5413 86.1884 53.6261 86.146 53.7236C86.1036 53.817 86.0824 53.9209 86.0824 54.0354V56.0332H85.4207V54.0545C85.4207 53.8806 85.3953 53.7342 85.3444 53.6155C85.2935 53.4925 85.2192 53.3992 85.1217 53.3355C85.0241 53.2719 84.9054 53.2401 84.7654 53.2401C84.6466 53.2401 84.5363 53.2613 84.4345 53.3037C84.3327 53.3419 84.2437 53.397 84.1673 53.4691C84.091 53.537 84.0316 53.6197 83.9892 53.7173C83.9467 53.8106 83.9255 53.9124 83.9255 54.0227V56.0332H83.2638ZM92.675 56.0968C92.5308 56.0968 92.3865 56.0735 92.2423 56.0268C92.1023 55.9802 91.973 55.9187 91.8542 55.8423C91.7397 55.7617 91.6421 55.6748 91.5615 55.5815C91.4852 55.4839 91.4343 55.3864 91.4088 55.2888L91.5743 55.1997V56.0141H90.9189V51.325H91.5743V53.4564L91.4725 53.3992C91.4937 53.3016 91.5403 53.2083 91.6124 53.1192C91.6845 53.0259 91.7757 52.9432 91.886 52.8711C92.0005 52.7947 92.1236 52.7353 92.255 52.6929C92.3865 52.6463 92.5201 52.6229 92.6559 52.6229C92.957 52.6229 93.2243 52.6972 93.4575 52.8456C93.6908 52.9941 93.8753 53.1998 94.0111 53.4628C94.1468 53.7215 94.2147 54.0184 94.2147 54.3535C94.2147 54.6886 94.1468 54.9876 94.0111 55.2506C93.8796 55.5136 93.6972 55.7214 93.4639 55.8741C93.2306 56.0226 92.9676 56.0968 92.675 56.0968ZM92.5668 55.4988C92.7619 55.4988 92.9358 55.45 93.0885 55.3524C93.2412 55.2506 93.3621 55.1149 93.4512 54.9452C93.5403 54.7713 93.5848 54.5741 93.5848 54.3535C93.5848 54.1372 93.5403 53.9442 93.4512 53.7745C93.3663 53.6006 93.2476 53.4649 93.0949 53.3673C92.9422 53.2698 92.7662 53.221 92.5668 53.221C92.3674 53.221 92.1914 53.2698 92.0387 53.3673C91.886 53.4649 91.7651 53.6006 91.6761 53.7745C91.587 53.9442 91.5425 54.1372 91.5425 54.3535C91.5425 54.5741 91.587 54.7713 91.6761 54.9452C91.7651 55.1149 91.886 55.2506 92.0387 55.3524C92.1914 55.45 92.3674 55.4988 92.5668 55.4988ZM96.2117 56.0968C95.936 56.0968 95.6836 56.0205 95.4546 55.8678C95.2298 55.7151 95.0495 55.5072 94.9138 55.2443C94.7781 54.9813 94.7102 54.6844 94.7102 54.3535C94.7102 54.0184 94.7781 53.7215 94.9138 53.4628C95.0538 53.1998 95.2404 52.9941 95.4737 52.8456C95.7112 52.6972 95.9763 52.6229 96.269 52.6229C96.4429 52.6229 96.602 52.6484 96.7462 52.6993C96.8904 52.7502 97.0155 52.8223 97.1216 52.9156C97.2318 53.0047 97.3209 53.1086 97.3888 53.2274C97.4609 53.3461 97.5054 53.4734 97.5224 53.6091L97.376 53.5582V52.6929H98.0377V56.0332H97.376V55.2379L97.5287 55.1934C97.5033 55.3079 97.4503 55.4203 97.3697 55.5306C97.2933 55.6366 97.1937 55.732 97.0707 55.8169C96.9519 55.9017 96.8183 55.9696 96.6698 56.0205C96.5256 56.0714 96.3729 56.0968 96.2117 56.0968ZM96.3835 55.4924C96.5829 55.4924 96.7589 55.4436 96.9116 55.3461C97.0643 55.2485 97.1831 55.1149 97.2679 54.9452C97.357 54.7713 97.4015 54.5741 97.4015 54.3535C97.4015 54.1372 97.357 53.9442 97.2679 53.7745C97.1831 53.6049 97.0643 53.4713 96.9116 53.3737C96.7589 53.2762 96.5829 53.2274 96.3835 53.2274C96.1884 53.2274 96.0145 53.2762 95.8618 53.3737C95.7133 53.4713 95.5946 53.6049 95.5055 53.7745C95.4207 53.9442 95.3782 54.1372 95.3782 54.3535C95.3782 54.5741 95.4207 54.7713 95.5055 54.9452C95.5946 55.1149 95.7133 55.2485 95.8618 55.3461C96.0145 55.4436 96.1884 55.4924 96.3835 55.4924ZM98.9527 56.0332V52.6929H99.6081V53.3801L99.4935 53.4564C99.536 53.308 99.6187 53.1722 99.7417 53.0492C99.8647 52.922 100.011 52.8202 100.181 52.7438C100.35 52.6632 100.524 52.6229 100.702 52.6229C100.957 52.6229 101.169 52.6738 101.339 52.7756C101.508 52.8732 101.636 53.0238 101.72 53.2274C101.805 53.431 101.848 53.6876 101.848 53.9972V56.0332H101.192V54.0418C101.192 53.8509 101.167 53.694 101.116 53.5709C101.065 53.4437 100.987 53.3525 100.881 53.2974C100.775 53.238 100.643 53.2125 100.486 53.221C100.359 53.221 100.242 53.2422 100.136 53.2846C100.03 53.3228 99.9368 53.378 99.8562 53.4501C99.7799 53.5222 99.7184 53.607 99.6717 53.7046C99.6293 53.7979 99.6081 53.8997 99.6081 54.01V56.0332H99.2836C99.2284 56.0332 99.1733 56.0332 99.1182 56.0332C99.063 56.0332 99.0079 56.0332 98.9527 56.0332ZM103.335 54.9898L103.303 54.2772L104.9 52.6929H105.784L103.335 54.9898ZM102.737 56.0332V51.325H103.392V56.0332H102.737ZM104.989 56.0332L103.729 54.5635L104.194 54.1372L105.829 56.0332H104.989Z" fill="#121C47" fill-opacity="0.87"/>
<path d="M133.734 46.5488V42.0951H134.409L136.031 44.7355L135.706 44.7292L137.348 42.0951H137.984V46.5488H137.297V44.7228C137.297 44.3411 137.306 43.9975 137.323 43.6921C137.344 43.3867 137.378 43.0834 137.424 42.7823L137.513 43.0177L136.056 45.27H135.636L134.224 43.0431L134.294 42.7823C134.341 43.0665 134.372 43.3591 134.389 43.6603C134.411 43.9572 134.421 44.3114 134.421 44.7228V46.5488H133.734ZM140.569 46.6125C140.242 46.6125 139.95 46.5382 139.691 46.3898C139.436 46.2371 139.235 46.0314 139.087 45.7726C138.938 45.5096 138.864 45.2106 138.864 44.8755C138.864 44.5404 138.938 44.2435 139.087 43.9848C139.235 43.7218 139.436 43.5161 139.691 43.3676C139.95 43.2149 140.242 43.1386 140.569 43.1386C140.891 43.1386 141.18 43.2149 141.434 43.3676C141.693 43.5161 141.897 43.7218 142.045 43.9848C142.194 44.2435 142.268 44.5404 142.268 44.8755C142.268 45.2106 142.194 45.5096 142.045 45.7726C141.897 46.0314 141.693 46.2371 141.434 46.3898C141.18 46.5382 140.891 46.6125 140.569 46.6125ZM140.569 46.0144C140.768 46.0144 140.946 45.9656 141.103 45.868C141.26 45.7663 141.383 45.6305 141.472 45.4609C141.562 45.2869 141.604 45.0918 141.6 44.8755C141.604 44.6549 141.562 44.4598 141.472 44.2902C141.383 44.1163 141.26 43.9805 141.103 43.883C140.946 43.7854 140.768 43.7366 140.569 43.7366C140.37 43.7366 140.189 43.7875 140.028 43.8893C139.871 43.9869 139.748 44.1226 139.659 44.2965C139.57 44.4662 139.528 44.6592 139.532 44.8755C139.528 45.0918 139.57 45.2869 139.659 45.4609C139.748 45.6305 139.871 45.7663 140.028 45.868C140.189 45.9656 140.37 46.0144 140.569 46.0144ZM142.982 46.5488V43.2086H143.637V43.8957L143.523 43.972C143.565 43.8236 143.648 43.6879 143.771 43.5649C143.894 43.4376 144.04 43.3358 144.21 43.2595C144.379 43.1789 144.553 43.1386 144.732 43.1386C144.986 43.1386 145.198 43.1895 145.368 43.2913C145.537 43.3888 145.665 43.5394 145.749 43.743C145.834 43.9466 145.877 44.2032 145.877 44.5129V46.5488H145.221V44.5574C145.221 44.3665 145.196 44.2096 145.145 44.0866C145.094 43.9593 145.016 43.8681 144.91 43.813C144.804 43.7536 144.672 43.7282 144.515 43.7366C144.388 43.7366 144.271 43.7578 144.165 43.8003C144.059 43.8384 143.966 43.8936 143.885 43.9657C143.809 44.0378 143.747 44.1226 143.701 44.2202C143.658 44.3135 143.637 44.4153 143.637 44.5256V46.5488H143.313C143.258 46.5488 143.202 46.5488 143.147 46.5488C143.092 46.5488 143.037 46.5488 142.982 46.5488ZM148.325 46.6125C147.981 46.6125 147.676 46.5403 147.408 46.3961C147.145 46.2477 146.938 46.0462 146.785 45.7917C146.636 45.5372 146.562 45.2445 146.562 44.9137C146.562 44.6507 146.605 44.4111 146.689 44.1947C146.774 43.9784 146.891 43.7918 147.039 43.6348C147.192 43.4737 147.372 43.3507 147.58 43.2658C147.792 43.1767 148.021 43.1322 148.267 43.1322C148.484 43.1322 148.685 43.1746 148.872 43.2595C149.058 43.34 149.22 43.4524 149.355 43.5967C149.495 43.7409 149.601 43.9127 149.673 44.112C149.75 44.3071 149.786 44.5213 149.782 44.7546L149.775 45.0346H147.046L146.899 44.5129H149.209L149.113 44.621V44.4683C149.101 44.3283 149.054 44.2032 148.974 44.0929C148.893 43.9827 148.791 43.8957 148.668 43.8321C148.545 43.7684 148.411 43.7366 148.267 43.7366C148.038 43.7366 147.845 43.7812 147.688 43.8702C147.531 43.9551 147.413 44.0823 147.332 44.252C147.251 44.4174 147.211 44.6231 147.211 44.8691C147.211 45.1024 147.26 45.306 147.357 45.4799C147.455 45.6496 147.593 45.7811 147.771 45.8744C147.949 45.9677 148.155 46.0144 148.388 46.0144C148.554 46.0144 148.706 45.9868 148.846 45.9317C148.99 45.8765 149.145 45.7769 149.311 45.6326L149.642 46.0971C149.54 46.1989 149.415 46.288 149.266 46.3643C149.122 46.4407 148.967 46.5022 148.802 46.5488C148.641 46.5912 148.481 46.6125 148.325 46.6125ZM150.991 48.0122L151.666 46.4534L151.672 46.9751L150.005 43.2086H150.769L151.812 45.6645C151.833 45.7069 151.859 45.7726 151.889 45.8617C151.918 45.9465 151.944 46.0314 151.965 46.1162L151.8 46.1544C151.833 46.0653 151.865 45.9762 151.895 45.8871C151.929 45.7981 151.961 45.709 151.99 45.6199L152.862 43.2086H153.638L152.264 46.5488L151.698 48.0122H150.991ZM157.025 46.6125C156.745 46.6125 156.493 46.5637 156.268 46.4661C156.043 46.3686 155.857 46.2243 155.708 46.0335L156.154 45.6517C156.281 45.8002 156.419 45.9083 156.567 45.9762C156.72 46.0398 156.892 46.0716 157.082 46.0716C157.159 46.0716 157.229 46.0632 157.292 46.0462C157.36 46.025 157.418 45.9953 157.464 45.9571C157.515 45.9189 157.553 45.8744 157.579 45.8235C157.604 45.7684 157.617 45.709 157.617 45.6454C157.617 45.5351 157.577 45.446 157.496 45.3781C157.454 45.3485 157.386 45.3166 157.292 45.2827C157.203 45.2445 157.087 45.2064 156.942 45.1682C156.696 45.1046 156.495 45.0325 156.338 44.9519C156.181 44.8713 156.06 44.7801 155.975 44.6783C155.912 44.5977 155.865 44.5107 155.835 44.4174C155.806 44.3199 155.791 44.2138 155.791 44.0993C155.791 43.9593 155.821 43.8321 155.88 43.7175C155.944 43.5988 156.028 43.497 156.134 43.4122C156.245 43.3231 156.372 43.2552 156.516 43.2086C156.665 43.1619 156.822 43.1386 156.987 43.1386C157.144 43.1386 157.299 43.1598 157.451 43.2022C157.608 43.2446 157.753 43.3061 157.884 43.3867C158.016 43.4673 158.126 43.5627 158.215 43.673L157.84 44.0866C157.759 44.006 157.67 43.936 157.572 43.8766C157.479 43.813 157.384 43.7642 157.286 43.7303C157.188 43.6963 157.099 43.6794 157.019 43.6794C156.93 43.6794 156.849 43.6879 156.777 43.7048C156.705 43.7218 156.643 43.7472 156.593 43.7812C156.546 43.8151 156.51 43.8575 156.484 43.9084C156.459 43.9593 156.446 44.0166 156.446 44.0802C156.45 44.1353 156.463 44.1884 156.484 44.2393C156.51 44.2859 156.544 44.3262 156.586 44.3602C156.633 44.3941 156.703 44.4301 156.796 44.4683C156.889 44.5065 157.008 44.5425 157.152 44.5765C157.364 44.6316 157.538 44.6931 157.674 44.761C157.814 44.8246 157.924 44.8988 158.005 44.9837C158.09 45.0643 158.149 45.1576 158.183 45.2636C158.217 45.3697 158.234 45.4884 158.234 45.6199C158.234 45.8108 158.179 45.9826 158.069 46.1353C157.963 46.2837 157.818 46.4004 157.636 46.4852C157.454 46.57 157.25 46.6125 157.025 46.6125ZM160.515 46.6125C160.171 46.6125 159.866 46.5403 159.599 46.3961C159.336 46.2477 159.128 46.0462 158.975 45.7917C158.827 45.5372 158.753 45.2445 158.753 44.9137C158.753 44.6507 158.795 44.4111 158.88 44.1947C158.965 43.9784 159.081 43.7918 159.23 43.6348C159.383 43.4737 159.563 43.3507 159.771 43.2658C159.983 43.1767 160.212 43.1322 160.458 43.1322C160.674 43.1322 160.876 43.1746 161.062 43.2595C161.249 43.34 161.41 43.4524 161.546 43.5967C161.686 43.7409 161.792 43.9127 161.864 44.112C161.94 44.3071 161.976 44.5213 161.972 44.7546L161.966 45.0346H159.236L159.09 44.5129H161.399L161.304 44.621V44.4683C161.291 44.3283 161.245 44.2032 161.164 44.0929C161.083 43.9827 160.982 43.8957 160.859 43.8321C160.736 43.7684 160.602 43.7366 160.458 43.7366C160.229 43.7366 160.036 43.7812 159.879 43.8702C159.722 43.9551 159.603 44.0823 159.523 44.252C159.442 44.4174 159.402 44.6231 159.402 44.8691C159.402 45.1024 159.45 45.306 159.548 45.4799C159.646 45.6496 159.783 45.7811 159.962 45.8744C160.14 45.9677 160.345 46.0144 160.579 46.0144C160.744 46.0144 160.897 45.9868 161.037 45.9317C161.181 45.8765 161.336 45.7769 161.501 45.6326L161.832 46.0971C161.73 46.1989 161.605 46.288 161.457 46.3643C161.312 46.4407 161.158 46.5022 160.992 46.5488C160.831 46.5912 160.672 46.6125 160.515 46.6125ZM162.684 46.5488V43.2086H163.34V43.8957L163.225 43.972C163.267 43.8236 163.35 43.6879 163.473 43.5649C163.596 43.4376 163.743 43.3358 163.912 43.2595C164.082 43.1789 164.256 43.1386 164.434 43.1386C164.688 43.1386 164.9 43.1895 165.07 43.2913C165.24 43.3888 165.367 43.5394 165.452 43.743C165.537 43.9466 165.579 44.2032 165.579 44.5129V46.5488H164.924V44.5574C164.924 44.3665 164.898 44.2096 164.847 44.0866C164.797 43.9593 164.718 43.8681 164.612 43.813C164.506 43.7536 164.375 43.7282 164.218 43.7366C164.09 43.7366 163.974 43.7578 163.868 43.8003C163.762 43.8384 163.668 43.8936 163.588 43.9657C163.511 44.0378 163.45 44.1226 163.403 44.2202C163.361 44.3135 163.34 44.4153 163.34 44.5256V46.5488H163.015C162.96 46.5488 162.905 46.5488 162.85 46.5488C162.795 46.5488 162.739 46.5488 162.684 46.5488ZM166.882 46.5488V42.356H167.537V46.5488H166.882ZM166.188 43.8448V43.2086H168.313V43.8448H166.188ZM171.107 46.5488V42.356H171.762V46.5488H171.107ZM170.413 43.8448V43.2086H172.538V43.8448H170.413ZM174.605 46.6125C174.279 46.6125 173.986 46.5382 173.727 46.3898C173.473 46.2371 173.271 46.0314 173.123 45.7726C172.975 45.5096 172.9 45.2106 172.9 44.8755C172.9 44.5404 172.975 44.2435 173.123 43.9848C173.271 43.7218 173.473 43.5161 173.727 43.3676C173.986 43.2149 174.279 43.1386 174.605 43.1386C174.928 43.1386 175.216 43.2149 175.471 43.3676C175.729 43.5161 175.933 43.7218 176.082 43.9848C176.23 44.2435 176.304 44.5404 176.304 44.8755C176.304 45.2106 176.23 45.5096 176.082 45.7726C175.933 46.0314 175.729 46.2371 175.471 46.3898C175.216 46.5382 174.928 46.6125 174.605 46.6125ZM174.605 46.0144C174.805 46.0144 174.983 45.9656 175.14 45.868C175.297 45.7663 175.42 45.6305 175.509 45.4609C175.598 45.2869 175.64 45.0918 175.636 44.8755C175.64 44.6549 175.598 44.4598 175.509 44.2902C175.42 44.1163 175.297 43.9805 175.14 43.883C174.983 43.7854 174.805 43.7366 174.605 43.7366C174.406 43.7366 174.226 43.7875 174.065 43.8893C173.908 43.9869 173.785 44.1226 173.696 44.2965C173.607 44.4662 173.564 44.6592 173.568 44.8755C173.564 45.0918 173.607 45.2869 173.696 45.4609C173.785 45.6305 173.908 45.7663 174.065 45.868C174.226 45.9656 174.406 46.0144 174.605 46.0144ZM131.785 56.5488V53.2086H132.447V54.2584L132.384 54.0039C132.43 53.8427 132.509 53.6963 132.619 53.5649C132.733 53.4334 132.863 53.3294 133.007 53.2531C133.156 53.1767 133.308 53.1386 133.465 53.1386C133.537 53.1386 133.605 53.1449 133.669 53.1577C133.737 53.1704 133.79 53.1852 133.828 53.2022L133.656 53.9148C133.605 53.8936 133.548 53.8766 133.484 53.8639C133.425 53.8469 133.365 53.8384 133.306 53.8384C133.192 53.8384 133.081 53.8618 132.975 53.9084C132.873 53.9508 132.782 54.0123 132.702 54.0929C132.625 54.1693 132.564 54.2605 132.517 54.3665C132.47 54.4683 132.447 54.5807 132.447 54.7037V56.5488H131.785ZM135.767 56.6125C135.424 56.6125 135.118 56.5403 134.851 56.3961C134.588 56.2477 134.38 56.0462 134.228 55.7917C134.079 55.5372 134.005 55.2445 134.005 54.9137C134.005 54.6507 134.047 54.4111 134.132 54.1947C134.217 53.9784 134.334 53.7918 134.482 53.6348C134.635 53.4737 134.815 53.3507 135.023 53.2658C135.235 53.1767 135.464 53.1322 135.71 53.1322C135.927 53.1322 136.128 53.1746 136.315 53.2595C136.501 53.34 136.662 53.4524 136.798 53.5967C136.938 53.7409 137.044 53.9127 137.116 54.112C137.193 54.3071 137.229 54.5213 137.224 54.7546L137.218 55.0346H134.489L134.342 54.5129H136.652L136.556 54.621V54.4683C136.544 54.3283 136.497 54.2032 136.416 54.0929C136.336 53.9827 136.234 53.8957 136.111 53.8321C135.988 53.7684 135.854 53.7366 135.71 53.7366C135.481 53.7366 135.288 53.7812 135.131 53.8702C134.974 53.9551 134.856 54.0823 134.775 54.252C134.694 54.4174 134.654 54.6231 134.654 54.8691C134.654 55.1024 134.703 55.306 134.8 55.4799C134.898 55.6496 135.036 55.7811 135.214 55.8744C135.392 55.9677 135.598 56.0144 135.831 56.0144C135.996 56.0144 136.149 55.9868 136.289 55.9317C136.433 55.8765 136.588 55.7769 136.754 55.6326L137.084 56.0971C136.983 56.1989 136.858 56.288 136.709 56.3643C136.565 56.4407 136.41 56.5022 136.245 56.5488C136.083 56.5912 135.924 56.6125 135.767 56.6125ZM139.355 56.6125C139.046 56.6125 138.768 56.5361 138.522 56.3834C138.28 56.2307 138.087 56.0229 137.943 55.7599C137.803 55.4969 137.733 55.2021 137.733 54.8755C137.733 54.5489 137.803 54.2541 137.943 53.9911C138.087 53.7282 138.28 53.5203 138.522 53.3676C138.768 53.2149 139.046 53.1386 139.355 53.1386C139.652 53.1386 139.922 53.2001 140.163 53.3231C140.41 53.4418 140.596 53.6051 140.723 53.813L140.361 54.2584C140.293 54.1608 140.206 54.0717 140.1 53.9911C139.994 53.9105 139.881 53.8469 139.763 53.8003C139.644 53.7536 139.529 53.7303 139.419 53.7303C139.215 53.7303 139.033 53.7812 138.872 53.883C138.715 53.9805 138.59 54.1163 138.497 54.2902C138.403 54.4641 138.357 54.6592 138.357 54.8755C138.357 55.0918 138.405 55.2869 138.503 55.4609C138.6 55.6305 138.73 55.7663 138.891 55.868C139.052 55.9698 139.23 56.0207 139.425 56.0207C139.54 56.0207 139.65 56.0017 139.756 55.9635C139.867 55.9253 139.973 55.868 140.074 55.7917C140.176 55.7154 140.272 55.622 140.361 55.5118L140.723 55.9571C140.588 56.148 140.393 56.3049 140.138 56.4279C139.888 56.5509 139.627 56.6125 139.355 56.6125ZM142.9 56.6125C142.557 56.6125 142.251 56.5403 141.984 56.3961C141.721 56.2477 141.513 56.0462 141.361 55.7917C141.212 55.5372 141.138 55.2445 141.138 54.9137C141.138 54.6507 141.18 54.4111 141.265 54.1947C141.35 53.9784 141.467 53.7918 141.615 53.6348C141.768 53.4737 141.948 53.3507 142.156 53.2658C142.368 53.1767 142.597 53.1322 142.843 53.1322C143.059 53.1322 143.261 53.1746 143.447 53.2595C143.634 53.34 143.795 53.4524 143.931 53.5967C144.071 53.7409 144.177 53.9127 144.249 54.112C144.326 54.3071 144.362 54.5213 144.357 54.7546L144.351 55.0346H141.621L141.475 54.5129H143.785L143.689 54.621V54.4683C143.677 54.3283 143.63 54.2032 143.549 54.0929C143.469 53.9827 143.367 53.8957 143.244 53.8321C143.121 53.7684 142.987 53.7366 142.843 53.7366C142.614 53.7366 142.421 53.7812 142.264 53.8702C142.107 53.9551 141.988 54.0823 141.908 54.252C141.827 54.4174 141.787 54.6231 141.787 54.8691C141.787 55.1024 141.836 55.306 141.933 55.4799C142.031 55.6496 142.169 55.7811 142.347 55.8744C142.525 55.9677 142.731 56.0144 142.964 56.0144C143.129 56.0144 143.282 55.9868 143.422 55.9317C143.566 55.8765 143.721 55.7769 143.887 55.6326L144.217 56.0971C144.116 56.1989 143.99 56.288 143.842 56.3643C143.698 56.4407 143.543 56.5022 143.378 56.5488C143.216 56.5912 143.057 56.6125 142.9 56.6125ZM145.178 56.5488V53.2086H145.833V56.5488H145.178ZM145.496 52.4705C145.356 52.4705 145.248 52.4345 145.171 52.3624C145.095 52.2902 145.057 52.1884 145.057 52.057C145.057 51.934 145.095 51.8343 145.171 51.7579C145.252 51.6816 145.36 51.6434 145.496 51.6434C145.636 51.6434 145.744 51.6795 145.82 51.7516C145.897 51.8237 145.935 51.9255 145.935 52.057C145.935 52.18 145.895 52.2796 145.814 52.356C145.738 52.4323 145.632 52.4705 145.496 52.4705ZM147.935 56.5488L146.522 53.2086H147.228L148.246 55.709L148.126 55.7663L149.213 53.2086H149.888L148.405 56.5488H147.935ZM151.953 56.6125C151.61 56.6125 151.304 56.5403 151.037 56.3961C150.774 56.2477 150.566 56.0462 150.413 55.7917C150.265 55.5372 150.191 55.2445 150.191 54.9137C150.191 54.6507 150.233 54.4111 150.318 54.1947C150.403 53.9784 150.519 53.7918 150.668 53.6348C150.821 53.4737 151.001 53.3507 151.209 53.2658C151.421 53.1767 151.65 53.1322 151.896 53.1322C152.112 53.1322 152.314 53.1746 152.5 53.2595C152.687 53.34 152.848 53.4524 152.984 53.5967C153.124 53.7409 153.23 53.9127 153.302 54.112C153.378 54.3071 153.414 54.5213 153.41 54.7546L153.404 55.0346H150.674L150.528 54.5129H152.837L152.742 54.621V54.4683C152.729 54.3283 152.683 54.2032 152.602 54.0929C152.521 53.9827 152.42 53.8957 152.297 53.8321C152.174 53.7684 152.04 53.7366 151.896 53.7366C151.667 53.7366 151.474 53.7812 151.317 53.8702C151.16 53.9551 151.041 54.0823 150.961 54.252C150.88 54.4174 150.84 54.6231 150.84 54.8691C150.84 55.1024 150.888 55.306 150.986 55.4799C151.084 55.6496 151.221 55.7811 151.4 55.8744C151.578 55.9677 151.783 56.0144 152.017 56.0144C152.182 56.0144 152.335 55.9868 152.475 55.9317C152.619 55.8765 152.774 55.7769 152.939 55.6326L153.27 56.0971C153.168 56.1989 153.043 56.288 152.895 56.3643C152.751 56.4407 152.596 56.5022 152.43 56.5488C152.269 56.5912 152.11 56.6125 151.953 56.6125ZM154.122 56.5488V53.2086H154.784V54.2584L154.72 54.0039C154.767 53.8427 154.845 53.6963 154.956 53.5649C155.07 53.4334 155.2 53.3294 155.344 53.2531C155.492 53.1767 155.645 53.1386 155.802 53.1386C155.874 53.1386 155.942 53.1449 156.006 53.1577C156.073 53.1704 156.126 53.1852 156.165 53.2022L155.993 53.9148C155.942 53.8936 155.885 53.8766 155.821 53.8639C155.762 53.8469 155.702 53.8384 155.643 53.8384C155.528 53.8384 155.418 53.8618 155.312 53.9084C155.21 53.9508 155.119 54.0123 155.038 54.0929C154.962 54.1693 154.901 54.2605 154.854 54.3665C154.807 54.4683 154.784 54.5807 154.784 54.7037V56.5488H154.122ZM156.916 53.5267L156.674 53.234C156.84 53.1577 156.976 53.0707 157.082 52.9731C157.188 52.8756 157.241 52.7908 157.241 52.7186C157.241 52.6635 157.217 52.6147 157.171 52.5723C157.124 52.5257 157.082 52.4875 157.043 52.4578C156.95 52.3814 156.887 52.3178 156.853 52.2669C156.823 52.216 156.808 52.163 156.808 52.1079C156.808 52.0061 156.844 51.9255 156.916 51.8661C156.988 51.8025 157.082 51.7706 157.196 51.7706C157.315 51.7706 157.421 51.8025 157.514 51.8661C157.612 51.9255 157.688 52.0082 157.743 52.1142C157.798 52.2203 157.826 52.3454 157.826 52.4896C157.826 52.5999 157.803 52.708 157.756 52.8141C157.709 52.9201 157.644 53.0198 157.559 53.1131C157.478 53.2064 157.383 53.2891 157.272 53.3613C157.162 53.4334 157.043 53.4885 156.916 53.5267ZM159.653 56.6125C159.373 56.6125 159.121 56.5637 158.896 56.4661C158.671 56.3686 158.485 56.2243 158.336 56.0335L158.782 55.6517C158.909 55.8002 159.047 55.9083 159.195 55.9762C159.348 56.0398 159.52 56.0716 159.711 56.0716C159.787 56.0716 159.857 56.0632 159.921 56.0462C159.988 56.025 160.046 55.9953 160.092 55.9571C160.143 55.9189 160.181 55.8744 160.207 55.8235C160.232 55.7684 160.245 55.709 160.245 55.6454C160.245 55.5351 160.205 55.446 160.124 55.3781C160.082 55.3485 160.014 55.3166 159.921 55.2827C159.832 55.2445 159.715 55.2064 159.571 55.1682C159.325 55.1046 159.123 55.0325 158.966 54.9519C158.809 54.8713 158.688 54.7801 158.604 54.6783C158.54 54.5977 158.493 54.5107 158.464 54.4174C158.434 54.3199 158.419 54.2138 158.419 54.0993C158.419 53.9593 158.449 53.8321 158.508 53.7175C158.572 53.5988 158.657 53.497 158.763 53.4122C158.873 53.3231 159 53.2552 159.144 53.2086C159.293 53.1619 159.45 53.1386 159.615 53.1386C159.772 53.1386 159.927 53.1598 160.08 53.2022C160.237 53.2446 160.381 53.3061 160.512 53.3867C160.644 53.4673 160.754 53.5627 160.843 53.673L160.468 54.0866C160.387 54.006 160.298 53.936 160.201 53.8766C160.107 53.813 160.012 53.7642 159.914 53.7303C159.817 53.6963 159.728 53.6794 159.647 53.6794C159.558 53.6794 159.477 53.6879 159.405 53.7048C159.333 53.7218 159.272 53.7472 159.221 53.7812C159.174 53.8151 159.138 53.8575 159.113 53.9084C159.087 53.9593 159.074 54.0166 159.074 54.0802C159.079 54.1353 159.091 54.1884 159.113 54.2393C159.138 54.2859 159.172 54.3262 159.214 54.3602C159.261 54.3941 159.331 54.4301 159.424 54.4683C159.518 54.5065 159.636 54.5425 159.781 54.5765C159.993 54.6316 160.167 54.6931 160.302 54.761C160.442 54.8246 160.553 54.8988 160.633 54.9837C160.718 55.0643 160.777 55.1576 160.811 55.2636C160.845 55.3697 160.862 55.4884 160.862 55.6199C160.862 55.8108 160.807 55.9826 160.697 56.1353C160.591 56.2837 160.447 56.4004 160.264 56.4852C160.082 56.57 159.878 56.6125 159.653 56.6125ZM165.124 56.6125C164.98 56.6125 164.835 56.5891 164.691 56.5425C164.551 56.4958 164.422 56.4343 164.303 56.358C164.188 56.2774 164.091 56.1904 164.01 56.0971C163.934 55.9995 163.883 55.902 163.858 55.8044L164.023 55.7154V56.5297H163.368V51.8406H164.023V53.972L163.921 53.9148C163.942 53.8172 163.989 53.7239 164.061 53.6348C164.133 53.5415 164.225 53.4588 164.335 53.3867C164.449 53.3104 164.572 53.251 164.704 53.2086C164.835 53.1619 164.969 53.1386 165.105 53.1386C165.406 53.1386 165.673 53.2128 165.906 53.3613C166.14 53.5097 166.324 53.7154 166.46 53.9784C166.596 54.2371 166.663 54.5341 166.663 54.8691C166.663 55.2042 166.596 55.5033 166.46 55.7663C166.328 56.0292 166.146 56.2371 165.913 56.3898C165.679 56.5382 165.416 56.6125 165.124 56.6125ZM165.016 56.0144C165.211 56.0144 165.385 55.9656 165.537 55.868C165.69 55.7663 165.811 55.6305 165.9 55.4609C165.989 55.2869 166.034 55.0897 166.034 54.8691C166.034 54.6528 165.989 54.4598 165.9 54.2902C165.815 54.1163 165.696 53.9805 165.544 53.883C165.391 53.7854 165.215 53.7366 165.016 53.7366C164.816 53.7366 164.64 53.7854 164.487 53.883C164.335 53.9805 164.214 54.1163 164.125 54.2902C164.036 54.4598 163.991 54.6528 163.991 54.8691C163.991 55.0897 164.036 55.2869 164.125 55.4609C164.214 55.6305 164.335 55.7663 164.487 55.868C164.64 55.9656 164.816 56.0144 165.016 56.0144ZM168.66 56.6125C168.385 56.6125 168.132 56.5361 167.903 56.3834C167.679 56.2307 167.498 56.0229 167.363 55.7599C167.227 55.4969 167.159 55.2 167.159 54.8691C167.159 54.5341 167.227 54.2371 167.363 53.9784C167.503 53.7154 167.689 53.5097 167.922 53.3613C168.16 53.2128 168.425 53.1386 168.718 53.1386C168.892 53.1386 169.051 53.164 169.195 53.2149C169.339 53.2658 169.464 53.3379 169.57 53.4312C169.681 53.5203 169.77 53.6242 169.838 53.743C169.91 53.8618 169.954 53.989 169.971 54.1247L169.825 54.0738V53.2086H170.486V56.5488H169.825V55.7535L169.978 55.709C169.952 55.8235 169.899 55.9359 169.818 56.0462C169.742 56.1522 169.642 56.2477 169.519 56.3325C169.401 56.4173 169.267 56.4852 169.119 56.5361C168.974 56.587 168.822 56.6125 168.66 56.6125ZM168.832 56.008C169.032 56.008 169.208 55.9592 169.36 55.8617C169.513 55.7641 169.632 55.6305 169.717 55.4609C169.806 55.2869 169.85 55.0897 169.85 54.8691C169.85 54.6528 169.806 54.4598 169.717 54.2902C169.632 54.1205 169.513 53.9869 169.36 53.8893C169.208 53.7918 169.032 53.743 168.832 53.743C168.637 53.743 168.463 53.7918 168.311 53.8893C168.162 53.9869 168.043 54.1205 167.954 54.2902C167.869 54.4598 167.827 54.6528 167.827 54.8691C167.827 55.0897 167.869 55.2869 167.954 55.4609C168.043 55.6305 168.162 55.7641 168.311 55.8617C168.463 55.9592 168.637 56.008 168.832 56.008ZM171.401 56.5488V53.2086H172.057V53.8957L171.942 53.972C171.985 53.8236 172.067 53.6879 172.19 53.5649C172.313 53.4376 172.46 53.3358 172.629 53.2595C172.799 53.1789 172.973 53.1386 173.151 53.1386C173.406 53.1386 173.618 53.1895 173.787 53.2913C173.957 53.3888 174.084 53.5394 174.169 53.743C174.254 53.9466 174.296 54.2032 174.296 54.5129V56.5488H173.641V54.5574C173.641 54.3665 173.616 54.2096 173.565 54.0866C173.514 53.9593 173.435 53.8681 173.329 53.813C173.223 53.7536 173.092 53.7282 172.935 53.7366C172.808 53.7366 172.691 53.7578 172.585 53.8003C172.479 53.8384 172.386 53.8936 172.305 53.9657C172.229 54.0378 172.167 54.1226 172.12 54.2202C172.078 54.3135 172.057 54.4153 172.057 54.5256V56.5488H171.732C171.677 56.5488 171.622 56.5488 171.567 56.5488C171.512 56.5488 171.457 56.5488 171.401 56.5488ZM175.783 55.5054L175.752 54.7928L177.349 53.2086H178.233L175.783 55.5054ZM175.185 56.5488V51.8406H175.841V56.5488H175.185ZM177.438 56.5488L176.178 55.0791L176.642 54.6528L178.278 56.5488H177.438Z" fill="#121C47" fill-opacity="0.87"/>
<path d="M208.161 46.5488V42.0951H209.974C210.216 42.0951 210.435 42.1566 210.63 42.2796C210.829 42.3984 210.988 42.5617 211.107 42.7695C211.226 42.9774 211.285 43.2086 211.285 43.4631C211.285 43.7175 211.226 43.9487 211.107 44.1566C210.988 44.3644 210.829 44.5319 210.63 44.6592C210.435 44.7822 210.216 44.8437 209.974 44.8437H208.848V46.5488H208.161ZM208.848 44.182H209.962C210.076 44.182 210.18 44.1502 210.273 44.0866C210.367 44.0187 210.441 43.9318 210.496 43.8257C210.555 43.7154 210.585 43.5945 210.585 43.4631C210.585 43.3316 210.555 43.2128 210.496 43.1068C210.441 43.0007 210.367 42.9159 210.273 42.8523C210.18 42.7886 210.076 42.7568 209.962 42.7568H208.848V44.182ZM213.251 46.6125C212.975 46.6125 212.723 46.5361 212.494 46.3834C212.269 46.2307 212.089 46.0229 211.953 45.7599C211.817 45.4969 211.75 45.2 211.75 44.8691C211.75 44.5341 211.817 44.2371 211.953 43.9784C212.093 43.7154 212.28 43.5097 212.513 43.3613C212.751 43.2128 213.016 43.1386 213.308 43.1386C213.482 43.1386 213.641 43.164 213.786 43.2149C213.93 43.2658 214.055 43.3379 214.161 43.4312C214.271 43.5203 214.36 43.6242 214.428 43.743C214.5 43.8618 214.545 43.989 214.562 44.1247L214.415 44.0738V43.2086H215.077V46.5488H214.415V45.7535L214.568 45.709C214.543 45.8235 214.49 45.9359 214.409 46.0462C214.333 46.1522 214.233 46.2477 214.11 46.3325C213.991 46.4173 213.858 46.4852 213.709 46.5361C213.565 46.587 213.412 46.6125 213.251 46.6125ZM213.423 46.008C213.622 46.008 213.798 45.9592 213.951 45.8617C214.104 45.7641 214.222 45.6305 214.307 45.4609C214.396 45.2869 214.441 45.0897 214.441 44.8691C214.441 44.6528 214.396 44.4598 214.307 44.2902C214.222 44.1205 214.104 43.9869 213.951 43.8893C213.798 43.7918 213.622 43.743 213.423 43.743C213.228 43.743 213.054 43.7918 212.901 43.8893C212.753 43.9869 212.634 44.1205 212.545 44.2902C212.46 44.4598 212.418 44.6528 212.418 44.8691C212.418 45.0897 212.46 45.2869 212.545 45.4609C212.634 45.6305 212.753 45.7641 212.901 45.8617C213.054 45.9592 213.228 46.008 213.423 46.008ZM216.477 48.0122L217.152 46.4534L217.158 46.9751L215.491 43.2086H216.255L217.298 45.6645C217.319 45.7069 217.345 45.7726 217.375 45.8617C217.404 45.9465 217.43 46.0314 217.451 46.1162L217.285 46.1544C217.319 46.0653 217.351 45.9762 217.381 45.8871C217.415 45.7981 217.447 45.709 217.476 45.6199L218.348 43.2086H219.124L217.75 46.5488L217.184 48.0122H216.477ZM219.602 46.5488V43.2086H220.263V43.9211L220.143 43.9975C220.176 43.8872 220.23 43.7812 220.302 43.6794C220.378 43.5776 220.469 43.4885 220.575 43.4122C220.685 43.3316 220.802 43.2679 220.925 43.2213C221.052 43.1746 221.182 43.1513 221.313 43.1513C221.504 43.1513 221.672 43.1831 221.816 43.2467C221.96 43.3104 222.079 43.4058 222.172 43.533C222.265 43.6603 222.333 43.8193 222.376 44.0102L222.274 43.9848L222.319 43.8766C222.365 43.7791 222.429 43.6879 222.509 43.603C222.594 43.514 222.69 43.4355 222.796 43.3676C222.902 43.2998 223.014 43.2467 223.133 43.2086C223.252 43.1704 223.368 43.1513 223.483 43.1513C223.733 43.1513 223.939 43.2022 224.1 43.304C224.265 43.4058 224.388 43.5606 224.469 43.7684C224.554 43.9763 224.596 44.235 224.596 44.5447V46.5488H223.935V44.5828C223.935 44.392 223.909 44.2371 223.858 44.1184C223.812 43.9954 223.739 43.9042 223.642 43.8448C223.544 43.7854 223.419 43.7557 223.267 43.7557C223.148 43.7557 223.035 43.7769 222.929 43.8193C222.828 43.8575 222.738 43.9127 222.662 43.9848C222.586 44.0569 222.526 44.1417 222.484 44.2393C222.442 44.3326 222.42 44.4365 222.42 44.551V46.5488H221.759V44.5701C221.759 44.3962 221.733 44.2499 221.682 44.1311C221.631 44.0081 221.557 43.9148 221.46 43.8512C221.362 43.7875 221.243 43.7557 221.103 43.7557C220.985 43.7557 220.874 43.7769 220.772 43.8193C220.671 43.8575 220.582 43.9127 220.505 43.9848C220.429 44.0526 220.369 44.1353 220.327 44.2329C220.285 44.3262 220.263 44.428 220.263 44.5383V46.5488H219.602ZM227.032 46.6125C226.689 46.6125 226.383 46.5403 226.116 46.3961C225.853 46.2477 225.645 46.0462 225.493 45.7917C225.344 45.5372 225.27 45.2445 225.27 44.9137C225.27 44.6507 225.312 44.4111 225.397 44.1947C225.482 43.9784 225.599 43.7918 225.747 43.6348C225.9 43.4737 226.08 43.3507 226.288 43.2658C226.5 43.1767 226.729 43.1322 226.975 43.1322C227.191 43.1322 227.393 43.1746 227.58 43.2595C227.766 43.34 227.927 43.4524 228.063 43.5967C228.203 43.7409 228.309 43.9127 228.381 44.112C228.458 44.3071 228.494 44.5213 228.489 44.7546L228.483 45.0346H225.754L225.607 44.5129H227.917L227.821 44.621V44.4683C227.809 44.3283 227.762 44.2032 227.681 44.0929C227.601 43.9827 227.499 43.8957 227.376 43.8321C227.253 43.7684 227.119 43.7366 226.975 43.7366C226.746 43.7366 226.553 43.7812 226.396 43.8702C226.239 43.9551 226.12 44.0823 226.04 44.252C225.959 44.4174 225.919 44.6231 225.919 44.8691C225.919 45.1024 225.968 45.306 226.065 45.4799C226.163 45.6496 226.301 45.7811 226.479 45.8744C226.657 45.9677 226.863 46.0144 227.096 46.0144C227.261 46.0144 227.414 45.9868 227.554 45.9317C227.698 45.8765 227.853 45.7769 228.019 45.6326L228.349 46.0971C228.248 46.1989 228.123 46.288 227.974 46.3643C227.83 46.4407 227.675 46.5022 227.51 46.5488C227.348 46.5912 227.189 46.6125 227.032 46.6125ZM229.202 46.5488V43.2086H229.857V43.8957L229.742 43.972C229.785 43.8236 229.868 43.6879 229.991 43.5649C230.114 43.4376 230.26 43.3358 230.43 43.2595C230.599 43.1789 230.773 43.1386 230.951 43.1386C231.206 43.1386 231.418 43.1895 231.588 43.2913C231.757 43.3888 231.884 43.5394 231.969 43.743C232.054 43.9466 232.097 44.2032 232.097 44.5129V46.5488H231.441V44.5574C231.441 44.3665 231.416 44.2096 231.365 44.0866C231.314 43.9593 231.235 43.8681 231.129 43.813C231.023 43.7536 230.892 43.7282 230.735 43.7366C230.608 43.7366 230.491 43.7578 230.385 43.8003C230.279 43.8384 230.186 43.8936 230.105 43.9657C230.029 44.0378 229.967 44.1226 229.921 44.2202C229.878 44.3135 229.857 44.4153 229.857 44.5256V46.5488H229.532C229.477 46.5488 229.422 46.5488 229.367 46.5488C229.312 46.5488 229.257 46.5488 229.202 46.5488ZM233.399 46.5488V42.356H234.054V46.5488H233.399ZM232.706 43.8448V43.2086H234.831V43.8448H232.706ZM206.817 56.6125C206.508 56.6125 206.23 56.5361 205.984 56.3834C205.742 56.2307 205.549 56.0229 205.405 55.7599C205.265 55.4969 205.195 55.2021 205.195 54.8755C205.195 54.5489 205.265 54.2541 205.405 53.9911C205.549 53.7282 205.742 53.5203 205.984 53.3676C206.23 53.2149 206.508 53.1386 206.817 53.1386C207.114 53.1386 207.384 53.2001 207.625 53.3231C207.871 53.4418 208.058 53.6051 208.185 53.813L207.823 54.2584C207.755 54.1608 207.668 54.0717 207.562 53.9911C207.456 53.9105 207.343 53.8469 207.224 53.8003C207.106 53.7536 206.991 53.7303 206.881 53.7303C206.677 53.7303 206.495 53.7812 206.334 53.883C206.177 53.9805 206.052 54.1163 205.958 54.2902C205.865 54.4641 205.818 54.6592 205.818 54.8755C205.818 55.0918 205.867 55.2869 205.965 55.4609C206.062 55.6305 206.192 55.7663 206.353 55.868C206.514 55.9698 206.692 56.0207 206.887 56.0207C207.002 56.0207 207.112 56.0017 207.218 55.9635C207.328 55.9253 207.434 55.868 207.536 55.7917C207.638 55.7154 207.733 55.622 207.823 55.5118L208.185 55.9571C208.049 56.148 207.854 56.3049 207.6 56.4279C207.35 56.5509 207.089 56.6125 206.817 56.6125ZM210.305 56.6125C209.978 56.6125 209.686 56.5382 209.427 56.3898C209.172 56.2371 208.971 56.0314 208.822 55.7726C208.674 55.5096 208.6 55.2106 208.6 54.8755C208.6 54.5404 208.674 54.2435 208.822 53.9848C208.971 53.7218 209.172 53.5161 209.427 53.3676C209.686 53.2149 209.978 53.1386 210.305 53.1386C210.627 53.1386 210.916 53.2149 211.17 53.3676C211.429 53.5161 211.632 53.7218 211.781 53.9848C211.929 54.2435 212.004 54.5404 212.004 54.8755C212.004 55.2106 211.929 55.5096 211.781 55.7726C211.632 56.0314 211.429 56.2371 211.17 56.3898C210.916 56.5382 210.627 56.6125 210.305 56.6125ZM210.305 56.0144C210.504 56.0144 210.682 55.9656 210.839 55.868C210.996 55.7663 211.119 55.6305 211.208 55.4609C211.297 55.2869 211.34 55.0918 211.336 54.8755C211.34 54.6549 211.297 54.4598 211.208 54.2902C211.119 54.1163 210.996 53.9805 210.839 53.883C210.682 53.7854 210.504 53.7366 210.305 53.7366C210.106 53.7366 209.925 53.7875 209.764 53.8893C209.607 53.9869 209.484 54.1226 209.395 54.2965C209.306 54.4662 209.264 54.6592 209.268 54.8755C209.264 55.0918 209.306 55.2869 209.395 55.4609C209.484 55.6305 209.607 55.7663 209.764 55.868C209.925 55.9656 210.106 56.0144 210.305 56.0144ZM212.705 56.5488V53.2086H213.367V53.9211L213.246 53.9975C213.28 53.8872 213.333 53.7812 213.405 53.6794C213.481 53.5776 213.572 53.4885 213.678 53.4122C213.789 53.3316 213.905 53.2679 214.028 53.2213C214.156 53.1746 214.285 53.1513 214.416 53.1513C214.607 53.1513 214.775 53.1831 214.919 53.2467C215.063 53.3104 215.182 53.4058 215.275 53.533C215.369 53.6603 215.437 53.8193 215.479 54.0102L215.377 53.9848L215.422 53.8766C215.468 53.7791 215.532 53.6879 215.613 53.603C215.697 53.514 215.793 53.4355 215.899 53.3676C216.005 53.2998 216.117 53.2467 216.236 53.2086C216.355 53.1704 216.472 53.1513 216.586 53.1513C216.836 53.1513 217.042 53.2022 217.203 53.304C217.369 53.4058 217.492 53.5606 217.572 53.7684C217.657 53.9763 217.699 54.235 217.699 54.5447V56.5488H217.038V54.5828C217.038 54.392 217.012 54.2371 216.961 54.1184C216.915 53.9954 216.843 53.9042 216.745 53.8448C216.648 53.7854 216.522 53.7557 216.37 53.7557C216.251 53.7557 216.139 53.7769 216.033 53.8193C215.931 53.8575 215.842 53.9127 215.765 53.9848C215.689 54.0569 215.63 54.1417 215.587 54.2393C215.545 54.3326 215.524 54.4365 215.524 54.551V56.5488H214.862V54.5701C214.862 54.3962 214.836 54.2499 214.786 54.1311C214.735 54.0081 214.66 53.9148 214.563 53.8512C214.465 53.7875 214.346 53.7557 214.207 53.7557C214.088 53.7557 213.977 53.7769 213.876 53.8193C213.774 53.8575 213.685 53.9127 213.608 53.9848C213.532 54.0526 213.473 54.1353 213.43 54.2329C213.388 54.3262 213.367 54.428 213.367 54.5383V56.5488H212.705ZM218.577 57.9486V53.2086H219.239V53.972L219.137 53.9148C219.162 53.7875 219.234 53.6667 219.353 53.5521C219.472 53.4334 219.616 53.3379 219.786 53.2658C219.96 53.1895 220.138 53.1513 220.32 53.1513C220.621 53.1513 220.889 53.2255 221.122 53.374C221.355 53.5224 221.54 53.726 221.675 53.9848C221.811 54.2435 221.879 54.5404 221.879 54.8755C221.879 55.2064 221.811 55.5033 221.675 55.7663C221.544 56.025 221.361 56.2307 221.128 56.3834C220.895 56.5319 220.632 56.6061 220.339 56.6061C220.144 56.6061 219.955 56.5679 219.773 56.4916C219.591 56.411 219.436 56.3092 219.309 56.1862C219.181 56.0632 219.103 55.9359 219.073 55.8044L219.239 55.7154V57.9486H218.577ZM220.231 56.0017C220.426 56.0017 220.6 55.9529 220.753 55.8553C220.906 55.7578 221.026 55.6242 221.115 55.4545C221.205 55.2848 221.249 55.0918 221.249 54.8755C221.249 54.6592 221.205 54.4683 221.115 54.3029C221.031 54.1332 220.912 53.9996 220.759 53.9021C220.606 53.8045 220.43 53.7557 220.231 53.7557C220.032 53.7557 219.856 53.8045 219.703 53.9021C219.55 53.9954 219.429 54.1269 219.34 54.2965C219.251 54.4662 219.207 54.6592 219.207 54.8755C219.207 55.0918 219.251 55.2848 219.34 55.4545C219.429 55.6242 219.55 55.7578 219.703 55.8553C219.856 55.9529 220.032 56.0017 220.231 56.0017ZM222.603 56.5488V51.8406H223.259V56.5488H222.603ZM225.684 56.6125C225.341 56.6125 225.035 56.5403 224.768 56.3961C224.505 56.2477 224.297 56.0462 224.144 55.7917C223.996 55.5372 223.922 55.2445 223.922 54.9137C223.922 54.6507 223.964 54.4111 224.049 54.1947C224.134 53.9784 224.25 53.7918 224.399 53.6348C224.552 53.4737 224.732 53.3507 224.94 53.2658C225.152 53.1767 225.381 53.1322 225.627 53.1322C225.843 53.1322 226.045 53.1746 226.231 53.2595C226.418 53.34 226.579 53.4524 226.715 53.5967C226.855 53.7409 226.961 53.9127 227.033 54.112C227.109 54.3071 227.145 54.5213 227.141 54.7546L227.135 55.0346H224.405L224.259 54.5129H226.569L226.473 54.621V54.4683C226.46 54.3283 226.414 54.2032 226.333 54.0929C226.253 53.9827 226.151 53.8957 226.028 53.8321C225.905 53.7684 225.771 53.7366 225.627 53.7366C225.398 53.7366 225.205 53.7812 225.048 53.8702C224.891 53.9551 224.772 54.0823 224.692 54.252C224.611 54.4174 224.571 54.6231 224.571 54.8691C224.571 55.1024 224.619 55.306 224.717 55.4799C224.815 55.6496 224.952 55.7811 225.131 55.8744C225.309 55.9677 225.514 56.0144 225.748 56.0144C225.913 56.0144 226.066 55.9868 226.206 55.9317C226.35 55.8765 226.505 55.7769 226.67 55.6326L227.001 56.0971C226.899 56.1989 226.774 56.288 226.626 56.3643C226.482 56.4407 226.327 56.5022 226.161 56.5488C226 56.5912 225.841 56.6125 225.684 56.6125ZM228.267 56.5488V52.356H228.922V56.5488H228.267ZM227.573 53.8448V53.2086H229.698V53.8448H227.573ZM231.823 56.6125C231.479 56.6125 231.174 56.5403 230.907 56.3961C230.644 56.2477 230.436 56.0462 230.283 55.7917C230.135 55.5372 230.06 55.2445 230.06 54.9137C230.06 54.6507 230.103 54.4111 230.188 54.1947C230.273 53.9784 230.389 53.7918 230.538 53.6348C230.69 53.4737 230.871 53.3507 231.078 53.2658C231.291 53.1767 231.52 53.1322 231.766 53.1322C231.982 53.1322 232.183 53.1746 232.37 53.2595C232.557 53.34 232.718 53.4524 232.854 53.5967C232.994 53.7409 233.1 53.9127 233.172 54.112C233.248 54.3071 233.284 54.5213 233.28 54.7546L233.274 55.0346H230.544L230.398 54.5129H232.707L232.612 54.621V54.4683C232.599 54.3283 232.552 54.2032 232.472 54.0929C232.391 53.9827 232.289 53.8957 232.166 53.8321C232.043 53.7684 231.91 53.7366 231.766 53.7366C231.537 53.7366 231.344 53.7812 231.187 53.8702C231.03 53.9551 230.911 54.0823 230.83 54.252C230.75 54.4174 230.709 54.6231 230.709 54.8691C230.709 55.1024 230.758 55.306 230.856 55.4799C230.953 55.6496 231.091 55.7811 231.269 55.8744C231.447 55.9677 231.653 56.0144 231.887 56.0144C232.052 56.0144 232.205 55.9868 232.345 55.9317C232.489 55.8765 232.644 55.7769 232.809 55.6326L233.14 56.0971C233.038 56.1989 232.913 56.288 232.765 56.3643C232.62 56.4407 232.465 56.5022 232.3 56.5488C232.139 56.5912 231.98 56.6125 231.823 56.6125ZM235.385 56.6125C235.08 56.6125 234.806 56.5382 234.565 56.3898C234.327 56.2371 234.138 56.0314 233.998 55.7726C233.858 55.5096 233.788 55.2106 233.788 54.8755C233.788 54.5404 233.856 54.2435 233.992 53.9848C234.132 53.7218 234.321 53.5161 234.558 53.3676C234.796 53.2149 235.065 53.1386 235.366 53.1386C235.532 53.1386 235.691 53.1661 235.844 53.2213C236 53.2722 236.14 53.3443 236.263 53.4376C236.386 53.5267 236.482 53.6264 236.55 53.7366C236.622 53.8427 236.658 53.9508 236.658 54.0611L236.467 54.0738V51.8406H237.122V56.5488H236.467V55.7535H236.594C236.594 55.8553 236.56 55.9571 236.493 56.0589C236.425 56.1565 236.333 56.2477 236.219 56.3325C236.109 56.4173 235.979 56.4852 235.831 56.5361C235.687 56.587 235.538 56.6125 235.385 56.6125ZM235.475 56.0462C235.674 56.0462 235.85 55.9953 236.003 55.8935C236.155 55.7917 236.274 55.6538 236.359 55.4799C236.448 55.3018 236.493 55.1003 236.493 54.8755C236.493 54.6507 236.448 54.4513 236.359 54.2774C236.274 54.0993 236.155 53.9593 236.003 53.8575C235.85 53.7557 235.674 53.7048 235.475 53.7048C235.275 53.7048 235.099 53.7557 234.946 53.8575C234.794 53.9593 234.673 54.0993 234.584 54.2774C234.499 54.4513 234.457 54.6507 234.457 54.8755C234.457 55.1003 234.499 55.3018 234.584 55.4799C234.673 55.6538 234.794 55.7917 234.946 55.8935C235.099 55.9953 235.275 56.0462 235.475 56.0462Z" fill="#121C47" fill-opacity="0.87"/>
</svg>
