<svg width="35" height="33" viewBox="0 0 35 33" fill="none" xmlns="http://www.w3.org/2000/svg">
<rect x="0.5" y="1.04492" width="31.5433" height="31.54" rx="15.77" fill="#EBF1FF"/>
<path d="M21.4376 17.8509C20.3612 17.8509 19.4463 17.4742 18.6928 16.7207C17.9393 15.9672 17.5626 15.0523 17.5626 13.9759C17.5626 12.8995 17.9393 11.9846 18.6928 11.2311C19.4463 10.4776 20.3612 10.1009 21.4376 10.1009C22.514 10.1009 23.4289 10.4776 24.1824 11.2311C24.9358 11.9846 25.3126 12.8995 25.3126 13.9759C25.3126 15.0523 24.9358 15.9672 24.1824 16.7207C23.4289 17.4742 22.514 17.8509 21.4376 17.8509ZM11.1042 22.3717C10.5714 22.3717 10.1153 22.182 9.73589 21.8026C9.35646 21.4232 9.16675 20.9671 9.16675 20.4342V7.51758C9.16675 6.98477 9.35646 6.52865 9.73589 6.14922C10.1153 5.76979 10.5714 5.58008 11.1042 5.58008H31.7709C32.3037 5.58008 32.7598 5.76979 33.1393 6.14922C33.5187 6.52865 33.7084 6.98477 33.7084 7.51758V20.4342C33.7084 20.9671 33.5187 21.4232 33.1393 21.8026C32.7598 22.182 32.3037 22.3717 31.7709 22.3717H11.1042ZM14.3334 20.4342H28.5417C28.5417 19.5301 28.8539 18.7658 29.4782 18.1415C30.1025 17.5172 30.8667 17.2051 31.7709 17.2051V10.7467C30.8667 10.7467 30.1025 10.4346 29.4782 9.81029C28.8539 9.18598 28.5417 8.42174 28.5417 7.51758H14.3334C14.3334 8.42174 14.0213 9.18598 13.397 9.81029C12.7727 10.4346 12.0084 10.7467 11.1042 10.7467V17.2051C12.0084 17.2051 12.7727 17.5172 13.397 18.1415C14.0213 18.7658 14.3334 19.5301 14.3334 20.4342ZM7.22925 26.2467C6.69644 26.2467 6.24032 26.057 5.86089 25.6776C5.48146 25.2982 5.29175 24.8421 5.29175 24.3092V10.4238C5.29175 10.1493 5.38512 9.91927 5.57188 9.73359C5.75865 9.54792 5.99008 9.45508 6.26615 9.45508C6.54224 9.45508 6.77178 9.54792 6.95477 9.73359C7.13775 9.91927 7.22925 10.1493 7.22925 10.4238V24.3092H28.8647C29.1391 24.3092 29.3692 24.4026 29.5549 24.5894C29.7406 24.7761 29.8334 25.0076 29.8334 25.2836C29.8334 25.5597 29.7406 25.7893 29.5549 25.9723C29.3692 26.1553 29.1391 26.2467 28.8647 26.2467H7.22925Z" fill="url(#paint0_linear_614_3498)"/>
<defs>
<linearGradient id="paint0_linear_614_3498" x1="19.5001" y1="5.58008" x2="19.5001" y2="26.2467" gradientUnits="userSpaceOnUse">
<stop stop-color="#1166BF"/>
<stop offset="1" stop-color="#23388E"/>
</linearGradient>
</defs>
</svg>
