<svg width="31" height="30" viewBox="0 0 31 30" fill="none" xmlns="http://www.w3.org/2000/svg">
<rect width="31" height="30" fill="#F5F5F5"/>
<g clip-path="url(#clip0_0_1)">
<rect width="428" height="936" transform="translate(-201 -261)" fill="white"/>
<g clip-path="url(#clip1_0_1)">
<path d="M182.587 -103.937L81.3176 -102.505H-67.6076C-90.5554 -102.954 -153.914 -103.825 -161.353 -103.927C-161.841 -103.933 -162.303 -103.957 -162.791 -103.974C-166.322 -104.103 -181.622 -103.993 -182.493 -92.4806V8.71389C-182.493 22.4611 -168.877 25.2614 -162.069 24.9432C-111.86 23.5112 -6.50572 20.5517 13.2375 20.1699C37.9165 19.6925 139.186 23.9885 174.077 24.9432C201.989 25.7069 208.4 18.5788 208.117 14.9192C208.4 -15.3119 208.797 -78.7334 208.117 -90.5713C207.436 -102.409 190.813 -104.414 182.587 -103.937Z" fill="url(#paint0_linear_0_1)"/>
</g>
<g filter="url(#filter0_d_0_1)">
<rect x="-156" y="-12" width="337" height="86" rx="20" fill="white" shape-rendering="crispEdges"/>
<rect x="-5.4248" y="2.82568" width="23.1047" height="22.249" rx="11.1245" fill="#0152FE" fill-opacity="0.1"/>
<path d="M16.5498 13.2884C15.2023 13.2884 14.0914 12.8512 13.2171 11.9769C12.3428 11.1026 11.9056 9.98944 11.9056 8.63748C11.9056 7.2855 12.3428 6.17458 13.2171 5.30473C14.0914 4.43491 15.2023 4 16.5498 4C17.8973 4 19.0082 4.43491 19.8825 5.30473C20.7568 6.17458 21.194 7.2855 21.194 8.63748C21.194 9.98944 20.7568 11.1026 19.8825 11.9769C19.0082 12.8512 17.8973 13.2884 16.5498 13.2884ZM25.4344 23.9715H7.66517C7.2223 23.9715 6.84236 23.813 6.52535 23.4959C6.20832 23.1789 6.0498 22.799 6.0498 22.3561V21.3142C6.0498 20.5622 6.24904 19.907 6.6475 19.3488C7.04597 18.7906 7.56379 18.3617 8.20098 18.0619C9.67456 17.4068 11.095 16.9132 12.4625 16.5811C13.8299 16.2491 15.1922 16.0831 16.5494 16.0831C17.9066 16.0831 19.2655 16.2527 20.626 16.5919C21.9865 16.9311 23.4006 17.4243 24.8684 18.0714C25.5304 18.3704 26.0595 18.7976 26.4556 19.353C26.8517 19.9084 27.0498 20.5622 27.0498 21.3142V22.3561C27.0498 22.799 26.8913 23.1789 26.5743 23.4959C26.2572 23.813 25.8773 23.9715 25.4344 23.9715ZM7.63825 22.383H25.4614V21.3142C25.4614 20.9499 25.346 20.6007 25.1154 20.2669C24.8848 19.933 24.5837 19.671 24.2121 19.4807C22.8355 18.8112 21.5369 18.3423 20.3165 18.074C19.0961 17.8057 17.8406 17.6715 16.5498 17.6715C15.259 17.6715 13.994 17.8057 12.7548 18.074C11.5156 18.3423 10.2193 18.8112 8.86595 19.4807C8.49441 19.671 8.19691 19.933 7.97345 20.2669C7.74998 20.6007 7.63825 20.9499 7.63825 21.3142V22.383ZM16.5498 11.7C17.4239 11.7 18.1517 11.4092 18.7333 10.8276C19.3148 10.2461 19.6056 9.51829 19.6056 8.6442C19.6056 7.77011 19.3148 7.04229 18.7333 6.46075C18.1517 5.87921 17.4239 5.58845 16.5498 5.58845C15.6757 5.58845 14.9479 5.87921 14.3664 6.46075C13.7848 7.04229 13.494 7.77011 13.494 8.6442C13.494 9.51829 13.7848 10.2461 14.3664 10.8276C14.9479 11.4092 15.6757 11.7 16.5498 11.7Z" fill="url(#paint1_linear_0_1)"/>
</g>
</g>
<defs>
<filter id="filter0_d_0_1" x="-220" y="-59" width="465" height="214" filterUnits="userSpaceOnUse" color-interpolation-filters="sRGB">
<feFlood flood-opacity="0" result="BackgroundImageFix"/>
<feColorMatrix in="SourceAlpha" type="matrix" values="0 0 0 0 0 0 0 0 0 0 0 0 0 0 0 0 0 0 127 0" result="hardAlpha"/>
<feOffset dy="17"/>
<feGaussianBlur stdDeviation="32"/>
<feComposite in2="hardAlpha" operator="out"/>
<feColorMatrix type="matrix" values="0 0 0 0 0 0 0 0 0 0 0 0 0 0 1 0 0 0 0.09 0"/>
<feBlend mode="normal" in2="BackgroundImageFix" result="effect1_dropShadow_0_1"/>
<feBlend mode="normal" in="SourceGraphic" in2="effect1_dropShadow_0_1" result="shape"/>
</filter>
<linearGradient id="paint0_linear_0_1" x1="208" y1="17" x2="-136.258" y2="-182.81" gradientUnits="userSpaceOnUse">
<stop stop-color="#1166BF"/>
<stop offset="1" stop-color="#1B37AA"/>
</linearGradient>
<linearGradient id="paint1_linear_0_1" x1="16.5498" y1="4" x2="16.5498" y2="23.9715" gradientUnits="userSpaceOnUse">
<stop stop-color="#1166BF"/>
<stop offset="1" stop-color="#23388E"/>
</linearGradient>
<clipPath id="clip0_0_1">
<rect width="428" height="936" fill="white" transform="translate(-201 -261)"/>
</clipPath>
<clipPath id="clip1_0_1">
<rect x="-182.493" y="-104" width="390.985" height="129" rx="16" fill="white"/>
</clipPath>
</defs>
</svg>
