<svg width="35" height="33" viewBox="0 0 35 33" fill="none" xmlns="http://www.w3.org/2000/svg">
<rect x="0.5" y="1.03906" width="31.5433" height="31.54" rx="15.77" fill="#EBF1FF"/>
<path d="M20.7917 27.5469V24.9635H23.375V27.5469H20.7917ZM18.2083 24.9635V18.5052H20.7917V24.9635H18.2083ZM28.5417 21.0885V15.9219H31.125V21.0885H28.5417ZM25.9583 15.9219V13.3385H28.5417V15.9219H25.9583ZM10.4583 18.5052V15.9219H13.0417V18.5052H10.4583ZM7.875 15.9219V13.3385H10.4583V15.9219H7.875ZM19.5 6.88021V4.29688H22.0833V6.88021H19.5ZM9.48958 10.4323H14.0104V5.91146H9.48958V10.4323ZM8.84375 12.0469C8.56927 12.0469 8.33919 11.954 8.15352 11.7684C7.96784 11.5827 7.875 11.3526 7.875 11.0781V5.26562C7.875 4.99115 7.96784 4.76107 8.15352 4.57539C8.33919 4.38971 8.56927 4.29688 8.84375 4.29688H14.6562C14.9307 4.29688 15.1608 4.38971 15.3465 4.57539C15.5322 4.76107 15.625 4.99115 15.625 5.26562V11.0781C15.625 11.3526 15.5322 11.5827 15.3465 11.7684C15.1608 11.954 14.9307 12.0469 14.6562 12.0469H8.84375ZM9.48958 25.9323H14.0104V21.4115H9.48958V25.9323ZM8.84375 27.5469C8.56927 27.5469 8.33919 27.454 8.15352 27.2684C7.96784 27.0827 7.875 26.8526 7.875 26.5781V20.7656C7.875 20.4911 7.96784 20.2611 8.15352 20.0754C8.33919 19.8897 8.56927 19.7969 8.84375 19.7969H14.6562C14.9307 19.7969 15.1608 19.8897 15.3465 20.0754C15.5322 20.2611 15.625 20.4911 15.625 20.7656V26.5781C15.625 26.8526 15.5322 27.0827 15.3465 27.2684C15.1608 27.454 14.9307 27.5469 14.6562 27.5469H8.84375ZM24.9896 10.4323H29.5104V5.91146H24.9896V10.4323ZM24.3438 12.0469C24.0693 12.0469 23.8392 11.954 23.6535 11.7684C23.4678 11.5827 23.375 11.3526 23.375 11.0781V5.26562C23.375 4.99115 23.4678 4.76107 23.6535 4.57539C23.8392 4.38971 24.0693 4.29688 24.3438 4.29688H30.1562C30.4307 4.29688 30.6608 4.38971 30.8465 4.57539C31.0322 4.76107 31.125 4.99115 31.125 5.26562V11.0781C31.125 11.3526 31.0322 11.5827 30.8465 11.7684C30.6608 11.954 30.4307 12.0469 30.1562 12.0469H24.3438ZM25.9583 27.5469V23.6719H23.375V21.0885H28.5417V24.9635H31.125V27.5469H25.9583ZM20.7917 18.5052V15.9219H25.9583V18.5052H20.7917ZM15.625 18.5052V15.9219H13.0417V13.3385H20.7917V15.9219H18.2083V18.5052H15.625ZM16.9167 12.0469V6.88021H19.5V9.46354H22.0833V12.0469H16.9167ZM10.7812 9.14062V7.20312H12.7188V9.14062H10.7812ZM10.7812 24.6406V22.7031H12.7188V24.6406H10.7812ZM26.2812 9.14062V7.20312H28.2188V9.14062H26.2812Z" fill="url(#paint0_linear_614_3490)"/>
<defs>
<linearGradient id="paint0_linear_614_3490" x1="19.5" y1="4.29687" x2="19.5" y2="27.5469" gradientUnits="userSpaceOnUse">
<stop stop-color="#1166BF"/>
<stop offset="1" stop-color="#23388E"/>
</linearGradient>
</defs>
</svg>
