<svg width="41" height="32" viewBox="0 0 41 32" fill="none" xmlns="http://www.w3.org/2000/svg">
<rect x="0.425781" y="3" width="27" height="26" rx="13" fill="#EBF1FF"/>
<path d="M26.5744 17.9997C25.4633 17.9997 24.5188 17.6108 23.741 16.833C22.9633 16.0552 22.5744 15.1108 22.5744 13.9997C22.5744 12.8886 22.9633 11.9441 23.741 11.1663C24.5188 10.3886 25.4633 9.99967 26.5744 9.99967C27.6855 9.99967 28.6299 10.3886 29.4077 11.1663C30.1855 11.9441 30.5744 12.8886 30.5744 13.9997C30.5744 15.1108 30.1855 16.0552 29.4077 16.833C28.6299 17.6108 27.6855 17.9997 26.5744 17.9997ZM15.9077 22.6663C15.3577 22.6663 14.8869 22.4705 14.4952 22.0788C14.1035 21.6872 13.9077 21.2163 13.9077 20.6663V7.33301C13.9077 6.78301 14.1035 6.31217 14.4952 5.92051C14.8869 5.52884 15.3577 5.33301 15.9077 5.33301H37.241C37.791 5.33301 38.2619 5.52884 38.6535 5.92051C39.0452 6.31217 39.241 6.78301 39.241 7.33301V20.6663C39.241 21.2163 39.0452 21.6872 38.6535 22.0788C38.2619 22.4705 37.791 22.6663 37.241 22.6663H15.9077ZM19.241 20.6663H33.9077C33.9077 19.733 34.2299 18.9441 34.8744 18.2997C35.5188 17.6552 36.3077 17.333 37.241 17.333V10.6663C36.3077 10.6663 35.5188 10.3441 34.8744 9.69967C34.2299 9.05523 33.9077 8.26634 33.9077 7.33301H19.241C19.241 8.26634 18.9188 9.05523 18.2744 9.69967C17.6299 10.3441 16.841 10.6663 15.9077 10.6663V17.333C16.841 17.333 17.6299 17.6552 18.2744 18.2997C18.9188 18.9441 19.241 19.733 19.241 20.6663ZM35.241 26.6663H11.9077C11.3577 26.6663 10.8869 26.4705 10.4952 26.0788C10.1035 25.6872 9.90771 25.2163 9.90771 24.6663V9.33301H11.9077V24.6663H35.241V26.6663Z" fill="url(#paint0_linear_985_1006)"/>
<defs>
<linearGradient id="paint0_linear_985_1006" x1="24.5744" y1="5.33301" x2="24.5744" y2="26.6663" gradientUnits="userSpaceOnUse">
<stop stop-color="#1269C5"/>
<stop offset="1" stop-color="#23388E"/>
</linearGradient>
</defs>
</svg>
