<svg width="44" height="40" viewBox="0 0 44 40" fill="none" xmlns="http://www.w3.org/2000/svg">
<rect x="0.25" y="2" width="33.75" height="33.75" rx="16.875" fill="#EBF1FF"/>
<path d="M8.60388 10.8785C8.33366 10.8785 8.10988 10.7879 7.93255 10.6067C7.75518 10.4255 7.6665 10.2009 7.6665 9.93303V5.33687C7.6665 5.00542 7.77863 4.72759 8.00288 4.50337C8.2271 4.27912 8.50493 4.16699 8.83638 4.16699H13.4325C13.7004 4.16699 13.925 4.25839 14.1062 4.4412C14.2874 4.62398 14.378 4.85046 14.378 5.12066C14.378 5.39085 14.2874 5.61463 14.1062 5.79199C13.925 5.96933 13.7004 6.05799 13.4325 6.05799H9.5575V9.93303C9.5575 10.2009 9.46611 10.4255 9.28334 10.6067C9.10056 10.7879 8.87407 10.8785 8.60388 10.8785ZM8.83638 35.8336C8.50493 35.8336 8.2271 35.7215 8.00288 35.4972C7.77863 35.273 7.6665 34.9951 7.6665 34.6637V30.0675C7.6665 29.7996 7.75791 29.5751 7.94071 29.3939C8.12349 29.2126 8.34998 29.122 8.62017 29.122C8.89037 29.122 9.11414 29.2126 9.2915 29.3939C9.46884 29.5751 9.5575 29.7996 9.5575 30.0675V33.9426H13.4325C13.7004 33.9426 13.925 34.034 14.1062 34.2167C14.2874 34.3995 14.378 34.626 14.378 34.8962C14.378 35.1664 14.2874 35.3902 14.1062 35.5675C13.925 35.7449 13.7004 35.8336 13.4325 35.8336H8.83638ZM33.567 35.8336C33.2992 35.8336 33.0746 35.7422 32.8934 35.5594C32.7122 35.3766 32.6215 35.1501 32.6215 34.8799C32.6215 34.6097 32.7122 34.3859 32.8934 34.2086C33.0746 34.0312 33.2992 33.9426 33.567 33.9426H37.4421V30.0675C37.4421 29.7996 37.5335 29.5751 37.7163 29.3939C37.899 29.2126 38.1255 29.122 38.3957 29.122C38.6659 29.122 38.8897 29.2126 39.067 29.3939C39.2444 29.5751 39.3331 29.7996 39.3331 30.0675V34.6637C39.3331 34.9951 39.221 35.273 38.9967 35.4972C38.7725 35.7215 38.4947 35.8336 38.1632 35.8336H33.567ZM38.3794 10.8785C38.1092 10.8785 37.8854 10.7879 37.7081 10.6067C37.5308 10.4255 37.4421 10.2009 37.4421 9.93303V6.05799H33.567C33.2992 6.05799 33.0746 5.9666 32.8934 5.78383C32.7122 5.60105 32.6215 5.37456 32.6215 5.10437C32.6215 4.83415 32.7122 4.61037 32.8934 4.43303C33.0746 4.25567 33.2992 4.16699 33.567 4.16699H38.1632C38.4947 4.16699 38.7725 4.27912 38.9967 4.50337C39.221 4.72759 39.3331 5.00542 39.3331 5.33687V9.93303C39.3331 10.2009 39.2417 10.4255 39.0589 10.6067C38.8761 10.7879 38.6496 10.8785 38.3794 10.8785ZM32.4388 28.981H34.7914V31.3336H32.4388V28.981ZM32.4388 24.2759H34.7914V26.6285H32.4388V24.2759ZM30.1023 26.6285H32.4388V28.981H30.1023V26.6285ZM27.7498 28.981H30.1023V31.3336H27.7498V28.981ZM25.3973 26.6285H27.7498V28.981H25.3973V26.6285ZM30.1023 21.9234H32.4388V24.2759H30.1023V21.9234ZM27.7498 24.2759H30.1023V26.6285H27.7498V24.2759ZM25.3973 21.9234H27.7498V24.2759H25.3973V21.9234ZM34.7914 8.66699V18.0772H25.3973V8.66699H34.7914ZM21.5767 21.9234V31.3336H12.1665V21.9234H21.5767ZM21.5767 8.66699V18.0772H12.1665V8.66699H21.5767ZM19.894 29.6509V23.606H13.8492V29.6509H19.894ZM19.894 16.3945V10.3497H13.8492V16.3945H19.894ZM33.1088 16.3945V10.3497H27.0799V16.3945H33.1088Z" fill="url(#paint0_linear_614_2641)"/>
<defs>
<linearGradient id="paint0_linear_614_2641" x1="23.4998" y1="4.16699" x2="23.4998" y2="35.8336" gradientUnits="userSpaceOnUse">
<stop stop-color="#1166BF"/>
<stop offset="1" stop-color="#23388E"/>
</linearGradient>
</defs>
</svg>
