<svg width="37" height="30" viewBox="0 0 37 30" fill="none" xmlns="http://www.w3.org/2000/svg">
<rect x="0.575195" y="2.82617" width="23.1047" height="22.249" rx="11.1245" fill="#EBF1FF"/>
<path d="M22.5498 13.2884C21.2023 13.2884 20.0914 12.8512 19.2171 11.9769C18.3428 11.1026 17.9056 9.98944 17.9056 8.63748C17.9056 7.2855 18.3428 6.17458 19.2171 5.30473C20.0914 4.43491 21.2023 4 22.5498 4C23.8973 4 25.0082 4.43491 25.8825 5.30473C26.7568 6.17458 27.194 7.2855 27.194 8.63748C27.194 9.98944 26.7568 11.1026 25.8825 11.9769C25.0082 12.8512 23.8973 13.2884 22.5498 13.2884ZM31.4344 23.9715H13.6652C13.2223 23.9715 12.8424 23.813 12.5254 23.4959C12.2083 23.1789 12.0498 22.799 12.0498 22.3561V21.3142C12.0498 20.5622 12.249 19.907 12.6475 19.3488C13.046 18.7906 13.5638 18.3617 14.201 18.0619C15.6746 17.4068 17.095 16.9132 18.4625 16.5811C19.8299 16.2491 21.1922 16.0831 22.5494 16.0831C23.9066 16.0831 25.2655 16.2527 26.626 16.5919C27.9865 16.9311 29.4006 17.4243 30.8684 18.0714C31.5304 18.3704 32.0595 18.7976 32.4556 19.353C32.8517 19.9084 33.0498 20.5622 33.0498 21.3142V22.3561C33.0498 22.799 32.8913 23.1789 32.5743 23.4959C32.2572 23.813 31.8773 23.9715 31.4344 23.9715ZM13.6382 22.383H31.4614V21.3142C31.4614 20.9499 31.346 20.6007 31.1154 20.2669C30.8848 19.933 30.5837 19.671 30.2121 19.4807C28.8355 18.8112 27.5369 18.3423 26.3165 18.074C25.0961 17.8057 23.8406 17.6715 22.5498 17.6715C21.259 17.6715 19.994 17.8057 18.7548 18.074C17.5156 18.3423 16.2193 18.8112 14.8659 19.4807C14.4944 19.671 14.1969 19.933 13.9734 20.2669C13.75 20.6007 13.6382 20.9499 13.6382 21.3142V22.383ZM22.5498 11.7C23.4239 11.7 24.1517 11.4092 24.7333 10.8276C25.3148 10.2461 25.6056 9.51829 25.6056 8.6442C25.6056 7.77011 25.3148 7.04229 24.7333 6.46075C24.1517 5.87921 23.4239 5.58845 22.5498 5.58845C21.6757 5.58845 20.9479 5.87921 20.3664 6.46075C19.7848 7.04229 19.494 7.77011 19.494 8.6442C19.494 9.51829 19.7848 10.2461 20.3664 10.8276C20.9479 11.4092 21.6757 11.7 22.5498 11.7Z" fill="url(#paint0_linear_614_8927)"/>
<defs>
<linearGradient id="paint0_linear_614_8927" x1="22.5498" y1="4" x2="22.5498" y2="23.9715" gradientUnits="userSpaceOnUse">
<stop stop-color="#1166BF"/>
<stop offset="1" stop-color="#23388E"/>
</linearGradient>
</defs>
</svg>
