<svg width="35" height="28" viewBox="0 0 35 28" fill="none" xmlns="http://www.w3.org/2000/svg">
<rect x="0.16748" y="2.8125" width="25.3125" height="24.375" rx="12.1875" fill="#EBF1FF"/>
<path d="M16.5815 2C15.8522 2 15.1527 2.28973 14.637 2.80546C14.1213 3.32118 13.8315 4.02065 13.8315 4.75V23.25C13.8315 23.9793 14.1213 24.6788 14.637 25.1945C15.1527 25.7103 15.8522 26 16.5815 26H25.0815C25.8109 26 26.5104 25.7103 27.0261 25.1945C27.5418 24.6788 27.8315 23.9793 27.8315 23.25V4.75C27.8315 4.02065 27.5418 3.32118 27.0261 2.80546C26.5104 2.28973 25.8109 2 25.0815 2H16.5815ZM15.3315 4.75C15.3315 4.06 15.8915 3.5 16.5815 3.5H25.0815C25.7715 3.5 26.3315 4.06 26.3315 4.75V23.25C26.3315 23.94 25.7715 24.5 25.0815 24.5H16.5815C15.8915 24.5 15.3315 23.94 15.3315 23.25V4.75ZM19.0815 21C18.8826 21 18.6919 21.079 18.5512 21.2197C18.4106 21.3603 18.3315 21.5511 18.3315 21.75C18.3315 21.9489 18.4106 22.1397 18.5512 22.2803C18.6919 22.421 18.8826 22.5 19.0815 22.5H22.5815C22.7805 22.5 22.9712 22.421 23.1119 22.2803C23.2525 22.1397 23.3315 21.9489 23.3315 21.75C23.3315 21.5511 23.2525 21.3603 23.1119 21.2197C22.9712 21.079 22.7805 21 22.5815 21H19.0815Z" fill="url(#paint0_linear_614_8916)"/>
<defs>
<linearGradient id="paint0_linear_614_8916" x1="20.8315" y1="2" x2="20.8315" y2="26" gradientUnits="userSpaceOnUse">
<stop stop-color="#1166BF"/>
<stop offset="1" stop-color="#23388E"/>
</linearGradient>
</defs>
</svg>
