<svg width="221" height="155" viewBox="0 0 221 155" fill="none" xmlns="http://www.w3.org/2000/svg">
<ellipse cx="13.5" cy="14.4828" rx="13.5" ry="13.5316" fill="#1ED760"/>
<path d="M11.9284 18.6618L8.10059 14.825L8.8354 14.0884L11.9284 17.1887L18.4905 10.6113L19.2253 11.3479L11.9284 18.6618Z" fill="white"/>
<path d="M44.256 18.9829L40.336 9.18291H42.058L44.396 15.1329C44.508 15.4222 44.606 15.6836 44.69 15.9169C44.7833 16.1502 44.8627 16.3649 44.928 16.5609C44.9933 16.7476 45.054 16.9249 45.11 17.0929C45.166 17.2609 45.222 17.4289 45.278 17.5969L44.914 17.6109C44.9793 17.3869 45.0493 17.1536 45.124 16.9109C45.1987 16.6682 45.2827 16.4022 45.376 16.1129C45.4787 15.8236 45.6 15.4969 45.74 15.1329L47.91 9.18291H49.674L45.726 18.9829H44.256ZM53.5195 19.1229C52.7635 19.1229 52.0915 18.9642 51.5035 18.6469C50.9249 18.3202 50.4675 17.8769 50.1315 17.3169C49.8049 16.7569 49.6415 16.1129 49.6415 15.3849C49.6415 14.8062 49.7349 14.2789 49.9215 13.8029C50.1082 13.3269 50.3649 12.9162 50.6915 12.5709C51.0275 12.2162 51.4242 11.9456 51.8815 11.7589C52.3482 11.5629 52.8522 11.4649 53.3935 11.4649C53.8695 11.4649 54.3129 11.5582 54.7235 11.7449C55.1342 11.9222 55.4889 12.1696 55.7875 12.4869C56.0955 12.8042 56.3289 13.1822 56.4875 13.6209C56.6555 14.0502 56.7349 14.5216 56.7255 15.0349L56.7115 15.6509H50.7055L50.3835 14.5029H55.4655L55.2555 14.7409V14.4049C55.2275 14.0969 55.1249 13.8216 54.9475 13.5789C54.7702 13.3362 54.5462 13.1449 54.2755 13.0049C54.0049 12.8649 53.7109 12.7949 53.3935 12.7949C52.8895 12.7949 52.4649 12.8929 52.1195 13.0889C51.7742 13.2756 51.5129 13.5556 51.3355 13.9289C51.1582 14.2929 51.0695 14.7456 51.0695 15.2869C51.0695 15.8002 51.1769 16.2482 51.3915 16.6309C51.6062 17.0042 51.9095 17.2936 52.3015 17.4989C52.6935 17.7042 53.1462 17.8069 53.6595 17.8069C54.0235 17.8069 54.3595 17.7462 54.6675 17.6249C54.9849 17.5036 55.3255 17.2842 55.6895 16.9669L56.4175 17.9889C56.1935 18.2129 55.9182 18.4089 55.5915 18.5769C55.2742 18.7449 54.9335 18.8802 54.5695 18.9829C54.2149 19.0762 53.8649 19.1229 53.5195 19.1229ZM58.2003 18.9829V11.6329H59.6563V13.9429L59.5163 13.3829C59.619 13.0282 59.7917 12.7062 60.0343 12.4169C60.2863 12.1276 60.571 11.8989 60.8883 11.7309C61.215 11.5629 61.551 11.4789 61.8963 11.4789C62.055 11.4789 62.2043 11.4929 62.3443 11.5209C62.4937 11.5489 62.6103 11.5816 62.6943 11.6189L62.3163 13.1869C62.2043 13.1402 62.0783 13.1029 61.9383 13.0749C61.8077 13.0376 61.677 13.0189 61.5463 13.0189C61.2943 13.0189 61.0517 13.0702 60.8183 13.1729C60.5943 13.2662 60.3937 13.4016 60.2163 13.5789C60.0483 13.7469 59.913 13.9476 59.8103 14.1809C59.7077 14.4049 59.6563 14.6522 59.6563 14.9229V18.9829H58.2003ZM63.9925 18.9829V11.6329H65.4345V18.9829H63.9925ZM64.6925 10.0089C64.3845 10.0089 64.1465 9.92958 63.9785 9.77091C63.8105 9.61224 63.7265 9.38824 63.7265 9.09891C63.7265 8.82824 63.8105 8.60891 63.9785 8.44091C64.1558 8.27291 64.3938 8.18891 64.6925 8.18891C65.0005 8.18891 65.2385 8.26824 65.4065 8.42691C65.5745 8.58558 65.6585 8.80958 65.6585 9.09891C65.6585 9.36958 65.5698 9.58891 65.3925 9.75691C65.2245 9.92491 64.9912 10.0089 64.6925 10.0089ZM68.3567 18.9829V10.8069C68.3567 10.3869 68.45 10.0136 68.6367 9.68691C68.8234 9.36024 69.08 9.10358 69.4067 8.91691C69.7334 8.73024 70.1114 8.63691 70.5407 8.63691C70.8394 8.63691 71.1194 8.69291 71.3807 8.80491C71.642 8.91691 71.852 9.06624 72.0107 9.25291L71.5207 10.3589C71.3994 10.2469 71.264 10.1582 71.1147 10.0929C70.9747 10.0182 70.8394 9.98091 70.7087 9.98091C70.5127 9.98091 70.3447 10.0136 70.2047 10.0789C70.074 10.1349 69.976 10.2282 69.9107 10.3589C69.8454 10.4802 69.8127 10.6296 69.8127 10.8069V18.9829H69.0847C68.9634 18.9829 68.842 18.9829 68.7207 18.9829C68.5994 18.9829 68.478 18.9829 68.3567 18.9829ZM67.1807 13.0889V11.7589H71.5487V13.0889H67.1807ZM73.2987 18.9829V11.6329H74.7407V18.9829H73.2987ZM73.9987 10.0089C73.6907 10.0089 73.4527 9.92958 73.2847 9.77091C73.1167 9.61224 73.0327 9.38824 73.0327 9.09891C73.0327 8.82824 73.1167 8.60891 73.2847 8.44091C73.462 8.27291 73.7 8.18891 73.9987 8.18891C74.3067 8.18891 74.5447 8.26824 74.7127 8.42691C74.8807 8.58558 74.9647 8.80958 74.9647 9.09891C74.9647 9.36958 74.876 9.58891 74.6987 9.75691C74.5307 9.92491 74.2974 10.0089 73.9987 10.0089ZM79.981 19.1229C79.2996 19.1229 78.6883 18.9549 78.147 18.6189C77.615 18.2829 77.1903 17.8256 76.873 17.2469C76.565 16.6682 76.411 16.0196 76.411 15.3009C76.411 14.5822 76.565 13.9336 76.873 13.3549C77.1903 12.7762 77.615 12.3189 78.147 11.9829C78.6883 11.6469 79.2996 11.4789 79.981 11.4789C80.6343 11.4789 81.227 11.6142 81.759 11.8849C82.3003 12.1462 82.711 12.5056 82.991 12.9629L82.193 13.9429C82.0436 13.7282 81.8523 13.5322 81.619 13.3549C81.3856 13.1776 81.1383 13.0376 80.877 12.9349C80.6156 12.8322 80.3636 12.7809 80.121 12.7809C79.673 12.7809 79.2716 12.8929 78.917 13.1169C78.5716 13.3316 78.2963 13.6302 78.091 14.0129C77.8856 14.3956 77.783 14.8249 77.783 15.3009C77.783 15.7769 77.8903 16.2062 78.105 16.5889C78.3196 16.9622 78.6043 17.2609 78.959 17.4849C79.3136 17.7089 79.7056 17.8209 80.135 17.8209C80.387 17.8209 80.6296 17.7789 80.863 17.6949C81.1056 17.6109 81.339 17.4849 81.563 17.3169C81.787 17.1489 81.997 16.9436 82.193 16.7009L82.991 17.6809C82.6923 18.1009 82.263 18.4462 81.703 18.7169C81.1523 18.9876 80.5783 19.1229 79.981 19.1229ZM87.0868 19.1229C86.4802 19.1229 85.9248 18.9549 85.4208 18.6189C84.9262 18.2829 84.5295 17.8256 84.2308 17.2469C83.9322 16.6682 83.7828 16.0149 83.7828 15.2869C83.7828 14.5496 83.9322 13.8962 84.2308 13.3269C84.5388 12.7482 84.9495 12.2956 85.4628 11.9689C85.9855 11.6422 86.5688 11.4789 87.2128 11.4789C87.5955 11.4789 87.9455 11.5349 88.2628 11.6469C88.5802 11.7589 88.8555 11.9176 89.0888 12.1229C89.3315 12.3189 89.5275 12.5476 89.6768 12.8089C89.8355 13.0702 89.9335 13.3502 89.9708 13.6489L89.6488 13.5369V11.6329H91.1048V18.9829H89.6488V17.2329L89.9848 17.1349C89.9288 17.3869 89.8122 17.6342 89.6348 17.8769C89.4668 18.1102 89.2475 18.3202 88.9768 18.5069C88.7155 18.6936 88.4215 18.8429 88.0948 18.9549C87.7775 19.0669 87.4415 19.1229 87.0868 19.1229ZM87.4648 17.7929C87.9035 17.7929 88.2908 17.6856 88.6268 17.4709C88.9628 17.2562 89.2242 16.9622 89.4108 16.5889C89.6068 16.2062 89.7048 15.7722 89.7048 15.2869C89.7048 14.8109 89.6068 14.3862 89.4108 14.0129C89.2242 13.6396 88.9628 13.3456 88.6268 13.1309C88.2908 12.9162 87.9035 12.8089 87.4648 12.8089C87.0355 12.8089 86.6528 12.9162 86.3168 13.1309C85.9902 13.3456 85.7288 13.6396 85.5328 14.0129C85.3462 14.3862 85.2528 14.8109 85.2528 15.2869C85.2528 15.7722 85.3462 16.2062 85.5328 16.5889C85.7288 16.9622 85.9902 17.2562 86.3168 17.4709C86.6528 17.6856 87.0355 17.7929 87.4648 17.7929ZM93.9359 18.9829V9.75691H95.3779V18.9829H93.9359ZM92.4099 13.0329V11.6329H97.0859V13.0329H92.4099ZM98.5446 18.9829V11.6329H99.9866V18.9829H98.5446ZM99.2446 10.0089C98.9366 10.0089 98.6986 9.92958 98.5306 9.77091C98.3626 9.61224 98.2786 9.38824 98.2786 9.09891C98.2786 8.82824 98.3626 8.60891 98.5306 8.44091C98.708 8.27291 98.946 8.18891 99.2446 8.18891C99.5526 8.18891 99.7906 8.26824 99.9586 8.42691C100.127 8.58558 100.211 8.80958 100.211 9.09891C100.211 9.36958 100.122 9.58891 99.9446 9.75691C99.7766 9.92491 99.5433 10.0089 99.2446 10.0089ZM105.415 19.1229C104.696 19.1229 104.052 18.9596 103.483 18.6329C102.923 18.2969 102.479 17.8442 102.153 17.2749C101.826 16.6962 101.663 16.0382 101.663 15.3009C101.663 14.5636 101.826 13.9102 102.153 13.3409C102.479 12.7622 102.923 12.3096 103.483 11.9829C104.052 11.6469 104.696 11.4789 105.415 11.4789C106.124 11.4789 106.759 11.6469 107.319 11.9829C107.888 12.3096 108.336 12.7622 108.663 13.3409C108.989 13.9102 109.153 14.5636 109.153 15.3009C109.153 16.0382 108.989 16.6962 108.663 17.2749C108.336 17.8442 107.888 18.2969 107.319 18.6329C106.759 18.9596 106.124 19.1229 105.415 19.1229ZM105.415 17.8069C105.853 17.8069 106.245 17.6996 106.591 17.4849C106.936 17.2609 107.207 16.9622 107.403 16.5889C107.599 16.2062 107.692 15.7769 107.683 15.3009C107.692 14.8156 107.599 14.3862 107.403 14.0129C107.207 13.6302 106.936 13.3316 106.591 13.1169C106.245 12.9022 105.853 12.7949 105.415 12.7949C104.976 12.7949 104.579 12.9069 104.225 13.1309C103.879 13.3456 103.609 13.6442 103.413 14.0269C103.217 14.4002 103.123 14.8249 103.133 15.3009C103.123 15.7769 103.217 16.2062 103.413 16.5889C103.609 16.9622 103.879 17.2609 104.225 17.4849C104.579 17.6996 104.976 17.8069 105.415 17.8069ZM110.632 18.9829V11.6329H112.074V13.1449L111.822 13.3129C111.915 12.9862 112.097 12.6876 112.368 12.4169C112.638 12.1369 112.96 11.9129 113.334 11.7449C113.707 11.5676 114.09 11.4789 114.482 11.4789C115.042 11.4789 115.508 11.5909 115.882 11.8149C116.255 12.0296 116.535 12.3609 116.722 12.8089C116.908 13.2569 117.002 13.8216 117.002 14.5029V18.9829H115.56V14.6009C115.56 14.1809 115.504 13.8356 115.392 13.5649C115.28 13.2849 115.107 13.0842 114.874 12.9629C114.64 12.8322 114.351 12.7762 114.006 12.7949C113.726 12.7949 113.469 12.8416 113.236 12.9349C113.002 13.0189 112.797 13.1402 112.62 13.2989C112.452 13.4576 112.316 13.6442 112.214 13.8589C112.12 14.0642 112.074 14.2882 112.074 14.5309V18.9829H111.36C111.238 18.9829 111.117 18.9829 110.996 18.9829C110.874 18.9829 110.753 18.9829 110.632 18.9829ZM122.697 18.9829V17.5829H124.279V10.5829H122.697V9.18291H127.373V10.5829H125.791V17.5829H127.373V18.9829H122.697ZM129.29 18.9829V11.6329H130.732V13.1449L130.48 13.3129C130.574 12.9862 130.756 12.6876 131.026 12.4169C131.297 12.1369 131.619 11.9129 131.992 11.7449C132.366 11.5676 132.748 11.4789 133.14 11.4789C133.7 11.4789 134.167 11.5909 134.54 11.8149C134.914 12.0296 135.194 12.3609 135.38 12.8089C135.567 13.2569 135.66 13.8216 135.66 14.5029V18.9829H134.218V14.6009C134.218 14.1809 134.162 13.8356 134.05 13.5649C133.938 13.2849 133.766 13.0842 133.532 12.9629C133.299 12.8322 133.01 12.7762 132.664 12.7949C132.384 12.7949 132.128 12.8416 131.894 12.9349C131.661 13.0189 131.456 13.1402 131.278 13.2989C131.11 13.4576 130.975 13.6442 130.872 13.8589C130.779 14.0642 130.732 14.2882 130.732 14.5309V18.9829H130.018C129.897 18.9829 129.776 18.9829 129.654 18.9829C129.533 18.9829 129.412 18.9829 129.29 18.9829ZM137.762 18.9829V11.6329H139.204V18.9829H137.762ZM138.462 10.0089C138.154 10.0089 137.916 9.92958 137.748 9.77091C137.58 9.61224 137.496 9.38824 137.496 9.09891C137.496 8.82824 137.58 8.60891 137.748 8.44091C137.926 8.27291 138.164 8.18891 138.462 8.18891C138.77 8.18891 139.008 8.26824 139.176 8.42691C139.344 8.58558 139.428 8.80958 139.428 9.09891C139.428 9.36958 139.34 9.58891 139.162 9.75691C138.994 9.92491 138.761 10.0089 138.462 10.0089ZM142.238 18.9829V9.75691H143.68V18.9829H142.238ZM140.712 13.0329V11.6329H145.388V13.0329H140.712ZM146.847 18.9829V11.6329H148.289V18.9829H146.847ZM147.547 10.0089C147.239 10.0089 147.001 9.92958 146.833 9.77091C146.665 9.61224 146.581 9.38824 146.581 9.09891C146.581 8.82824 146.665 8.60891 146.833 8.44091C147.011 8.27291 147.249 8.18891 147.547 8.18891C147.855 8.18891 148.093 8.26824 148.261 8.42691C148.429 8.58558 148.513 8.80958 148.513 9.09891C148.513 9.36958 148.425 9.58891 148.247 9.75691C148.079 9.92491 147.846 10.0089 147.547 10.0089ZM153.241 19.1229C152.635 19.1229 152.079 18.9549 151.575 18.6189C151.081 18.2829 150.684 17.8256 150.385 17.2469C150.087 16.6682 149.937 16.0149 149.937 15.2869C149.937 14.5496 150.087 13.8962 150.385 13.3269C150.693 12.7482 151.104 12.2956 151.617 11.9689C152.14 11.6422 152.723 11.4789 153.367 11.4789C153.75 11.4789 154.1 11.5349 154.417 11.6469C154.735 11.7589 155.01 11.9176 155.243 12.1229C155.486 12.3189 155.682 12.5476 155.831 12.8089C155.99 13.0702 156.088 13.3502 156.125 13.6489L155.803 13.5369V11.6329H157.259V18.9829H155.803V17.2329L156.139 17.1349C156.083 17.3869 155.967 17.6342 155.789 17.8769C155.621 18.1102 155.402 18.3202 155.131 18.5069C154.87 18.6936 154.576 18.8429 154.249 18.9549C153.932 19.0669 153.596 19.1229 153.241 19.1229ZM153.619 17.7929C154.058 17.7929 154.445 17.6856 154.781 17.4709C155.117 17.2562 155.379 16.9622 155.565 16.5889C155.761 16.2062 155.859 15.7722 155.859 15.2869C155.859 14.8109 155.761 14.3862 155.565 14.0129C155.379 13.6396 155.117 13.3456 154.781 13.1309C154.445 12.9162 154.058 12.8089 153.619 12.8089C153.19 12.8089 152.807 12.9162 152.471 13.1309C152.145 13.3456 151.883 13.6396 151.687 14.0129C151.501 14.3862 151.407 14.8109 151.407 15.2869C151.407 15.7722 151.501 16.2062 151.687 16.5889C151.883 16.9622 152.145 17.2562 152.471 17.4709C152.807 17.6856 153.19 17.7929 153.619 17.7929ZM160.09 18.9829V9.75691H161.532V18.9829H160.09ZM158.564 13.0329V11.6329H163.24V13.0329H158.564ZM167.823 19.1229C167.067 19.1229 166.395 18.9642 165.807 18.6469C165.228 18.3202 164.771 17.8769 164.435 17.3169C164.108 16.7569 163.945 16.1129 163.945 15.3849C163.945 14.8062 164.038 14.2789 164.225 13.8029C164.411 13.3269 164.668 12.9162 164.995 12.5709C165.331 12.2162 165.727 11.9456 166.185 11.7589C166.651 11.5629 167.155 11.4649 167.697 11.4649C168.173 11.4649 168.616 11.5582 169.027 11.7449C169.437 11.9222 169.792 12.1696 170.091 12.4869C170.399 12.8042 170.632 13.1822 170.791 13.6209C170.959 14.0502 171.038 14.5216 171.029 15.0349L171.015 15.6509H165.009L164.687 14.5029H169.769L169.559 14.7409V14.4049C169.531 14.0969 169.428 13.8216 169.251 13.5789C169.073 13.3362 168.849 13.1449 168.579 13.0049C168.308 12.8649 168.014 12.7949 167.697 12.7949C167.193 12.7949 166.768 12.8929 166.423 13.0889C166.077 13.2756 165.816 13.5556 165.639 13.9289C165.461 14.2929 165.373 14.7456 165.373 15.2869C165.373 15.8002 165.48 16.2482 165.695 16.6309C165.909 17.0042 166.213 17.2936 166.605 17.4989C166.997 17.7042 167.449 17.8069 167.963 17.8069C168.327 17.8069 168.663 17.7462 168.971 17.6249C169.288 17.5036 169.629 17.2842 169.993 16.9669L170.721 17.9889C170.497 18.2129 170.221 18.4089 169.895 18.5769C169.577 18.7449 169.237 18.8802 168.873 18.9829C168.518 19.0762 168.168 19.1229 167.823 19.1229ZM175.57 19.1229C174.898 19.1229 174.296 18.9596 173.764 18.6329C173.241 18.2969 172.826 17.8442 172.518 17.2749C172.21 16.6962 172.056 16.0382 172.056 15.3009C172.056 14.5636 172.205 13.9102 172.504 13.3409C172.812 12.7622 173.227 12.3096 173.75 11.9829C174.272 11.6469 174.865 11.4789 175.528 11.4789C175.892 11.4789 176.242 11.5396 176.578 11.6609C176.923 11.7729 177.231 11.9316 177.502 12.1369C177.772 12.3329 177.982 12.5522 178.132 12.7949C178.29 13.0282 178.37 13.2662 178.37 13.5089L177.95 13.5369V8.62291H179.392V18.9829H177.95V17.2329H178.23C178.23 17.4569 178.155 17.6809 178.006 17.9049C177.856 18.1196 177.656 18.3202 177.404 18.5069C177.161 18.6936 176.876 18.8429 176.55 18.9549C176.232 19.0669 175.906 19.1229 175.57 19.1229ZM175.766 17.8769C176.204 17.8769 176.592 17.7649 176.928 17.5409C177.264 17.3169 177.525 17.0136 177.712 16.6309C177.908 16.2389 178.006 15.7956 178.006 15.3009C178.006 14.8062 177.908 14.3676 177.712 13.9849C177.525 13.5929 177.264 13.2849 176.928 13.0609C176.592 12.8369 176.204 12.7249 175.766 12.7249C175.327 12.7249 174.94 12.8369 174.604 13.0609C174.268 13.2849 174.002 13.5929 173.806 13.9849C173.619 14.3676 173.526 14.8062 173.526 15.3009C173.526 15.7956 173.619 16.2389 173.806 16.6309C174.002 17.0136 174.268 17.3169 174.604 17.5409C174.94 17.7649 175.327 17.8769 175.766 17.8769Z" fill="#495057"/>
<ellipse cx="13.5" cy="77.5463" rx="13.5" ry="13.5317" fill="#FFAF2B"/>
<path d="M13.5302 81.077C13.6899 81.077 13.8239 81.0229 13.9321 80.9146C14.0403 80.8063 14.0944 80.6721 14.0944 80.5121C14.0944 80.352 14.0404 80.2177 13.9324 80.1092C13.8244 80.0008 13.6905 79.9465 13.5308 79.9465C13.3711 79.9465 13.2372 80.0007 13.1289 80.1089C13.0207 80.2172 12.9666 80.3514 12.9666 80.5115C12.9666 80.6715 13.0206 80.8058 13.1286 80.9143C13.2367 81.0228 13.3705 81.077 13.5302 81.077ZM13.0691 78.4563H14.0944V74.1228H13.0691V78.4563ZM13.5351 84.5027C12.5925 84.5027 11.7068 84.3229 10.8778 83.9632C10.0488 83.6035 9.32387 83.1125 8.70298 82.4901C8.08209 81.8678 7.59222 81.1407 7.23336 80.3089C6.8745 79.4772 6.69507 78.5884 6.69507 77.6427C6.69507 76.697 6.8745 75.8082 7.23336 74.9765C7.59222 74.1447 8.08209 73.4205 8.70298 72.8039C9.32387 72.1872 10.0492 71.6991 10.8791 71.3394C11.7089 70.9797 12.5955 70.7998 13.5391 70.7998C14.4826 70.7998 15.3692 70.9797 16.1991 71.3394C17.0289 71.6991 17.7514 72.1872 18.3666 72.8039C18.9818 73.4205 19.4688 74.1456 19.8277 74.9792C20.1865 75.8128 20.366 76.702 20.366 77.6467C20.366 78.5915 20.1865 79.4793 19.8277 80.3102C19.4688 81.1412 18.9818 81.8667 18.3666 82.487C17.7514 83.1072 17.028 83.5982 16.1963 83.96C15.3647 84.3218 14.4776 84.5027 13.5351 84.5027ZM13.5391 83.475C15.1511 83.475 16.521 82.9069 17.6489 81.7707C18.7767 80.6345 19.3406 79.2585 19.3406 77.6427C19.3406 76.0269 18.7778 74.6538 17.6521 73.5233C16.5264 72.3928 15.1525 71.8275 13.5305 71.8275C11.9242 71.8275 10.5542 72.3917 9.4207 73.52C8.28716 74.6484 7.72038 76.0255 7.72038 77.6513C7.72038 79.2614 8.28716 80.6345 9.4207 81.7707C10.5542 82.9069 11.927 83.475 13.5391 83.475Z" fill="white"/>
<path d="M44.396 82.1864C43.864 82.1864 43.3693 82.1164 42.912 81.9764C42.464 81.8364 42.0533 81.6264 41.68 81.3464C41.316 81.0571 40.9893 80.7024 40.7 80.2824L41.736 79.0924C42.1933 79.7457 42.632 80.1984 43.052 80.4504C43.472 80.7024 43.9713 80.8284 44.55 80.8284C44.9047 80.8284 45.2267 80.7724 45.516 80.6604C45.8053 80.5484 46.034 80.3944 46.202 80.1984C46.37 80.0024 46.454 79.7784 46.454 79.5264C46.454 79.3584 46.426 79.1997 46.37 79.0504C46.314 78.9011 46.2253 78.7657 46.104 78.6444C45.992 78.5231 45.8427 78.4111 45.656 78.3084C45.4787 78.2057 45.2687 78.1171 45.026 78.0424C44.7833 77.9584 44.5033 77.8884 44.186 77.8324C43.682 77.7297 43.2433 77.5944 42.87 77.4264C42.4967 77.2584 42.184 77.0484 41.932 76.7964C41.68 76.5444 41.4933 76.2597 41.372 75.9424C41.2507 75.6157 41.19 75.2517 41.19 74.8504C41.19 74.4584 41.274 74.0944 41.442 73.7584C41.6193 73.4224 41.8573 73.1331 42.156 72.8904C42.464 72.6384 42.8233 72.4471 43.234 72.3164C43.6447 72.1764 44.088 72.1064 44.564 72.1064C45.068 72.1064 45.53 72.1717 45.95 72.3024C46.37 72.4331 46.7433 72.6291 47.07 72.8904C47.3967 73.1424 47.6673 73.4551 47.882 73.8284L46.818 74.8784C46.6313 74.5704 46.4213 74.3137 46.188 74.1084C45.9547 73.8937 45.698 73.7351 45.418 73.6324C45.138 73.5204 44.8393 73.4644 44.522 73.4644C44.158 73.4644 43.8407 73.5204 43.57 73.6324C43.2993 73.7444 43.0847 73.9031 42.926 74.1084C42.7767 74.3044 42.702 74.5377 42.702 74.8084C42.702 75.0044 42.7393 75.1864 42.814 75.3544C42.8887 75.5131 43.0007 75.6577 43.15 75.7884C43.3087 75.9097 43.5187 76.0217 43.78 76.1244C44.0413 76.2177 44.354 76.3017 44.718 76.3764C45.2313 76.4884 45.6887 76.6331 46.09 76.8104C46.4913 76.9784 46.832 77.1791 47.112 77.4124C47.392 77.6457 47.602 77.9071 47.742 78.1964C47.8913 78.4857 47.966 78.7984 47.966 79.1344C47.966 79.7597 47.8213 80.3011 47.532 80.7584C47.2427 81.2157 46.832 81.5704 46.3 81.8224C45.768 82.0651 45.1333 82.1864 44.396 82.1864ZM50.016 82.0464V72.2464H51.5L55.07 78.0564L54.356 78.0424L57.968 72.2464H59.368V82.0464H57.856V78.0284C57.856 77.1884 57.8747 76.4324 57.912 75.7604C57.9587 75.0884 58.0334 74.4211 58.136 73.7584L58.332 74.2764L55.126 79.2324H54.202L51.094 74.3324L51.248 73.7584C51.3507 74.3837 51.4207 75.0277 51.458 75.6904C51.5047 76.3437 51.528 77.1231 51.528 78.0284V82.0464H50.016ZM65.0473 82.1864C64.5153 82.1864 64.0207 82.1164 63.5633 81.9764C63.1153 81.8364 62.7047 81.6264 62.3313 81.3464C61.9673 81.0571 61.6407 80.7024 61.3513 80.2824L62.3873 79.0924C62.8447 79.7457 63.2833 80.1984 63.7033 80.4504C64.1233 80.7024 64.6227 80.8284 65.2013 80.8284C65.556 80.8284 65.878 80.7724 66.1673 80.6604C66.4567 80.5484 66.6853 80.3944 66.8533 80.1984C67.0213 80.0024 67.1053 79.7784 67.1053 79.5264C67.1053 79.3584 67.0773 79.1997 67.0213 79.0504C66.9653 78.9011 66.8767 78.7657 66.7553 78.6444C66.6433 78.5231 66.494 78.4111 66.3073 78.3084C66.13 78.2057 65.92 78.1171 65.6773 78.0424C65.4347 77.9584 65.1547 77.8884 64.8373 77.8324C64.3333 77.7297 63.8947 77.5944 63.5213 77.4264C63.148 77.2584 62.8353 77.0484 62.5833 76.7964C62.3313 76.5444 62.1447 76.2597 62.0233 75.9424C61.902 75.6157 61.8413 75.2517 61.8413 74.8504C61.8413 74.4584 61.9253 74.0944 62.0933 73.7584C62.2707 73.4224 62.5087 73.1331 62.8073 72.8904C63.1153 72.6384 63.4747 72.4471 63.8853 72.3164C64.296 72.1764 64.7393 72.1064 65.2153 72.1064C65.7193 72.1064 66.1813 72.1717 66.6013 72.3024C67.0213 72.4331 67.3947 72.6291 67.7213 72.8904C68.048 73.1424 68.3187 73.4551 68.5333 73.8284L67.4693 74.8784C67.2827 74.5704 67.0727 74.3137 66.8393 74.1084C66.606 73.8937 66.3493 73.7351 66.0693 73.6324C65.7893 73.5204 65.4907 73.4644 65.1733 73.4644C64.8093 73.4644 64.492 73.5204 64.2213 73.6324C63.9507 73.7444 63.736 73.9031 63.5773 74.1084C63.428 74.3044 63.3533 74.5377 63.3533 74.8084C63.3533 75.0044 63.3907 75.1864 63.4653 75.3544C63.54 75.5131 63.652 75.6577 63.8013 75.7884C63.96 75.9097 64.17 76.0217 64.4313 76.1244C64.6927 76.2177 65.0053 76.3017 65.3693 76.3764C65.8827 76.4884 66.34 76.6331 66.7413 76.8104C67.1427 76.9784 67.4833 77.1791 67.7633 77.4124C68.0433 77.6457 68.2533 77.9071 68.3933 78.1964C68.5427 78.4857 68.6173 78.7984 68.6173 79.1344C68.6173 79.7597 68.4727 80.3011 68.1833 80.7584C67.894 81.2157 67.4833 81.5704 66.9513 81.8224C66.4193 82.0651 65.7847 82.1864 65.0473 82.1864ZM76.5849 82.1864C75.9689 82.1864 75.4135 82.0791 74.9189 81.8644C74.4242 81.6497 74.0135 81.3324 73.6869 80.9124L74.6669 80.0724C74.9469 80.3991 75.2502 80.6371 75.5769 80.7864C75.9129 80.9264 76.2909 80.9964 76.7109 80.9964C76.8789 80.9964 77.0329 80.9777 77.1729 80.9404C77.3222 80.8937 77.4482 80.8284 77.5509 80.7444C77.6629 80.6604 77.7469 80.5624 77.8029 80.4504C77.8589 80.3291 77.8869 80.1984 77.8869 80.0584C77.8869 79.8157 77.7982 79.6197 77.6209 79.4704C77.5275 79.4051 77.3782 79.3351 77.1729 79.2604C76.9769 79.1764 76.7202 79.0924 76.4029 79.0084C75.8615 78.8684 75.4182 78.7097 75.0729 78.5324C74.7275 78.3551 74.4615 78.1544 74.2749 77.9304C74.1349 77.7531 74.0322 77.5617 73.9669 77.3564C73.9015 77.1417 73.8689 76.9084 73.8689 76.6564C73.8689 76.3484 73.9342 76.0684 74.0649 75.8164C74.2049 75.5551 74.3915 75.3311 74.6249 75.1444C74.8675 74.9484 75.1475 74.7991 75.4649 74.6964C75.7915 74.5937 76.1369 74.5424 76.5009 74.5424C76.8462 74.5424 77.1869 74.5891 77.5229 74.6824C77.8682 74.7757 78.1855 74.9111 78.4749 75.0884C78.7642 75.2657 79.0069 75.4757 79.2029 75.7184L78.3769 76.6284C78.1995 76.4511 78.0035 76.2971 77.7889 76.1664C77.5835 76.0264 77.3735 75.9191 77.1589 75.8444C76.9442 75.7697 76.7482 75.7324 76.5709 75.7324C76.3749 75.7324 76.1975 75.7511 76.0389 75.7884C75.8802 75.8257 75.7449 75.8817 75.6329 75.9564C75.5302 76.0311 75.4509 76.1244 75.3949 76.2364C75.3389 76.3484 75.3109 76.4744 75.3109 76.6144C75.3202 76.7357 75.3482 76.8524 75.3949 76.9644C75.4509 77.0671 75.5255 77.1557 75.6189 77.2304C75.7215 77.3051 75.8755 77.3844 76.0809 77.4684C76.2862 77.5524 76.5475 77.6317 76.8649 77.7064C77.3315 77.8277 77.7142 77.9631 78.0129 78.1124C78.3209 78.2524 78.5635 78.4157 78.7409 78.6024C78.9275 78.7797 79.0582 78.9851 79.1329 79.2184C79.2075 79.4517 79.2449 79.7131 79.2449 80.0024C79.2449 80.4224 79.1235 80.8004 78.8809 81.1364C78.6475 81.4631 78.3302 81.7197 77.9289 81.9064C77.5275 82.0931 77.0795 82.1864 76.5849 82.1864ZM84.1718 82.1864C83.4158 82.1864 82.7438 82.0277 82.1558 81.7104C81.5771 81.3837 81.1198 80.9404 80.7838 80.3804C80.4571 79.8204 80.2938 79.1764 80.2938 78.4484C80.2938 77.8697 80.3871 77.3424 80.5738 76.8664C80.7604 76.3904 81.0171 75.9797 81.3438 75.6344C81.6798 75.2797 82.0764 75.0091 82.5338 74.8224C83.0004 74.6264 83.5044 74.5284 84.0458 74.5284C84.5218 74.5284 84.9651 74.6217 85.3758 74.8084C85.7864 74.9857 86.1411 75.2331 86.4398 75.5504C86.7478 75.8677 86.9811 76.2457 87.1398 76.6844C87.3078 77.1137 87.3871 77.5851 87.3778 78.0984L87.3638 78.7144H81.3578L81.0358 77.5664H86.1178L85.9078 77.8044V77.4684C85.8798 77.1604 85.7771 76.8851 85.5998 76.6424C85.4224 76.3997 85.1984 76.2084 84.9278 76.0684C84.6571 75.9284 84.3631 75.8584 84.0458 75.8584C83.5418 75.8584 83.1171 75.9564 82.7718 76.1524C82.4264 76.3391 82.1651 76.6191 81.9878 76.9924C81.8104 77.3564 81.7218 77.8091 81.7218 78.3504C81.7218 78.8637 81.8291 79.3117 82.0438 79.6944C82.2584 80.0677 82.5618 80.3571 82.9538 80.5624C83.3458 80.7677 83.7984 80.8704 84.3118 80.8704C84.6758 80.8704 85.0118 80.8097 85.3198 80.6884C85.6371 80.5671 85.9778 80.3477 86.3418 80.0304L87.0698 81.0524C86.8458 81.2764 86.5704 81.4724 86.2438 81.6404C85.9264 81.8084 85.5858 81.9437 85.2218 82.0464C84.8671 82.1397 84.5171 82.1864 84.1718 82.1864ZM88.8526 82.0464V74.6964H90.2946V76.2084L90.0426 76.3764C90.1359 76.0497 90.3179 75.7511 90.5886 75.4804C90.8593 75.2004 91.1813 74.9764 91.5546 74.8084C91.9279 74.6311 92.3106 74.5424 92.7026 74.5424C93.2626 74.5424 93.7293 74.6544 94.1026 74.8784C94.4759 75.0931 94.7559 75.4244 94.9426 75.8724C95.1293 76.3204 95.2226 76.8851 95.2226 77.5664V82.0464H93.7806V77.6644C93.7806 77.2444 93.7246 76.8991 93.6126 76.6284C93.5006 76.3484 93.3279 76.1477 93.0946 76.0264C92.8613 75.8957 92.5719 75.8397 92.2266 75.8584C91.9466 75.8584 91.6899 75.9051 91.4566 75.9984C91.2233 76.0824 91.0179 76.2037 90.8406 76.3624C90.6726 76.5211 90.5373 76.7077 90.4346 76.9224C90.3413 77.1277 90.2946 77.3517 90.2946 77.5944V82.0464H89.5806C89.4593 82.0464 89.3379 82.0464 89.2166 82.0464C89.0953 82.0464 88.9739 82.0464 88.8526 82.0464ZM97.9965 82.0464V72.8204H99.4385V82.0464H97.9965ZM96.4705 76.0964V74.6964H101.146V76.0964H96.4705ZM106.997 82.0464V73.8704C106.997 73.4504 107.09 73.0771 107.277 72.7504C107.463 72.4237 107.72 72.1671 108.047 71.9804C108.373 71.7937 108.751 71.7004 109.181 71.7004C109.479 71.7004 109.759 71.7564 110.021 71.8684C110.282 71.9804 110.492 72.1297 110.651 72.3164L110.161 73.4224C110.039 73.3104 109.904 73.2217 109.755 73.1564C109.615 73.0817 109.479 73.0444 109.349 73.0444C109.153 73.0444 108.985 73.0771 108.845 73.1424C108.714 73.1984 108.616 73.2917 108.551 73.4224C108.485 73.5437 108.453 73.6931 108.453 73.8704V82.0464H107.725C107.603 82.0464 107.482 82.0464 107.361 82.0464C107.239 82.0464 107.118 82.0464 106.997 82.0464ZM105.821 76.1524V74.8224H110.189V76.1524H105.821ZM111.602 82.0464V74.6964H113.058V77.0064L112.918 76.4464C113.021 76.0917 113.194 75.7697 113.436 75.4804C113.688 75.1911 113.973 74.9624 114.29 74.7944C114.617 74.6264 114.953 74.5424 115.298 74.5424C115.457 74.5424 115.606 74.5564 115.746 74.5844C115.896 74.6124 116.012 74.6451 116.096 74.6824L115.718 76.2504C115.606 76.2037 115.48 76.1664 115.34 76.1384C115.21 76.1011 115.079 76.0824 114.948 76.0824C114.696 76.0824 114.454 76.1337 114.22 76.2364C113.996 76.3297 113.796 76.4651 113.618 76.6424C113.45 76.8104 113.315 77.0111 113.212 77.2444C113.11 77.4684 113.058 77.7157 113.058 77.9864V82.0464H111.602ZM120.146 82.1864C119.428 82.1864 118.784 82.0231 118.214 81.6964C117.654 81.3604 117.211 80.9077 116.884 80.3384C116.558 79.7597 116.394 79.1017 116.394 78.3644C116.394 77.6271 116.558 76.9737 116.884 76.4044C117.211 75.8257 117.654 75.3731 118.214 75.0464C118.784 74.7104 119.428 74.5424 120.146 74.5424C120.856 74.5424 121.49 74.7104 122.05 75.0464C122.62 75.3731 123.068 75.8257 123.394 76.4044C123.721 76.9737 123.884 77.6271 123.884 78.3644C123.884 79.1017 123.721 79.7597 123.394 80.3384C123.068 80.9077 122.62 81.3604 122.05 81.6964C121.49 82.0231 120.856 82.1864 120.146 82.1864ZM120.146 80.8704C120.585 80.8704 120.977 80.7631 121.322 80.5484C121.668 80.3244 121.938 80.0257 122.134 79.6524C122.33 79.2697 122.424 78.8404 122.414 78.3644C122.424 77.8791 122.33 77.4497 122.134 77.0764C121.938 76.6937 121.668 76.3951 121.322 76.1804C120.977 75.9657 120.585 75.8584 120.146 75.8584C119.708 75.8584 119.311 75.9704 118.956 76.1944C118.611 76.4091 118.34 76.7077 118.144 77.0904C117.948 77.4637 117.855 77.8884 117.864 78.3644C117.855 78.8404 117.948 79.2697 118.144 79.6524C118.34 80.0257 118.611 80.3244 118.956 80.5484C119.311 80.7631 119.708 80.8704 120.146 80.8704ZM125.335 82.0464V74.6964H126.791V76.2644L126.525 76.4324C126.6 76.1897 126.717 75.9564 126.875 75.7324C127.043 75.5084 127.244 75.3124 127.477 75.1444C127.72 74.9671 127.977 74.8271 128.247 74.7244C128.527 74.6217 128.812 74.5704 129.101 74.5704C129.521 74.5704 129.89 74.6404 130.207 74.7804C130.525 74.9204 130.786 75.1304 130.991 75.4104C131.197 75.6904 131.346 76.0404 131.439 76.4604L131.215 76.4044L131.313 76.1664C131.416 75.9517 131.556 75.7511 131.733 75.5644C131.92 75.3684 132.13 75.1957 132.363 75.0464C132.597 74.8971 132.844 74.7804 133.105 74.6964C133.367 74.6124 133.623 74.5704 133.875 74.5704C134.426 74.5704 134.879 74.6824 135.233 74.9064C135.597 75.1304 135.868 75.4711 136.045 75.9284C136.232 76.3857 136.325 76.9551 136.325 77.6364V82.0464H134.869V77.7204C134.869 77.3004 134.813 76.9597 134.701 76.6984C134.599 76.4277 134.44 76.2271 134.225 76.0964C134.011 75.9657 133.735 75.9004 133.399 75.9004C133.138 75.9004 132.891 75.9471 132.657 76.0404C132.433 76.1244 132.237 76.2457 132.069 76.4044C131.901 76.5631 131.771 76.7497 131.677 76.9644C131.584 77.1697 131.537 77.3984 131.537 77.6504V82.0464H130.081V77.6924C130.081 77.3097 130.025 76.9877 129.913 76.7264C129.801 76.4557 129.638 76.2504 129.423 76.1104C129.209 75.9704 128.947 75.9004 128.639 75.9004C128.378 75.9004 128.135 75.9471 127.911 76.0404C127.687 76.1244 127.491 76.2457 127.323 76.4044C127.155 76.5537 127.025 76.7357 126.931 76.9504C126.838 77.1557 126.791 77.3797 126.791 77.6224V82.0464H125.335ZM143.227 85.2664L144.711 81.8364L144.725 82.9844L141.057 74.6964H142.737L145.033 80.1004C145.08 80.1937 145.136 80.3384 145.201 80.5344C145.266 80.7211 145.322 80.9077 145.369 81.0944L145.005 81.1784C145.08 80.9824 145.15 80.7864 145.215 80.5904C145.29 80.3944 145.36 80.1984 145.425 80.0024L147.343 74.6964H149.051L146.027 82.0464L144.781 85.2664H143.227ZM153.205 82.1864C152.486 82.1864 151.842 82.0231 151.273 81.6964C150.713 81.3604 150.269 80.9077 149.943 80.3384C149.616 79.7597 149.453 79.1017 149.453 78.3644C149.453 77.6271 149.616 76.9737 149.943 76.4044C150.269 75.8257 150.713 75.3731 151.273 75.0464C151.842 74.7104 152.486 74.5424 153.205 74.5424C153.914 74.5424 154.549 74.7104 155.109 75.0464C155.678 75.3731 156.126 75.8257 156.453 76.4044C156.779 76.9737 156.943 77.6271 156.943 78.3644C156.943 79.1017 156.779 79.7597 156.453 80.3384C156.126 80.9077 155.678 81.3604 155.109 81.6964C154.549 82.0231 153.914 82.1864 153.205 82.1864ZM153.205 80.8704C153.643 80.8704 154.035 80.7631 154.381 80.5484C154.726 80.3244 154.997 80.0257 155.193 79.6524C155.389 79.2697 155.482 78.8404 155.473 78.3644C155.482 77.8791 155.389 77.4497 155.193 77.0764C154.997 76.6937 154.726 76.3951 154.381 76.1804C154.035 75.9657 153.643 75.8584 153.205 75.8584C152.766 75.8584 152.369 75.9704 152.015 76.1944C151.669 76.4091 151.399 76.7077 151.203 77.0904C151.007 77.4637 150.913 77.8884 150.923 78.3644C150.913 78.8404 151.007 79.2697 151.203 79.6524C151.399 80.0257 151.669 80.3244 152.015 80.5484C152.369 80.7631 152.766 80.8704 153.205 80.8704ZM160.998 82.1864C160.475 82.1864 160.018 82.0651 159.626 81.8224C159.243 81.5797 158.944 81.2391 158.73 80.8004C158.524 80.3617 158.422 79.8391 158.422 79.2324V74.6964H159.864V78.8404C159.864 79.2697 159.929 79.6431 160.06 79.9604C160.2 80.2684 160.396 80.5064 160.648 80.6744C160.909 80.8424 161.222 80.9264 161.586 80.9264C161.856 80.9264 162.104 80.8844 162.328 80.8004C162.552 80.7071 162.743 80.5811 162.902 80.4224C163.07 80.2637 163.2 80.0724 163.294 79.8484C163.387 79.6244 163.434 79.3817 163.434 79.1204V74.6964H164.876V82.0464H163.434V80.5064L163.686 80.3384C163.574 80.6837 163.382 80.9964 163.112 81.2764C162.85 81.5564 162.538 81.7804 162.174 81.9484C161.81 82.1071 161.418 82.1864 160.998 82.1864ZM166.806 82.0464V74.6964H168.262V77.0064L168.122 76.4464C168.225 76.0917 168.397 75.7697 168.64 75.4804C168.892 75.1911 169.177 74.9624 169.494 74.7944C169.821 74.6264 170.157 74.5424 170.502 74.5424C170.661 74.5424 170.81 74.5564 170.95 74.5844C171.099 74.6124 171.216 74.6451 171.3 74.6824L170.922 76.2504C170.81 76.2037 170.684 76.1664 170.544 76.1384C170.413 76.1011 170.283 76.0824 170.152 76.0824C169.9 76.0824 169.657 76.1337 169.424 76.2364C169.2 76.3297 168.999 76.4651 168.822 76.6424C168.654 76.8104 168.519 77.0111 168.416 77.2444C168.313 77.4684 168.262 77.7157 168.262 77.9864V82.0464H166.806ZM176.164 82.0464V74.6964H177.62V76.2644L177.354 76.4324C177.428 76.1897 177.545 75.9564 177.704 75.7324C177.872 75.5084 178.072 75.3124 178.306 75.1444C178.548 74.9671 178.805 74.8271 179.076 74.7244C179.356 74.6217 179.64 74.5704 179.93 74.5704C180.35 74.5704 180.718 74.6404 181.036 74.7804C181.353 74.9204 181.614 75.1304 181.82 75.4104C182.025 75.6904 182.174 76.0404 182.268 76.4604L182.044 76.4044L182.142 76.1664C182.244 75.9517 182.384 75.7511 182.562 75.5644C182.748 75.3684 182.958 75.1957 183.192 75.0464C183.425 74.8971 183.672 74.7804 183.934 74.6964C184.195 74.6124 184.452 74.5704 184.704 74.5704C185.254 74.5704 185.707 74.6824 186.062 74.9064C186.426 75.1304 186.696 75.4711 186.874 75.9284C187.06 76.3857 187.154 76.9551 187.154 77.6364V82.0464H185.698V77.7204C185.698 77.3004 185.642 76.9597 185.53 76.6984C185.427 76.4277 185.268 76.2271 185.054 76.0964C184.839 75.9657 184.564 75.9004 184.228 75.9004C183.966 75.9004 183.719 75.9471 183.486 76.0404C183.262 76.1244 183.066 76.2457 182.898 76.4044C182.73 76.5631 182.599 76.7497 182.506 76.9644C182.412 77.1697 182.366 77.3984 182.366 77.6504V82.0464H180.91V77.6924C180.91 77.3097 180.854 76.9877 180.742 76.7264C180.63 76.4557 180.466 76.2504 180.252 76.1104C180.037 75.9704 179.776 75.9004 179.468 75.9004C179.206 75.9004 178.964 75.9471 178.74 76.0404C178.516 76.1244 178.32 76.2457 178.152 76.4044C177.984 76.5537 177.853 76.7357 177.76 76.9504C177.666 77.1557 177.62 77.3797 177.62 77.6224V82.0464H176.164ZM192.296 82.1864C191.577 82.1864 190.933 82.0231 190.364 81.6964C189.804 81.3604 189.361 80.9077 189.034 80.3384C188.707 79.7597 188.544 79.1017 188.544 78.3644C188.544 77.6271 188.707 76.9737 189.034 76.4044C189.361 75.8257 189.804 75.3731 190.364 75.0464C190.933 74.7104 191.577 74.5424 192.296 74.5424C193.005 74.5424 193.64 74.7104 194.2 75.0464C194.769 75.3731 195.217 75.8257 195.544 76.4044C195.871 76.9737 196.034 77.6271 196.034 78.3644C196.034 79.1017 195.871 79.7597 195.544 80.3384C195.217 80.9077 194.769 81.3604 194.2 81.6964C193.64 82.0231 193.005 82.1864 192.296 82.1864ZM192.296 80.8704C192.735 80.8704 193.127 80.7631 193.472 80.5484C193.817 80.3244 194.088 80.0257 194.284 79.6524C194.48 79.2697 194.573 78.8404 194.564 78.3644C194.573 77.8791 194.48 77.4497 194.284 77.0764C194.088 76.6937 193.817 76.3951 193.472 76.1804C193.127 75.9657 192.735 75.8584 192.296 75.8584C191.857 75.8584 191.461 75.9704 191.106 76.1944C190.761 76.4091 190.49 76.7077 190.294 77.0904C190.098 77.4637 190.005 77.8884 190.014 78.3644C190.005 78.8404 190.098 79.2697 190.294 79.6524C190.49 80.0257 190.761 80.3244 191.106 80.5484C191.461 80.7631 191.857 80.8704 192.296 80.8704ZM201.377 82.1864C201.06 82.1864 200.742 82.1351 200.425 82.0324C200.117 81.9297 199.832 81.7944 199.571 81.6264C199.319 81.4491 199.104 81.2577 198.927 81.0524C198.759 80.8377 198.647 80.6231 198.591 80.4084L198.955 80.2124V82.0044H197.513V71.6864H198.955V76.3764L198.731 76.2504C198.778 76.0357 198.88 75.8304 199.039 75.6344C199.198 75.4291 199.398 75.2471 199.641 75.0884C199.893 74.9204 200.164 74.7897 200.453 74.6964C200.742 74.5937 201.036 74.5424 201.335 74.5424C201.998 74.5424 202.586 74.7057 203.099 75.0324C203.612 75.3591 204.018 75.8117 204.317 76.3904C204.616 76.9597 204.765 77.6131 204.765 78.3504C204.765 79.0877 204.616 79.7457 204.317 80.3244C204.028 80.9031 203.626 81.3604 203.113 81.6964C202.6 82.0231 202.021 82.1864 201.377 82.1864ZM201.139 80.8704C201.568 80.8704 201.951 80.7631 202.287 80.5484C202.623 80.3244 202.889 80.0257 203.085 79.6524C203.281 79.2697 203.379 78.8357 203.379 78.3504C203.379 77.8744 203.281 77.4497 203.085 77.0764C202.898 76.6937 202.637 76.3951 202.301 76.1804C201.965 75.9657 201.578 75.8584 201.139 75.8584C200.7 75.8584 200.313 75.9657 199.977 76.1804C199.641 76.3951 199.375 76.6937 199.179 77.0764C198.983 77.4497 198.885 77.8744 198.885 78.3504C198.885 78.8357 198.983 79.2697 199.179 79.6524C199.375 80.0257 199.641 80.3244 199.977 80.5484C200.313 80.7631 200.7 80.8704 201.139 80.8704ZM206.477 82.0464V74.6964H207.919V82.0464H206.477ZM207.177 73.0724C206.869 73.0724 206.631 72.9931 206.463 72.8344C206.295 72.6757 206.211 72.4517 206.211 72.1624C206.211 71.8917 206.295 71.6724 206.463 71.5044C206.64 71.3364 206.878 71.2524 207.177 71.2524C207.485 71.2524 207.723 71.3317 207.891 71.4904C208.059 71.6491 208.143 71.8731 208.143 72.1624C208.143 72.4331 208.054 72.6524 207.877 72.8204C207.709 72.9884 207.476 73.0724 207.177 73.0724ZM210.071 82.0464V71.6864H211.513V82.0464H210.071ZM216.758 82.1864C216.002 82.1864 215.33 82.0277 214.742 81.7104C214.163 81.3837 213.706 80.9404 213.37 80.3804C213.043 79.8204 212.88 79.1764 212.88 78.4484C212.88 77.8697 212.973 77.3424 213.16 76.8664C213.346 76.3904 213.603 75.9797 213.93 75.6344C214.266 75.2797 214.662 75.0091 215.12 74.8224C215.586 74.6264 216.09 74.5284 216.632 74.5284C217.108 74.5284 217.551 74.6217 217.962 74.8084C218.372 74.9857 218.727 75.2331 219.026 75.5504C219.334 75.8677 219.567 76.2457 219.726 76.6844C219.894 77.1137 219.973 77.5851 219.964 78.0984L219.95 78.7144H213.944L213.622 77.5664H218.704L218.494 77.8044V77.4684C218.466 77.1604 218.363 76.8851 218.186 76.6424C218.008 76.3997 217.784 76.2084 217.514 76.0684C217.243 75.9284 216.949 75.8584 216.632 75.8584C216.128 75.8584 215.703 75.9564 215.358 76.1524C215.012 76.3391 214.751 76.6191 214.574 76.9924C214.396 77.3564 214.308 77.8091 214.308 78.3504C214.308 78.8637 214.415 79.3117 214.63 79.6944C214.844 80.0677 215.148 80.3571 215.54 80.5624C215.932 80.7677 216.384 80.8704 216.898 80.8704C217.262 80.8704 217.598 80.8097 217.906 80.6884C218.223 80.5671 218.564 80.3477 218.928 80.0304L219.656 81.0524C219.432 81.2764 219.156 81.4724 218.83 81.6404C218.512 81.8084 218.172 81.9437 217.808 82.0464C217.453 82.1397 217.103 82.1864 216.758 82.1864Z" fill="#495057"/>
<path d="M26.6307 137.453C26.7928 138.132 26.9037 138.832 26.9591 139.548L26.5702 139.578C26.5966 139.918 26.61 140.262 26.61 140.609C26.61 140.956 26.5966 141.3 26.5702 141.641L26.9591 141.671C26.9037 142.386 26.7928 143.086 26.6307 143.766L26.2513 143.676C26.0904 144.35 25.8776 145.005 25.6173 145.635L25.9777 145.784C25.7059 146.442 25.3837 147.074 25.0161 147.674L24.6834 147.471C24.3235 148.059 23.9188 148.616 23.4739 149.139L23.7708 149.392C23.3116 149.931 22.8108 150.433 22.2736 150.894L22.0196 150.598C21.4988 151.045 20.9426 151.451 20.356 151.813L20.5606 152.145C19.9607 152.515 19.3299 152.839 18.6728 153.112L18.523 152.752C17.8937 153.014 17.2396 153.228 16.5653 153.39L16.6564 153.769C15.9766 153.932 15.2769 154.044 14.5615 154.1L14.5312 153.711C14.191 153.737 13.8471 153.751 13.5 153.751C13.1529 153.751 12.809 153.737 12.4688 153.711L12.4385 154.1C11.7231 154.044 11.0234 153.932 10.3436 153.769L10.4347 153.39C9.76039 153.228 9.10635 153.014 8.47704 152.752L8.3272 153.112C7.67014 152.839 7.03927 152.515 6.43944 152.145L6.64404 151.813C6.05738 151.451 5.50121 151.045 4.98036 150.598L4.72643 150.894C4.18916 150.433 3.68843 149.931 3.2292 149.392L3.52608 149.139C3.08121 148.616 2.67645 148.059 2.31659 147.471L1.98393 147.674C1.61629 147.074 1.29413 146.442 1.02225 145.784L1.38269 145.635C1.1224 145.005 0.909576 144.35 0.748691 143.676L0.369324 143.766C0.207218 143.086 0.0963145 142.386 0.0409261 141.671L0.429763 141.641C0.403422 141.3 0.39 140.956 0.39 140.609C0.39 140.262 0.403422 139.918 0.429762 139.578L0.0409259 139.548C0.0963141 138.832 0.207217 138.132 0.369323 137.453L0.74869 137.543C0.909576 136.868 1.1224 136.214 1.38269 135.584L1.02225 135.435C1.29413 134.777 1.61629 134.145 1.98393 133.544L2.31659 133.748C2.67645 133.16 3.08121 132.602 3.52608 132.08L3.22921 131.827C3.68843 131.288 4.18916 130.785 4.72643 130.325L4.98036 130.621C5.50121 130.174 6.05737 129.767 6.64404 129.406L6.43944 129.074C7.03927 128.704 7.67013 128.38 8.3272 128.107L8.47704 128.467C9.10635 128.205 9.76039 127.991 10.4347 127.829L10.3436 127.449C11.0234 127.286 11.7231 127.175 12.4385 127.119L12.4688 127.508C12.809 127.481 13.1529 127.468 13.5 127.468C13.8471 127.468 14.191 127.481 14.5312 127.508L14.5615 127.119C15.2769 127.175 15.9766 127.286 16.6564 127.449L16.5653 127.829C17.2396 127.991 17.8936 128.205 18.523 128.467L18.6728 128.107C19.3299 128.38 19.9607 128.704 20.5606 129.074L20.356 129.406C20.9426 129.767 21.4988 130.174 22.0196 130.621L22.2736 130.325C22.8108 130.785 23.3116 131.288 23.7708 131.827L23.4739 132.08C23.9188 132.602 24.3235 133.16 24.6834 133.748L25.0161 133.544C25.3837 134.145 25.7059 134.777 25.9777 135.435L25.6173 135.584C25.8776 136.214 26.0904 136.868 26.2513 137.543L26.6307 137.453Z" stroke="#99A0A7" stroke-width="0.78" stroke-dasharray="2 2"/>
<path d="M13.3226 145.208C12.6812 145.208 12.1222 145.06 11.6456 144.766C11.1776 144.471 10.7356 143.977 10.3196 143.284L11.4116 142.595C11.6282 142.915 11.8406 143.18 12.0486 143.388C12.2652 143.587 12.4862 143.734 12.7116 143.83C12.9369 143.925 13.1752 143.973 13.4266 143.973C13.7299 143.973 14.0116 143.899 14.2716 143.752C14.5316 143.596 14.7396 143.383 14.8956 143.115C15.0516 142.846 15.1296 142.543 15.1296 142.205C15.1296 141.867 15.0689 141.581 14.9476 141.347C14.8262 141.104 14.6486 140.922 14.4146 140.801C14.1806 140.671 13.9032 140.606 13.5826 140.606C13.4352 140.606 13.2792 140.623 13.1146 140.658C12.9586 140.684 12.7896 140.727 12.6076 140.788C12.4256 140.84 12.2262 140.909 12.0096 140.996L11.6196 139.969L14.4276 136.875L14.7006 137.278H10.8266V135.978H16.0396L16.2996 136.498L13.3226 139.8L12.9976 139.462C13.0669 139.427 13.1796 139.397 13.3356 139.371C13.5002 139.336 13.6346 139.319 13.7386 139.319C14.1199 139.319 14.4752 139.392 14.8046 139.54C15.1426 139.678 15.4329 139.878 15.6756 140.138C15.9269 140.389 16.1219 140.688 16.2606 141.035C16.4079 141.373 16.4816 141.737 16.4816 142.127C16.4816 142.716 16.3386 143.245 16.0526 143.713C15.7752 144.172 15.3982 144.536 14.9216 144.805C14.4449 145.073 13.9119 145.208 13.3226 145.208Z" fill="#99A0A7"/>
<path d="M44.256 145.109L40.336 135.309H42.058L44.396 141.259C44.508 141.549 44.606 141.81 44.69 142.043C44.7833 142.277 44.8627 142.491 44.928 142.687C44.9933 142.874 45.054 143.051 45.11 143.219C45.166 143.387 45.222 143.555 45.278 143.723L44.914 143.737C44.9793 143.513 45.0493 143.28 45.124 143.037C45.1987 142.795 45.2827 142.529 45.376 142.239C45.4787 141.95 45.6 141.623 45.74 141.259L47.91 135.309H49.674L45.726 145.109H44.256ZM53.5195 145.249C52.7635 145.249 52.0915 145.091 51.5035 144.773C50.9249 144.447 50.4675 144.003 50.1315 143.443C49.8049 142.883 49.6415 142.239 49.6415 141.511C49.6415 140.933 49.7349 140.405 49.9215 139.929C50.1082 139.453 50.3649 139.043 50.6915 138.697C51.0275 138.343 51.4242 138.072 51.8815 137.885C52.3482 137.689 52.8522 137.591 53.3935 137.591C53.8695 137.591 54.3129 137.685 54.7235 137.871C55.1342 138.049 55.4889 138.296 55.7875 138.613C56.0955 138.931 56.3289 139.309 56.4875 139.747C56.6555 140.177 56.7349 140.648 56.7255 141.161L56.7115 141.777H50.7055L50.3835 140.629H55.4655L55.2555 140.867V140.531C55.2275 140.223 55.1249 139.948 54.9475 139.705C54.7702 139.463 54.5462 139.271 54.2755 139.131C54.0049 138.991 53.7109 138.921 53.3935 138.921C52.8895 138.921 52.4649 139.019 52.1195 139.215C51.7742 139.402 51.5129 139.682 51.3355 140.055C51.1582 140.419 51.0695 140.872 51.0695 141.413C51.0695 141.927 51.1769 142.375 51.3915 142.757C51.6062 143.131 51.9095 143.42 52.3015 143.625C52.6935 143.831 53.1462 143.933 53.6595 143.933C54.0235 143.933 54.3595 143.873 54.6675 143.751C54.9849 143.63 55.3255 143.411 55.6895 143.093L56.4175 144.115C56.1935 144.339 55.9182 144.535 55.5915 144.703C55.2742 144.871 54.9335 145.007 54.5695 145.109C54.2149 145.203 53.8649 145.249 53.5195 145.249ZM58.2003 145.109V137.759H59.6563V140.069L59.5163 139.509C59.619 139.155 59.7917 138.833 60.0343 138.543C60.2863 138.254 60.571 138.025 60.8883 137.857C61.215 137.689 61.551 137.605 61.8963 137.605C62.055 137.605 62.2043 137.619 62.3443 137.647C62.4937 137.675 62.6103 137.708 62.6943 137.745L62.3163 139.313C62.2043 139.267 62.0783 139.229 61.9383 139.201C61.8077 139.164 61.677 139.145 61.5463 139.145C61.2943 139.145 61.0517 139.197 60.8183 139.299C60.5943 139.393 60.3937 139.528 60.2163 139.705C60.0483 139.873 59.913 140.074 59.8103 140.307C59.7077 140.531 59.6563 140.779 59.6563 141.049V145.109H58.2003ZM63.9925 145.109V137.759H65.4345V145.109H63.9925ZM64.6925 136.135C64.3845 136.135 64.1465 136.056 63.9785 135.897C63.8105 135.739 63.7265 135.515 63.7265 135.225C63.7265 134.955 63.8105 134.735 63.9785 134.567C64.1558 134.399 64.3938 134.315 64.6925 134.315C65.0005 134.315 65.2385 134.395 65.4065 134.553C65.5745 134.712 65.6585 134.936 65.6585 135.225C65.6585 135.496 65.5698 135.715 65.3925 135.883C65.2245 136.051 64.9912 136.135 64.6925 136.135ZM68.3567 145.109V136.933C68.3567 136.513 68.45 136.14 68.6367 135.813C68.8234 135.487 69.08 135.23 69.4067 135.043C69.7334 134.857 70.1114 134.763 70.5407 134.763C70.8394 134.763 71.1194 134.819 71.3807 134.931C71.642 135.043 71.852 135.193 72.0107 135.379L71.5207 136.485C71.3994 136.373 71.264 136.285 71.1147 136.219C70.9747 136.145 70.8394 136.107 70.7087 136.107C70.5127 136.107 70.3447 136.14 70.2047 136.205C70.074 136.261 69.976 136.355 69.9107 136.485C69.8454 136.607 69.8127 136.756 69.8127 136.933V145.109H69.0847C68.9634 145.109 68.842 145.109 68.7207 145.109C68.5994 145.109 68.478 145.109 68.3567 145.109ZM67.1807 139.215V137.885H71.5487V139.215H67.1807ZM73.2987 145.109V137.759H74.7407V145.109H73.2987ZM73.9987 136.135C73.6907 136.135 73.4527 136.056 73.2847 135.897C73.1167 135.739 73.0327 135.515 73.0327 135.225C73.0327 134.955 73.1167 134.735 73.2847 134.567C73.462 134.399 73.7 134.315 73.9987 134.315C74.3067 134.315 74.5447 134.395 74.7127 134.553C74.8807 134.712 74.9647 134.936 74.9647 135.225C74.9647 135.496 74.876 135.715 74.6987 135.883C74.5307 136.051 74.2974 136.135 73.9987 136.135ZM79.981 145.249C79.2996 145.249 78.6883 145.081 78.147 144.745C77.615 144.409 77.1903 143.952 76.873 143.373C76.565 142.795 76.411 142.146 76.411 141.427C76.411 140.709 76.565 140.06 76.873 139.481C77.1903 138.903 77.615 138.445 78.147 138.109C78.6883 137.773 79.2996 137.605 79.981 137.605C80.6343 137.605 81.227 137.741 81.759 138.011C82.3003 138.273 82.711 138.632 82.991 139.089L82.193 140.069C82.0436 139.855 81.8523 139.659 81.619 139.481C81.3856 139.304 81.1383 139.164 80.877 139.061C80.6156 138.959 80.3636 138.907 80.121 138.907C79.673 138.907 79.2716 139.019 78.917 139.243C78.5716 139.458 78.2963 139.757 78.091 140.139C77.8856 140.522 77.783 140.951 77.783 141.427C77.783 141.903 77.8903 142.333 78.105 142.715C78.3196 143.089 78.6043 143.387 78.959 143.611C79.3136 143.835 79.7056 143.947 80.135 143.947C80.387 143.947 80.6296 143.905 80.863 143.821C81.1056 143.737 81.339 143.611 81.563 143.443C81.787 143.275 81.997 143.07 82.193 142.827L82.991 143.807C82.6923 144.227 82.263 144.573 81.703 144.843C81.1523 145.114 80.5783 145.249 79.981 145.249ZM87.0868 145.249C86.4802 145.249 85.9248 145.081 85.4208 144.745C84.9262 144.409 84.5295 143.952 84.2308 143.373C83.9322 142.795 83.7828 142.141 83.7828 141.413C83.7828 140.676 83.9322 140.023 84.2308 139.453C84.5388 138.875 84.9495 138.422 85.4628 138.095C85.9855 137.769 86.5688 137.605 87.2128 137.605C87.5955 137.605 87.9455 137.661 88.2628 137.773C88.5802 137.885 88.8555 138.044 89.0888 138.249C89.3315 138.445 89.5275 138.674 89.6768 138.935C89.8355 139.197 89.9335 139.477 89.9708 139.775L89.6488 139.663V137.759H91.1048V145.109H89.6488V143.359L89.9848 143.261C89.9288 143.513 89.8122 143.761 89.6348 144.003C89.4668 144.237 89.2475 144.447 88.9768 144.633C88.7155 144.82 88.4215 144.969 88.0948 145.081C87.7775 145.193 87.4415 145.249 87.0868 145.249ZM87.4648 143.919C87.9035 143.919 88.2908 143.812 88.6268 143.597C88.9628 143.383 89.2242 143.089 89.4108 142.715C89.6068 142.333 89.7048 141.899 89.7048 141.413C89.7048 140.937 89.6068 140.513 89.4108 140.139C89.2242 139.766 88.9628 139.472 88.6268 139.257C88.2908 139.043 87.9035 138.935 87.4648 138.935C87.0355 138.935 86.6528 139.043 86.3168 139.257C85.9902 139.472 85.7288 139.766 85.5328 140.139C85.3462 140.513 85.2528 140.937 85.2528 141.413C85.2528 141.899 85.3462 142.333 85.5328 142.715C85.7288 143.089 85.9902 143.383 86.3168 143.597C86.6528 143.812 87.0355 143.919 87.4648 143.919ZM93.9359 145.109V135.883H95.3779V145.109H93.9359ZM92.4099 139.159V137.759H97.0859V139.159H92.4099ZM98.5446 145.109V137.759H99.9866V145.109H98.5446ZM99.2446 136.135C98.9366 136.135 98.6986 136.056 98.5306 135.897C98.3626 135.739 98.2786 135.515 98.2786 135.225C98.2786 134.955 98.3626 134.735 98.5306 134.567C98.708 134.399 98.946 134.315 99.2446 134.315C99.5526 134.315 99.7906 134.395 99.9586 134.553C100.127 134.712 100.211 134.936 100.211 135.225C100.211 135.496 100.122 135.715 99.9446 135.883C99.7766 136.051 99.5433 136.135 99.2446 136.135ZM105.415 145.249C104.696 145.249 104.052 145.086 103.483 144.759C102.923 144.423 102.479 143.971 102.153 143.401C101.826 142.823 101.663 142.165 101.663 141.427C101.663 140.69 101.826 140.037 102.153 139.467C102.479 138.889 102.923 138.436 103.483 138.109C104.052 137.773 104.696 137.605 105.415 137.605C106.124 137.605 106.759 137.773 107.319 138.109C107.888 138.436 108.336 138.889 108.663 139.467C108.989 140.037 109.153 140.69 109.153 141.427C109.153 142.165 108.989 142.823 108.663 143.401C108.336 143.971 107.888 144.423 107.319 144.759C106.759 145.086 106.124 145.249 105.415 145.249ZM105.415 143.933C105.853 143.933 106.245 143.826 106.591 143.611C106.936 143.387 107.207 143.089 107.403 142.715C107.599 142.333 107.692 141.903 107.683 141.427C107.692 140.942 107.599 140.513 107.403 140.139C107.207 139.757 106.936 139.458 106.591 139.243C106.245 139.029 105.853 138.921 105.415 138.921C104.976 138.921 104.579 139.033 104.225 139.257C103.879 139.472 103.609 139.771 103.413 140.153C103.217 140.527 103.123 140.951 103.133 141.427C103.123 141.903 103.217 142.333 103.413 142.715C103.609 143.089 103.879 143.387 104.225 143.611C104.579 143.826 104.976 143.933 105.415 143.933ZM110.632 145.109V137.759H112.074V139.271L111.822 139.439C111.915 139.113 112.097 138.814 112.368 138.543C112.638 138.263 112.96 138.039 113.334 137.871C113.707 137.694 114.09 137.605 114.482 137.605C115.042 137.605 115.508 137.717 115.882 137.941C116.255 138.156 116.535 138.487 116.722 138.935C116.908 139.383 117.002 139.948 117.002 140.629V145.109H115.56V140.727C115.56 140.307 115.504 139.962 115.392 139.691C115.28 139.411 115.107 139.211 114.874 139.089C114.64 138.959 114.351 138.903 114.006 138.921C113.726 138.921 113.469 138.968 113.236 139.061C113.002 139.145 112.797 139.267 112.62 139.425C112.452 139.584 112.316 139.771 112.214 139.985C112.12 140.191 112.074 140.415 112.074 140.657V145.109H111.36C111.238 145.109 111.117 145.109 110.996 145.109C110.874 145.109 110.753 145.109 110.632 145.109ZM127.037 145.249C126.356 145.249 125.731 145.128 125.161 144.885C124.592 144.643 124.097 144.297 123.677 143.849C123.257 143.392 122.931 142.855 122.697 142.239C122.473 141.623 122.361 140.947 122.361 140.209C122.361 139.509 122.483 138.861 122.725 138.263C122.977 137.657 123.323 137.125 123.761 136.667C124.2 136.21 124.709 135.855 125.287 135.603C125.866 135.351 126.491 135.225 127.163 135.225C127.639 135.225 128.101 135.3 128.549 135.449C129.007 135.589 129.417 135.79 129.781 136.051C130.155 136.303 130.458 136.593 130.691 136.919L129.683 137.969C129.413 137.699 129.137 137.475 128.857 137.297C128.587 137.111 128.307 136.971 128.017 136.877C127.737 136.784 127.453 136.737 127.163 136.737C126.706 136.737 126.277 136.826 125.875 137.003C125.483 137.171 125.138 137.409 124.839 137.717C124.55 138.025 124.321 138.394 124.153 138.823C123.985 139.243 123.901 139.705 123.901 140.209C123.901 140.741 123.981 141.227 124.139 141.665C124.307 142.095 124.541 142.463 124.839 142.771C125.138 143.079 125.493 143.317 125.903 143.485C126.323 143.644 126.785 143.723 127.289 143.723C127.597 143.723 127.901 143.681 128.199 143.597C128.498 143.513 128.778 143.392 129.039 143.233C129.301 143.075 129.539 142.888 129.753 142.673L130.509 143.905C130.295 144.157 130.001 144.386 129.627 144.591C129.263 144.797 128.853 144.96 128.395 145.081C127.947 145.193 127.495 145.249 127.037 145.249ZM135.411 145.249C134.692 145.249 134.048 145.086 133.479 144.759C132.919 144.423 132.475 143.971 132.149 143.401C131.822 142.823 131.659 142.165 131.659 141.427C131.659 140.69 131.822 140.037 132.149 139.467C132.475 138.889 132.919 138.436 133.479 138.109C134.048 137.773 134.692 137.605 135.411 137.605C136.12 137.605 136.755 137.773 137.315 138.109C137.884 138.436 138.332 138.889 138.659 139.467C138.985 140.037 139.149 140.69 139.149 141.427C139.149 142.165 138.985 142.823 138.659 143.401C138.332 143.971 137.884 144.423 137.315 144.759C136.755 145.086 136.12 145.249 135.411 145.249ZM135.411 143.933C135.849 143.933 136.241 143.826 136.587 143.611C136.932 143.387 137.203 143.089 137.399 142.715C137.595 142.333 137.688 141.903 137.679 141.427C137.688 140.942 137.595 140.513 137.399 140.139C137.203 139.757 136.932 139.458 136.587 139.243C136.241 139.029 135.849 138.921 135.411 138.921C134.972 138.921 134.575 139.033 134.221 139.257C133.875 139.472 133.605 139.771 133.409 140.153C133.213 140.527 133.119 140.951 133.129 141.427C133.119 141.903 133.213 142.333 133.409 142.715C133.605 143.089 133.875 143.387 134.221 143.611C134.575 143.826 134.972 143.933 135.411 143.933ZM143.694 145.249C143.022 145.249 142.42 145.086 141.888 144.759C141.365 144.423 140.95 143.971 140.642 143.401C140.334 142.823 140.18 142.165 140.18 141.427C140.18 140.69 140.329 140.037 140.628 139.467C140.936 138.889 141.351 138.436 141.874 138.109C142.396 137.773 142.989 137.605 143.652 137.605C144.016 137.605 144.366 137.666 144.702 137.787C145.047 137.899 145.355 138.058 145.626 138.263C145.896 138.459 146.106 138.679 146.256 138.921C146.414 139.155 146.494 139.393 146.494 139.635L146.074 139.663V134.749H147.516V145.109H146.074V143.359H146.354C146.354 143.583 146.279 143.807 146.13 144.031C145.98 144.246 145.78 144.447 145.528 144.633C145.285 144.82 145 144.969 144.674 145.081C144.356 145.193 144.03 145.249 143.694 145.249ZM143.89 144.003C144.328 144.003 144.716 143.891 145.052 143.667C145.388 143.443 145.649 143.14 145.836 142.757C146.032 142.365 146.13 141.922 146.13 141.427C146.13 140.933 146.032 140.494 145.836 140.111C145.649 139.719 145.388 139.411 145.052 139.187C144.716 138.963 144.328 138.851 143.89 138.851C143.451 138.851 143.064 138.963 142.728 139.187C142.392 139.411 142.126 139.719 141.93 140.111C141.743 140.494 141.65 140.933 141.65 141.427C141.65 141.922 141.743 142.365 141.93 142.757C142.126 143.14 142.392 143.443 142.728 143.667C143.064 143.891 143.451 144.003 143.89 144.003ZM152.839 145.249C152.083 145.249 151.411 145.091 150.823 144.773C150.244 144.447 149.787 144.003 149.451 143.443C149.124 142.883 148.961 142.239 148.961 141.511C148.961 140.933 149.054 140.405 149.241 139.929C149.427 139.453 149.684 139.043 150.011 138.697C150.347 138.343 150.743 138.072 151.201 137.885C151.667 137.689 152.171 137.591 152.713 137.591C153.189 137.591 153.632 137.685 154.043 137.871C154.453 138.049 154.808 138.296 155.107 138.613C155.415 138.931 155.648 139.309 155.807 139.747C155.975 140.177 156.054 140.648 156.045 141.161L156.031 141.777H150.025L149.703 140.629H154.785L154.575 140.867V140.531C154.547 140.223 154.444 139.948 154.267 139.705C154.089 139.463 153.865 139.271 153.595 139.131C153.324 138.991 153.03 138.921 152.713 138.921C152.209 138.921 151.784 139.019 151.439 139.215C151.093 139.402 150.832 139.682 150.655 140.055C150.477 140.419 150.389 140.872 150.389 141.413C150.389 141.927 150.496 142.375 150.711 142.757C150.925 143.131 151.229 143.42 151.621 143.625C152.013 143.831 152.465 143.933 152.979 143.933C153.343 143.933 153.679 143.873 153.987 143.751C154.304 143.63 154.645 143.411 155.009 143.093L155.737 144.115C155.513 144.339 155.237 144.535 154.911 144.703C154.593 144.871 154.253 145.007 153.889 145.109C153.534 145.203 153.184 145.249 152.839 145.249Z" fill="#495057"/>
<line x1="13.5" y1="27.9512" x2="13.5" y2="64.9512" stroke="#1ED760"/>
<line x1="13.39" y1="90.9512" x2="13.39" y2="126.951" stroke="#99A0A7" stroke-width="0.78" stroke-dasharray="2 2"/>
</svg>
