<svg width="18" height="18" viewBox="0 0 18 18" fill="none" xmlns="http://www.w3.org/2000/svg">
<path fill-rule="evenodd" clip-rule="evenodd" d="M16.2124 13.6778L9.01815 6.83964L1.79197 13.7081C1.37886 14.1008 0.721778 14.1007 0.287487 13.6871C-0.104033 13.2922 -0.0944542 12.6613 0.308879 12.2779L7.52063 5.41624L9.01791 4L10.5084 5.42313C15.3047 9.98227 17.7063 12.2654 17.7133 12.2724C18.1038 12.6663 18.0942 13.2955 17.6919 13.6779C17.2798 14.0695 16.6245 14.0695 16.2124 13.6778Z" fill="url(#paint0_linear_614_7154)"/>
<mask id="mask0_614_7154" style="mask-type:luminance" maskUnits="userSpaceOnUse" x="0" y="4" width="18" height="10">
<path fill-rule="evenodd" clip-rule="evenodd" d="M16.2124 13.6778L9.01815 6.83964L1.79197 13.7081C1.37886 14.1008 0.721778 14.1007 0.287487 13.6871C-0.104033 13.2922 -0.0944542 12.6613 0.308879 12.2779L7.52063 5.41624L9.01791 4L10.5084 5.42313C15.3047 9.98227 17.7063 12.2654 17.7133 12.2724C18.1038 12.6663 18.0942 13.2955 17.6919 13.6779C17.2798 14.0695 16.6245 14.0695 16.2124 13.6778Z" fill="white"/>
</mask>
<g mask="url(#mask0_614_7154)">
</g>
<defs>
<linearGradient id="paint0_linear_614_7154" x1="18" y1="9" x2="-2.18557e-07" y2="9" gradientUnits="userSpaceOnUse">
<stop stop-color="#1166BF"/>
<stop offset="1" stop-color="#23388E"/>
</linearGradient>
</defs>
</svg>
