<svg width="35" height="33" viewBox="0 0 35 33" fill="none" xmlns="http://www.w3.org/2000/svg">
<rect x="0.5" y="0.730469" width="31.5433" height="31.54" rx="15.77" fill="#EBF1FF"/>
<path d="M19.4999 29.1673C17.7131 29.1673 16.0339 28.8283 14.4624 28.1501C12.8909 27.472 11.5239 26.5517 10.3614 25.3892C9.19888 24.2267 8.27856 22.8597 7.60044 21.2882C6.92231 19.7166 6.58325 18.0375 6.58325 16.2507C6.58325 14.4638 6.92231 12.7847 7.60044 11.2132C8.27856 9.64162 9.19888 8.27461 10.3614 7.11211C11.5239 5.94961 12.8909 5.0293 14.4624 4.35117C16.0339 3.67305 17.7131 3.33398 19.4999 3.33398C21.2867 3.33398 22.9659 3.67305 24.5374 4.35117C26.1089 5.0293 27.476 5.94961 28.6385 7.11211C29.801 8.27461 30.7213 9.64162 31.3994 11.2132C32.0775 12.7847 32.4166 14.4638 32.4166 16.2507V17.9621C32.4166 19.1677 31.9914 20.1849 31.1411 21.0137C30.2907 21.8425 29.252 22.2569 28.0249 22.2569C27.2499 22.2569 26.518 22.0685 25.8291 21.6918C25.1402 21.3151 24.6128 20.7822 24.2468 20.0934C23.6871 20.8253 22.9874 21.3689 22.1478 21.7241C21.3083 22.0793 20.4256 22.2569 19.4999 22.2569C17.8208 22.2569 16.3945 21.6756 15.2213 20.5132C14.048 19.3507 13.4614 17.9298 13.4614 16.2507C13.4614 14.5715 14.048 13.1399 15.2213 11.9559C16.3945 10.7718 17.8208 10.1798 19.4999 10.1798C21.1791 10.1798 22.6053 10.7718 23.7786 11.9559C24.9518 13.1399 25.5385 14.5715 25.5385 16.2507V17.9621C25.5385 18.6295 25.7806 19.1892 26.265 19.6413C26.7494 20.0934 27.336 20.3194 28.0249 20.3194C28.6923 20.3194 29.2681 20.0934 29.7525 19.6413C30.2369 19.1892 30.4791 18.6295 30.4791 17.9621V16.2507C30.4791 13.1937 29.4135 10.5996 27.2822 8.46836C25.151 6.33711 22.5569 5.27148 19.4999 5.27148C16.443 5.27148 13.8489 6.33711 11.7176 8.46836C9.58638 10.5996 8.52075 13.1937 8.52075 16.2507C8.52075 19.3076 9.58638 21.9017 11.7176 24.0329C13.8489 26.1642 16.443 27.2298 19.4999 27.2298H25.4416C25.7214 27.2298 25.9529 27.3213 26.1359 27.5043C26.3188 27.6873 26.4103 27.9187 26.4103 28.1986C26.4103 28.4784 26.3188 28.7099 26.1359 28.8928C25.9529 29.0758 25.7214 29.1673 25.4416 29.1673H19.4999ZM19.4999 20.3194C20.6409 20.3194 21.6096 19.9265 22.4062 19.1408C23.2027 18.355 23.601 17.3916 23.601 16.2507C23.601 15.0882 23.2027 14.1086 22.4062 13.3121C21.6096 12.5156 20.6409 12.1173 19.4999 12.1173C18.3589 12.1173 17.3902 12.5156 16.5937 13.3121C15.7971 14.1086 15.3989 15.0882 15.3989 16.2507C15.3989 17.3916 15.7971 18.355 16.5937 19.1408C17.3902 19.9265 18.3589 20.3194 19.4999 20.3194Z" fill="url(#paint0_linear_614_3533)"/>
<defs>
<linearGradient id="paint0_linear_614_3533" x1="19.4999" y1="3.33398" x2="19.4999" y2="29.1673" gradientUnits="userSpaceOnUse">
<stop stop-color="#1166BF"/>
<stop offset="1" stop-color="#23388E"/>
</linearGradient>
</defs>
</svg>
