<svg width="36" height="30" viewBox="0 0 36 30" fill="none" xmlns="http://www.w3.org/2000/svg">
<g clip-path="url(#clip0_383_950)">
<path fill-rule="evenodd" clip-rule="evenodd" d="M24.8391 19.9217H31.6969V0.904275H24.84V19.9232L24.8391 19.9217ZM15.7414 0.904275L11.3012 18.6267L6.86172 0.903564H0.00390625L4.76856 19.9225H17.8355L22.5985 0.903564H15.7414V0.904275Z" fill="#ED303B"/>
<path fill-rule="evenodd" clip-rule="evenodd" d="M32.0017 25.8162C32.0017 27.8509 30.3305 29.4999 28.2684 29.4999C26.2063 29.4999 24.5352 27.8509 24.5352 25.8162C24.5352 23.7824 26.2063 22.1326 28.2684 22.1326C30.3305 22.1326 32.0017 23.7816 32.0017 25.8162Z" fill="#FFD300"/>
<path d="M33.2773 2.23224V0.704561H32.6982V0.500284H34.0903V0.704561H33.5095V2.23224H33.2773ZM34.3209 2.23224V0.500142H34.671L35.0861 1.72666C35.1246 1.84087 35.1528 1.92639 35.1698 1.98279C35.1902 1.92 35.221 1.82738 35.2636 1.70507L35.6837 0.5H35.9964V2.2321H35.7727V0.782408L35.262 2.23224H35.0529L34.5446 0.757549V2.23224H34.3209Z" fill="#ED303B"/>
</g>
<defs>
<clipPath id="clip0_383_950">
<rect width="36" height="29" fill="white" transform="translate(0 0.5)"/>
</clipPath>
</defs>
</svg>
